G04 EAGLE Gerber RS-274X export*
G75*
%MOMM*%
%FSLAX34Y34*%
%LPD*%
%INSilkscreen Top*%
%IPPOS*%
%AMOC8*
5,1,8,0,0,1.08239X$1,22.5*%
G01*
%ADD10C,0.152400*%
%ADD11C,0.254000*%
%ADD12C,0.127000*%
%ADD13R,0.060963X0.007622*%
%ADD14R,0.129541X0.007619*%
%ADD15R,0.167637X0.007619*%
%ADD16R,0.198119X0.007622*%
%ADD17R,0.220981X0.007619*%
%ADD18R,0.251459X0.007622*%
%ADD19R,0.266700X0.007619*%
%ADD20R,0.281941X0.007619*%
%ADD21R,0.297181X0.007622*%
%ADD22R,0.312419X0.007619*%
%ADD23R,0.327659X0.007622*%
%ADD24R,0.342900X0.007619*%
%ADD25R,0.358141X0.007619*%
%ADD26R,0.365762X0.007622*%
%ADD27R,0.373381X0.007619*%
%ADD28R,0.045719X0.007619*%
%ADD29R,0.182881X0.007622*%
%ADD30R,0.175259X0.007622*%
%ADD31R,0.129541X0.007622*%
%ADD32R,0.160019X0.007619*%
%ADD33R,0.152400X0.007619*%
%ADD34R,0.182878X0.007619*%
%ADD35R,0.144778X0.007619*%
%ADD36R,0.137159X0.007619*%
%ADD37R,0.220978X0.007619*%
%ADD38R,0.144781X0.007622*%
%ADD39R,0.137159X0.007622*%
%ADD40R,0.297178X0.007622*%
%ADD41R,0.121919X0.007619*%
%ADD42R,0.320041X0.007619*%
%ADD43R,0.015238X0.007619*%
%ADD44R,0.335281X0.007619*%
%ADD45R,0.060963X0.007619*%
%ADD46R,0.121922X0.007622*%
%ADD47R,0.114300X0.007622*%
%ADD48R,0.426719X0.007622*%
%ADD49R,0.121922X0.007619*%
%ADD50R,0.556259X0.007619*%
%ADD51R,0.015241X0.007619*%
%ADD52R,0.624841X0.007622*%
%ADD53R,0.624838X0.007619*%
%ADD54R,0.632459X0.007619*%
%ADD55R,0.632459X0.007622*%
%ADD56R,0.640078X0.007619*%
%ADD57R,0.121919X0.007622*%
%ADD58R,0.228600X0.007622*%
%ADD59R,0.312419X0.007622*%
%ADD60R,0.213359X0.007619*%
%ADD61R,0.289559X0.007619*%
%ADD62R,0.205738X0.007619*%
%ADD63R,0.274319X0.007619*%
%ADD64R,0.205738X0.007622*%
%ADD65R,0.259078X0.007622*%
%ADD66R,0.251459X0.007619*%
%ADD67R,0.213359X0.007622*%
%ADD68R,0.236219X0.007622*%
%ADD69R,0.228600X0.007619*%
%ADD70R,0.144778X0.007622*%
%ADD71R,0.243841X0.007622*%
%ADD72R,0.030478X0.007619*%
%ADD73R,0.152400X0.007622*%
%ADD74R,0.274322X0.007622*%
%ADD75R,0.060959X0.007622*%
%ADD76R,0.160022X0.007619*%
%ADD77R,0.083822X0.007619*%
%ADD78R,0.167641X0.007619*%
%ADD79R,0.091441X0.007619*%
%ADD80R,0.167641X0.007622*%
%ADD81R,0.342900X0.007622*%
%ADD82R,0.106678X0.007622*%
%ADD83R,0.182881X0.007619*%
%ADD84R,0.662941X0.007619*%
%ADD85R,0.106678X0.007619*%
%ADD86R,0.190500X0.007622*%
%ADD87R,0.670559X0.007622*%
%ADD88R,0.205741X0.007619*%
%ADD89R,0.685800X0.007619*%
%ADD90R,0.114300X0.007619*%
%ADD91R,0.693422X0.007619*%
%ADD92R,0.990600X0.007622*%
%ADD93R,0.990600X0.007619*%
%ADD94R,0.434341X0.007622*%
%ADD95R,0.411478X0.007622*%
%ADD96R,0.426722X0.007619*%
%ADD97R,0.388622X0.007619*%
%ADD98R,0.373381X0.007622*%
%ADD99R,0.236222X0.007622*%
%ADD100R,0.243838X0.007619*%
%ADD101R,0.068578X0.007619*%
%ADD102R,0.243838X0.007622*%
%ADD103R,0.259078X0.007619*%
%ADD104R,0.175259X0.007619*%
%ADD105R,0.281938X0.007619*%
%ADD106R,0.053341X0.007619*%
%ADD107R,0.495300X0.007622*%
%ADD108R,0.198122X0.007622*%
%ADD109R,0.495300X0.007619*%
%ADD110R,0.259081X0.007619*%
%ADD111R,0.487678X0.007622*%
%ADD112R,0.205741X0.007622*%
%ADD113R,0.281941X0.007622*%
%ADD114R,0.297178X0.007619*%
%ADD115R,0.335278X0.007622*%
%ADD116R,0.335281X0.007622*%
%ADD117R,0.350519X0.007619*%
%ADD118R,0.358141X0.007622*%
%ADD119R,0.365759X0.007619*%
%ADD120R,0.381000X0.007619*%
%ADD121R,0.220981X0.007622*%
%ADD122R,0.396241X0.007622*%
%ADD123R,0.236222X0.007619*%
%ADD124R,0.182878X0.007622*%
%ADD125R,0.160019X0.007622*%
%ADD126R,0.022859X0.007619*%
%ADD127R,0.144781X0.007619*%
%ADD128R,0.076200X0.007619*%
%ADD129R,0.060959X0.007619*%
%ADD130R,0.487681X0.007622*%
%ADD131R,0.220978X0.007622*%
%ADD132R,0.129537X0.007622*%
%ADD133R,0.480063X0.007619*%
%ADD134R,0.068578X0.007622*%
%ADD135R,0.480063X0.007622*%
%ADD136R,0.099059X0.007619*%
%ADD137R,0.190500X0.007619*%
%ADD138R,0.083822X0.007622*%
%ADD139R,0.320038X0.007622*%
%ADD140R,0.213363X0.007622*%
%ADD141R,0.304800X0.007619*%
%ADD142R,0.243841X0.007619*%
%ADD143R,0.045722X0.007622*%
%ADD144R,0.281938X0.007622*%
%ADD145R,0.289563X0.007622*%
%ADD146R,0.274319X0.007622*%
%ADD147R,0.259081X0.007622*%
%ADD148R,0.297181X0.007619*%
%ADD149R,0.106681X0.007619*%
%ADD150R,0.373378X0.007622*%
%ADD151R,0.099059X0.007622*%
%ADD152R,0.266700X0.007622*%
%ADD153R,0.053341X0.007622*%
%ADD154R,0.198119X0.007619*%
%ADD155R,0.411481X0.007619*%
%ADD156R,0.083819X0.007619*%
%ADD157R,0.167637X0.007622*%
%ADD158R,0.449581X0.007622*%
%ADD159R,0.068581X0.007622*%
%ADD160R,0.160022X0.007622*%
%ADD161R,0.068581X0.007619*%
%ADD162R,0.746759X0.007619*%
%ADD163R,0.769622X0.007622*%
%ADD164R,0.403859X0.007619*%
%ADD165R,0.777238X0.007619*%
%ADD166R,0.045719X0.007622*%
%ADD167R,0.777241X0.007622*%
%ADD168R,0.426719X0.007619*%
%ADD169R,0.434341X0.007619*%
%ADD170R,0.320041X0.007622*%
%ADD171R,0.426722X0.007622*%
%ADD172R,0.137162X0.007622*%
%ADD173R,0.289559X0.007622*%
%ADD174R,0.129537X0.007619*%
%ADD175R,0.213363X0.007619*%
%ADD176R,0.304800X0.007622*%
%ADD177R,0.038100X0.007622*%
%ADD178R,0.457200X0.007619*%
%ADD179R,0.335278X0.007619*%
%ADD180R,0.464819X0.007619*%
%ADD181R,0.022863X0.007619*%
%ADD182R,0.137162X0.007619*%
%ADD183R,0.480059X0.007622*%
%ADD184R,0.502922X0.007619*%
%ADD185R,0.800100X0.007622*%
%ADD186R,0.350522X0.007622*%
%ADD187R,0.381000X0.007622*%
%ADD188R,0.579122X0.007619*%
%ADD189R,0.388619X0.007619*%
%ADD190R,0.579119X0.007619*%
%ADD191R,0.327659X0.007619*%
%ADD192R,0.396241X0.007619*%
%ADD193R,0.579122X0.007622*%
%ADD194R,0.312422X0.007622*%
%ADD195R,0.563881X0.007619*%
%ADD196R,0.038100X0.007619*%
%ADD197R,0.563878X0.007622*%
%ADD198R,0.030481X0.007622*%
%ADD199R,0.563878X0.007619*%
%ADD200R,0.099063X0.007619*%
%ADD201R,0.556262X0.007622*%
%ADD202R,0.099063X0.007622*%
%ADD203R,0.556262X0.007619*%
%ADD204R,0.556259X0.007622*%
%ADD205R,0.236219X0.007619*%
%ADD206R,0.083819X0.007622*%
%ADD207R,0.106681X0.007622*%
%ADD208R,0.518159X0.007622*%
%ADD209R,0.076200X0.007622*%
%ADD210R,0.502919X0.007619*%
%ADD211R,0.502919X0.007622*%
%ADD212R,0.365759X0.007622*%
%ADD213R,0.449581X0.007619*%
%ADD214R,0.487681X0.007619*%
%ADD215R,0.434338X0.007619*%
%ADD216R,0.472441X0.007622*%
%ADD217R,0.419100X0.007622*%
%ADD218R,0.464822X0.007619*%
%ADD219R,0.457200X0.007622*%
%ADD220R,0.030478X0.007622*%
%ADD221R,0.441963X0.007619*%
%ADD222R,0.411478X0.007619*%
%ADD223R,0.091441X0.007622*%
%ADD224R,0.350522X0.007619*%
%ADD225R,0.289563X0.007619*%
%ADD226R,0.030481X0.007619*%
%ADD227R,0.441959X0.007619*%
%ADD228R,0.350519X0.007622*%
%ADD229R,0.525781X0.007619*%
%ADD230R,0.571500X0.007622*%
%ADD231R,0.601978X0.007619*%
%ADD232R,0.632463X0.007619*%
%ADD233R,0.662941X0.007622*%
%ADD234R,0.464822X0.007622*%
%ADD235R,0.678181X0.007619*%
%ADD236R,0.480059X0.007619*%
%ADD237R,0.708659X0.007622*%
%ADD238R,0.640078X0.007622*%
%ADD239R,0.723900X0.007619*%
%ADD240R,0.739138X0.007619*%
%ADD241R,0.419100X0.007619*%
%ADD242R,0.762000X0.007622*%
%ADD243R,0.777241X0.007619*%
%ADD244R,0.792481X0.007622*%
%ADD245R,0.807722X0.007619*%
%ADD246R,0.822959X0.007619*%
%ADD247R,0.838200X0.007622*%
%ADD248R,0.845822X0.007619*%
%ADD249R,0.982978X0.007622*%
%ADD250R,1.066800X0.007619*%
%ADD251R,1.104900X0.007619*%
%ADD252R,1.135381X0.007622*%
%ADD253R,1.165859X0.007619*%
%ADD254R,1.188719X0.007622*%
%ADD255R,1.203963X0.007619*%
%ADD256R,0.358137X0.007619*%
%ADD257R,1.226819X0.007619*%
%ADD258R,1.249681X0.007622*%
%ADD259R,0.175263X0.007622*%
%ADD260R,1.272541X0.007619*%
%ADD261R,1.287781X0.007622*%
%ADD262R,1.303019X0.007619*%
%ADD263R,0.922022X0.007619*%
%ADD264R,1.318259X0.007619*%
%ADD265R,0.929638X0.007619*%
%ADD266R,1.333500X0.007622*%
%ADD267R,0.845819X0.007622*%
%ADD268R,1.348741X0.007619*%
%ADD269R,0.533400X0.007619*%
%ADD270R,1.356363X0.007622*%
%ADD271R,0.525781X0.007622*%
%ADD272R,1.371600X0.007619*%
%ADD273R,1.379219X0.007619*%
%ADD274R,1.386841X0.007622*%
%ADD275R,1.394459X0.007619*%
%ADD276R,1.394459X0.007622*%
%ADD277R,1.409700X0.007619*%
%ADD278R,1.417319X0.007619*%
%ADD279R,1.424937X0.007622*%
%ADD280R,1.424941X0.007619*%
%ADD281R,1.432559X0.007622*%
%ADD282R,1.440181X0.007619*%
%ADD283R,0.487678X0.007619*%
%ADD284R,1.447800X0.007619*%
%ADD285R,1.463041X0.007622*%
%ADD286R,1.470659X0.007619*%
%ADD287R,1.478281X0.007622*%
%ADD288R,1.493522X0.007619*%
%ADD289R,0.312422X0.007619*%
%ADD290R,1.508763X0.007619*%
%ADD291R,1.524000X0.007622*%
%ADD292R,1.554478X0.007619*%
%ADD293R,0.617219X0.007619*%
%ADD294R,2.369819X0.007622*%
%ADD295R,2.377441X0.007619*%
%ADD296R,2.400300X0.007619*%
%ADD297R,2.423159X0.007622*%
%ADD298R,2.430778X0.007619*%
%ADD299R,2.453638X0.007622*%
%ADD300R,0.022859X0.007622*%
%ADD301R,2.461259X0.007619*%
%ADD302R,2.484119X0.007619*%
%ADD303R,2.499359X0.007622*%
%ADD304R,2.514600X0.007619*%
%ADD305R,2.529841X0.007622*%
%ADD306R,2.545078X0.007619*%
%ADD307R,2.560319X0.007619*%
%ADD308R,2.583178X0.007622*%
%ADD309R,2.590800X0.007619*%
%ADD310R,2.613659X0.007622*%
%ADD311R,2.628900X0.007619*%
%ADD312R,2.644138X0.007619*%
%ADD313R,2.659378X0.007622*%
%ADD314R,2.682238X0.007619*%
%ADD315R,2.697478X0.007622*%
%ADD316R,2.720338X0.007619*%
%ADD317R,2.735578X0.007619*%
%ADD318R,2.758438X0.007622*%
%ADD319R,2.766059X0.007619*%
%ADD320R,2.788919X0.007622*%
%ADD321R,2.804159X0.007619*%
%ADD322R,2.827019X0.007619*%
%ADD323R,2.842259X0.007622*%
%ADD324R,2.865119X0.007619*%
%ADD325R,2.887981X0.007622*%
%ADD326R,2.910837X0.007619*%
%ADD327R,2.933700X0.007619*%
%ADD328R,2.948937X0.007622*%
%ADD329R,2.971800X0.007619*%
%ADD330R,2.987038X0.007622*%
%ADD331R,3.009900X0.007619*%
%ADD332R,3.025138X0.007619*%
%ADD333R,3.048000X0.007622*%
%ADD334R,3.063238X0.007619*%
%ADD335R,3.093722X0.007622*%
%ADD336R,3.108959X0.007619*%
%ADD337R,3.131822X0.007619*%
%ADD338R,3.147059X0.007622*%
%ADD339R,3.169922X0.007619*%
%ADD340R,3.192778X0.007622*%
%ADD341R,3.215641X0.007619*%
%ADD342R,3.230878X0.007619*%
%ADD343R,3.246119X0.007622*%
%ADD344R,3.261359X0.007619*%
%ADD345R,3.276600X0.007622*%
%ADD346R,3.291841X0.007619*%
%ADD347R,3.307081X0.007619*%
%ADD348R,3.314700X0.007622*%
%ADD349R,3.322322X0.007619*%
%ADD350R,3.322322X0.007622*%
%ADD351R,3.345181X0.007619*%
%ADD352R,3.368041X0.007619*%
%ADD353R,3.383281X0.007622*%
%ADD354R,3.398519X0.007619*%
%ADD355R,3.413759X0.007622*%
%ADD356R,3.421381X0.007619*%
%ADD357R,3.436619X0.007619*%
%ADD358R,3.451859X0.007622*%
%ADD359R,3.459478X0.007619*%
%ADD360R,3.474719X0.007622*%
%ADD361R,3.482338X0.007619*%
%ADD362R,3.489959X0.007619*%
%ADD363R,3.497578X0.007622*%
%ADD364R,3.505200X0.007619*%
%ADD365R,3.512819X0.007622*%
%ADD366R,3.520438X0.007619*%
%ADD367R,3.528059X0.007619*%
%ADD368R,3.535678X0.007622*%
%ADD369R,3.535678X0.007619*%
%ADD370R,3.543300X0.007622*%
%ADD371R,3.550919X0.007619*%
%ADD372R,3.550919X0.007622*%
%ADD373R,3.558541X0.007619*%
%ADD374R,3.566159X0.007622*%
%ADD375R,3.566159X0.007619*%
%ADD376R,3.573781X0.007619*%
%ADD377R,3.566163X0.007622*%
%ADD378R,3.581400X0.007622*%
%ADD379R,3.581400X0.007619*%
%ADD380R,3.589022X0.007619*%
%ADD381R,3.589019X0.007619*%
%ADD382R,3.589019X0.007622*%
%ADD383R,3.596641X0.007619*%
%ADD384R,3.596641X0.007622*%
%ADD385R,3.596638X0.007619*%
%ADD386R,3.604259X0.007622*%
%ADD387R,0.571500X0.007619*%
%ADD388R,0.609600X0.007622*%
%ADD389R,0.647700X0.007619*%
%ADD390R,0.693419X0.007619*%
%ADD391R,0.716278X0.007619*%
%ADD392R,4.328159X0.007622*%
%ADD393R,4.335778X0.007619*%
%ADD394R,4.351019X0.007622*%
%ADD395R,4.351019X0.007619*%
%ADD396R,4.358641X0.007619*%
%ADD397R,4.358641X0.007622*%
%ADD398R,4.373878X0.007619*%
%ADD399R,4.373878X0.007622*%
%ADD400R,4.389122X0.007619*%
%ADD401R,4.396741X0.007622*%
%ADD402R,4.396741X0.007619*%
%ADD403R,4.404363X0.007619*%
%ADD404R,4.411981X0.007622*%
%ADD405R,4.411981X0.007619*%
%ADD406R,4.404359X0.007622*%
%ADD407R,4.411978X0.007619*%
%ADD408R,4.404359X0.007619*%
%ADD409R,4.389119X0.007622*%
%ADD410R,4.389122X0.007622*%
%ADD411R,4.213859X0.007619*%
%ADD412R,4.206241X0.007619*%
%ADD413R,4.198619X0.007622*%
%ADD414R,4.206238X0.007619*%
%ADD415R,0.045722X0.007619*%
%ADD416R,4.191000X0.007619*%
%ADD417R,4.015741X0.007619*%
%ADD418R,4.008122X0.007622*%
%ADD419R,4.008122X0.007619*%
%ADD420R,4.008119X0.007622*%
%ADD421R,4.008119X0.007619*%
%ADD422R,4.000500X0.007619*%
%ADD423R,4.000500X0.007622*%
%ADD424R,3.992881X0.007619*%
%ADD425R,3.992881X0.007622*%
%ADD426R,3.992878X0.007622*%
%ADD427R,3.992878X0.007619*%
%ADD428R,3.985259X0.007619*%
%ADD429R,3.985259X0.007622*%
%ADD430R,3.977641X0.007619*%
%ADD431R,3.550922X0.007619*%
%ADD432R,3.528059X0.007622*%
%ADD433R,3.512819X0.007619*%
%ADD434R,3.489959X0.007622*%
%ADD435R,3.482341X0.007619*%
%ADD436R,3.459481X0.007619*%
%ADD437R,3.436619X0.007622*%
%ADD438R,2.857500X0.007619*%
%ADD439R,0.441963X0.007622*%
%ADD440R,2.827019X0.007622*%
%ADD441R,2.796541X0.007619*%
%ADD442R,2.773681X0.007619*%
%ADD443R,2.758441X0.007622*%
%ADD444R,2.735581X0.007619*%
%ADD445R,2.720341X0.007622*%
%ADD446R,2.705100X0.007619*%
%ADD447R,2.689863X0.007619*%
%ADD448R,2.674619X0.007622*%
%ADD449R,2.659378X0.007619*%
%ADD450R,2.651759X0.007622*%
%ADD451R,2.621281X0.007619*%
%ADD452R,2.598422X0.007619*%
%ADD453R,2.575559X0.007619*%
%ADD454R,2.567938X0.007619*%
%ADD455R,2.552700X0.007622*%
%ADD456R,2.537459X0.007619*%
%ADD457R,2.522219X0.007619*%
%ADD458R,2.506981X0.007619*%
%ADD459R,2.499363X0.007622*%
%ADD460R,2.491741X0.007619*%
%ADD461R,2.476500X0.007622*%
%ADD462R,2.468878X0.007619*%
%ADD463R,2.446022X0.007622*%
%ADD464R,2.430781X0.007619*%
%ADD465R,2.407919X0.007619*%
%ADD466R,2.392678X0.007622*%
%ADD467R,2.362200X0.007622*%
%ADD468R,2.346963X0.007619*%
%ADD469R,2.339341X0.007619*%
%ADD470R,2.316478X0.007622*%
%ADD471R,2.308859X0.007619*%
%ADD472R,2.286000X0.007622*%
%ADD473R,2.278381X0.007619*%
%ADD474R,2.255519X0.007619*%
%ADD475R,2.240278X0.007622*%
%ADD476R,2.217419X0.007619*%
%ADD477R,2.202181X0.007622*%
%ADD478R,2.171700X0.007619*%
%ADD479R,2.141219X0.007619*%
%ADD480R,2.110741X0.007622*%
%ADD481R,2.072641X0.007619*%
%ADD482R,2.034537X0.007622*%
%ADD483R,2.004059X0.007619*%
%ADD484R,1.965959X0.007619*%
%ADD485R,1.943100X0.007622*%
%ADD486R,1.912619X0.007619*%
%ADD487R,1.897381X0.007622*%
%ADD488R,1.874519X0.007619*%
%ADD489R,1.851659X0.007619*%
%ADD490R,1.836422X0.007622*%
%ADD491R,1.821178X0.007619*%
%ADD492R,1.805941X0.007622*%
%ADD493R,1.790700X0.007619*%
%ADD494R,1.767841X0.007619*%
%ADD495R,1.752600X0.007622*%
%ADD496R,1.729738X0.007619*%
%ADD497R,1.722119X0.007622*%
%ADD498R,1.699259X0.007619*%
%ADD499R,1.684022X0.007619*%
%ADD500R,1.661159X0.007622*%
%ADD501R,1.645919X0.007619*%
%ADD502R,1.623059X0.007622*%
%ADD503R,1.600200X0.007619*%
%ADD504R,1.584959X0.007622*%
%ADD505R,1.569722X0.007619*%
%ADD506R,1.562100X0.007622*%
%ADD507R,1.546859X0.007619*%
%ADD508R,1.531622X0.007619*%
%ADD509R,1.531622X0.007622*%
%ADD510R,1.516378X0.007619*%
%ADD511R,1.501141X0.007622*%
%ADD512R,1.485900X0.007619*%
%ADD513R,1.402081X0.007619*%
%ADD514R,1.356359X0.007622*%
%ADD515R,1.341119X0.007619*%
%ADD516R,1.325881X0.007619*%
%ADD517R,1.303019X0.007622*%
%ADD518R,1.280159X0.007619*%
%ADD519R,1.264919X0.007622*%
%ADD520R,1.249681X0.007619*%
%ADD521R,1.226822X0.007619*%
%ADD522R,1.203959X0.007622*%
%ADD523R,1.181100X0.007619*%
%ADD524R,1.150622X0.007622*%
%ADD525R,1.127759X0.007619*%
%ADD526R,1.097281X0.007619*%
%ADD527R,1.066800X0.007622*%
%ADD528R,1.028700X0.007619*%
%ADD529R,0.982981X0.007622*%
%ADD530R,0.937259X0.007619*%
%ADD531R,0.883922X0.007619*%

G36*
X480605Y175176D02*
X480605Y175176D01*
X480705Y175175D01*
X480719Y175179D01*
X480731Y175179D01*
X480774Y175197D01*
X480884Y175233D01*
X484884Y177233D01*
X484919Y177259D01*
X484960Y177278D01*
X485009Y177326D01*
X485063Y177367D01*
X485088Y177404D01*
X485119Y177436D01*
X485148Y177498D01*
X485185Y177555D01*
X485195Y177599D01*
X485214Y177639D01*
X485219Y177708D01*
X485234Y177774D01*
X485228Y177819D01*
X485231Y177863D01*
X485212Y177929D01*
X485203Y177997D01*
X485182Y178036D01*
X485170Y178079D01*
X485129Y178134D01*
X485097Y178194D01*
X485063Y178224D01*
X485037Y178260D01*
X484966Y178309D01*
X484928Y178343D01*
X484907Y178351D01*
X484884Y178367D01*
X480884Y180367D01*
X480788Y180395D01*
X480694Y180427D01*
X480681Y180427D01*
X480668Y180431D01*
X480569Y180424D01*
X480469Y180421D01*
X480458Y180416D01*
X480445Y180415D01*
X480354Y180374D01*
X480262Y180336D01*
X480252Y180328D01*
X480240Y180322D01*
X480169Y180252D01*
X480096Y180185D01*
X480090Y180174D01*
X480081Y180164D01*
X480039Y180074D01*
X479993Y179985D01*
X479991Y179971D01*
X479986Y179961D01*
X479983Y179914D01*
X479966Y179800D01*
X479966Y175800D01*
X479983Y175702D01*
X479997Y175603D01*
X480003Y175592D01*
X480005Y175579D01*
X480056Y175493D01*
X480103Y175406D01*
X480113Y175397D01*
X480120Y175386D01*
X480197Y175323D01*
X480272Y175257D01*
X480284Y175253D01*
X480294Y175245D01*
X480388Y175213D01*
X480481Y175177D01*
X480494Y175177D01*
X480506Y175173D01*
X480605Y175176D01*
G37*
G36*
X239305Y175176D02*
X239305Y175176D01*
X239405Y175175D01*
X239419Y175179D01*
X239431Y175179D01*
X239474Y175197D01*
X239584Y175233D01*
X243584Y177233D01*
X243619Y177259D01*
X243660Y177278D01*
X243709Y177326D01*
X243763Y177367D01*
X243788Y177404D01*
X243819Y177436D01*
X243848Y177498D01*
X243885Y177555D01*
X243895Y177599D01*
X243914Y177639D01*
X243919Y177708D01*
X243934Y177774D01*
X243928Y177819D01*
X243931Y177863D01*
X243912Y177929D01*
X243903Y177997D01*
X243882Y178036D01*
X243870Y178079D01*
X243829Y178134D01*
X243797Y178194D01*
X243763Y178224D01*
X243737Y178260D01*
X243666Y178309D01*
X243628Y178343D01*
X243607Y178351D01*
X243584Y178367D01*
X239584Y180367D01*
X239488Y180395D01*
X239394Y180427D01*
X239381Y180427D01*
X239368Y180431D01*
X239269Y180424D01*
X239169Y180421D01*
X239158Y180416D01*
X239145Y180415D01*
X239054Y180374D01*
X238962Y180336D01*
X238952Y180328D01*
X238940Y180322D01*
X238869Y180252D01*
X238796Y180185D01*
X238790Y180174D01*
X238781Y180164D01*
X238739Y180074D01*
X238693Y179985D01*
X238691Y179971D01*
X238686Y179961D01*
X238683Y179914D01*
X238666Y179800D01*
X238666Y175800D01*
X238683Y175702D01*
X238697Y175603D01*
X238703Y175592D01*
X238705Y175579D01*
X238756Y175493D01*
X238803Y175406D01*
X238813Y175397D01*
X238820Y175386D01*
X238897Y175323D01*
X238972Y175257D01*
X238984Y175253D01*
X238994Y175245D01*
X239088Y175213D01*
X239181Y175177D01*
X239194Y175177D01*
X239206Y175173D01*
X239305Y175176D01*
G37*
D10*
X89662Y153162D02*
X89662Y164338D01*
X94629Y164338D01*
X94629Y159371D02*
X89662Y159371D01*
X99018Y158129D02*
X99018Y155646D01*
X99017Y158129D02*
X99019Y158228D01*
X99025Y158326D01*
X99035Y158425D01*
X99048Y158522D01*
X99066Y158620D01*
X99087Y158716D01*
X99113Y158812D01*
X99142Y158906D01*
X99174Y158999D01*
X99211Y159091D01*
X99251Y159181D01*
X99295Y159270D01*
X99342Y159357D01*
X99392Y159442D01*
X99446Y159524D01*
X99503Y159605D01*
X99563Y159683D01*
X99627Y159759D01*
X99693Y159832D01*
X99762Y159903D01*
X99834Y159971D01*
X99909Y160035D01*
X99986Y160097D01*
X100065Y160156D01*
X100147Y160211D01*
X100231Y160264D01*
X100316Y160312D01*
X100404Y160358D01*
X100494Y160400D01*
X100585Y160438D01*
X100677Y160472D01*
X100771Y160503D01*
X100866Y160530D01*
X100962Y160554D01*
X101059Y160573D01*
X101156Y160589D01*
X101254Y160601D01*
X101353Y160609D01*
X101452Y160613D01*
X101550Y160613D01*
X101649Y160609D01*
X101748Y160601D01*
X101846Y160589D01*
X101943Y160573D01*
X102040Y160554D01*
X102136Y160530D01*
X102231Y160503D01*
X102325Y160472D01*
X102417Y160438D01*
X102508Y160400D01*
X102598Y160358D01*
X102686Y160312D01*
X102771Y160264D01*
X102855Y160211D01*
X102937Y160156D01*
X103016Y160097D01*
X103093Y160035D01*
X103168Y159971D01*
X103240Y159903D01*
X103309Y159832D01*
X103375Y159759D01*
X103439Y159683D01*
X103499Y159605D01*
X103556Y159524D01*
X103610Y159442D01*
X103660Y159357D01*
X103707Y159270D01*
X103751Y159181D01*
X103791Y159091D01*
X103828Y158999D01*
X103860Y158906D01*
X103889Y158812D01*
X103915Y158716D01*
X103936Y158620D01*
X103954Y158522D01*
X103967Y158425D01*
X103977Y158326D01*
X103983Y158228D01*
X103985Y158129D01*
X103985Y155646D01*
X103983Y155547D01*
X103977Y155449D01*
X103967Y155350D01*
X103954Y155253D01*
X103936Y155155D01*
X103915Y155059D01*
X103889Y154963D01*
X103860Y154869D01*
X103828Y154776D01*
X103791Y154684D01*
X103751Y154594D01*
X103707Y154505D01*
X103660Y154418D01*
X103610Y154333D01*
X103556Y154251D01*
X103499Y154170D01*
X103439Y154092D01*
X103375Y154016D01*
X103309Y153943D01*
X103240Y153872D01*
X103168Y153804D01*
X103093Y153740D01*
X103016Y153678D01*
X102937Y153619D01*
X102855Y153564D01*
X102771Y153511D01*
X102686Y153463D01*
X102598Y153417D01*
X102508Y153375D01*
X102417Y153337D01*
X102325Y153303D01*
X102231Y153272D01*
X102136Y153245D01*
X102040Y153221D01*
X101943Y153202D01*
X101846Y153186D01*
X101748Y153174D01*
X101649Y153166D01*
X101550Y153162D01*
X101452Y153162D01*
X101353Y153166D01*
X101254Y153174D01*
X101156Y153186D01*
X101059Y153202D01*
X100962Y153221D01*
X100866Y153245D01*
X100771Y153272D01*
X100677Y153303D01*
X100585Y153337D01*
X100494Y153375D01*
X100404Y153417D01*
X100316Y153463D01*
X100231Y153511D01*
X100147Y153564D01*
X100065Y153619D01*
X99986Y153678D01*
X99909Y153740D01*
X99834Y153804D01*
X99762Y153872D01*
X99693Y153943D01*
X99627Y154016D01*
X99563Y154092D01*
X99503Y154170D01*
X99446Y154251D01*
X99392Y154333D01*
X99342Y154418D01*
X99295Y154505D01*
X99251Y154594D01*
X99211Y154684D01*
X99174Y154776D01*
X99142Y154869D01*
X99113Y154963D01*
X99087Y155059D01*
X99066Y155155D01*
X99048Y155253D01*
X99035Y155350D01*
X99025Y155449D01*
X99019Y155547D01*
X99017Y155646D01*
X109388Y153162D02*
X109388Y160613D01*
X113113Y160613D01*
X113113Y159371D01*
X126506Y153162D02*
X126603Y153164D01*
X126701Y153170D01*
X126798Y153179D01*
X126895Y153193D01*
X126991Y153210D01*
X127086Y153231D01*
X127180Y153255D01*
X127274Y153284D01*
X127366Y153316D01*
X127457Y153351D01*
X127546Y153390D01*
X127634Y153433D01*
X127720Y153479D01*
X127804Y153528D01*
X127886Y153581D01*
X127966Y153636D01*
X128044Y153695D01*
X128119Y153757D01*
X128192Y153822D01*
X128262Y153890D01*
X128330Y153960D01*
X128395Y154033D01*
X128457Y154108D01*
X128516Y154186D01*
X128571Y154266D01*
X128624Y154348D01*
X128673Y154432D01*
X128719Y154518D01*
X128762Y154606D01*
X128801Y154695D01*
X128836Y154786D01*
X128868Y154878D01*
X128897Y154972D01*
X128921Y155066D01*
X128942Y155161D01*
X128959Y155257D01*
X128973Y155354D01*
X128982Y155451D01*
X128988Y155548D01*
X128990Y155646D01*
X126506Y153162D02*
X126363Y153164D01*
X126220Y153170D01*
X126078Y153179D01*
X125936Y153193D01*
X125794Y153211D01*
X125653Y153232D01*
X125512Y153257D01*
X125372Y153286D01*
X125233Y153319D01*
X125095Y153355D01*
X124958Y153396D01*
X124822Y153440D01*
X124687Y153487D01*
X124554Y153539D01*
X124422Y153594D01*
X124292Y153652D01*
X124163Y153714D01*
X124036Y153780D01*
X123911Y153849D01*
X123788Y153921D01*
X123667Y153997D01*
X123548Y154075D01*
X123431Y154158D01*
X123316Y154243D01*
X123204Y154331D01*
X123094Y154423D01*
X122987Y154517D01*
X122882Y154614D01*
X122780Y154714D01*
X123091Y161854D02*
X123093Y161952D01*
X123099Y162049D01*
X123108Y162146D01*
X123122Y162243D01*
X123139Y162339D01*
X123160Y162434D01*
X123184Y162528D01*
X123213Y162622D01*
X123245Y162714D01*
X123280Y162805D01*
X123319Y162894D01*
X123362Y162982D01*
X123408Y163068D01*
X123457Y163152D01*
X123510Y163234D01*
X123565Y163314D01*
X123624Y163392D01*
X123686Y163467D01*
X123751Y163540D01*
X123819Y163610D01*
X123889Y163678D01*
X123962Y163743D01*
X124037Y163805D01*
X124115Y163864D01*
X124195Y163919D01*
X124277Y163972D01*
X124361Y164021D01*
X124447Y164067D01*
X124535Y164110D01*
X124624Y164149D01*
X124715Y164184D01*
X124807Y164216D01*
X124901Y164245D01*
X124995Y164269D01*
X125090Y164290D01*
X125186Y164307D01*
X125283Y164321D01*
X125380Y164330D01*
X125477Y164336D01*
X125575Y164338D01*
X125705Y164336D01*
X125835Y164331D01*
X125965Y164322D01*
X126095Y164309D01*
X126224Y164293D01*
X126353Y164273D01*
X126481Y164249D01*
X126609Y164222D01*
X126735Y164191D01*
X126861Y164157D01*
X126986Y164119D01*
X127109Y164078D01*
X127232Y164033D01*
X127353Y163985D01*
X127473Y163934D01*
X127591Y163879D01*
X127707Y163821D01*
X127822Y163760D01*
X127936Y163695D01*
X128047Y163628D01*
X128156Y163557D01*
X128264Y163483D01*
X128369Y163407D01*
X124333Y159681D02*
X124250Y159732D01*
X124169Y159786D01*
X124091Y159843D01*
X124015Y159903D01*
X123941Y159966D01*
X123870Y160032D01*
X123801Y160100D01*
X123735Y160171D01*
X123671Y160244D01*
X123611Y160320D01*
X123554Y160398D01*
X123499Y160479D01*
X123448Y160561D01*
X123400Y160645D01*
X123355Y160731D01*
X123313Y160819D01*
X123275Y160908D01*
X123241Y160998D01*
X123209Y161090D01*
X123182Y161183D01*
X123158Y161277D01*
X123137Y161372D01*
X123121Y161468D01*
X123108Y161564D01*
X123098Y161660D01*
X123093Y161757D01*
X123091Y161854D01*
X127747Y157819D02*
X127830Y157768D01*
X127911Y157714D01*
X127989Y157657D01*
X128065Y157597D01*
X128139Y157534D01*
X128210Y157468D01*
X128279Y157400D01*
X128345Y157329D01*
X128409Y157256D01*
X128469Y157180D01*
X128526Y157102D01*
X128581Y157021D01*
X128632Y156939D01*
X128680Y156855D01*
X128725Y156769D01*
X128767Y156681D01*
X128805Y156592D01*
X128839Y156502D01*
X128871Y156410D01*
X128898Y156317D01*
X128922Y156223D01*
X128943Y156128D01*
X128959Y156032D01*
X128972Y155936D01*
X128982Y155840D01*
X128987Y155743D01*
X128989Y155646D01*
X127748Y157819D02*
X124333Y159681D01*
X135551Y153162D02*
X138656Y153162D01*
X135551Y153162D02*
X135467Y153164D01*
X135384Y153169D01*
X135301Y153179D01*
X135218Y153192D01*
X135136Y153209D01*
X135055Y153229D01*
X134975Y153253D01*
X134896Y153281D01*
X134819Y153312D01*
X134743Y153346D01*
X134668Y153384D01*
X134595Y153426D01*
X134525Y153470D01*
X134456Y153518D01*
X134389Y153568D01*
X134325Y153622D01*
X134264Y153678D01*
X134204Y153738D01*
X134148Y153799D01*
X134094Y153863D01*
X134044Y153930D01*
X133996Y153999D01*
X133952Y154069D01*
X133910Y154142D01*
X133872Y154217D01*
X133838Y154293D01*
X133807Y154370D01*
X133779Y154449D01*
X133755Y154529D01*
X133735Y154610D01*
X133718Y154692D01*
X133705Y154775D01*
X133695Y154858D01*
X133690Y154941D01*
X133688Y155025D01*
X133689Y155025D02*
X133689Y158129D01*
X133688Y158129D02*
X133690Y158228D01*
X133696Y158326D01*
X133706Y158425D01*
X133719Y158522D01*
X133737Y158620D01*
X133758Y158716D01*
X133784Y158812D01*
X133813Y158906D01*
X133845Y158999D01*
X133882Y159091D01*
X133922Y159181D01*
X133966Y159270D01*
X134013Y159357D01*
X134063Y159442D01*
X134117Y159524D01*
X134174Y159605D01*
X134234Y159683D01*
X134298Y159759D01*
X134364Y159832D01*
X134433Y159903D01*
X134505Y159971D01*
X134580Y160035D01*
X134657Y160097D01*
X134736Y160156D01*
X134818Y160211D01*
X134902Y160264D01*
X134987Y160312D01*
X135075Y160358D01*
X135165Y160400D01*
X135256Y160438D01*
X135348Y160472D01*
X135442Y160503D01*
X135537Y160530D01*
X135633Y160554D01*
X135730Y160573D01*
X135827Y160589D01*
X135925Y160601D01*
X136024Y160609D01*
X136123Y160613D01*
X136221Y160613D01*
X136320Y160609D01*
X136419Y160601D01*
X136517Y160589D01*
X136614Y160573D01*
X136711Y160554D01*
X136807Y160530D01*
X136902Y160503D01*
X136996Y160472D01*
X137088Y160438D01*
X137179Y160400D01*
X137269Y160358D01*
X137357Y160312D01*
X137442Y160264D01*
X137526Y160211D01*
X137608Y160156D01*
X137687Y160097D01*
X137764Y160035D01*
X137839Y159971D01*
X137911Y159903D01*
X137980Y159832D01*
X138046Y159759D01*
X138110Y159683D01*
X138170Y159605D01*
X138227Y159524D01*
X138281Y159442D01*
X138331Y159357D01*
X138378Y159270D01*
X138422Y159181D01*
X138462Y159091D01*
X138499Y158999D01*
X138531Y158906D01*
X138560Y158812D01*
X138586Y158716D01*
X138607Y158620D01*
X138625Y158522D01*
X138638Y158425D01*
X138648Y158326D01*
X138654Y158228D01*
X138656Y158129D01*
X138656Y156887D01*
X133689Y156887D01*
X143976Y153162D02*
X143976Y160613D01*
X147080Y160613D01*
X147164Y160611D01*
X147247Y160606D01*
X147330Y160596D01*
X147413Y160583D01*
X147495Y160566D01*
X147576Y160546D01*
X147656Y160522D01*
X147735Y160494D01*
X147812Y160463D01*
X147888Y160429D01*
X147963Y160391D01*
X148036Y160349D01*
X148106Y160305D01*
X148175Y160257D01*
X148242Y160207D01*
X148306Y160153D01*
X148367Y160097D01*
X148427Y160037D01*
X148483Y159976D01*
X148537Y159912D01*
X148587Y159845D01*
X148635Y159776D01*
X148679Y159706D01*
X148721Y159633D01*
X148759Y159558D01*
X148793Y159482D01*
X148824Y159405D01*
X148852Y159326D01*
X148876Y159246D01*
X148896Y159165D01*
X148913Y159083D01*
X148926Y159000D01*
X148936Y158917D01*
X148941Y158834D01*
X148943Y158750D01*
X148943Y153162D01*
X155194Y157508D02*
X158298Y156266D01*
X155194Y157508D02*
X155122Y157539D01*
X155052Y157573D01*
X154983Y157611D01*
X154916Y157652D01*
X154851Y157696D01*
X154789Y157744D01*
X154729Y157794D01*
X154671Y157847D01*
X154616Y157903D01*
X154564Y157962D01*
X154515Y158023D01*
X154469Y158086D01*
X154426Y158151D01*
X154386Y158219D01*
X154349Y158288D01*
X154316Y158359D01*
X154287Y158432D01*
X154261Y158506D01*
X154238Y158581D01*
X154220Y158657D01*
X154205Y158734D01*
X154193Y158812D01*
X154186Y158890D01*
X154182Y158968D01*
X154183Y159046D01*
X154187Y159125D01*
X154194Y159203D01*
X154206Y159280D01*
X154221Y159357D01*
X154241Y159433D01*
X154263Y159508D01*
X154290Y159582D01*
X154320Y159654D01*
X154353Y159725D01*
X154390Y159794D01*
X154430Y159862D01*
X154474Y159927D01*
X154520Y159990D01*
X154570Y160051D01*
X154622Y160109D01*
X154677Y160165D01*
X154735Y160218D01*
X154796Y160268D01*
X154858Y160315D01*
X154923Y160358D01*
X154990Y160399D01*
X155059Y160437D01*
X155130Y160470D01*
X155202Y160501D01*
X155276Y160528D01*
X155350Y160551D01*
X155426Y160571D01*
X155503Y160587D01*
X155580Y160599D01*
X155658Y160607D01*
X155737Y160612D01*
X155815Y160613D01*
X155815Y160612D02*
X155984Y160608D01*
X156154Y160599D01*
X156323Y160587D01*
X156491Y160570D01*
X156660Y160549D01*
X156827Y160525D01*
X156994Y160496D01*
X157161Y160463D01*
X157326Y160426D01*
X157491Y160385D01*
X157654Y160341D01*
X157817Y160292D01*
X157978Y160240D01*
X158138Y160183D01*
X158296Y160123D01*
X158453Y160059D01*
X158609Y159991D01*
X158298Y156267D02*
X158370Y156236D01*
X158440Y156202D01*
X158509Y156164D01*
X158576Y156123D01*
X158641Y156079D01*
X158703Y156031D01*
X158763Y155981D01*
X158821Y155928D01*
X158876Y155872D01*
X158928Y155813D01*
X158977Y155752D01*
X159023Y155689D01*
X159066Y155624D01*
X159106Y155556D01*
X159143Y155487D01*
X159176Y155416D01*
X159205Y155343D01*
X159231Y155269D01*
X159254Y155194D01*
X159272Y155118D01*
X159287Y155041D01*
X159299Y154963D01*
X159306Y154885D01*
X159310Y154807D01*
X159309Y154729D01*
X159305Y154650D01*
X159298Y154572D01*
X159286Y154495D01*
X159271Y154418D01*
X159251Y154342D01*
X159229Y154267D01*
X159202Y154193D01*
X159172Y154121D01*
X159139Y154050D01*
X159102Y153981D01*
X159062Y153913D01*
X159018Y153848D01*
X158972Y153785D01*
X158922Y153724D01*
X158870Y153666D01*
X158815Y153610D01*
X158757Y153557D01*
X158696Y153507D01*
X158634Y153460D01*
X158569Y153417D01*
X158502Y153376D01*
X158433Y153338D01*
X158362Y153305D01*
X158290Y153274D01*
X158216Y153247D01*
X158142Y153224D01*
X158066Y153204D01*
X157989Y153188D01*
X157912Y153176D01*
X157834Y153168D01*
X157755Y153163D01*
X157677Y153162D01*
X157428Y153169D01*
X157180Y153181D01*
X156931Y153199D01*
X156683Y153223D01*
X156436Y153253D01*
X156190Y153289D01*
X155944Y153331D01*
X155700Y153378D01*
X155456Y153432D01*
X155214Y153490D01*
X154974Y153555D01*
X154735Y153625D01*
X154498Y153701D01*
X154263Y153783D01*
X164168Y155646D02*
X164168Y158129D01*
X164170Y158228D01*
X164176Y158326D01*
X164186Y158425D01*
X164199Y158522D01*
X164217Y158620D01*
X164238Y158716D01*
X164264Y158812D01*
X164293Y158906D01*
X164325Y158999D01*
X164362Y159091D01*
X164402Y159181D01*
X164446Y159270D01*
X164493Y159357D01*
X164543Y159442D01*
X164597Y159524D01*
X164654Y159605D01*
X164714Y159683D01*
X164778Y159759D01*
X164844Y159832D01*
X164913Y159903D01*
X164985Y159971D01*
X165060Y160035D01*
X165137Y160097D01*
X165216Y160156D01*
X165298Y160211D01*
X165382Y160264D01*
X165467Y160312D01*
X165555Y160358D01*
X165645Y160400D01*
X165736Y160438D01*
X165828Y160472D01*
X165922Y160503D01*
X166017Y160530D01*
X166113Y160554D01*
X166210Y160573D01*
X166307Y160589D01*
X166405Y160601D01*
X166504Y160609D01*
X166603Y160613D01*
X166701Y160613D01*
X166800Y160609D01*
X166899Y160601D01*
X166997Y160589D01*
X167094Y160573D01*
X167191Y160554D01*
X167287Y160530D01*
X167382Y160503D01*
X167476Y160472D01*
X167568Y160438D01*
X167659Y160400D01*
X167749Y160358D01*
X167837Y160312D01*
X167922Y160264D01*
X168006Y160211D01*
X168088Y160156D01*
X168167Y160097D01*
X168244Y160035D01*
X168319Y159971D01*
X168391Y159903D01*
X168460Y159832D01*
X168526Y159759D01*
X168590Y159683D01*
X168650Y159605D01*
X168707Y159524D01*
X168761Y159442D01*
X168811Y159357D01*
X168858Y159270D01*
X168902Y159181D01*
X168942Y159091D01*
X168979Y158999D01*
X169011Y158906D01*
X169040Y158812D01*
X169066Y158716D01*
X169087Y158620D01*
X169105Y158522D01*
X169118Y158425D01*
X169128Y158326D01*
X169134Y158228D01*
X169136Y158129D01*
X169136Y155646D01*
X169134Y155547D01*
X169128Y155449D01*
X169118Y155350D01*
X169105Y155253D01*
X169087Y155155D01*
X169066Y155059D01*
X169040Y154963D01*
X169011Y154869D01*
X168979Y154776D01*
X168942Y154684D01*
X168902Y154594D01*
X168858Y154505D01*
X168811Y154418D01*
X168761Y154333D01*
X168707Y154251D01*
X168650Y154170D01*
X168590Y154092D01*
X168526Y154016D01*
X168460Y153943D01*
X168391Y153872D01*
X168319Y153804D01*
X168244Y153740D01*
X168167Y153678D01*
X168088Y153619D01*
X168006Y153564D01*
X167922Y153511D01*
X167837Y153463D01*
X167749Y153417D01*
X167659Y153375D01*
X167568Y153337D01*
X167476Y153303D01*
X167382Y153272D01*
X167287Y153245D01*
X167191Y153221D01*
X167094Y153202D01*
X166997Y153186D01*
X166899Y153174D01*
X166800Y153166D01*
X166701Y153162D01*
X166603Y153162D01*
X166504Y153166D01*
X166405Y153174D01*
X166307Y153186D01*
X166210Y153202D01*
X166113Y153221D01*
X166017Y153245D01*
X165922Y153272D01*
X165828Y153303D01*
X165736Y153337D01*
X165645Y153375D01*
X165555Y153417D01*
X165467Y153463D01*
X165382Y153511D01*
X165298Y153564D01*
X165216Y153619D01*
X165137Y153678D01*
X165060Y153740D01*
X164985Y153804D01*
X164913Y153872D01*
X164844Y153943D01*
X164778Y154016D01*
X164714Y154092D01*
X164654Y154170D01*
X164597Y154251D01*
X164543Y154333D01*
X164493Y154418D01*
X164446Y154505D01*
X164402Y154594D01*
X164362Y154684D01*
X164325Y154776D01*
X164293Y154869D01*
X164264Y154963D01*
X164238Y155059D01*
X164217Y155155D01*
X164199Y155253D01*
X164186Y155350D01*
X164176Y155449D01*
X164170Y155547D01*
X164168Y155646D01*
X174538Y153162D02*
X174538Y160613D01*
X178264Y160613D01*
X178264Y159371D01*
X534162Y164338D02*
X534162Y153162D01*
X534162Y164338D02*
X539129Y164338D01*
X539129Y159371D02*
X534162Y159371D01*
X543518Y158129D02*
X543518Y155646D01*
X543517Y158129D02*
X543519Y158228D01*
X543525Y158326D01*
X543535Y158425D01*
X543548Y158522D01*
X543566Y158620D01*
X543587Y158716D01*
X543613Y158812D01*
X543642Y158906D01*
X543674Y158999D01*
X543711Y159091D01*
X543751Y159181D01*
X543795Y159270D01*
X543842Y159357D01*
X543892Y159442D01*
X543946Y159524D01*
X544003Y159605D01*
X544063Y159683D01*
X544127Y159759D01*
X544193Y159832D01*
X544262Y159903D01*
X544334Y159971D01*
X544409Y160035D01*
X544486Y160097D01*
X544565Y160156D01*
X544647Y160211D01*
X544731Y160264D01*
X544816Y160312D01*
X544904Y160358D01*
X544994Y160400D01*
X545085Y160438D01*
X545177Y160472D01*
X545271Y160503D01*
X545366Y160530D01*
X545462Y160554D01*
X545559Y160573D01*
X545656Y160589D01*
X545754Y160601D01*
X545853Y160609D01*
X545952Y160613D01*
X546050Y160613D01*
X546149Y160609D01*
X546248Y160601D01*
X546346Y160589D01*
X546443Y160573D01*
X546540Y160554D01*
X546636Y160530D01*
X546731Y160503D01*
X546825Y160472D01*
X546917Y160438D01*
X547008Y160400D01*
X547098Y160358D01*
X547186Y160312D01*
X547271Y160264D01*
X547355Y160211D01*
X547437Y160156D01*
X547516Y160097D01*
X547593Y160035D01*
X547668Y159971D01*
X547740Y159903D01*
X547809Y159832D01*
X547875Y159759D01*
X547939Y159683D01*
X547999Y159605D01*
X548056Y159524D01*
X548110Y159442D01*
X548160Y159357D01*
X548207Y159270D01*
X548251Y159181D01*
X548291Y159091D01*
X548328Y158999D01*
X548360Y158906D01*
X548389Y158812D01*
X548415Y158716D01*
X548436Y158620D01*
X548454Y158522D01*
X548467Y158425D01*
X548477Y158326D01*
X548483Y158228D01*
X548485Y158129D01*
X548485Y155646D01*
X548483Y155547D01*
X548477Y155449D01*
X548467Y155350D01*
X548454Y155253D01*
X548436Y155155D01*
X548415Y155059D01*
X548389Y154963D01*
X548360Y154869D01*
X548328Y154776D01*
X548291Y154684D01*
X548251Y154594D01*
X548207Y154505D01*
X548160Y154418D01*
X548110Y154333D01*
X548056Y154251D01*
X547999Y154170D01*
X547939Y154092D01*
X547875Y154016D01*
X547809Y153943D01*
X547740Y153872D01*
X547668Y153804D01*
X547593Y153740D01*
X547516Y153678D01*
X547437Y153619D01*
X547355Y153564D01*
X547271Y153511D01*
X547186Y153463D01*
X547098Y153417D01*
X547008Y153375D01*
X546917Y153337D01*
X546825Y153303D01*
X546731Y153272D01*
X546636Y153245D01*
X546540Y153221D01*
X546443Y153202D01*
X546346Y153186D01*
X546248Y153174D01*
X546149Y153166D01*
X546050Y153162D01*
X545952Y153162D01*
X545853Y153166D01*
X545754Y153174D01*
X545656Y153186D01*
X545559Y153202D01*
X545462Y153221D01*
X545366Y153245D01*
X545271Y153272D01*
X545177Y153303D01*
X545085Y153337D01*
X544994Y153375D01*
X544904Y153417D01*
X544816Y153463D01*
X544731Y153511D01*
X544647Y153564D01*
X544565Y153619D01*
X544486Y153678D01*
X544409Y153740D01*
X544334Y153804D01*
X544262Y153872D01*
X544193Y153943D01*
X544127Y154016D01*
X544063Y154092D01*
X544003Y154170D01*
X543946Y154251D01*
X543892Y154333D01*
X543842Y154418D01*
X543795Y154505D01*
X543751Y154594D01*
X543711Y154684D01*
X543674Y154776D01*
X543642Y154869D01*
X543613Y154963D01*
X543587Y155059D01*
X543566Y155155D01*
X543548Y155253D01*
X543535Y155350D01*
X543525Y155449D01*
X543519Y155547D01*
X543517Y155646D01*
X553888Y153162D02*
X553888Y160613D01*
X557613Y160613D01*
X557613Y159371D01*
X568043Y164338D02*
X568043Y153162D01*
X568043Y164338D02*
X571147Y164338D01*
X571258Y164336D01*
X571368Y164330D01*
X571479Y164320D01*
X571589Y164306D01*
X571698Y164289D01*
X571807Y164267D01*
X571915Y164242D01*
X572021Y164212D01*
X572127Y164179D01*
X572232Y164142D01*
X572335Y164102D01*
X572436Y164057D01*
X572536Y164010D01*
X572635Y163958D01*
X572731Y163903D01*
X572825Y163845D01*
X572917Y163784D01*
X573007Y163719D01*
X573095Y163651D01*
X573180Y163580D01*
X573262Y163506D01*
X573342Y163429D01*
X573419Y163349D01*
X573493Y163267D01*
X573564Y163182D01*
X573632Y163094D01*
X573697Y163004D01*
X573758Y162912D01*
X573816Y162818D01*
X573871Y162722D01*
X573923Y162623D01*
X573970Y162523D01*
X574015Y162422D01*
X574055Y162319D01*
X574092Y162214D01*
X574125Y162108D01*
X574155Y162002D01*
X574180Y161894D01*
X574202Y161785D01*
X574219Y161676D01*
X574233Y161566D01*
X574243Y161455D01*
X574249Y161345D01*
X574251Y161234D01*
X574252Y161234D02*
X574252Y156266D01*
X574251Y156266D02*
X574249Y156155D01*
X574243Y156045D01*
X574233Y155934D01*
X574219Y155824D01*
X574202Y155715D01*
X574180Y155606D01*
X574155Y155498D01*
X574125Y155392D01*
X574092Y155286D01*
X574055Y155181D01*
X574015Y155078D01*
X573970Y154977D01*
X573923Y154877D01*
X573871Y154778D01*
X573816Y154682D01*
X573758Y154588D01*
X573697Y154496D01*
X573632Y154406D01*
X573564Y154318D01*
X573493Y154233D01*
X573419Y154151D01*
X573342Y154071D01*
X573262Y153994D01*
X573180Y153920D01*
X573095Y153849D01*
X573007Y153781D01*
X572917Y153716D01*
X572825Y153655D01*
X572731Y153597D01*
X572635Y153542D01*
X572536Y153490D01*
X572436Y153443D01*
X572335Y153398D01*
X572232Y153358D01*
X572127Y153321D01*
X572021Y153288D01*
X571915Y153258D01*
X571807Y153233D01*
X571698Y153211D01*
X571589Y153194D01*
X571479Y153180D01*
X571368Y153170D01*
X571258Y153164D01*
X571147Y153162D01*
X568043Y153162D01*
X580177Y153162D02*
X580177Y160613D01*
X583902Y160613D01*
X583902Y159371D01*
X589813Y157508D02*
X592607Y157508D01*
X589813Y157508D02*
X589721Y157506D01*
X589629Y157500D01*
X589537Y157490D01*
X589446Y157477D01*
X589355Y157459D01*
X589265Y157438D01*
X589177Y157413D01*
X589089Y157384D01*
X589003Y157351D01*
X588918Y157315D01*
X588835Y157275D01*
X588753Y157232D01*
X588674Y157185D01*
X588596Y157135D01*
X588521Y157082D01*
X588448Y157026D01*
X588377Y156966D01*
X588309Y156904D01*
X588244Y156839D01*
X588182Y156771D01*
X588122Y156700D01*
X588066Y156627D01*
X588013Y156552D01*
X587963Y156474D01*
X587916Y156395D01*
X587873Y156313D01*
X587833Y156230D01*
X587797Y156145D01*
X587764Y156059D01*
X587735Y155971D01*
X587710Y155883D01*
X587689Y155793D01*
X587671Y155702D01*
X587658Y155611D01*
X587648Y155519D01*
X587642Y155427D01*
X587640Y155335D01*
X587642Y155243D01*
X587648Y155151D01*
X587658Y155059D01*
X587671Y154968D01*
X587689Y154877D01*
X587710Y154787D01*
X587735Y154699D01*
X587764Y154611D01*
X587797Y154525D01*
X587833Y154440D01*
X587873Y154357D01*
X587916Y154275D01*
X587963Y154196D01*
X588013Y154118D01*
X588066Y154043D01*
X588122Y153970D01*
X588182Y153899D01*
X588244Y153831D01*
X588309Y153766D01*
X588377Y153704D01*
X588448Y153644D01*
X588521Y153588D01*
X588596Y153535D01*
X588674Y153485D01*
X588753Y153438D01*
X588835Y153395D01*
X588918Y153355D01*
X589003Y153319D01*
X589089Y153286D01*
X589177Y153257D01*
X589265Y153232D01*
X589355Y153211D01*
X589446Y153193D01*
X589537Y153180D01*
X589629Y153170D01*
X589721Y153164D01*
X589813Y153162D01*
X592607Y153162D01*
X592607Y158750D01*
X592605Y158834D01*
X592600Y158917D01*
X592590Y159000D01*
X592577Y159083D01*
X592560Y159165D01*
X592540Y159246D01*
X592516Y159326D01*
X592488Y159405D01*
X592457Y159482D01*
X592423Y159558D01*
X592385Y159633D01*
X592343Y159706D01*
X592299Y159776D01*
X592251Y159845D01*
X592201Y159912D01*
X592147Y159976D01*
X592091Y160037D01*
X592031Y160097D01*
X591970Y160153D01*
X591906Y160207D01*
X591839Y160257D01*
X591770Y160305D01*
X591700Y160349D01*
X591627Y160391D01*
X591552Y160429D01*
X591476Y160463D01*
X591399Y160494D01*
X591320Y160522D01*
X591240Y160546D01*
X591159Y160566D01*
X591077Y160583D01*
X590994Y160596D01*
X590911Y160606D01*
X590828Y160611D01*
X590744Y160613D01*
X588261Y160613D01*
X597902Y160613D02*
X599764Y153162D01*
X601627Y158129D01*
X603490Y153162D01*
X605352Y160613D01*
X610009Y160613D02*
X610009Y153162D01*
X609699Y163717D02*
X609699Y164338D01*
X610319Y164338D01*
X610319Y163717D01*
X609699Y163717D01*
X615145Y160613D02*
X615145Y153162D01*
X615145Y160613D02*
X618250Y160613D01*
X618334Y160611D01*
X618417Y160606D01*
X618500Y160596D01*
X618583Y160583D01*
X618665Y160566D01*
X618746Y160546D01*
X618826Y160522D01*
X618905Y160494D01*
X618982Y160463D01*
X619058Y160429D01*
X619133Y160391D01*
X619206Y160349D01*
X619276Y160305D01*
X619345Y160257D01*
X619412Y160207D01*
X619476Y160153D01*
X619537Y160097D01*
X619597Y160037D01*
X619653Y159976D01*
X619707Y159912D01*
X619757Y159845D01*
X619805Y159776D01*
X619849Y159706D01*
X619891Y159633D01*
X619929Y159558D01*
X619963Y159482D01*
X619994Y159405D01*
X620022Y159326D01*
X620046Y159246D01*
X620066Y159165D01*
X620083Y159083D01*
X620096Y159000D01*
X620106Y158917D01*
X620111Y158834D01*
X620113Y158750D01*
X620113Y153162D01*
X627221Y153162D02*
X630326Y153162D01*
X627221Y153162D02*
X627137Y153164D01*
X627054Y153169D01*
X626971Y153179D01*
X626888Y153192D01*
X626806Y153209D01*
X626725Y153229D01*
X626645Y153253D01*
X626566Y153281D01*
X626489Y153312D01*
X626413Y153346D01*
X626338Y153384D01*
X626265Y153426D01*
X626195Y153470D01*
X626126Y153518D01*
X626059Y153568D01*
X625995Y153622D01*
X625934Y153678D01*
X625874Y153738D01*
X625818Y153799D01*
X625764Y153863D01*
X625714Y153930D01*
X625666Y153999D01*
X625622Y154069D01*
X625580Y154142D01*
X625542Y154217D01*
X625508Y154293D01*
X625477Y154370D01*
X625449Y154449D01*
X625425Y154529D01*
X625405Y154610D01*
X625388Y154692D01*
X625375Y154775D01*
X625365Y154858D01*
X625360Y154941D01*
X625358Y155025D01*
X625359Y155025D02*
X625359Y158750D01*
X625358Y158750D02*
X625360Y158834D01*
X625366Y158917D01*
X625375Y159000D01*
X625388Y159083D01*
X625405Y159165D01*
X625425Y159246D01*
X625449Y159326D01*
X625477Y159405D01*
X625508Y159482D01*
X625542Y159558D01*
X625580Y159633D01*
X625622Y159706D01*
X625666Y159776D01*
X625714Y159845D01*
X625764Y159912D01*
X625818Y159976D01*
X625874Y160037D01*
X625934Y160097D01*
X625995Y160153D01*
X626059Y160207D01*
X626126Y160257D01*
X626195Y160305D01*
X626265Y160349D01*
X626338Y160391D01*
X626413Y160429D01*
X626489Y160463D01*
X626566Y160494D01*
X626645Y160522D01*
X626725Y160546D01*
X626806Y160566D01*
X626888Y160583D01*
X626971Y160596D01*
X627054Y160606D01*
X627137Y160611D01*
X627221Y160613D01*
X630326Y160613D01*
X630326Y151299D01*
X630324Y151213D01*
X630318Y151127D01*
X630308Y151042D01*
X630294Y150957D01*
X630277Y150872D01*
X630255Y150789D01*
X630229Y150707D01*
X630200Y150626D01*
X630167Y150547D01*
X630131Y150469D01*
X630091Y150392D01*
X630047Y150318D01*
X630000Y150246D01*
X629950Y150176D01*
X629896Y150109D01*
X629840Y150044D01*
X629780Y149982D01*
X629718Y149922D01*
X629653Y149866D01*
X629586Y149812D01*
X629516Y149762D01*
X629444Y149715D01*
X629370Y149671D01*
X629293Y149631D01*
X629216Y149595D01*
X629136Y149562D01*
X629055Y149533D01*
X628973Y149507D01*
X628890Y149485D01*
X628805Y149468D01*
X628720Y149454D01*
X628635Y149444D01*
X628549Y149438D01*
X628463Y149436D01*
X628463Y149437D02*
X625980Y149437D01*
X473766Y159371D02*
X470662Y159371D01*
X473766Y159370D02*
X473877Y159368D01*
X473987Y159362D01*
X474098Y159352D01*
X474208Y159338D01*
X474317Y159321D01*
X474426Y159299D01*
X474534Y159274D01*
X474640Y159244D01*
X474746Y159211D01*
X474851Y159174D01*
X474954Y159134D01*
X475055Y159089D01*
X475155Y159042D01*
X475254Y158990D01*
X475350Y158935D01*
X475444Y158877D01*
X475536Y158816D01*
X475626Y158751D01*
X475714Y158683D01*
X475799Y158612D01*
X475881Y158538D01*
X475961Y158461D01*
X476038Y158381D01*
X476112Y158299D01*
X476183Y158214D01*
X476251Y158126D01*
X476316Y158036D01*
X476377Y157944D01*
X476435Y157850D01*
X476490Y157754D01*
X476542Y157655D01*
X476589Y157555D01*
X476634Y157454D01*
X476674Y157351D01*
X476711Y157246D01*
X476744Y157140D01*
X476774Y157034D01*
X476799Y156926D01*
X476821Y156817D01*
X476838Y156708D01*
X476852Y156598D01*
X476862Y156487D01*
X476868Y156377D01*
X476870Y156266D01*
X476868Y156155D01*
X476862Y156045D01*
X476852Y155934D01*
X476838Y155824D01*
X476821Y155715D01*
X476799Y155606D01*
X476774Y155498D01*
X476744Y155392D01*
X476711Y155286D01*
X476674Y155181D01*
X476634Y155078D01*
X476589Y154977D01*
X476542Y154877D01*
X476490Y154778D01*
X476435Y154682D01*
X476377Y154588D01*
X476316Y154496D01*
X476251Y154406D01*
X476183Y154318D01*
X476112Y154233D01*
X476038Y154151D01*
X475961Y154071D01*
X475881Y153994D01*
X475799Y153920D01*
X475714Y153849D01*
X475626Y153781D01*
X475536Y153716D01*
X475444Y153655D01*
X475350Y153597D01*
X475254Y153542D01*
X475155Y153490D01*
X475055Y153443D01*
X474954Y153398D01*
X474851Y153358D01*
X474746Y153321D01*
X474640Y153288D01*
X474534Y153258D01*
X474426Y153233D01*
X474317Y153211D01*
X474208Y153194D01*
X474098Y153180D01*
X473987Y153170D01*
X473877Y153164D01*
X473766Y153162D01*
X470662Y153162D01*
X470662Y164338D01*
X473766Y164338D01*
X473865Y164336D01*
X473963Y164330D01*
X474062Y164320D01*
X474159Y164307D01*
X474257Y164289D01*
X474353Y164268D01*
X474449Y164242D01*
X474543Y164213D01*
X474636Y164181D01*
X474728Y164144D01*
X474818Y164104D01*
X474907Y164060D01*
X474994Y164013D01*
X475079Y163963D01*
X475161Y163909D01*
X475242Y163852D01*
X475320Y163792D01*
X475396Y163728D01*
X475469Y163662D01*
X475540Y163593D01*
X475608Y163521D01*
X475672Y163446D01*
X475734Y163369D01*
X475793Y163290D01*
X475848Y163208D01*
X475901Y163124D01*
X475949Y163039D01*
X475995Y162951D01*
X476037Y162861D01*
X476075Y162770D01*
X476109Y162678D01*
X476140Y162584D01*
X476167Y162489D01*
X476191Y162393D01*
X476210Y162296D01*
X476226Y162199D01*
X476238Y162101D01*
X476246Y162002D01*
X476250Y161903D01*
X476250Y161805D01*
X476246Y161706D01*
X476238Y161607D01*
X476226Y161509D01*
X476210Y161412D01*
X476191Y161315D01*
X476167Y161219D01*
X476140Y161124D01*
X476109Y161030D01*
X476075Y160938D01*
X476037Y160847D01*
X475995Y160757D01*
X475949Y160669D01*
X475901Y160584D01*
X475848Y160500D01*
X475793Y160418D01*
X475734Y160339D01*
X475672Y160262D01*
X475608Y160187D01*
X475540Y160115D01*
X475469Y160046D01*
X475396Y159980D01*
X475320Y159916D01*
X475242Y159856D01*
X475161Y159799D01*
X475079Y159745D01*
X474994Y159695D01*
X474907Y159648D01*
X474818Y159604D01*
X474728Y159564D01*
X474636Y159527D01*
X474543Y159495D01*
X474449Y159466D01*
X474353Y159440D01*
X474257Y159419D01*
X474159Y159401D01*
X474062Y159388D01*
X473963Y159378D01*
X473865Y159372D01*
X473766Y159370D01*
X481450Y155025D02*
X481450Y164338D01*
X481450Y155025D02*
X481452Y154941D01*
X481457Y154858D01*
X481467Y154775D01*
X481480Y154692D01*
X481497Y154610D01*
X481517Y154529D01*
X481541Y154449D01*
X481569Y154370D01*
X481600Y154293D01*
X481634Y154217D01*
X481672Y154142D01*
X481714Y154069D01*
X481758Y153999D01*
X481806Y153930D01*
X481856Y153863D01*
X481910Y153799D01*
X481966Y153738D01*
X482026Y153678D01*
X482087Y153622D01*
X482151Y153568D01*
X482218Y153518D01*
X482287Y153470D01*
X482357Y153426D01*
X482430Y153384D01*
X482505Y153346D01*
X482581Y153312D01*
X482658Y153281D01*
X482737Y153253D01*
X482817Y153229D01*
X482898Y153209D01*
X482980Y153192D01*
X483063Y153179D01*
X483146Y153169D01*
X483229Y153164D01*
X483313Y153162D01*
X487835Y155025D02*
X487835Y160613D01*
X487835Y155025D02*
X487837Y154941D01*
X487842Y154858D01*
X487852Y154775D01*
X487865Y154692D01*
X487882Y154610D01*
X487902Y154529D01*
X487926Y154449D01*
X487954Y154370D01*
X487985Y154293D01*
X488019Y154217D01*
X488057Y154142D01*
X488099Y154069D01*
X488143Y153999D01*
X488191Y153930D01*
X488241Y153863D01*
X488295Y153799D01*
X488351Y153738D01*
X488411Y153678D01*
X488472Y153622D01*
X488536Y153568D01*
X488603Y153518D01*
X488672Y153470D01*
X488742Y153426D01*
X488815Y153384D01*
X488890Y153346D01*
X488966Y153312D01*
X489043Y153281D01*
X489122Y153253D01*
X489202Y153229D01*
X489283Y153209D01*
X489365Y153192D01*
X489448Y153179D01*
X489531Y153169D01*
X489614Y153164D01*
X489698Y153162D01*
X492802Y153162D01*
X492802Y160613D01*
X499985Y153162D02*
X503089Y153162D01*
X499985Y153162D02*
X499901Y153164D01*
X499818Y153169D01*
X499735Y153179D01*
X499652Y153192D01*
X499570Y153209D01*
X499489Y153229D01*
X499409Y153253D01*
X499330Y153281D01*
X499253Y153312D01*
X499177Y153346D01*
X499102Y153384D01*
X499029Y153426D01*
X498959Y153470D01*
X498890Y153518D01*
X498823Y153568D01*
X498759Y153622D01*
X498698Y153678D01*
X498638Y153738D01*
X498582Y153799D01*
X498528Y153863D01*
X498478Y153930D01*
X498430Y153999D01*
X498386Y154069D01*
X498344Y154142D01*
X498306Y154217D01*
X498272Y154293D01*
X498241Y154370D01*
X498213Y154449D01*
X498189Y154529D01*
X498169Y154610D01*
X498152Y154692D01*
X498139Y154775D01*
X498129Y154858D01*
X498124Y154941D01*
X498122Y155025D01*
X498122Y158129D01*
X498124Y158228D01*
X498130Y158326D01*
X498140Y158425D01*
X498153Y158522D01*
X498171Y158620D01*
X498192Y158716D01*
X498218Y158812D01*
X498247Y158906D01*
X498279Y158999D01*
X498316Y159091D01*
X498356Y159181D01*
X498400Y159270D01*
X498447Y159357D01*
X498497Y159442D01*
X498551Y159524D01*
X498608Y159605D01*
X498668Y159683D01*
X498732Y159759D01*
X498798Y159832D01*
X498867Y159903D01*
X498939Y159971D01*
X499014Y160035D01*
X499091Y160097D01*
X499170Y160156D01*
X499252Y160211D01*
X499336Y160264D01*
X499421Y160312D01*
X499509Y160358D01*
X499599Y160400D01*
X499690Y160438D01*
X499782Y160472D01*
X499876Y160503D01*
X499971Y160530D01*
X500067Y160554D01*
X500164Y160573D01*
X500261Y160589D01*
X500359Y160601D01*
X500458Y160609D01*
X500557Y160613D01*
X500655Y160613D01*
X500754Y160609D01*
X500853Y160601D01*
X500951Y160589D01*
X501048Y160573D01*
X501145Y160554D01*
X501241Y160530D01*
X501336Y160503D01*
X501430Y160472D01*
X501522Y160438D01*
X501613Y160400D01*
X501703Y160358D01*
X501791Y160312D01*
X501876Y160264D01*
X501960Y160211D01*
X502042Y160156D01*
X502121Y160097D01*
X502198Y160035D01*
X502273Y159971D01*
X502345Y159903D01*
X502414Y159832D01*
X502480Y159759D01*
X502544Y159683D01*
X502604Y159605D01*
X502661Y159524D01*
X502715Y159442D01*
X502765Y159357D01*
X502812Y159270D01*
X502856Y159181D01*
X502896Y159091D01*
X502933Y158999D01*
X502965Y158906D01*
X502994Y158812D01*
X503020Y158716D01*
X503041Y158620D01*
X503059Y158522D01*
X503072Y158425D01*
X503082Y158326D01*
X503088Y158228D01*
X503090Y158129D01*
X503089Y158129D02*
X503089Y156887D01*
X498122Y156887D01*
X233087Y159060D02*
X229362Y164338D01*
X233087Y159060D02*
X236813Y164338D01*
X233087Y159060D02*
X233087Y153162D01*
X243134Y153162D02*
X246239Y153162D01*
X243134Y153162D02*
X243050Y153164D01*
X242967Y153169D01*
X242884Y153179D01*
X242801Y153192D01*
X242719Y153209D01*
X242638Y153229D01*
X242558Y153253D01*
X242479Y153281D01*
X242402Y153312D01*
X242326Y153346D01*
X242251Y153384D01*
X242178Y153426D01*
X242108Y153470D01*
X242039Y153518D01*
X241972Y153568D01*
X241908Y153622D01*
X241847Y153678D01*
X241787Y153738D01*
X241731Y153799D01*
X241677Y153863D01*
X241627Y153930D01*
X241579Y153999D01*
X241535Y154069D01*
X241493Y154142D01*
X241455Y154217D01*
X241421Y154293D01*
X241390Y154370D01*
X241362Y154449D01*
X241338Y154529D01*
X241318Y154610D01*
X241301Y154692D01*
X241288Y154775D01*
X241278Y154858D01*
X241273Y154941D01*
X241271Y155025D01*
X241272Y155025D02*
X241272Y158129D01*
X241271Y158129D02*
X241273Y158228D01*
X241279Y158326D01*
X241289Y158425D01*
X241302Y158522D01*
X241320Y158620D01*
X241341Y158716D01*
X241367Y158812D01*
X241396Y158906D01*
X241428Y158999D01*
X241465Y159091D01*
X241505Y159181D01*
X241549Y159270D01*
X241596Y159357D01*
X241646Y159442D01*
X241700Y159524D01*
X241757Y159605D01*
X241817Y159683D01*
X241881Y159759D01*
X241947Y159832D01*
X242016Y159903D01*
X242088Y159971D01*
X242163Y160035D01*
X242240Y160097D01*
X242319Y160156D01*
X242401Y160211D01*
X242485Y160264D01*
X242570Y160312D01*
X242658Y160358D01*
X242748Y160400D01*
X242839Y160438D01*
X242931Y160472D01*
X243025Y160503D01*
X243120Y160530D01*
X243216Y160554D01*
X243313Y160573D01*
X243410Y160589D01*
X243508Y160601D01*
X243607Y160609D01*
X243706Y160613D01*
X243804Y160613D01*
X243903Y160609D01*
X244002Y160601D01*
X244100Y160589D01*
X244197Y160573D01*
X244294Y160554D01*
X244390Y160530D01*
X244485Y160503D01*
X244579Y160472D01*
X244671Y160438D01*
X244762Y160400D01*
X244852Y160358D01*
X244940Y160312D01*
X245025Y160264D01*
X245109Y160211D01*
X245191Y160156D01*
X245270Y160097D01*
X245347Y160035D01*
X245422Y159971D01*
X245494Y159903D01*
X245563Y159832D01*
X245629Y159759D01*
X245693Y159683D01*
X245753Y159605D01*
X245810Y159524D01*
X245864Y159442D01*
X245914Y159357D01*
X245961Y159270D01*
X246005Y159181D01*
X246045Y159091D01*
X246082Y158999D01*
X246114Y158906D01*
X246143Y158812D01*
X246169Y158716D01*
X246190Y158620D01*
X246208Y158522D01*
X246221Y158425D01*
X246231Y158326D01*
X246237Y158228D01*
X246239Y158129D01*
X246239Y156887D01*
X241272Y156887D01*
X251269Y155025D02*
X251269Y164338D01*
X251269Y155025D02*
X251271Y154941D01*
X251276Y154858D01*
X251286Y154775D01*
X251299Y154692D01*
X251316Y154610D01*
X251336Y154529D01*
X251360Y154449D01*
X251388Y154370D01*
X251419Y154293D01*
X251453Y154217D01*
X251491Y154142D01*
X251533Y154069D01*
X251577Y153999D01*
X251625Y153930D01*
X251675Y153863D01*
X251729Y153799D01*
X251785Y153738D01*
X251845Y153678D01*
X251906Y153622D01*
X251970Y153568D01*
X252037Y153518D01*
X252106Y153470D01*
X252176Y153426D01*
X252249Y153384D01*
X252324Y153346D01*
X252400Y153312D01*
X252477Y153281D01*
X252556Y153253D01*
X252636Y153229D01*
X252717Y153209D01*
X252799Y153192D01*
X252882Y153179D01*
X252965Y153169D01*
X253048Y153164D01*
X253132Y153162D01*
X257365Y155025D02*
X257365Y164338D01*
X257365Y155025D02*
X257367Y154941D01*
X257372Y154858D01*
X257382Y154775D01*
X257395Y154692D01*
X257412Y154610D01*
X257432Y154529D01*
X257456Y154449D01*
X257484Y154370D01*
X257515Y154293D01*
X257549Y154217D01*
X257587Y154142D01*
X257629Y154069D01*
X257673Y153999D01*
X257721Y153930D01*
X257771Y153863D01*
X257825Y153799D01*
X257881Y153738D01*
X257941Y153678D01*
X258002Y153622D01*
X258066Y153568D01*
X258133Y153518D01*
X258202Y153470D01*
X258272Y153426D01*
X258345Y153384D01*
X258420Y153346D01*
X258496Y153312D01*
X258573Y153281D01*
X258652Y153253D01*
X258732Y153229D01*
X258813Y153209D01*
X258895Y153192D01*
X258978Y153179D01*
X259061Y153169D01*
X259144Y153164D01*
X259228Y153162D01*
X263370Y155646D02*
X263370Y158129D01*
X263369Y158129D02*
X263371Y158228D01*
X263377Y158326D01*
X263387Y158425D01*
X263400Y158522D01*
X263418Y158620D01*
X263439Y158716D01*
X263465Y158812D01*
X263494Y158906D01*
X263526Y158999D01*
X263563Y159091D01*
X263603Y159181D01*
X263647Y159270D01*
X263694Y159357D01*
X263744Y159442D01*
X263798Y159524D01*
X263855Y159605D01*
X263915Y159683D01*
X263979Y159759D01*
X264045Y159832D01*
X264114Y159903D01*
X264186Y159971D01*
X264261Y160035D01*
X264338Y160097D01*
X264417Y160156D01*
X264499Y160211D01*
X264583Y160264D01*
X264668Y160312D01*
X264756Y160358D01*
X264846Y160400D01*
X264937Y160438D01*
X265029Y160472D01*
X265123Y160503D01*
X265218Y160530D01*
X265314Y160554D01*
X265411Y160573D01*
X265508Y160589D01*
X265606Y160601D01*
X265705Y160609D01*
X265804Y160613D01*
X265902Y160613D01*
X266001Y160609D01*
X266100Y160601D01*
X266198Y160589D01*
X266295Y160573D01*
X266392Y160554D01*
X266488Y160530D01*
X266583Y160503D01*
X266677Y160472D01*
X266769Y160438D01*
X266860Y160400D01*
X266950Y160358D01*
X267038Y160312D01*
X267123Y160264D01*
X267207Y160211D01*
X267289Y160156D01*
X267368Y160097D01*
X267445Y160035D01*
X267520Y159971D01*
X267592Y159903D01*
X267661Y159832D01*
X267727Y159759D01*
X267791Y159683D01*
X267851Y159605D01*
X267908Y159524D01*
X267962Y159442D01*
X268012Y159357D01*
X268059Y159270D01*
X268103Y159181D01*
X268143Y159091D01*
X268180Y158999D01*
X268212Y158906D01*
X268241Y158812D01*
X268267Y158716D01*
X268288Y158620D01*
X268306Y158522D01*
X268319Y158425D01*
X268329Y158326D01*
X268335Y158228D01*
X268337Y158129D01*
X268337Y155646D01*
X268335Y155547D01*
X268329Y155449D01*
X268319Y155350D01*
X268306Y155253D01*
X268288Y155155D01*
X268267Y155059D01*
X268241Y154963D01*
X268212Y154869D01*
X268180Y154776D01*
X268143Y154684D01*
X268103Y154594D01*
X268059Y154505D01*
X268012Y154418D01*
X267962Y154333D01*
X267908Y154251D01*
X267851Y154170D01*
X267791Y154092D01*
X267727Y154016D01*
X267661Y153943D01*
X267592Y153872D01*
X267520Y153804D01*
X267445Y153740D01*
X267368Y153678D01*
X267289Y153619D01*
X267207Y153564D01*
X267123Y153511D01*
X267038Y153463D01*
X266950Y153417D01*
X266860Y153375D01*
X266769Y153337D01*
X266677Y153303D01*
X266583Y153272D01*
X266488Y153245D01*
X266392Y153221D01*
X266295Y153202D01*
X266198Y153186D01*
X266100Y153174D01*
X266001Y153166D01*
X265902Y153162D01*
X265804Y153162D01*
X265705Y153166D01*
X265606Y153174D01*
X265508Y153186D01*
X265411Y153202D01*
X265314Y153221D01*
X265218Y153245D01*
X265123Y153272D01*
X265029Y153303D01*
X264937Y153337D01*
X264846Y153375D01*
X264756Y153417D01*
X264668Y153463D01*
X264583Y153511D01*
X264499Y153564D01*
X264417Y153619D01*
X264338Y153678D01*
X264261Y153740D01*
X264186Y153804D01*
X264114Y153872D01*
X264045Y153943D01*
X263979Y154016D01*
X263915Y154092D01*
X263855Y154170D01*
X263798Y154251D01*
X263744Y154333D01*
X263694Y154418D01*
X263647Y154505D01*
X263603Y154594D01*
X263563Y154684D01*
X263526Y154776D01*
X263494Y154869D01*
X263465Y154963D01*
X263439Y155059D01*
X263418Y155155D01*
X263400Y155253D01*
X263387Y155350D01*
X263377Y155449D01*
X263371Y155547D01*
X263369Y155646D01*
X273177Y160613D02*
X275040Y153162D01*
X276902Y158129D01*
X278765Y153162D01*
X280628Y160613D01*
X172212Y432562D02*
X172212Y443738D01*
X175937Y437529D01*
X179663Y443738D01*
X179663Y432562D01*
X185265Y435046D02*
X185265Y437529D01*
X185264Y437529D02*
X185266Y437628D01*
X185272Y437726D01*
X185282Y437825D01*
X185295Y437922D01*
X185313Y438020D01*
X185334Y438116D01*
X185360Y438212D01*
X185389Y438306D01*
X185421Y438399D01*
X185458Y438491D01*
X185498Y438581D01*
X185542Y438670D01*
X185589Y438757D01*
X185639Y438842D01*
X185693Y438924D01*
X185750Y439005D01*
X185810Y439083D01*
X185874Y439159D01*
X185940Y439232D01*
X186009Y439303D01*
X186081Y439371D01*
X186156Y439435D01*
X186233Y439497D01*
X186312Y439556D01*
X186394Y439611D01*
X186478Y439664D01*
X186563Y439712D01*
X186651Y439758D01*
X186741Y439800D01*
X186832Y439838D01*
X186924Y439872D01*
X187018Y439903D01*
X187113Y439930D01*
X187209Y439954D01*
X187306Y439973D01*
X187403Y439989D01*
X187501Y440001D01*
X187600Y440009D01*
X187699Y440013D01*
X187797Y440013D01*
X187896Y440009D01*
X187995Y440001D01*
X188093Y439989D01*
X188190Y439973D01*
X188287Y439954D01*
X188383Y439930D01*
X188478Y439903D01*
X188572Y439872D01*
X188664Y439838D01*
X188755Y439800D01*
X188845Y439758D01*
X188933Y439712D01*
X189018Y439664D01*
X189102Y439611D01*
X189184Y439556D01*
X189263Y439497D01*
X189340Y439435D01*
X189415Y439371D01*
X189487Y439303D01*
X189556Y439232D01*
X189622Y439159D01*
X189686Y439083D01*
X189746Y439005D01*
X189803Y438924D01*
X189857Y438842D01*
X189907Y438757D01*
X189954Y438670D01*
X189998Y438581D01*
X190038Y438491D01*
X190075Y438399D01*
X190107Y438306D01*
X190136Y438212D01*
X190162Y438116D01*
X190183Y438020D01*
X190201Y437922D01*
X190214Y437825D01*
X190224Y437726D01*
X190230Y437628D01*
X190232Y437529D01*
X190232Y435046D01*
X190230Y434947D01*
X190224Y434849D01*
X190214Y434750D01*
X190201Y434653D01*
X190183Y434555D01*
X190162Y434459D01*
X190136Y434363D01*
X190107Y434269D01*
X190075Y434176D01*
X190038Y434084D01*
X189998Y433994D01*
X189954Y433905D01*
X189907Y433818D01*
X189857Y433733D01*
X189803Y433651D01*
X189746Y433570D01*
X189686Y433492D01*
X189622Y433416D01*
X189556Y433343D01*
X189487Y433272D01*
X189415Y433204D01*
X189340Y433140D01*
X189263Y433078D01*
X189184Y433019D01*
X189102Y432964D01*
X189018Y432911D01*
X188933Y432863D01*
X188845Y432817D01*
X188755Y432775D01*
X188664Y432737D01*
X188572Y432703D01*
X188478Y432672D01*
X188383Y432645D01*
X188287Y432621D01*
X188190Y432602D01*
X188093Y432586D01*
X187995Y432574D01*
X187896Y432566D01*
X187797Y432562D01*
X187699Y432562D01*
X187600Y432566D01*
X187501Y432574D01*
X187403Y432586D01*
X187306Y432602D01*
X187209Y432621D01*
X187113Y432645D01*
X187018Y432672D01*
X186924Y432703D01*
X186832Y432737D01*
X186741Y432775D01*
X186651Y432817D01*
X186563Y432863D01*
X186478Y432911D01*
X186394Y432964D01*
X186312Y433019D01*
X186233Y433078D01*
X186156Y433140D01*
X186081Y433204D01*
X186009Y433272D01*
X185940Y433343D01*
X185874Y433416D01*
X185810Y433492D01*
X185750Y433570D01*
X185693Y433651D01*
X185639Y433733D01*
X185589Y433818D01*
X185542Y433905D01*
X185498Y433994D01*
X185458Y434084D01*
X185421Y434176D01*
X185389Y434269D01*
X185360Y434363D01*
X185334Y434459D01*
X185313Y434555D01*
X185295Y434653D01*
X185282Y434750D01*
X185272Y434849D01*
X185266Y434947D01*
X185264Y435046D01*
X195171Y435046D02*
X195171Y437529D01*
X195170Y437529D02*
X195172Y437628D01*
X195178Y437726D01*
X195188Y437825D01*
X195201Y437922D01*
X195219Y438020D01*
X195240Y438116D01*
X195266Y438212D01*
X195295Y438306D01*
X195327Y438399D01*
X195364Y438491D01*
X195404Y438581D01*
X195448Y438670D01*
X195495Y438757D01*
X195545Y438842D01*
X195599Y438924D01*
X195656Y439005D01*
X195716Y439083D01*
X195780Y439159D01*
X195846Y439232D01*
X195915Y439303D01*
X195987Y439371D01*
X196062Y439435D01*
X196139Y439497D01*
X196218Y439556D01*
X196300Y439611D01*
X196384Y439664D01*
X196469Y439712D01*
X196557Y439758D01*
X196647Y439800D01*
X196738Y439838D01*
X196830Y439872D01*
X196924Y439903D01*
X197019Y439930D01*
X197115Y439954D01*
X197212Y439973D01*
X197309Y439989D01*
X197407Y440001D01*
X197506Y440009D01*
X197605Y440013D01*
X197703Y440013D01*
X197802Y440009D01*
X197901Y440001D01*
X197999Y439989D01*
X198096Y439973D01*
X198193Y439954D01*
X198289Y439930D01*
X198384Y439903D01*
X198478Y439872D01*
X198570Y439838D01*
X198661Y439800D01*
X198751Y439758D01*
X198839Y439712D01*
X198924Y439664D01*
X199008Y439611D01*
X199090Y439556D01*
X199169Y439497D01*
X199246Y439435D01*
X199321Y439371D01*
X199393Y439303D01*
X199462Y439232D01*
X199528Y439159D01*
X199592Y439083D01*
X199652Y439005D01*
X199709Y438924D01*
X199763Y438842D01*
X199813Y438757D01*
X199860Y438670D01*
X199904Y438581D01*
X199944Y438491D01*
X199981Y438399D01*
X200013Y438306D01*
X200042Y438212D01*
X200068Y438116D01*
X200089Y438020D01*
X200107Y437922D01*
X200120Y437825D01*
X200130Y437726D01*
X200136Y437628D01*
X200138Y437529D01*
X200138Y435046D01*
X200136Y434947D01*
X200130Y434849D01*
X200120Y434750D01*
X200107Y434653D01*
X200089Y434555D01*
X200068Y434459D01*
X200042Y434363D01*
X200013Y434269D01*
X199981Y434176D01*
X199944Y434084D01*
X199904Y433994D01*
X199860Y433905D01*
X199813Y433818D01*
X199763Y433733D01*
X199709Y433651D01*
X199652Y433570D01*
X199592Y433492D01*
X199528Y433416D01*
X199462Y433343D01*
X199393Y433272D01*
X199321Y433204D01*
X199246Y433140D01*
X199169Y433078D01*
X199090Y433019D01*
X199008Y432964D01*
X198924Y432911D01*
X198839Y432863D01*
X198751Y432817D01*
X198661Y432775D01*
X198570Y432737D01*
X198478Y432703D01*
X198384Y432672D01*
X198289Y432645D01*
X198193Y432621D01*
X198096Y432602D01*
X197999Y432586D01*
X197901Y432574D01*
X197802Y432566D01*
X197703Y432562D01*
X197605Y432562D01*
X197506Y432566D01*
X197407Y432574D01*
X197309Y432586D01*
X197212Y432602D01*
X197115Y432621D01*
X197019Y432645D01*
X196924Y432672D01*
X196830Y432703D01*
X196738Y432737D01*
X196647Y432775D01*
X196557Y432817D01*
X196469Y432863D01*
X196384Y432911D01*
X196300Y432964D01*
X196218Y433019D01*
X196139Y433078D01*
X196062Y433140D01*
X195987Y433204D01*
X195915Y433272D01*
X195846Y433343D01*
X195780Y433416D01*
X195716Y433492D01*
X195656Y433570D01*
X195599Y433651D01*
X195545Y433733D01*
X195495Y433818D01*
X195448Y433905D01*
X195404Y433994D01*
X195364Y434084D01*
X195327Y434176D01*
X195295Y434269D01*
X195266Y434363D01*
X195240Y434459D01*
X195219Y434555D01*
X195201Y434653D01*
X195188Y434750D01*
X195178Y434849D01*
X195172Y434947D01*
X195170Y435046D01*
X209970Y432562D02*
X209970Y443738D01*
X209970Y432562D02*
X206866Y432562D01*
X206782Y432564D01*
X206699Y432569D01*
X206616Y432579D01*
X206533Y432592D01*
X206451Y432609D01*
X206370Y432629D01*
X206290Y432653D01*
X206211Y432681D01*
X206134Y432712D01*
X206058Y432746D01*
X205983Y432784D01*
X205910Y432826D01*
X205840Y432870D01*
X205771Y432918D01*
X205704Y432968D01*
X205640Y433022D01*
X205579Y433078D01*
X205519Y433138D01*
X205463Y433199D01*
X205409Y433263D01*
X205359Y433330D01*
X205311Y433399D01*
X205267Y433469D01*
X205225Y433542D01*
X205187Y433617D01*
X205153Y433693D01*
X205122Y433770D01*
X205094Y433849D01*
X205070Y433929D01*
X205050Y434010D01*
X205033Y434092D01*
X205020Y434175D01*
X205010Y434258D01*
X205005Y434341D01*
X205003Y434425D01*
X205003Y438150D01*
X205005Y438234D01*
X205011Y438317D01*
X205020Y438400D01*
X205033Y438483D01*
X205050Y438565D01*
X205070Y438646D01*
X205094Y438726D01*
X205122Y438805D01*
X205153Y438882D01*
X205187Y438958D01*
X205225Y439033D01*
X205267Y439106D01*
X205311Y439176D01*
X205359Y439245D01*
X205409Y439312D01*
X205463Y439376D01*
X205519Y439437D01*
X205579Y439497D01*
X205640Y439553D01*
X205704Y439607D01*
X205771Y439657D01*
X205840Y439705D01*
X205910Y439749D01*
X205983Y439791D01*
X206058Y439829D01*
X206134Y439863D01*
X206211Y439894D01*
X206290Y439922D01*
X206370Y439946D01*
X206451Y439966D01*
X206533Y439983D01*
X206616Y439996D01*
X206699Y440006D01*
X206782Y440011D01*
X206866Y440013D01*
X209970Y440013D01*
X215646Y436908D02*
X223097Y436908D01*
X228840Y432562D02*
X228840Y443738D01*
X231944Y443738D01*
X232055Y443736D01*
X232165Y443730D01*
X232276Y443720D01*
X232386Y443706D01*
X232495Y443689D01*
X232604Y443667D01*
X232712Y443642D01*
X232818Y443612D01*
X232924Y443579D01*
X233029Y443542D01*
X233132Y443502D01*
X233233Y443457D01*
X233333Y443410D01*
X233432Y443358D01*
X233528Y443303D01*
X233622Y443245D01*
X233714Y443184D01*
X233804Y443119D01*
X233892Y443051D01*
X233977Y442980D01*
X234059Y442906D01*
X234139Y442829D01*
X234216Y442749D01*
X234290Y442667D01*
X234361Y442582D01*
X234429Y442494D01*
X234494Y442404D01*
X234555Y442312D01*
X234613Y442218D01*
X234668Y442122D01*
X234720Y442023D01*
X234767Y441923D01*
X234812Y441822D01*
X234852Y441719D01*
X234889Y441614D01*
X234922Y441508D01*
X234952Y441402D01*
X234977Y441294D01*
X234999Y441185D01*
X235016Y441076D01*
X235030Y440966D01*
X235040Y440855D01*
X235046Y440745D01*
X235048Y440634D01*
X235049Y440634D02*
X235049Y435666D01*
X235048Y435666D02*
X235046Y435555D01*
X235040Y435445D01*
X235030Y435334D01*
X235016Y435224D01*
X234999Y435115D01*
X234977Y435006D01*
X234952Y434898D01*
X234922Y434792D01*
X234889Y434686D01*
X234852Y434581D01*
X234812Y434478D01*
X234767Y434377D01*
X234720Y434277D01*
X234668Y434178D01*
X234613Y434082D01*
X234555Y433988D01*
X234494Y433896D01*
X234429Y433806D01*
X234361Y433718D01*
X234290Y433633D01*
X234216Y433551D01*
X234139Y433471D01*
X234059Y433394D01*
X233977Y433320D01*
X233892Y433249D01*
X233804Y433181D01*
X233714Y433116D01*
X233622Y433055D01*
X233528Y432997D01*
X233432Y432942D01*
X233333Y432890D01*
X233233Y432843D01*
X233132Y432798D01*
X233029Y432758D01*
X232924Y432721D01*
X232818Y432688D01*
X232712Y432658D01*
X232604Y432633D01*
X232495Y432611D01*
X232386Y432594D01*
X232276Y432580D01*
X232165Y432570D01*
X232055Y432564D01*
X231944Y432562D01*
X228840Y432562D01*
X240974Y432562D02*
X240974Y440013D01*
X244699Y440013D01*
X244699Y438771D01*
X250610Y436908D02*
X253404Y436908D01*
X250610Y436908D02*
X250518Y436906D01*
X250426Y436900D01*
X250334Y436890D01*
X250243Y436877D01*
X250152Y436859D01*
X250062Y436838D01*
X249974Y436813D01*
X249886Y436784D01*
X249800Y436751D01*
X249715Y436715D01*
X249632Y436675D01*
X249550Y436632D01*
X249471Y436585D01*
X249393Y436535D01*
X249318Y436482D01*
X249245Y436426D01*
X249174Y436366D01*
X249106Y436304D01*
X249041Y436239D01*
X248979Y436171D01*
X248919Y436100D01*
X248863Y436027D01*
X248810Y435952D01*
X248760Y435874D01*
X248713Y435795D01*
X248670Y435713D01*
X248630Y435630D01*
X248594Y435545D01*
X248561Y435459D01*
X248532Y435371D01*
X248507Y435283D01*
X248486Y435193D01*
X248468Y435102D01*
X248455Y435011D01*
X248445Y434919D01*
X248439Y434827D01*
X248437Y434735D01*
X248439Y434643D01*
X248445Y434551D01*
X248455Y434459D01*
X248468Y434368D01*
X248486Y434277D01*
X248507Y434187D01*
X248532Y434099D01*
X248561Y434011D01*
X248594Y433925D01*
X248630Y433840D01*
X248670Y433757D01*
X248713Y433675D01*
X248760Y433596D01*
X248810Y433518D01*
X248863Y433443D01*
X248919Y433370D01*
X248979Y433299D01*
X249041Y433231D01*
X249106Y433166D01*
X249174Y433104D01*
X249245Y433044D01*
X249318Y432988D01*
X249393Y432935D01*
X249471Y432885D01*
X249550Y432838D01*
X249632Y432795D01*
X249715Y432755D01*
X249800Y432719D01*
X249886Y432686D01*
X249974Y432657D01*
X250062Y432632D01*
X250152Y432611D01*
X250243Y432593D01*
X250334Y432580D01*
X250426Y432570D01*
X250518Y432564D01*
X250610Y432562D01*
X253404Y432562D01*
X253404Y438150D01*
X253402Y438234D01*
X253397Y438317D01*
X253387Y438400D01*
X253374Y438483D01*
X253357Y438565D01*
X253337Y438646D01*
X253313Y438726D01*
X253285Y438805D01*
X253254Y438882D01*
X253220Y438958D01*
X253182Y439033D01*
X253140Y439106D01*
X253096Y439176D01*
X253048Y439245D01*
X252998Y439312D01*
X252944Y439376D01*
X252888Y439437D01*
X252828Y439497D01*
X252767Y439553D01*
X252703Y439607D01*
X252636Y439657D01*
X252567Y439705D01*
X252497Y439749D01*
X252424Y439791D01*
X252349Y439829D01*
X252273Y439863D01*
X252196Y439894D01*
X252117Y439922D01*
X252037Y439946D01*
X251956Y439966D01*
X251874Y439983D01*
X251791Y439996D01*
X251708Y440006D01*
X251625Y440011D01*
X251541Y440013D01*
X249058Y440013D01*
X258699Y440013D02*
X260561Y432562D01*
X262424Y437529D01*
X264287Y432562D01*
X266149Y440013D01*
X270806Y440013D02*
X270806Y432562D01*
X270496Y443117D02*
X270496Y443738D01*
X271117Y443738D01*
X271117Y443117D01*
X270496Y443117D01*
X275943Y440013D02*
X275943Y432562D01*
X275943Y440013D02*
X279047Y440013D01*
X279131Y440011D01*
X279214Y440006D01*
X279297Y439996D01*
X279380Y439983D01*
X279462Y439966D01*
X279543Y439946D01*
X279623Y439922D01*
X279702Y439894D01*
X279779Y439863D01*
X279855Y439829D01*
X279930Y439791D01*
X280003Y439749D01*
X280073Y439705D01*
X280142Y439657D01*
X280209Y439607D01*
X280273Y439553D01*
X280334Y439497D01*
X280394Y439437D01*
X280450Y439376D01*
X280504Y439312D01*
X280554Y439245D01*
X280602Y439176D01*
X280646Y439106D01*
X280688Y439033D01*
X280726Y438958D01*
X280760Y438882D01*
X280791Y438805D01*
X280819Y438726D01*
X280843Y438646D01*
X280863Y438565D01*
X280880Y438483D01*
X280893Y438400D01*
X280903Y438317D01*
X280908Y438234D01*
X280910Y438150D01*
X280910Y432562D01*
X288019Y432562D02*
X291123Y432562D01*
X288019Y432562D02*
X287935Y432564D01*
X287852Y432569D01*
X287769Y432579D01*
X287686Y432592D01*
X287604Y432609D01*
X287523Y432629D01*
X287443Y432653D01*
X287364Y432681D01*
X287287Y432712D01*
X287211Y432746D01*
X287136Y432784D01*
X287063Y432826D01*
X286993Y432870D01*
X286924Y432918D01*
X286857Y432968D01*
X286793Y433022D01*
X286732Y433078D01*
X286672Y433138D01*
X286616Y433199D01*
X286562Y433263D01*
X286512Y433330D01*
X286464Y433399D01*
X286420Y433469D01*
X286378Y433542D01*
X286340Y433617D01*
X286306Y433693D01*
X286275Y433770D01*
X286247Y433849D01*
X286223Y433929D01*
X286203Y434010D01*
X286186Y434092D01*
X286173Y434175D01*
X286163Y434258D01*
X286158Y434341D01*
X286156Y434425D01*
X286156Y438150D01*
X286158Y438234D01*
X286164Y438317D01*
X286173Y438400D01*
X286186Y438483D01*
X286203Y438565D01*
X286223Y438646D01*
X286247Y438726D01*
X286275Y438805D01*
X286306Y438882D01*
X286340Y438958D01*
X286378Y439033D01*
X286420Y439106D01*
X286464Y439176D01*
X286512Y439245D01*
X286562Y439312D01*
X286616Y439376D01*
X286672Y439437D01*
X286732Y439497D01*
X286793Y439553D01*
X286857Y439607D01*
X286924Y439657D01*
X286993Y439705D01*
X287063Y439749D01*
X287136Y439791D01*
X287211Y439829D01*
X287287Y439863D01*
X287364Y439894D01*
X287443Y439922D01*
X287523Y439946D01*
X287604Y439966D01*
X287686Y439983D01*
X287769Y439996D01*
X287852Y440006D01*
X287935Y440011D01*
X288019Y440013D01*
X291123Y440013D01*
X291123Y430699D01*
X291121Y430613D01*
X291115Y430527D01*
X291105Y430442D01*
X291091Y430357D01*
X291074Y430272D01*
X291052Y430189D01*
X291026Y430107D01*
X290997Y430026D01*
X290964Y429947D01*
X290928Y429869D01*
X290888Y429792D01*
X290844Y429718D01*
X290797Y429646D01*
X290747Y429576D01*
X290693Y429509D01*
X290637Y429444D01*
X290577Y429382D01*
X290515Y429322D01*
X290450Y429266D01*
X290383Y429212D01*
X290313Y429162D01*
X290241Y429115D01*
X290167Y429071D01*
X290090Y429031D01*
X290013Y428995D01*
X289933Y428962D01*
X289852Y428933D01*
X289770Y428907D01*
X289687Y428885D01*
X289602Y428868D01*
X289517Y428854D01*
X289432Y428844D01*
X289346Y428838D01*
X289260Y428836D01*
X289260Y428837D02*
X286777Y428837D01*
X303227Y432562D02*
X303227Y443738D01*
X306331Y443738D01*
X306442Y443736D01*
X306552Y443730D01*
X306663Y443720D01*
X306773Y443706D01*
X306882Y443689D01*
X306991Y443667D01*
X307099Y443642D01*
X307205Y443612D01*
X307311Y443579D01*
X307416Y443542D01*
X307519Y443502D01*
X307620Y443457D01*
X307720Y443410D01*
X307819Y443358D01*
X307915Y443303D01*
X308009Y443245D01*
X308101Y443184D01*
X308191Y443119D01*
X308279Y443051D01*
X308364Y442980D01*
X308446Y442906D01*
X308526Y442829D01*
X308603Y442749D01*
X308677Y442667D01*
X308748Y442582D01*
X308816Y442494D01*
X308881Y442404D01*
X308942Y442312D01*
X309000Y442218D01*
X309055Y442122D01*
X309107Y442023D01*
X309154Y441923D01*
X309199Y441822D01*
X309239Y441719D01*
X309276Y441614D01*
X309309Y441508D01*
X309339Y441402D01*
X309364Y441294D01*
X309386Y441185D01*
X309403Y441076D01*
X309417Y440966D01*
X309427Y440855D01*
X309433Y440745D01*
X309435Y440634D01*
X309433Y440523D01*
X309427Y440413D01*
X309417Y440302D01*
X309403Y440192D01*
X309386Y440083D01*
X309364Y439974D01*
X309339Y439866D01*
X309309Y439760D01*
X309276Y439654D01*
X309239Y439549D01*
X309199Y439446D01*
X309154Y439345D01*
X309107Y439245D01*
X309055Y439146D01*
X309000Y439050D01*
X308942Y438956D01*
X308881Y438864D01*
X308816Y438774D01*
X308748Y438686D01*
X308677Y438601D01*
X308603Y438519D01*
X308526Y438439D01*
X308446Y438362D01*
X308364Y438288D01*
X308279Y438217D01*
X308191Y438149D01*
X308101Y438084D01*
X308009Y438023D01*
X307915Y437965D01*
X307819Y437910D01*
X307720Y437858D01*
X307620Y437811D01*
X307519Y437766D01*
X307416Y437726D01*
X307311Y437689D01*
X307205Y437656D01*
X307099Y437626D01*
X306991Y437601D01*
X306882Y437579D01*
X306773Y437562D01*
X306663Y437548D01*
X306552Y437538D01*
X306442Y437532D01*
X306331Y437530D01*
X306331Y437529D02*
X303227Y437529D01*
X306952Y437529D02*
X309435Y432562D01*
X314423Y435046D02*
X314423Y437529D01*
X314425Y437628D01*
X314431Y437726D01*
X314441Y437825D01*
X314454Y437922D01*
X314472Y438020D01*
X314493Y438116D01*
X314519Y438212D01*
X314548Y438306D01*
X314580Y438399D01*
X314617Y438491D01*
X314657Y438581D01*
X314701Y438670D01*
X314748Y438757D01*
X314798Y438842D01*
X314852Y438924D01*
X314909Y439005D01*
X314969Y439083D01*
X315033Y439159D01*
X315099Y439232D01*
X315168Y439303D01*
X315240Y439371D01*
X315315Y439435D01*
X315392Y439497D01*
X315471Y439556D01*
X315553Y439611D01*
X315637Y439664D01*
X315722Y439712D01*
X315810Y439758D01*
X315900Y439800D01*
X315991Y439838D01*
X316083Y439872D01*
X316177Y439903D01*
X316272Y439930D01*
X316368Y439954D01*
X316465Y439973D01*
X316562Y439989D01*
X316660Y440001D01*
X316759Y440009D01*
X316858Y440013D01*
X316956Y440013D01*
X317055Y440009D01*
X317154Y440001D01*
X317252Y439989D01*
X317349Y439973D01*
X317446Y439954D01*
X317542Y439930D01*
X317637Y439903D01*
X317731Y439872D01*
X317823Y439838D01*
X317914Y439800D01*
X318004Y439758D01*
X318092Y439712D01*
X318177Y439664D01*
X318261Y439611D01*
X318343Y439556D01*
X318422Y439497D01*
X318499Y439435D01*
X318574Y439371D01*
X318646Y439303D01*
X318715Y439232D01*
X318781Y439159D01*
X318845Y439083D01*
X318905Y439005D01*
X318962Y438924D01*
X319016Y438842D01*
X319066Y438757D01*
X319113Y438670D01*
X319157Y438581D01*
X319197Y438491D01*
X319234Y438399D01*
X319266Y438306D01*
X319295Y438212D01*
X319321Y438116D01*
X319342Y438020D01*
X319360Y437922D01*
X319373Y437825D01*
X319383Y437726D01*
X319389Y437628D01*
X319391Y437529D01*
X319391Y435046D01*
X319389Y434947D01*
X319383Y434849D01*
X319373Y434750D01*
X319360Y434653D01*
X319342Y434555D01*
X319321Y434459D01*
X319295Y434363D01*
X319266Y434269D01*
X319234Y434176D01*
X319197Y434084D01*
X319157Y433994D01*
X319113Y433905D01*
X319066Y433818D01*
X319016Y433733D01*
X318962Y433651D01*
X318905Y433570D01*
X318845Y433492D01*
X318781Y433416D01*
X318715Y433343D01*
X318646Y433272D01*
X318574Y433204D01*
X318499Y433140D01*
X318422Y433078D01*
X318343Y433019D01*
X318261Y432964D01*
X318177Y432911D01*
X318092Y432863D01*
X318004Y432817D01*
X317914Y432775D01*
X317823Y432737D01*
X317731Y432703D01*
X317637Y432672D01*
X317542Y432645D01*
X317446Y432621D01*
X317349Y432602D01*
X317252Y432586D01*
X317154Y432574D01*
X317055Y432566D01*
X316956Y432562D01*
X316858Y432562D01*
X316759Y432566D01*
X316660Y432574D01*
X316562Y432586D01*
X316465Y432602D01*
X316368Y432621D01*
X316272Y432645D01*
X316177Y432672D01*
X316083Y432703D01*
X315991Y432737D01*
X315900Y432775D01*
X315810Y432817D01*
X315722Y432863D01*
X315637Y432911D01*
X315553Y432964D01*
X315471Y433019D01*
X315392Y433078D01*
X315315Y433140D01*
X315240Y433204D01*
X315168Y433272D01*
X315099Y433343D01*
X315033Y433416D01*
X314969Y433492D01*
X314909Y433570D01*
X314852Y433651D01*
X314798Y433733D01*
X314748Y433818D01*
X314701Y433905D01*
X314657Y433994D01*
X314617Y434084D01*
X314580Y434176D01*
X314548Y434269D01*
X314519Y434363D01*
X314493Y434459D01*
X314472Y434555D01*
X314454Y434653D01*
X314441Y434750D01*
X314431Y434849D01*
X314425Y434947D01*
X314423Y435046D01*
X324784Y432562D02*
X324784Y443738D01*
X324784Y432562D02*
X327888Y432562D01*
X327972Y432564D01*
X328055Y432570D01*
X328138Y432579D01*
X328221Y432592D01*
X328303Y432609D01*
X328384Y432629D01*
X328464Y432653D01*
X328543Y432681D01*
X328620Y432712D01*
X328696Y432746D01*
X328771Y432784D01*
X328844Y432826D01*
X328914Y432870D01*
X328983Y432918D01*
X329050Y432968D01*
X329114Y433022D01*
X329175Y433078D01*
X329235Y433138D01*
X329291Y433199D01*
X329345Y433263D01*
X329395Y433330D01*
X329443Y433399D01*
X329487Y433469D01*
X329529Y433542D01*
X329567Y433617D01*
X329601Y433693D01*
X329632Y433770D01*
X329660Y433849D01*
X329684Y433929D01*
X329704Y434010D01*
X329721Y434092D01*
X329734Y434175D01*
X329744Y434258D01*
X329749Y434341D01*
X329751Y434425D01*
X329751Y438150D01*
X329749Y438234D01*
X329744Y438317D01*
X329734Y438400D01*
X329721Y438483D01*
X329704Y438565D01*
X329684Y438646D01*
X329660Y438726D01*
X329632Y438805D01*
X329601Y438882D01*
X329567Y438958D01*
X329529Y439033D01*
X329487Y439106D01*
X329443Y439176D01*
X329395Y439245D01*
X329345Y439312D01*
X329291Y439376D01*
X329235Y439437D01*
X329175Y439497D01*
X329114Y439553D01*
X329050Y439607D01*
X328983Y439657D01*
X328914Y439705D01*
X328844Y439749D01*
X328771Y439791D01*
X328696Y439829D01*
X328620Y439863D01*
X328543Y439894D01*
X328464Y439922D01*
X328384Y439946D01*
X328303Y439966D01*
X328221Y439983D01*
X328138Y439996D01*
X328055Y440006D01*
X327972Y440011D01*
X327888Y440013D01*
X324784Y440013D01*
X334616Y437529D02*
X334616Y435046D01*
X334616Y437529D02*
X334618Y437628D01*
X334624Y437726D01*
X334634Y437825D01*
X334647Y437922D01*
X334665Y438020D01*
X334686Y438116D01*
X334712Y438212D01*
X334741Y438306D01*
X334773Y438399D01*
X334810Y438491D01*
X334850Y438581D01*
X334894Y438670D01*
X334941Y438757D01*
X334991Y438842D01*
X335045Y438924D01*
X335102Y439005D01*
X335162Y439083D01*
X335226Y439159D01*
X335292Y439232D01*
X335361Y439303D01*
X335433Y439371D01*
X335508Y439435D01*
X335585Y439497D01*
X335664Y439556D01*
X335746Y439611D01*
X335830Y439664D01*
X335915Y439712D01*
X336003Y439758D01*
X336093Y439800D01*
X336184Y439838D01*
X336276Y439872D01*
X336370Y439903D01*
X336465Y439930D01*
X336561Y439954D01*
X336658Y439973D01*
X336755Y439989D01*
X336853Y440001D01*
X336952Y440009D01*
X337051Y440013D01*
X337149Y440013D01*
X337248Y440009D01*
X337347Y440001D01*
X337445Y439989D01*
X337542Y439973D01*
X337639Y439954D01*
X337735Y439930D01*
X337830Y439903D01*
X337924Y439872D01*
X338016Y439838D01*
X338107Y439800D01*
X338197Y439758D01*
X338285Y439712D01*
X338370Y439664D01*
X338454Y439611D01*
X338536Y439556D01*
X338615Y439497D01*
X338692Y439435D01*
X338767Y439371D01*
X338839Y439303D01*
X338908Y439232D01*
X338974Y439159D01*
X339038Y439083D01*
X339098Y439005D01*
X339155Y438924D01*
X339209Y438842D01*
X339259Y438757D01*
X339306Y438670D01*
X339350Y438581D01*
X339390Y438491D01*
X339427Y438399D01*
X339459Y438306D01*
X339488Y438212D01*
X339514Y438116D01*
X339535Y438020D01*
X339553Y437922D01*
X339566Y437825D01*
X339576Y437726D01*
X339582Y437628D01*
X339584Y437529D01*
X339583Y437529D02*
X339583Y435046D01*
X339584Y435046D02*
X339582Y434947D01*
X339576Y434849D01*
X339566Y434750D01*
X339553Y434653D01*
X339535Y434555D01*
X339514Y434459D01*
X339488Y434363D01*
X339459Y434269D01*
X339427Y434176D01*
X339390Y434084D01*
X339350Y433994D01*
X339306Y433905D01*
X339259Y433818D01*
X339209Y433733D01*
X339155Y433651D01*
X339098Y433570D01*
X339038Y433492D01*
X338974Y433416D01*
X338908Y433343D01*
X338839Y433272D01*
X338767Y433204D01*
X338692Y433140D01*
X338615Y433078D01*
X338536Y433019D01*
X338454Y432964D01*
X338370Y432911D01*
X338285Y432863D01*
X338197Y432817D01*
X338107Y432775D01*
X338016Y432737D01*
X337924Y432703D01*
X337830Y432672D01*
X337735Y432645D01*
X337639Y432621D01*
X337542Y432602D01*
X337445Y432586D01*
X337347Y432574D01*
X337248Y432566D01*
X337149Y432562D01*
X337051Y432562D01*
X336952Y432566D01*
X336853Y432574D01*
X336755Y432586D01*
X336658Y432602D01*
X336561Y432621D01*
X336465Y432645D01*
X336370Y432672D01*
X336276Y432703D01*
X336184Y432737D01*
X336093Y432775D01*
X336003Y432817D01*
X335915Y432863D01*
X335830Y432911D01*
X335746Y432964D01*
X335664Y433019D01*
X335585Y433078D01*
X335508Y433140D01*
X335433Y433204D01*
X335361Y433272D01*
X335292Y433343D01*
X335226Y433416D01*
X335162Y433492D01*
X335102Y433570D01*
X335045Y433651D01*
X334991Y433733D01*
X334941Y433818D01*
X334894Y433905D01*
X334850Y433994D01*
X334810Y434084D01*
X334773Y434176D01*
X334741Y434269D01*
X334712Y434363D01*
X334686Y434459D01*
X334665Y434555D01*
X334647Y434653D01*
X334634Y434750D01*
X334624Y434849D01*
X334618Y434947D01*
X334616Y435046D01*
X343504Y440013D02*
X347229Y440013D01*
X344746Y443738D02*
X344746Y434425D01*
X344745Y434425D02*
X344747Y434341D01*
X344752Y434258D01*
X344762Y434175D01*
X344775Y434092D01*
X344792Y434010D01*
X344812Y433929D01*
X344836Y433849D01*
X344864Y433770D01*
X344895Y433693D01*
X344929Y433617D01*
X344967Y433542D01*
X345009Y433469D01*
X345053Y433399D01*
X345101Y433330D01*
X345151Y433263D01*
X345205Y433199D01*
X345261Y433138D01*
X345321Y433078D01*
X345382Y433022D01*
X345446Y432968D01*
X345513Y432918D01*
X345582Y432870D01*
X345652Y432826D01*
X345725Y432784D01*
X345800Y432746D01*
X345876Y432712D01*
X345953Y432681D01*
X346032Y432653D01*
X346112Y432629D01*
X346193Y432609D01*
X346275Y432592D01*
X346358Y432579D01*
X346441Y432569D01*
X346524Y432564D01*
X346608Y432562D01*
X347229Y432562D01*
X177179Y407162D02*
X172212Y407162D01*
X172212Y418338D01*
X177179Y418338D01*
X175937Y413371D02*
X172212Y413371D01*
X182090Y418338D02*
X182090Y407162D01*
X188299Y407162D02*
X182090Y418338D01*
X188299Y418338D02*
X188299Y407162D01*
X198628Y413371D02*
X200491Y413371D01*
X200491Y407162D01*
X196765Y407162D01*
X196667Y407164D01*
X196570Y407170D01*
X196473Y407179D01*
X196376Y407193D01*
X196280Y407210D01*
X196185Y407231D01*
X196091Y407255D01*
X195997Y407284D01*
X195905Y407316D01*
X195814Y407351D01*
X195725Y407390D01*
X195637Y407433D01*
X195551Y407479D01*
X195467Y407528D01*
X195385Y407581D01*
X195305Y407636D01*
X195227Y407695D01*
X195152Y407757D01*
X195079Y407822D01*
X195009Y407890D01*
X194941Y407960D01*
X194876Y408033D01*
X194814Y408108D01*
X194755Y408186D01*
X194700Y408266D01*
X194647Y408348D01*
X194598Y408432D01*
X194552Y408518D01*
X194509Y408606D01*
X194470Y408695D01*
X194435Y408786D01*
X194403Y408878D01*
X194374Y408972D01*
X194350Y409066D01*
X194329Y409161D01*
X194312Y409257D01*
X194298Y409354D01*
X194289Y409451D01*
X194283Y409548D01*
X194281Y409646D01*
X194282Y409646D02*
X194282Y415854D01*
X194281Y415854D02*
X194283Y415952D01*
X194289Y416049D01*
X194298Y416146D01*
X194312Y416243D01*
X194329Y416339D01*
X194350Y416434D01*
X194374Y416528D01*
X194403Y416622D01*
X194435Y416714D01*
X194470Y416805D01*
X194509Y416894D01*
X194552Y416982D01*
X194598Y417068D01*
X194647Y417152D01*
X194700Y417234D01*
X194755Y417314D01*
X194814Y417392D01*
X194876Y417467D01*
X194941Y417540D01*
X195009Y417610D01*
X195079Y417678D01*
X195152Y417743D01*
X195227Y417805D01*
X195305Y417864D01*
X195385Y417919D01*
X195467Y417972D01*
X195551Y418021D01*
X195637Y418067D01*
X195725Y418110D01*
X195814Y418149D01*
X195905Y418184D01*
X195997Y418216D01*
X196091Y418245D01*
X196185Y418269D01*
X196280Y418290D01*
X196376Y418307D01*
X196473Y418321D01*
X196570Y418330D01*
X196667Y418336D01*
X196765Y418338D01*
X200491Y418338D01*
X206911Y418338D02*
X206911Y407162D01*
X205669Y407162D02*
X208153Y407162D01*
X208153Y418338D02*
X205669Y418338D01*
X219047Y407162D02*
X222151Y407162D01*
X222262Y407164D01*
X222372Y407170D01*
X222483Y407180D01*
X222593Y407194D01*
X222702Y407211D01*
X222811Y407233D01*
X222919Y407258D01*
X223025Y407288D01*
X223131Y407321D01*
X223236Y407358D01*
X223339Y407398D01*
X223440Y407443D01*
X223540Y407490D01*
X223639Y407542D01*
X223735Y407597D01*
X223829Y407655D01*
X223921Y407716D01*
X224011Y407781D01*
X224099Y407849D01*
X224184Y407920D01*
X224266Y407994D01*
X224346Y408071D01*
X224423Y408151D01*
X224497Y408233D01*
X224568Y408318D01*
X224636Y408406D01*
X224701Y408496D01*
X224762Y408588D01*
X224820Y408682D01*
X224875Y408778D01*
X224927Y408877D01*
X224974Y408977D01*
X225019Y409078D01*
X225059Y409181D01*
X225096Y409286D01*
X225129Y409392D01*
X225159Y409498D01*
X225184Y409606D01*
X225206Y409715D01*
X225223Y409824D01*
X225237Y409934D01*
X225247Y410045D01*
X225253Y410155D01*
X225255Y410266D01*
X225253Y410377D01*
X225247Y410487D01*
X225237Y410598D01*
X225223Y410708D01*
X225206Y410817D01*
X225184Y410926D01*
X225159Y411034D01*
X225129Y411140D01*
X225096Y411246D01*
X225059Y411351D01*
X225019Y411454D01*
X224974Y411555D01*
X224927Y411655D01*
X224875Y411754D01*
X224820Y411850D01*
X224762Y411944D01*
X224701Y412036D01*
X224636Y412126D01*
X224568Y412214D01*
X224497Y412299D01*
X224423Y412381D01*
X224346Y412461D01*
X224266Y412538D01*
X224184Y412612D01*
X224099Y412683D01*
X224011Y412751D01*
X223921Y412816D01*
X223829Y412877D01*
X223735Y412935D01*
X223639Y412990D01*
X223540Y413042D01*
X223440Y413089D01*
X223339Y413134D01*
X223236Y413174D01*
X223131Y413211D01*
X223025Y413244D01*
X222919Y413274D01*
X222811Y413299D01*
X222702Y413321D01*
X222593Y413338D01*
X222483Y413352D01*
X222372Y413362D01*
X222262Y413368D01*
X222151Y413370D01*
X222772Y418338D02*
X219047Y418338D01*
X222772Y418338D02*
X222871Y418336D01*
X222969Y418330D01*
X223068Y418320D01*
X223165Y418307D01*
X223263Y418289D01*
X223359Y418268D01*
X223455Y418242D01*
X223549Y418213D01*
X223642Y418181D01*
X223734Y418144D01*
X223824Y418104D01*
X223913Y418060D01*
X224000Y418013D01*
X224085Y417963D01*
X224167Y417909D01*
X224248Y417852D01*
X224326Y417792D01*
X224402Y417728D01*
X224475Y417662D01*
X224546Y417593D01*
X224614Y417521D01*
X224678Y417446D01*
X224740Y417369D01*
X224799Y417290D01*
X224854Y417208D01*
X224907Y417124D01*
X224955Y417039D01*
X225001Y416951D01*
X225043Y416861D01*
X225081Y416770D01*
X225115Y416678D01*
X225146Y416584D01*
X225173Y416489D01*
X225197Y416393D01*
X225216Y416296D01*
X225232Y416199D01*
X225244Y416101D01*
X225252Y416002D01*
X225256Y415903D01*
X225256Y415805D01*
X225252Y415706D01*
X225244Y415607D01*
X225232Y415509D01*
X225216Y415412D01*
X225197Y415315D01*
X225173Y415219D01*
X225146Y415124D01*
X225115Y415030D01*
X225081Y414938D01*
X225043Y414847D01*
X225001Y414757D01*
X224955Y414669D01*
X224907Y414584D01*
X224854Y414500D01*
X224799Y414418D01*
X224740Y414339D01*
X224678Y414262D01*
X224614Y414187D01*
X224546Y414115D01*
X224475Y414046D01*
X224402Y413980D01*
X224326Y413916D01*
X224248Y413856D01*
X224167Y413799D01*
X224085Y413745D01*
X224000Y413695D01*
X223913Y413648D01*
X223824Y413604D01*
X223734Y413564D01*
X223642Y413527D01*
X223549Y413495D01*
X223455Y413466D01*
X223359Y413440D01*
X223263Y413419D01*
X223165Y413401D01*
X223068Y413388D01*
X222969Y413378D01*
X222871Y413372D01*
X222772Y413370D01*
X222772Y413371D02*
X220288Y413371D01*
X230477Y412750D02*
X230480Y412970D01*
X230487Y413190D01*
X230501Y413409D01*
X230519Y413628D01*
X230543Y413847D01*
X230571Y414065D01*
X230605Y414282D01*
X230644Y414498D01*
X230689Y414714D01*
X230738Y414928D01*
X230793Y415141D01*
X230852Y415353D01*
X230917Y415563D01*
X230987Y415771D01*
X231061Y415978D01*
X231141Y416183D01*
X231225Y416386D01*
X231314Y416587D01*
X231408Y416786D01*
X231441Y416875D01*
X231477Y416963D01*
X231517Y417049D01*
X231560Y417134D01*
X231607Y417216D01*
X231658Y417297D01*
X231711Y417375D01*
X231768Y417451D01*
X231828Y417525D01*
X231891Y417596D01*
X231956Y417665D01*
X232025Y417731D01*
X232096Y417793D01*
X232170Y417853D01*
X232246Y417910D01*
X232324Y417964D01*
X232405Y418014D01*
X232487Y418061D01*
X232572Y418104D01*
X232658Y418144D01*
X232746Y418181D01*
X232835Y418213D01*
X232925Y418242D01*
X233017Y418268D01*
X233109Y418289D01*
X233203Y418307D01*
X233297Y418320D01*
X233391Y418330D01*
X233486Y418336D01*
X233581Y418338D01*
X233676Y418336D01*
X233771Y418330D01*
X233865Y418320D01*
X233959Y418307D01*
X234053Y418289D01*
X234145Y418268D01*
X234237Y418242D01*
X234327Y418213D01*
X234416Y418181D01*
X234504Y418144D01*
X234590Y418104D01*
X234675Y418061D01*
X234757Y418014D01*
X234838Y417964D01*
X234916Y417910D01*
X234992Y417853D01*
X235066Y417793D01*
X235137Y417731D01*
X235206Y417665D01*
X235271Y417596D01*
X235334Y417525D01*
X235394Y417451D01*
X235451Y417375D01*
X235504Y417297D01*
X235555Y417216D01*
X235602Y417133D01*
X235645Y417049D01*
X235685Y416963D01*
X235721Y416875D01*
X235754Y416786D01*
X235755Y416786D02*
X235849Y416587D01*
X235938Y416386D01*
X236022Y416183D01*
X236102Y415978D01*
X236176Y415771D01*
X236246Y415563D01*
X236311Y415353D01*
X236370Y415141D01*
X236425Y414928D01*
X236474Y414714D01*
X236519Y414498D01*
X236558Y414282D01*
X236592Y414065D01*
X236620Y413847D01*
X236644Y413628D01*
X236662Y413409D01*
X236676Y413190D01*
X236683Y412970D01*
X236686Y412750D01*
X230477Y412750D02*
X230480Y412530D01*
X230487Y412310D01*
X230501Y412091D01*
X230519Y411872D01*
X230543Y411653D01*
X230571Y411435D01*
X230605Y411218D01*
X230644Y411002D01*
X230689Y410786D01*
X230738Y410572D01*
X230793Y410359D01*
X230852Y410148D01*
X230917Y409937D01*
X230987Y409729D01*
X231061Y409522D01*
X231141Y409317D01*
X231225Y409114D01*
X231314Y408913D01*
X231408Y408714D01*
X231441Y408625D01*
X231477Y408537D01*
X231517Y408451D01*
X231560Y408366D01*
X231607Y408284D01*
X231658Y408203D01*
X231711Y408125D01*
X231768Y408049D01*
X231828Y407975D01*
X231891Y407904D01*
X231956Y407835D01*
X232025Y407769D01*
X232096Y407707D01*
X232170Y407647D01*
X232246Y407590D01*
X232324Y407536D01*
X232405Y407486D01*
X232487Y407439D01*
X232572Y407396D01*
X232658Y407356D01*
X232746Y407319D01*
X232835Y407287D01*
X232925Y407258D01*
X233017Y407232D01*
X233109Y407211D01*
X233203Y407193D01*
X233297Y407180D01*
X233391Y407170D01*
X233486Y407164D01*
X233581Y407162D01*
X235755Y408714D02*
X235849Y408913D01*
X235938Y409114D01*
X236022Y409317D01*
X236102Y409522D01*
X236176Y409729D01*
X236246Y409937D01*
X236311Y410147D01*
X236370Y410359D01*
X236425Y410572D01*
X236474Y410786D01*
X236519Y411002D01*
X236558Y411218D01*
X236592Y411435D01*
X236620Y411653D01*
X236644Y411872D01*
X236662Y412091D01*
X236676Y412310D01*
X236683Y412530D01*
X236686Y412750D01*
X235754Y408714D02*
X235721Y408625D01*
X235685Y408537D01*
X235645Y408451D01*
X235602Y408366D01*
X235555Y408284D01*
X235504Y408203D01*
X235451Y408125D01*
X235394Y408049D01*
X235334Y407975D01*
X235271Y407904D01*
X235206Y407835D01*
X235137Y407769D01*
X235066Y407707D01*
X234992Y407647D01*
X234916Y407590D01*
X234838Y407536D01*
X234757Y407486D01*
X234675Y407439D01*
X234590Y407396D01*
X234504Y407356D01*
X234416Y407319D01*
X234327Y407287D01*
X234237Y407258D01*
X234145Y407232D01*
X234053Y407211D01*
X233959Y407193D01*
X233865Y407180D01*
X233771Y407170D01*
X233676Y407164D01*
X233581Y407162D01*
X231098Y409646D02*
X236065Y415854D01*
X241907Y415854D02*
X245011Y418338D01*
X245011Y407162D01*
X241907Y407162D02*
X248116Y407162D01*
X287507Y407162D02*
X287507Y418338D01*
X290612Y418338D01*
X290723Y418336D01*
X290833Y418330D01*
X290944Y418320D01*
X291054Y418306D01*
X291163Y418289D01*
X291272Y418267D01*
X291380Y418242D01*
X291486Y418212D01*
X291592Y418179D01*
X291697Y418142D01*
X291800Y418102D01*
X291901Y418057D01*
X292001Y418010D01*
X292100Y417958D01*
X292196Y417903D01*
X292290Y417845D01*
X292382Y417784D01*
X292472Y417719D01*
X292560Y417651D01*
X292645Y417580D01*
X292727Y417506D01*
X292807Y417429D01*
X292884Y417349D01*
X292958Y417267D01*
X293029Y417182D01*
X293097Y417094D01*
X293162Y417004D01*
X293223Y416912D01*
X293281Y416818D01*
X293336Y416722D01*
X293388Y416623D01*
X293435Y416523D01*
X293480Y416422D01*
X293520Y416319D01*
X293557Y416214D01*
X293590Y416108D01*
X293620Y416002D01*
X293645Y415894D01*
X293667Y415785D01*
X293684Y415676D01*
X293698Y415566D01*
X293708Y415455D01*
X293714Y415345D01*
X293716Y415234D01*
X293714Y415123D01*
X293708Y415013D01*
X293698Y414902D01*
X293684Y414792D01*
X293667Y414683D01*
X293645Y414574D01*
X293620Y414466D01*
X293590Y414360D01*
X293557Y414254D01*
X293520Y414149D01*
X293480Y414046D01*
X293435Y413945D01*
X293388Y413845D01*
X293336Y413746D01*
X293281Y413650D01*
X293223Y413556D01*
X293162Y413464D01*
X293097Y413374D01*
X293029Y413286D01*
X292958Y413201D01*
X292884Y413119D01*
X292807Y413039D01*
X292727Y412962D01*
X292645Y412888D01*
X292560Y412817D01*
X292472Y412749D01*
X292382Y412684D01*
X292290Y412623D01*
X292196Y412565D01*
X292100Y412510D01*
X292001Y412458D01*
X291901Y412411D01*
X291800Y412366D01*
X291697Y412326D01*
X291592Y412289D01*
X291486Y412256D01*
X291380Y412226D01*
X291272Y412201D01*
X291163Y412179D01*
X291054Y412162D01*
X290944Y412148D01*
X290833Y412138D01*
X290723Y412132D01*
X290612Y412130D01*
X290612Y412129D02*
X287507Y412129D01*
X291233Y412129D02*
X293716Y407162D01*
X299254Y407162D02*
X304222Y407162D01*
X299254Y407162D02*
X299254Y418338D01*
X304222Y418338D01*
X302980Y413371D02*
X299254Y413371D01*
X308130Y418338D02*
X311856Y407162D01*
X315581Y418338D01*
X326277Y415854D02*
X329382Y418338D01*
X329382Y407162D01*
X332486Y407162D02*
X326277Y407162D01*
X337072Y407162D02*
X337072Y407783D01*
X337693Y407783D01*
X337693Y407162D01*
X337072Y407162D01*
X342279Y412750D02*
X342282Y412970D01*
X342289Y413190D01*
X342303Y413409D01*
X342321Y413628D01*
X342345Y413847D01*
X342373Y414065D01*
X342407Y414282D01*
X342446Y414498D01*
X342491Y414714D01*
X342540Y414928D01*
X342595Y415141D01*
X342654Y415353D01*
X342719Y415563D01*
X342789Y415771D01*
X342863Y415978D01*
X342943Y416183D01*
X343027Y416386D01*
X343116Y416587D01*
X343210Y416786D01*
X343211Y416786D02*
X343244Y416875D01*
X343280Y416963D01*
X343320Y417049D01*
X343363Y417134D01*
X343410Y417216D01*
X343461Y417297D01*
X343514Y417375D01*
X343571Y417451D01*
X343631Y417525D01*
X343694Y417596D01*
X343759Y417665D01*
X343828Y417731D01*
X343899Y417793D01*
X343973Y417853D01*
X344049Y417910D01*
X344127Y417964D01*
X344208Y418014D01*
X344290Y418061D01*
X344375Y418104D01*
X344461Y418144D01*
X344549Y418181D01*
X344638Y418213D01*
X344728Y418242D01*
X344820Y418268D01*
X344912Y418289D01*
X345006Y418307D01*
X345100Y418320D01*
X345194Y418330D01*
X345289Y418336D01*
X345384Y418338D01*
X345479Y418336D01*
X345574Y418330D01*
X345668Y418320D01*
X345762Y418307D01*
X345856Y418289D01*
X345948Y418268D01*
X346040Y418242D01*
X346130Y418213D01*
X346219Y418181D01*
X346307Y418144D01*
X346393Y418104D01*
X346478Y418061D01*
X346560Y418014D01*
X346641Y417964D01*
X346719Y417910D01*
X346795Y417853D01*
X346869Y417793D01*
X346940Y417731D01*
X347009Y417665D01*
X347074Y417596D01*
X347137Y417525D01*
X347197Y417451D01*
X347254Y417375D01*
X347307Y417297D01*
X347358Y417216D01*
X347405Y417133D01*
X347448Y417049D01*
X347488Y416963D01*
X347524Y416875D01*
X347557Y416786D01*
X347651Y416587D01*
X347740Y416386D01*
X347824Y416183D01*
X347904Y415978D01*
X347978Y415771D01*
X348048Y415563D01*
X348113Y415353D01*
X348172Y415141D01*
X348227Y414928D01*
X348276Y414714D01*
X348321Y414498D01*
X348360Y414282D01*
X348394Y414065D01*
X348422Y413847D01*
X348446Y413628D01*
X348464Y413409D01*
X348478Y413190D01*
X348485Y412970D01*
X348488Y412750D01*
X342279Y412750D02*
X342282Y412530D01*
X342289Y412310D01*
X342303Y412091D01*
X342321Y411872D01*
X342345Y411653D01*
X342373Y411435D01*
X342407Y411218D01*
X342446Y411002D01*
X342491Y410786D01*
X342540Y410572D01*
X342595Y410359D01*
X342654Y410148D01*
X342719Y409937D01*
X342789Y409729D01*
X342863Y409522D01*
X342943Y409317D01*
X343027Y409114D01*
X343116Y408913D01*
X343210Y408714D01*
X343211Y408714D02*
X343244Y408625D01*
X343280Y408537D01*
X343320Y408451D01*
X343363Y408366D01*
X343410Y408284D01*
X343461Y408203D01*
X343514Y408125D01*
X343571Y408049D01*
X343631Y407975D01*
X343694Y407904D01*
X343759Y407835D01*
X343828Y407769D01*
X343899Y407707D01*
X343973Y407647D01*
X344049Y407590D01*
X344127Y407536D01*
X344208Y407486D01*
X344290Y407439D01*
X344375Y407396D01*
X344461Y407356D01*
X344549Y407319D01*
X344638Y407287D01*
X344728Y407258D01*
X344820Y407232D01*
X344912Y407211D01*
X345006Y407193D01*
X345100Y407180D01*
X345194Y407170D01*
X345289Y407164D01*
X345384Y407162D01*
X347557Y408714D02*
X347651Y408913D01*
X347740Y409114D01*
X347824Y409317D01*
X347904Y409522D01*
X347978Y409729D01*
X348048Y409937D01*
X348113Y410147D01*
X348172Y410359D01*
X348227Y410572D01*
X348276Y410786D01*
X348321Y411002D01*
X348360Y411218D01*
X348394Y411435D01*
X348422Y411653D01*
X348446Y411872D01*
X348464Y412091D01*
X348478Y412310D01*
X348485Y412530D01*
X348488Y412750D01*
X347557Y408714D02*
X347524Y408625D01*
X347488Y408537D01*
X347448Y408451D01*
X347405Y408366D01*
X347358Y408284D01*
X347307Y408203D01*
X347254Y408125D01*
X347197Y408049D01*
X347137Y407975D01*
X347074Y407904D01*
X347009Y407835D01*
X346940Y407769D01*
X346869Y407707D01*
X346795Y407647D01*
X346719Y407590D01*
X346641Y407536D01*
X346560Y407486D01*
X346478Y407439D01*
X346393Y407396D01*
X346307Y407356D01*
X346219Y407319D01*
X346130Y407287D01*
X346040Y407258D01*
X345948Y407232D01*
X345856Y407211D01*
X345762Y407193D01*
X345668Y407180D01*
X345574Y407170D01*
X345479Y407164D01*
X345384Y407162D01*
X342900Y409646D02*
X347867Y415854D01*
X350012Y265938D02*
X350012Y257866D01*
X350014Y257755D01*
X350020Y257645D01*
X350030Y257534D01*
X350044Y257424D01*
X350061Y257315D01*
X350083Y257206D01*
X350108Y257098D01*
X350138Y256992D01*
X350171Y256886D01*
X350208Y256781D01*
X350248Y256678D01*
X350293Y256577D01*
X350340Y256477D01*
X350392Y256378D01*
X350447Y256282D01*
X350505Y256188D01*
X350566Y256096D01*
X350631Y256006D01*
X350699Y255918D01*
X350770Y255833D01*
X350844Y255751D01*
X350921Y255671D01*
X351001Y255594D01*
X351083Y255520D01*
X351168Y255449D01*
X351256Y255381D01*
X351346Y255316D01*
X351438Y255255D01*
X351532Y255197D01*
X351628Y255142D01*
X351727Y255090D01*
X351827Y255043D01*
X351928Y254998D01*
X352031Y254958D01*
X352136Y254921D01*
X352242Y254888D01*
X352348Y254858D01*
X352456Y254833D01*
X352565Y254811D01*
X352674Y254794D01*
X352784Y254780D01*
X352895Y254770D01*
X353005Y254764D01*
X353116Y254762D01*
X353227Y254764D01*
X353337Y254770D01*
X353448Y254780D01*
X353558Y254794D01*
X353667Y254811D01*
X353776Y254833D01*
X353884Y254858D01*
X353990Y254888D01*
X354096Y254921D01*
X354201Y254958D01*
X354304Y254998D01*
X354405Y255043D01*
X354505Y255090D01*
X354604Y255142D01*
X354700Y255197D01*
X354794Y255255D01*
X354886Y255316D01*
X354976Y255381D01*
X355064Y255449D01*
X355149Y255520D01*
X355231Y255594D01*
X355311Y255671D01*
X355388Y255751D01*
X355462Y255833D01*
X355533Y255918D01*
X355601Y256006D01*
X355666Y256096D01*
X355727Y256188D01*
X355785Y256282D01*
X355840Y256378D01*
X355892Y256477D01*
X355939Y256577D01*
X355984Y256678D01*
X356024Y256781D01*
X356061Y256886D01*
X356094Y256992D01*
X356124Y257098D01*
X356149Y257206D01*
X356171Y257315D01*
X356188Y257424D01*
X356202Y257534D01*
X356212Y257645D01*
X356218Y257755D01*
X356220Y257866D01*
X356221Y257866D02*
X356221Y265938D01*
X361823Y254762D02*
X364927Y254762D01*
X365038Y254764D01*
X365148Y254770D01*
X365259Y254780D01*
X365369Y254794D01*
X365478Y254811D01*
X365587Y254833D01*
X365695Y254858D01*
X365801Y254888D01*
X365907Y254921D01*
X366012Y254958D01*
X366115Y254998D01*
X366216Y255043D01*
X366316Y255090D01*
X366415Y255142D01*
X366511Y255197D01*
X366605Y255255D01*
X366697Y255316D01*
X366787Y255381D01*
X366875Y255449D01*
X366960Y255520D01*
X367042Y255594D01*
X367122Y255671D01*
X367199Y255751D01*
X367273Y255833D01*
X367344Y255918D01*
X367412Y256006D01*
X367477Y256096D01*
X367538Y256188D01*
X367596Y256282D01*
X367651Y256378D01*
X367703Y256477D01*
X367750Y256577D01*
X367795Y256678D01*
X367835Y256781D01*
X367872Y256886D01*
X367905Y256992D01*
X367935Y257098D01*
X367960Y257206D01*
X367982Y257315D01*
X367999Y257424D01*
X368013Y257534D01*
X368023Y257645D01*
X368029Y257755D01*
X368031Y257866D01*
X368029Y257977D01*
X368023Y258087D01*
X368013Y258198D01*
X367999Y258308D01*
X367982Y258417D01*
X367960Y258526D01*
X367935Y258634D01*
X367905Y258740D01*
X367872Y258846D01*
X367835Y258951D01*
X367795Y259054D01*
X367750Y259155D01*
X367703Y259255D01*
X367651Y259354D01*
X367596Y259450D01*
X367538Y259544D01*
X367477Y259636D01*
X367412Y259726D01*
X367344Y259814D01*
X367273Y259899D01*
X367199Y259981D01*
X367122Y260061D01*
X367042Y260138D01*
X366960Y260212D01*
X366875Y260283D01*
X366787Y260351D01*
X366697Y260416D01*
X366605Y260477D01*
X366511Y260535D01*
X366415Y260590D01*
X366316Y260642D01*
X366216Y260689D01*
X366115Y260734D01*
X366012Y260774D01*
X365907Y260811D01*
X365801Y260844D01*
X365695Y260874D01*
X365587Y260899D01*
X365478Y260921D01*
X365369Y260938D01*
X365259Y260952D01*
X365148Y260962D01*
X365038Y260968D01*
X364927Y260970D01*
X365548Y265938D02*
X361823Y265938D01*
X365548Y265938D02*
X365647Y265936D01*
X365745Y265930D01*
X365844Y265920D01*
X365941Y265907D01*
X366039Y265889D01*
X366135Y265868D01*
X366231Y265842D01*
X366325Y265813D01*
X366418Y265781D01*
X366510Y265744D01*
X366600Y265704D01*
X366689Y265660D01*
X366776Y265613D01*
X366861Y265563D01*
X366943Y265509D01*
X367024Y265452D01*
X367102Y265392D01*
X367178Y265328D01*
X367251Y265262D01*
X367322Y265193D01*
X367390Y265121D01*
X367454Y265046D01*
X367516Y264969D01*
X367575Y264890D01*
X367630Y264808D01*
X367683Y264724D01*
X367731Y264639D01*
X367777Y264551D01*
X367819Y264461D01*
X367857Y264370D01*
X367891Y264278D01*
X367922Y264184D01*
X367949Y264089D01*
X367973Y263993D01*
X367992Y263896D01*
X368008Y263799D01*
X368020Y263701D01*
X368028Y263602D01*
X368032Y263503D01*
X368032Y263405D01*
X368028Y263306D01*
X368020Y263207D01*
X368008Y263109D01*
X367992Y263012D01*
X367973Y262915D01*
X367949Y262819D01*
X367922Y262724D01*
X367891Y262630D01*
X367857Y262538D01*
X367819Y262447D01*
X367777Y262357D01*
X367731Y262269D01*
X367683Y262184D01*
X367630Y262100D01*
X367575Y262018D01*
X367516Y261939D01*
X367454Y261862D01*
X367390Y261787D01*
X367322Y261715D01*
X367251Y261646D01*
X367178Y261580D01*
X367102Y261516D01*
X367024Y261456D01*
X366943Y261399D01*
X366861Y261345D01*
X366776Y261295D01*
X366689Y261248D01*
X366600Y261204D01*
X366510Y261164D01*
X366418Y261127D01*
X366325Y261095D01*
X366231Y261066D01*
X366135Y261040D01*
X366039Y261019D01*
X365941Y261001D01*
X365844Y260988D01*
X365745Y260978D01*
X365647Y260972D01*
X365548Y260970D01*
X365548Y260971D02*
X363065Y260971D01*
D11*
X199700Y178600D02*
X199697Y178358D01*
X199688Y178117D01*
X199674Y177876D01*
X199653Y177635D01*
X199627Y177395D01*
X199595Y177155D01*
X199557Y176916D01*
X199514Y176679D01*
X199464Y176442D01*
X199409Y176207D01*
X199349Y175973D01*
X199282Y175741D01*
X199211Y175510D01*
X199133Y175281D01*
X199050Y175054D01*
X198962Y174829D01*
X198868Y174606D01*
X198769Y174386D01*
X198664Y174168D01*
X198555Y173953D01*
X198440Y173740D01*
X198320Y173530D01*
X198195Y173324D01*
X198065Y173120D01*
X197930Y172919D01*
X197790Y172722D01*
X197646Y172528D01*
X197497Y172338D01*
X197343Y172152D01*
X197185Y171969D01*
X197023Y171790D01*
X196856Y171615D01*
X196685Y171444D01*
X196510Y171277D01*
X196331Y171115D01*
X196148Y170957D01*
X195962Y170803D01*
X195772Y170654D01*
X195578Y170510D01*
X195381Y170370D01*
X195180Y170235D01*
X194976Y170105D01*
X194770Y169980D01*
X194560Y169860D01*
X194347Y169745D01*
X194132Y169636D01*
X193914Y169531D01*
X193694Y169432D01*
X193471Y169338D01*
X193246Y169250D01*
X193019Y169167D01*
X192790Y169089D01*
X192559Y169018D01*
X192327Y168951D01*
X192093Y168891D01*
X191858Y168836D01*
X191621Y168786D01*
X191384Y168743D01*
X191145Y168705D01*
X190905Y168673D01*
X190665Y168647D01*
X190424Y168626D01*
X190183Y168612D01*
X189942Y168603D01*
X189700Y168600D01*
X89700Y168600D01*
X89458Y168603D01*
X89217Y168612D01*
X88976Y168626D01*
X88735Y168647D01*
X88495Y168673D01*
X88255Y168705D01*
X88016Y168743D01*
X87779Y168786D01*
X87542Y168836D01*
X87307Y168891D01*
X87073Y168951D01*
X86841Y169018D01*
X86610Y169089D01*
X86381Y169167D01*
X86154Y169250D01*
X85929Y169338D01*
X85706Y169432D01*
X85486Y169531D01*
X85268Y169636D01*
X85053Y169745D01*
X84840Y169860D01*
X84630Y169980D01*
X84424Y170105D01*
X84220Y170235D01*
X84019Y170370D01*
X83822Y170510D01*
X83628Y170654D01*
X83438Y170803D01*
X83252Y170957D01*
X83069Y171115D01*
X82890Y171277D01*
X82715Y171444D01*
X82544Y171615D01*
X82377Y171790D01*
X82215Y171969D01*
X82057Y172152D01*
X81903Y172338D01*
X81754Y172528D01*
X81610Y172722D01*
X81470Y172919D01*
X81335Y173120D01*
X81205Y173324D01*
X81080Y173530D01*
X80960Y173740D01*
X80845Y173953D01*
X80736Y174168D01*
X80631Y174386D01*
X80532Y174606D01*
X80438Y174829D01*
X80350Y175054D01*
X80267Y175281D01*
X80189Y175510D01*
X80118Y175741D01*
X80051Y175973D01*
X79991Y176207D01*
X79936Y176442D01*
X79886Y176679D01*
X79843Y176916D01*
X79805Y177155D01*
X79773Y177395D01*
X79747Y177635D01*
X79726Y177876D01*
X79712Y178117D01*
X79703Y178358D01*
X79700Y178600D01*
X79700Y278600D02*
X79703Y278842D01*
X79712Y279083D01*
X79726Y279324D01*
X79747Y279565D01*
X79773Y279805D01*
X79805Y280045D01*
X79843Y280284D01*
X79886Y280521D01*
X79936Y280758D01*
X79991Y280993D01*
X80051Y281227D01*
X80118Y281459D01*
X80189Y281690D01*
X80267Y281919D01*
X80350Y282146D01*
X80438Y282371D01*
X80532Y282594D01*
X80631Y282814D01*
X80736Y283032D01*
X80845Y283247D01*
X80960Y283460D01*
X81080Y283670D01*
X81205Y283876D01*
X81335Y284080D01*
X81470Y284281D01*
X81610Y284478D01*
X81754Y284672D01*
X81903Y284862D01*
X82057Y285048D01*
X82215Y285231D01*
X82377Y285410D01*
X82544Y285585D01*
X82715Y285756D01*
X82890Y285923D01*
X83069Y286085D01*
X83252Y286243D01*
X83438Y286397D01*
X83628Y286546D01*
X83822Y286690D01*
X84019Y286830D01*
X84220Y286965D01*
X84424Y287095D01*
X84630Y287220D01*
X84840Y287340D01*
X85053Y287455D01*
X85268Y287564D01*
X85486Y287669D01*
X85706Y287768D01*
X85929Y287862D01*
X86154Y287950D01*
X86381Y288033D01*
X86610Y288111D01*
X86841Y288182D01*
X87073Y288249D01*
X87307Y288309D01*
X87542Y288364D01*
X87779Y288414D01*
X88016Y288457D01*
X88255Y288495D01*
X88495Y288527D01*
X88735Y288553D01*
X88976Y288574D01*
X89217Y288588D01*
X89458Y288597D01*
X89700Y288600D01*
X189700Y288600D01*
X189942Y288597D01*
X190183Y288588D01*
X190424Y288574D01*
X190665Y288553D01*
X190905Y288527D01*
X191145Y288495D01*
X191384Y288457D01*
X191621Y288414D01*
X191858Y288364D01*
X192093Y288309D01*
X192327Y288249D01*
X192559Y288182D01*
X192790Y288111D01*
X193019Y288033D01*
X193246Y287950D01*
X193471Y287862D01*
X193694Y287768D01*
X193914Y287669D01*
X194132Y287564D01*
X194347Y287455D01*
X194560Y287340D01*
X194770Y287220D01*
X194976Y287095D01*
X195180Y286965D01*
X195381Y286830D01*
X195578Y286690D01*
X195772Y286546D01*
X195962Y286397D01*
X196148Y286243D01*
X196331Y286085D01*
X196510Y285923D01*
X196685Y285756D01*
X196856Y285585D01*
X197023Y285410D01*
X197185Y285231D01*
X197343Y285048D01*
X197497Y284862D01*
X197646Y284672D01*
X197790Y284478D01*
X197930Y284281D01*
X198065Y284080D01*
X198195Y283876D01*
X198320Y283670D01*
X198440Y283460D01*
X198555Y283247D01*
X198664Y283032D01*
X198769Y282814D01*
X198868Y282594D01*
X198962Y282371D01*
X199050Y282146D01*
X199133Y281919D01*
X199211Y281690D01*
X199282Y281459D01*
X199349Y281227D01*
X199409Y280993D01*
X199464Y280758D01*
X199514Y280521D01*
X199557Y280284D01*
X199595Y280045D01*
X199627Y279805D01*
X199653Y279565D01*
X199674Y279324D01*
X199688Y279083D01*
X199697Y278842D01*
X199700Y278600D01*
X104345Y228600D02*
X104356Y229468D01*
X104388Y230335D01*
X104441Y231201D01*
X104515Y232065D01*
X104611Y232928D01*
X104728Y233788D01*
X104866Y234644D01*
X105024Y235497D01*
X105204Y236346D01*
X105405Y237191D01*
X105626Y238030D01*
X105867Y238863D01*
X106129Y239690D01*
X106412Y240511D01*
X106714Y241324D01*
X107036Y242130D01*
X107378Y242927D01*
X107739Y243716D01*
X108120Y244496D01*
X108520Y245266D01*
X108938Y246026D01*
X109375Y246776D01*
X109830Y247515D01*
X110303Y248242D01*
X110794Y248958D01*
X111303Y249661D01*
X111828Y250352D01*
X112370Y251029D01*
X112929Y251693D01*
X113504Y252343D01*
X114094Y252979D01*
X114700Y253600D01*
X115321Y254206D01*
X115957Y254796D01*
X116607Y255371D01*
X117271Y255930D01*
X117948Y256472D01*
X118639Y256997D01*
X119342Y257506D01*
X120058Y257997D01*
X120785Y258470D01*
X121524Y258925D01*
X122274Y259362D01*
X123034Y259780D01*
X123804Y260180D01*
X124584Y260561D01*
X125373Y260922D01*
X126170Y261264D01*
X126976Y261586D01*
X127789Y261888D01*
X128610Y262171D01*
X129437Y262433D01*
X130270Y262674D01*
X131109Y262895D01*
X131954Y263096D01*
X132803Y263276D01*
X133656Y263434D01*
X134512Y263572D01*
X135372Y263689D01*
X136235Y263785D01*
X137099Y263859D01*
X137965Y263912D01*
X138832Y263944D01*
X139700Y263955D01*
X140568Y263944D01*
X141435Y263912D01*
X142301Y263859D01*
X143165Y263785D01*
X144028Y263689D01*
X144888Y263572D01*
X145744Y263434D01*
X146597Y263276D01*
X147446Y263096D01*
X148291Y262895D01*
X149130Y262674D01*
X149963Y262433D01*
X150790Y262171D01*
X151611Y261888D01*
X152424Y261586D01*
X153230Y261264D01*
X154027Y260922D01*
X154816Y260561D01*
X155596Y260180D01*
X156366Y259780D01*
X157126Y259362D01*
X157876Y258925D01*
X158615Y258470D01*
X159342Y257997D01*
X160058Y257506D01*
X160761Y256997D01*
X161452Y256472D01*
X162129Y255930D01*
X162793Y255371D01*
X163443Y254796D01*
X164079Y254206D01*
X164700Y253600D01*
X165306Y252979D01*
X165896Y252343D01*
X166471Y251693D01*
X167030Y251029D01*
X167572Y250352D01*
X168097Y249661D01*
X168606Y248958D01*
X169097Y248242D01*
X169570Y247515D01*
X170025Y246776D01*
X170462Y246026D01*
X170880Y245266D01*
X171280Y244496D01*
X171661Y243716D01*
X172022Y242927D01*
X172364Y242130D01*
X172686Y241324D01*
X172988Y240511D01*
X173271Y239690D01*
X173533Y238863D01*
X173774Y238030D01*
X173995Y237191D01*
X174196Y236346D01*
X174376Y235497D01*
X174534Y234644D01*
X174672Y233788D01*
X174789Y232928D01*
X174885Y232065D01*
X174959Y231201D01*
X175012Y230335D01*
X175044Y229468D01*
X175055Y228600D01*
X175044Y227732D01*
X175012Y226865D01*
X174959Y225999D01*
X174885Y225135D01*
X174789Y224272D01*
X174672Y223412D01*
X174534Y222556D01*
X174376Y221703D01*
X174196Y220854D01*
X173995Y220009D01*
X173774Y219170D01*
X173533Y218337D01*
X173271Y217510D01*
X172988Y216689D01*
X172686Y215876D01*
X172364Y215070D01*
X172022Y214273D01*
X171661Y213484D01*
X171280Y212704D01*
X170880Y211934D01*
X170462Y211174D01*
X170025Y210424D01*
X169570Y209685D01*
X169097Y208958D01*
X168606Y208242D01*
X168097Y207539D01*
X167572Y206848D01*
X167030Y206171D01*
X166471Y205507D01*
X165896Y204857D01*
X165306Y204221D01*
X164700Y203600D01*
X164079Y202994D01*
X163443Y202404D01*
X162793Y201829D01*
X162129Y201270D01*
X161452Y200728D01*
X160761Y200203D01*
X160058Y199694D01*
X159342Y199203D01*
X158615Y198730D01*
X157876Y198275D01*
X157126Y197838D01*
X156366Y197420D01*
X155596Y197020D01*
X154816Y196639D01*
X154027Y196278D01*
X153230Y195936D01*
X152424Y195614D01*
X151611Y195312D01*
X150790Y195029D01*
X149963Y194767D01*
X149130Y194526D01*
X148291Y194305D01*
X147446Y194104D01*
X146597Y193924D01*
X145744Y193766D01*
X144888Y193628D01*
X144028Y193511D01*
X143165Y193415D01*
X142301Y193341D01*
X141435Y193288D01*
X140568Y193256D01*
X139700Y193245D01*
X138832Y193256D01*
X137965Y193288D01*
X137099Y193341D01*
X136235Y193415D01*
X135372Y193511D01*
X134512Y193628D01*
X133656Y193766D01*
X132803Y193924D01*
X131954Y194104D01*
X131109Y194305D01*
X130270Y194526D01*
X129437Y194767D01*
X128610Y195029D01*
X127789Y195312D01*
X126976Y195614D01*
X126170Y195936D01*
X125373Y196278D01*
X124584Y196639D01*
X123804Y197020D01*
X123034Y197420D01*
X122274Y197838D01*
X121524Y198275D01*
X120785Y198730D01*
X120058Y199203D01*
X119342Y199694D01*
X118639Y200203D01*
X117948Y200728D01*
X117271Y201270D01*
X116607Y201829D01*
X115957Y202404D01*
X115321Y202994D01*
X114700Y203600D01*
X114094Y204221D01*
X113504Y204857D01*
X112929Y205507D01*
X112370Y206171D01*
X111828Y206848D01*
X111303Y207539D01*
X110794Y208242D01*
X110303Y208958D01*
X109830Y209685D01*
X109375Y210424D01*
X108938Y211174D01*
X108520Y211934D01*
X108120Y212704D01*
X107739Y213484D01*
X107378Y214273D01*
X107036Y215070D01*
X106714Y215876D01*
X106412Y216689D01*
X106129Y217510D01*
X105867Y218337D01*
X105626Y219170D01*
X105405Y220009D01*
X105204Y220854D01*
X105024Y221703D01*
X104866Y222556D01*
X104728Y223412D01*
X104611Y224272D01*
X104515Y225135D01*
X104441Y225999D01*
X104388Y226865D01*
X104356Y227732D01*
X104345Y228600D01*
X119700Y248600D02*
X159700Y248600D01*
X159700Y208600D01*
X119700Y208600D01*
X119700Y248600D01*
X79700Y266100D02*
X79700Y278600D01*
X79700Y241100D02*
X79700Y216100D01*
X79700Y191100D02*
X79700Y178600D01*
X199700Y266100D02*
X199700Y278600D01*
X199700Y241100D02*
X199700Y216100D01*
X199700Y191100D02*
X199700Y178600D01*
D10*
X93387Y292862D02*
X93484Y292864D01*
X93582Y292870D01*
X93679Y292879D01*
X93776Y292893D01*
X93872Y292910D01*
X93967Y292931D01*
X94061Y292955D01*
X94155Y292984D01*
X94247Y293016D01*
X94338Y293051D01*
X94427Y293090D01*
X94515Y293133D01*
X94601Y293179D01*
X94685Y293228D01*
X94767Y293281D01*
X94847Y293336D01*
X94925Y293395D01*
X95000Y293457D01*
X95073Y293522D01*
X95143Y293590D01*
X95211Y293660D01*
X95276Y293733D01*
X95338Y293808D01*
X95397Y293886D01*
X95452Y293966D01*
X95505Y294048D01*
X95554Y294132D01*
X95600Y294218D01*
X95643Y294306D01*
X95682Y294395D01*
X95717Y294486D01*
X95749Y294578D01*
X95778Y294672D01*
X95802Y294766D01*
X95823Y294861D01*
X95840Y294957D01*
X95854Y295054D01*
X95863Y295151D01*
X95869Y295248D01*
X95871Y295346D01*
X93387Y292862D02*
X93244Y292864D01*
X93101Y292870D01*
X92959Y292879D01*
X92817Y292893D01*
X92675Y292911D01*
X92534Y292932D01*
X92393Y292957D01*
X92253Y292986D01*
X92114Y293019D01*
X91976Y293055D01*
X91839Y293096D01*
X91703Y293140D01*
X91568Y293187D01*
X91435Y293239D01*
X91303Y293294D01*
X91173Y293352D01*
X91044Y293414D01*
X90917Y293480D01*
X90792Y293549D01*
X90669Y293621D01*
X90548Y293697D01*
X90429Y293775D01*
X90312Y293858D01*
X90197Y293943D01*
X90085Y294031D01*
X89975Y294123D01*
X89868Y294217D01*
X89763Y294314D01*
X89661Y294414D01*
X89972Y301554D02*
X89974Y301652D01*
X89980Y301749D01*
X89989Y301846D01*
X90003Y301943D01*
X90020Y302039D01*
X90041Y302134D01*
X90065Y302228D01*
X90094Y302322D01*
X90126Y302414D01*
X90161Y302505D01*
X90200Y302594D01*
X90243Y302682D01*
X90289Y302768D01*
X90338Y302852D01*
X90391Y302934D01*
X90446Y303014D01*
X90505Y303092D01*
X90567Y303167D01*
X90632Y303240D01*
X90700Y303310D01*
X90770Y303378D01*
X90843Y303443D01*
X90918Y303505D01*
X90996Y303564D01*
X91076Y303619D01*
X91158Y303672D01*
X91242Y303721D01*
X91328Y303767D01*
X91416Y303810D01*
X91505Y303849D01*
X91596Y303884D01*
X91688Y303916D01*
X91782Y303945D01*
X91876Y303969D01*
X91971Y303990D01*
X92067Y304007D01*
X92164Y304021D01*
X92261Y304030D01*
X92358Y304036D01*
X92456Y304038D01*
X92586Y304036D01*
X92716Y304031D01*
X92846Y304022D01*
X92976Y304009D01*
X93105Y303993D01*
X93234Y303973D01*
X93362Y303949D01*
X93490Y303922D01*
X93616Y303891D01*
X93742Y303857D01*
X93867Y303819D01*
X93990Y303778D01*
X94113Y303733D01*
X94234Y303685D01*
X94354Y303634D01*
X94472Y303579D01*
X94588Y303521D01*
X94703Y303460D01*
X94817Y303395D01*
X94928Y303328D01*
X95037Y303257D01*
X95145Y303183D01*
X95250Y303107D01*
X91215Y299381D02*
X91132Y299432D01*
X91051Y299486D01*
X90973Y299543D01*
X90897Y299603D01*
X90823Y299666D01*
X90752Y299732D01*
X90683Y299800D01*
X90617Y299871D01*
X90553Y299944D01*
X90493Y300020D01*
X90436Y300098D01*
X90381Y300179D01*
X90330Y300261D01*
X90282Y300345D01*
X90237Y300431D01*
X90195Y300519D01*
X90157Y300608D01*
X90123Y300698D01*
X90091Y300790D01*
X90064Y300883D01*
X90040Y300977D01*
X90019Y301072D01*
X90003Y301168D01*
X89990Y301264D01*
X89980Y301360D01*
X89975Y301457D01*
X89973Y301554D01*
X94628Y297519D02*
X94711Y297468D01*
X94792Y297414D01*
X94870Y297357D01*
X94946Y297297D01*
X95020Y297234D01*
X95091Y297168D01*
X95160Y297100D01*
X95226Y297029D01*
X95290Y296956D01*
X95350Y296880D01*
X95407Y296802D01*
X95462Y296721D01*
X95513Y296639D01*
X95561Y296555D01*
X95606Y296469D01*
X95648Y296381D01*
X95686Y296292D01*
X95720Y296202D01*
X95752Y296110D01*
X95779Y296017D01*
X95803Y295923D01*
X95824Y295828D01*
X95840Y295732D01*
X95853Y295636D01*
X95863Y295540D01*
X95868Y295443D01*
X95870Y295346D01*
X94629Y297519D02*
X91214Y299381D01*
X100372Y304038D02*
X102856Y292862D01*
X105339Y300313D01*
X107823Y292862D01*
X110307Y304038D01*
X115189Y301554D02*
X118293Y304038D01*
X118293Y292862D01*
X115189Y292862D02*
X121398Y292862D01*
D11*
X634200Y168600D02*
X634442Y168603D01*
X634683Y168612D01*
X634924Y168626D01*
X635165Y168647D01*
X635405Y168673D01*
X635645Y168705D01*
X635884Y168743D01*
X636121Y168786D01*
X636358Y168836D01*
X636593Y168891D01*
X636827Y168951D01*
X637059Y169018D01*
X637290Y169089D01*
X637519Y169167D01*
X637746Y169250D01*
X637971Y169338D01*
X638194Y169432D01*
X638414Y169531D01*
X638632Y169636D01*
X638847Y169745D01*
X639060Y169860D01*
X639270Y169980D01*
X639476Y170105D01*
X639680Y170235D01*
X639881Y170370D01*
X640078Y170510D01*
X640272Y170654D01*
X640462Y170803D01*
X640648Y170957D01*
X640831Y171115D01*
X641010Y171277D01*
X641185Y171444D01*
X641356Y171615D01*
X641523Y171790D01*
X641685Y171969D01*
X641843Y172152D01*
X641997Y172338D01*
X642146Y172528D01*
X642290Y172722D01*
X642430Y172919D01*
X642565Y173120D01*
X642695Y173324D01*
X642820Y173530D01*
X642940Y173740D01*
X643055Y173953D01*
X643164Y174168D01*
X643269Y174386D01*
X643368Y174606D01*
X643462Y174829D01*
X643550Y175054D01*
X643633Y175281D01*
X643711Y175510D01*
X643782Y175741D01*
X643849Y175973D01*
X643909Y176207D01*
X643964Y176442D01*
X644014Y176679D01*
X644057Y176916D01*
X644095Y177155D01*
X644127Y177395D01*
X644153Y177635D01*
X644174Y177876D01*
X644188Y178117D01*
X644197Y178358D01*
X644200Y178600D01*
X634200Y168600D02*
X534200Y168600D01*
X533958Y168603D01*
X533717Y168612D01*
X533476Y168626D01*
X533235Y168647D01*
X532995Y168673D01*
X532755Y168705D01*
X532516Y168743D01*
X532279Y168786D01*
X532042Y168836D01*
X531807Y168891D01*
X531573Y168951D01*
X531341Y169018D01*
X531110Y169089D01*
X530881Y169167D01*
X530654Y169250D01*
X530429Y169338D01*
X530206Y169432D01*
X529986Y169531D01*
X529768Y169636D01*
X529553Y169745D01*
X529340Y169860D01*
X529130Y169980D01*
X528924Y170105D01*
X528720Y170235D01*
X528519Y170370D01*
X528322Y170510D01*
X528128Y170654D01*
X527938Y170803D01*
X527752Y170957D01*
X527569Y171115D01*
X527390Y171277D01*
X527215Y171444D01*
X527044Y171615D01*
X526877Y171790D01*
X526715Y171969D01*
X526557Y172152D01*
X526403Y172338D01*
X526254Y172528D01*
X526110Y172722D01*
X525970Y172919D01*
X525835Y173120D01*
X525705Y173324D01*
X525580Y173530D01*
X525460Y173740D01*
X525345Y173953D01*
X525236Y174168D01*
X525131Y174386D01*
X525032Y174606D01*
X524938Y174829D01*
X524850Y175054D01*
X524767Y175281D01*
X524689Y175510D01*
X524618Y175741D01*
X524551Y175973D01*
X524491Y176207D01*
X524436Y176442D01*
X524386Y176679D01*
X524343Y176916D01*
X524305Y177155D01*
X524273Y177395D01*
X524247Y177635D01*
X524226Y177876D01*
X524212Y178117D01*
X524203Y178358D01*
X524200Y178600D01*
X524200Y278600D02*
X524203Y278842D01*
X524212Y279083D01*
X524226Y279324D01*
X524247Y279565D01*
X524273Y279805D01*
X524305Y280045D01*
X524343Y280284D01*
X524386Y280521D01*
X524436Y280758D01*
X524491Y280993D01*
X524551Y281227D01*
X524618Y281459D01*
X524689Y281690D01*
X524767Y281919D01*
X524850Y282146D01*
X524938Y282371D01*
X525032Y282594D01*
X525131Y282814D01*
X525236Y283032D01*
X525345Y283247D01*
X525460Y283460D01*
X525580Y283670D01*
X525705Y283876D01*
X525835Y284080D01*
X525970Y284281D01*
X526110Y284478D01*
X526254Y284672D01*
X526403Y284862D01*
X526557Y285048D01*
X526715Y285231D01*
X526877Y285410D01*
X527044Y285585D01*
X527215Y285756D01*
X527390Y285923D01*
X527569Y286085D01*
X527752Y286243D01*
X527938Y286397D01*
X528128Y286546D01*
X528322Y286690D01*
X528519Y286830D01*
X528720Y286965D01*
X528924Y287095D01*
X529130Y287220D01*
X529340Y287340D01*
X529553Y287455D01*
X529768Y287564D01*
X529986Y287669D01*
X530206Y287768D01*
X530429Y287862D01*
X530654Y287950D01*
X530881Y288033D01*
X531110Y288111D01*
X531341Y288182D01*
X531573Y288249D01*
X531807Y288309D01*
X532042Y288364D01*
X532279Y288414D01*
X532516Y288457D01*
X532755Y288495D01*
X532995Y288527D01*
X533235Y288553D01*
X533476Y288574D01*
X533717Y288588D01*
X533958Y288597D01*
X534200Y288600D01*
X634200Y288600D01*
X634442Y288597D01*
X634683Y288588D01*
X634924Y288574D01*
X635165Y288553D01*
X635405Y288527D01*
X635645Y288495D01*
X635884Y288457D01*
X636121Y288414D01*
X636358Y288364D01*
X636593Y288309D01*
X636827Y288249D01*
X637059Y288182D01*
X637290Y288111D01*
X637519Y288033D01*
X637746Y287950D01*
X637971Y287862D01*
X638194Y287768D01*
X638414Y287669D01*
X638632Y287564D01*
X638847Y287455D01*
X639060Y287340D01*
X639270Y287220D01*
X639476Y287095D01*
X639680Y286965D01*
X639881Y286830D01*
X640078Y286690D01*
X640272Y286546D01*
X640462Y286397D01*
X640648Y286243D01*
X640831Y286085D01*
X641010Y285923D01*
X641185Y285756D01*
X641356Y285585D01*
X641523Y285410D01*
X641685Y285231D01*
X641843Y285048D01*
X641997Y284862D01*
X642146Y284672D01*
X642290Y284478D01*
X642430Y284281D01*
X642565Y284080D01*
X642695Y283876D01*
X642820Y283670D01*
X642940Y283460D01*
X643055Y283247D01*
X643164Y283032D01*
X643269Y282814D01*
X643368Y282594D01*
X643462Y282371D01*
X643550Y282146D01*
X643633Y281919D01*
X643711Y281690D01*
X643782Y281459D01*
X643849Y281227D01*
X643909Y280993D01*
X643964Y280758D01*
X644014Y280521D01*
X644057Y280284D01*
X644095Y280045D01*
X644127Y279805D01*
X644153Y279565D01*
X644174Y279324D01*
X644188Y279083D01*
X644197Y278842D01*
X644200Y278600D01*
X548845Y228600D02*
X548856Y229468D01*
X548888Y230335D01*
X548941Y231201D01*
X549015Y232065D01*
X549111Y232928D01*
X549228Y233788D01*
X549366Y234644D01*
X549524Y235497D01*
X549704Y236346D01*
X549905Y237191D01*
X550126Y238030D01*
X550367Y238863D01*
X550629Y239690D01*
X550912Y240511D01*
X551214Y241324D01*
X551536Y242130D01*
X551878Y242927D01*
X552239Y243716D01*
X552620Y244496D01*
X553020Y245266D01*
X553438Y246026D01*
X553875Y246776D01*
X554330Y247515D01*
X554803Y248242D01*
X555294Y248958D01*
X555803Y249661D01*
X556328Y250352D01*
X556870Y251029D01*
X557429Y251693D01*
X558004Y252343D01*
X558594Y252979D01*
X559200Y253600D01*
X559821Y254206D01*
X560457Y254796D01*
X561107Y255371D01*
X561771Y255930D01*
X562448Y256472D01*
X563139Y256997D01*
X563842Y257506D01*
X564558Y257997D01*
X565285Y258470D01*
X566024Y258925D01*
X566774Y259362D01*
X567534Y259780D01*
X568304Y260180D01*
X569084Y260561D01*
X569873Y260922D01*
X570670Y261264D01*
X571476Y261586D01*
X572289Y261888D01*
X573110Y262171D01*
X573937Y262433D01*
X574770Y262674D01*
X575609Y262895D01*
X576454Y263096D01*
X577303Y263276D01*
X578156Y263434D01*
X579012Y263572D01*
X579872Y263689D01*
X580735Y263785D01*
X581599Y263859D01*
X582465Y263912D01*
X583332Y263944D01*
X584200Y263955D01*
X585068Y263944D01*
X585935Y263912D01*
X586801Y263859D01*
X587665Y263785D01*
X588528Y263689D01*
X589388Y263572D01*
X590244Y263434D01*
X591097Y263276D01*
X591946Y263096D01*
X592791Y262895D01*
X593630Y262674D01*
X594463Y262433D01*
X595290Y262171D01*
X596111Y261888D01*
X596924Y261586D01*
X597730Y261264D01*
X598527Y260922D01*
X599316Y260561D01*
X600096Y260180D01*
X600866Y259780D01*
X601626Y259362D01*
X602376Y258925D01*
X603115Y258470D01*
X603842Y257997D01*
X604558Y257506D01*
X605261Y256997D01*
X605952Y256472D01*
X606629Y255930D01*
X607293Y255371D01*
X607943Y254796D01*
X608579Y254206D01*
X609200Y253600D01*
X609806Y252979D01*
X610396Y252343D01*
X610971Y251693D01*
X611530Y251029D01*
X612072Y250352D01*
X612597Y249661D01*
X613106Y248958D01*
X613597Y248242D01*
X614070Y247515D01*
X614525Y246776D01*
X614962Y246026D01*
X615380Y245266D01*
X615780Y244496D01*
X616161Y243716D01*
X616522Y242927D01*
X616864Y242130D01*
X617186Y241324D01*
X617488Y240511D01*
X617771Y239690D01*
X618033Y238863D01*
X618274Y238030D01*
X618495Y237191D01*
X618696Y236346D01*
X618876Y235497D01*
X619034Y234644D01*
X619172Y233788D01*
X619289Y232928D01*
X619385Y232065D01*
X619459Y231201D01*
X619512Y230335D01*
X619544Y229468D01*
X619555Y228600D01*
X619544Y227732D01*
X619512Y226865D01*
X619459Y225999D01*
X619385Y225135D01*
X619289Y224272D01*
X619172Y223412D01*
X619034Y222556D01*
X618876Y221703D01*
X618696Y220854D01*
X618495Y220009D01*
X618274Y219170D01*
X618033Y218337D01*
X617771Y217510D01*
X617488Y216689D01*
X617186Y215876D01*
X616864Y215070D01*
X616522Y214273D01*
X616161Y213484D01*
X615780Y212704D01*
X615380Y211934D01*
X614962Y211174D01*
X614525Y210424D01*
X614070Y209685D01*
X613597Y208958D01*
X613106Y208242D01*
X612597Y207539D01*
X612072Y206848D01*
X611530Y206171D01*
X610971Y205507D01*
X610396Y204857D01*
X609806Y204221D01*
X609200Y203600D01*
X608579Y202994D01*
X607943Y202404D01*
X607293Y201829D01*
X606629Y201270D01*
X605952Y200728D01*
X605261Y200203D01*
X604558Y199694D01*
X603842Y199203D01*
X603115Y198730D01*
X602376Y198275D01*
X601626Y197838D01*
X600866Y197420D01*
X600096Y197020D01*
X599316Y196639D01*
X598527Y196278D01*
X597730Y195936D01*
X596924Y195614D01*
X596111Y195312D01*
X595290Y195029D01*
X594463Y194767D01*
X593630Y194526D01*
X592791Y194305D01*
X591946Y194104D01*
X591097Y193924D01*
X590244Y193766D01*
X589388Y193628D01*
X588528Y193511D01*
X587665Y193415D01*
X586801Y193341D01*
X585935Y193288D01*
X585068Y193256D01*
X584200Y193245D01*
X583332Y193256D01*
X582465Y193288D01*
X581599Y193341D01*
X580735Y193415D01*
X579872Y193511D01*
X579012Y193628D01*
X578156Y193766D01*
X577303Y193924D01*
X576454Y194104D01*
X575609Y194305D01*
X574770Y194526D01*
X573937Y194767D01*
X573110Y195029D01*
X572289Y195312D01*
X571476Y195614D01*
X570670Y195936D01*
X569873Y196278D01*
X569084Y196639D01*
X568304Y197020D01*
X567534Y197420D01*
X566774Y197838D01*
X566024Y198275D01*
X565285Y198730D01*
X564558Y199203D01*
X563842Y199694D01*
X563139Y200203D01*
X562448Y200728D01*
X561771Y201270D01*
X561107Y201829D01*
X560457Y202404D01*
X559821Y202994D01*
X559200Y203600D01*
X558594Y204221D01*
X558004Y204857D01*
X557429Y205507D01*
X556870Y206171D01*
X556328Y206848D01*
X555803Y207539D01*
X555294Y208242D01*
X554803Y208958D01*
X554330Y209685D01*
X553875Y210424D01*
X553438Y211174D01*
X553020Y211934D01*
X552620Y212704D01*
X552239Y213484D01*
X551878Y214273D01*
X551536Y215070D01*
X551214Y215876D01*
X550912Y216689D01*
X550629Y217510D01*
X550367Y218337D01*
X550126Y219170D01*
X549905Y220009D01*
X549704Y220854D01*
X549524Y221703D01*
X549366Y222556D01*
X549228Y223412D01*
X549111Y224272D01*
X549015Y225135D01*
X548941Y225999D01*
X548888Y226865D01*
X548856Y227732D01*
X548845Y228600D01*
X564200Y248600D02*
X604200Y248600D01*
X604200Y208600D01*
X564200Y208600D01*
X564200Y248600D01*
X524200Y266100D02*
X524200Y278600D01*
X524200Y241100D02*
X524200Y216100D01*
X524200Y191100D02*
X524200Y178600D01*
X644200Y266100D02*
X644200Y278600D01*
X644200Y241100D02*
X644200Y216100D01*
X644200Y191100D02*
X644200Y178600D01*
D10*
X537887Y292862D02*
X537984Y292864D01*
X538082Y292870D01*
X538179Y292879D01*
X538276Y292893D01*
X538372Y292910D01*
X538467Y292931D01*
X538561Y292955D01*
X538655Y292984D01*
X538747Y293016D01*
X538838Y293051D01*
X538927Y293090D01*
X539015Y293133D01*
X539101Y293179D01*
X539185Y293228D01*
X539267Y293281D01*
X539347Y293336D01*
X539425Y293395D01*
X539500Y293457D01*
X539573Y293522D01*
X539643Y293590D01*
X539711Y293660D01*
X539776Y293733D01*
X539838Y293808D01*
X539897Y293886D01*
X539952Y293966D01*
X540005Y294048D01*
X540054Y294132D01*
X540100Y294218D01*
X540143Y294306D01*
X540182Y294395D01*
X540217Y294486D01*
X540249Y294578D01*
X540278Y294672D01*
X540302Y294766D01*
X540323Y294861D01*
X540340Y294957D01*
X540354Y295054D01*
X540363Y295151D01*
X540369Y295248D01*
X540371Y295346D01*
X537887Y292862D02*
X537744Y292864D01*
X537601Y292870D01*
X537459Y292879D01*
X537317Y292893D01*
X537175Y292911D01*
X537034Y292932D01*
X536893Y292957D01*
X536753Y292986D01*
X536614Y293019D01*
X536476Y293055D01*
X536339Y293096D01*
X536203Y293140D01*
X536068Y293187D01*
X535935Y293239D01*
X535803Y293294D01*
X535673Y293352D01*
X535544Y293414D01*
X535417Y293480D01*
X535292Y293549D01*
X535169Y293621D01*
X535048Y293697D01*
X534929Y293775D01*
X534812Y293858D01*
X534697Y293943D01*
X534585Y294031D01*
X534475Y294123D01*
X534368Y294217D01*
X534263Y294314D01*
X534161Y294414D01*
X534472Y301554D02*
X534474Y301652D01*
X534480Y301749D01*
X534489Y301846D01*
X534503Y301943D01*
X534520Y302039D01*
X534541Y302134D01*
X534565Y302228D01*
X534594Y302322D01*
X534626Y302414D01*
X534661Y302505D01*
X534700Y302594D01*
X534743Y302682D01*
X534789Y302768D01*
X534838Y302852D01*
X534891Y302934D01*
X534946Y303014D01*
X535005Y303092D01*
X535067Y303167D01*
X535132Y303240D01*
X535200Y303310D01*
X535270Y303378D01*
X535343Y303443D01*
X535418Y303505D01*
X535496Y303564D01*
X535576Y303619D01*
X535658Y303672D01*
X535742Y303721D01*
X535828Y303767D01*
X535916Y303810D01*
X536005Y303849D01*
X536096Y303884D01*
X536188Y303916D01*
X536282Y303945D01*
X536376Y303969D01*
X536471Y303990D01*
X536567Y304007D01*
X536664Y304021D01*
X536761Y304030D01*
X536858Y304036D01*
X536956Y304038D01*
X537086Y304036D01*
X537216Y304031D01*
X537346Y304022D01*
X537476Y304009D01*
X537605Y303993D01*
X537734Y303973D01*
X537862Y303949D01*
X537990Y303922D01*
X538116Y303891D01*
X538242Y303857D01*
X538367Y303819D01*
X538490Y303778D01*
X538613Y303733D01*
X538734Y303685D01*
X538854Y303634D01*
X538972Y303579D01*
X539088Y303521D01*
X539203Y303460D01*
X539317Y303395D01*
X539428Y303328D01*
X539537Y303257D01*
X539645Y303183D01*
X539750Y303107D01*
X535715Y299381D02*
X535632Y299432D01*
X535551Y299486D01*
X535473Y299543D01*
X535397Y299603D01*
X535323Y299666D01*
X535252Y299732D01*
X535183Y299800D01*
X535117Y299871D01*
X535053Y299944D01*
X534993Y300020D01*
X534936Y300098D01*
X534881Y300179D01*
X534830Y300261D01*
X534782Y300345D01*
X534737Y300431D01*
X534695Y300519D01*
X534657Y300608D01*
X534623Y300698D01*
X534591Y300790D01*
X534564Y300883D01*
X534540Y300977D01*
X534519Y301072D01*
X534503Y301168D01*
X534490Y301264D01*
X534480Y301360D01*
X534475Y301457D01*
X534473Y301554D01*
X539128Y297519D02*
X539211Y297468D01*
X539292Y297414D01*
X539370Y297357D01*
X539446Y297297D01*
X539520Y297234D01*
X539591Y297168D01*
X539660Y297100D01*
X539726Y297029D01*
X539790Y296956D01*
X539850Y296880D01*
X539907Y296802D01*
X539962Y296721D01*
X540013Y296639D01*
X540061Y296555D01*
X540106Y296469D01*
X540148Y296381D01*
X540186Y296292D01*
X540220Y296202D01*
X540252Y296110D01*
X540279Y296017D01*
X540303Y295923D01*
X540324Y295828D01*
X540340Y295732D01*
X540353Y295636D01*
X540363Y295540D01*
X540368Y295443D01*
X540370Y295346D01*
X539129Y297519D02*
X535714Y299381D01*
X544872Y304038D02*
X547356Y292862D01*
X549839Y300313D01*
X552323Y292862D01*
X554807Y304038D01*
X563104Y304038D02*
X563208Y304036D01*
X563313Y304030D01*
X563417Y304020D01*
X563520Y304007D01*
X563623Y303989D01*
X563726Y303968D01*
X563827Y303943D01*
X563928Y303914D01*
X564027Y303881D01*
X564125Y303845D01*
X564221Y303805D01*
X564316Y303761D01*
X564410Y303714D01*
X564501Y303664D01*
X564590Y303610D01*
X564678Y303553D01*
X564763Y303492D01*
X564846Y303428D01*
X564926Y303362D01*
X565004Y303292D01*
X565080Y303220D01*
X565152Y303144D01*
X565222Y303066D01*
X565288Y302986D01*
X565352Y302903D01*
X565413Y302818D01*
X565470Y302730D01*
X565524Y302641D01*
X565574Y302550D01*
X565621Y302456D01*
X565665Y302361D01*
X565705Y302265D01*
X565741Y302167D01*
X565774Y302068D01*
X565803Y301967D01*
X565828Y301866D01*
X565849Y301763D01*
X565867Y301660D01*
X565880Y301557D01*
X565890Y301453D01*
X565896Y301348D01*
X565898Y301244D01*
X563104Y304039D02*
X562985Y304037D01*
X562867Y304031D01*
X562748Y304021D01*
X562630Y304008D01*
X562513Y303990D01*
X562396Y303968D01*
X562280Y303943D01*
X562165Y303914D01*
X562050Y303881D01*
X561937Y303844D01*
X561826Y303804D01*
X561715Y303760D01*
X561607Y303712D01*
X561500Y303661D01*
X561394Y303606D01*
X561291Y303547D01*
X561189Y303486D01*
X561090Y303421D01*
X560992Y303352D01*
X560898Y303281D01*
X560805Y303206D01*
X560715Y303129D01*
X560628Y303048D01*
X560543Y302965D01*
X560461Y302879D01*
X560382Y302790D01*
X560306Y302699D01*
X560233Y302605D01*
X560164Y302509D01*
X560097Y302410D01*
X560034Y302310D01*
X559974Y302207D01*
X559917Y302103D01*
X559865Y301996D01*
X559815Y301888D01*
X559769Y301779D01*
X559727Y301667D01*
X559689Y301555D01*
X564967Y299071D02*
X565042Y299145D01*
X565114Y299222D01*
X565184Y299301D01*
X565251Y299383D01*
X565315Y299467D01*
X565376Y299553D01*
X565434Y299641D01*
X565489Y299732D01*
X565541Y299824D01*
X565589Y299918D01*
X565634Y300013D01*
X565676Y300111D01*
X565714Y300209D01*
X565749Y300309D01*
X565780Y300410D01*
X565807Y300512D01*
X565831Y300615D01*
X565852Y300718D01*
X565868Y300823D01*
X565881Y300928D01*
X565891Y301033D01*
X565896Y301138D01*
X565898Y301244D01*
X564967Y299071D02*
X559689Y292862D01*
X565898Y292862D01*
D12*
X249300Y182800D02*
X233300Y182800D01*
X233300Y172800D02*
X249300Y172800D01*
X243300Y175800D02*
X243300Y179800D01*
D10*
X229362Y191262D02*
X229362Y202438D01*
X232466Y202438D01*
X232577Y202436D01*
X232687Y202430D01*
X232798Y202420D01*
X232908Y202406D01*
X233017Y202389D01*
X233126Y202367D01*
X233234Y202342D01*
X233340Y202312D01*
X233446Y202279D01*
X233551Y202242D01*
X233654Y202202D01*
X233755Y202157D01*
X233855Y202110D01*
X233954Y202058D01*
X234050Y202003D01*
X234144Y201945D01*
X234236Y201884D01*
X234326Y201819D01*
X234414Y201751D01*
X234499Y201680D01*
X234581Y201606D01*
X234661Y201529D01*
X234738Y201449D01*
X234812Y201367D01*
X234883Y201282D01*
X234951Y201194D01*
X235016Y201104D01*
X235077Y201012D01*
X235135Y200918D01*
X235190Y200822D01*
X235242Y200723D01*
X235289Y200623D01*
X235334Y200522D01*
X235374Y200419D01*
X235411Y200314D01*
X235444Y200208D01*
X235474Y200102D01*
X235499Y199994D01*
X235521Y199885D01*
X235538Y199776D01*
X235552Y199666D01*
X235562Y199555D01*
X235568Y199445D01*
X235570Y199334D01*
X235571Y199334D02*
X235571Y194366D01*
X235570Y194366D02*
X235568Y194255D01*
X235562Y194145D01*
X235552Y194034D01*
X235538Y193924D01*
X235521Y193815D01*
X235499Y193706D01*
X235474Y193598D01*
X235444Y193492D01*
X235411Y193386D01*
X235374Y193281D01*
X235334Y193178D01*
X235289Y193077D01*
X235242Y192977D01*
X235190Y192878D01*
X235135Y192782D01*
X235077Y192688D01*
X235016Y192596D01*
X234951Y192506D01*
X234883Y192418D01*
X234812Y192333D01*
X234738Y192251D01*
X234661Y192171D01*
X234581Y192094D01*
X234499Y192020D01*
X234414Y191949D01*
X234326Y191881D01*
X234236Y191816D01*
X234144Y191755D01*
X234050Y191697D01*
X233954Y191642D01*
X233855Y191590D01*
X233755Y191543D01*
X233654Y191498D01*
X233551Y191458D01*
X233446Y191421D01*
X233340Y191388D01*
X233234Y191358D01*
X233126Y191333D01*
X233017Y191311D01*
X232908Y191294D01*
X232798Y191280D01*
X232687Y191270D01*
X232577Y191264D01*
X232466Y191262D01*
X229362Y191262D01*
X241173Y199954D02*
X244277Y202438D01*
X244277Y191262D01*
X241173Y191262D02*
X247382Y191262D01*
D12*
X474600Y182800D02*
X490600Y182800D01*
X490600Y172800D02*
X474600Y172800D01*
X484600Y175800D02*
X484600Y179800D01*
D10*
X470662Y191262D02*
X470662Y202438D01*
X473766Y202438D01*
X473877Y202436D01*
X473987Y202430D01*
X474098Y202420D01*
X474208Y202406D01*
X474317Y202389D01*
X474426Y202367D01*
X474534Y202342D01*
X474640Y202312D01*
X474746Y202279D01*
X474851Y202242D01*
X474954Y202202D01*
X475055Y202157D01*
X475155Y202110D01*
X475254Y202058D01*
X475350Y202003D01*
X475444Y201945D01*
X475536Y201884D01*
X475626Y201819D01*
X475714Y201751D01*
X475799Y201680D01*
X475881Y201606D01*
X475961Y201529D01*
X476038Y201449D01*
X476112Y201367D01*
X476183Y201282D01*
X476251Y201194D01*
X476316Y201104D01*
X476377Y201012D01*
X476435Y200918D01*
X476490Y200822D01*
X476542Y200723D01*
X476589Y200623D01*
X476634Y200522D01*
X476674Y200419D01*
X476711Y200314D01*
X476744Y200208D01*
X476774Y200102D01*
X476799Y199994D01*
X476821Y199885D01*
X476838Y199776D01*
X476852Y199666D01*
X476862Y199555D01*
X476868Y199445D01*
X476870Y199334D01*
X476871Y199334D02*
X476871Y194366D01*
X476870Y194366D02*
X476868Y194255D01*
X476862Y194145D01*
X476852Y194034D01*
X476838Y193924D01*
X476821Y193815D01*
X476799Y193706D01*
X476774Y193598D01*
X476744Y193492D01*
X476711Y193386D01*
X476674Y193281D01*
X476634Y193178D01*
X476589Y193077D01*
X476542Y192977D01*
X476490Y192878D01*
X476435Y192782D01*
X476377Y192688D01*
X476316Y192596D01*
X476251Y192506D01*
X476183Y192418D01*
X476112Y192333D01*
X476038Y192251D01*
X475961Y192171D01*
X475881Y192094D01*
X475799Y192020D01*
X475714Y191949D01*
X475626Y191881D01*
X475536Y191816D01*
X475444Y191755D01*
X475350Y191697D01*
X475254Y191642D01*
X475155Y191590D01*
X475055Y191543D01*
X474954Y191498D01*
X474851Y191458D01*
X474746Y191421D01*
X474640Y191388D01*
X474534Y191358D01*
X474426Y191333D01*
X474317Y191311D01*
X474208Y191294D01*
X474098Y191280D01*
X473987Y191270D01*
X473877Y191264D01*
X473766Y191262D01*
X470662Y191262D01*
X485888Y202438D02*
X485992Y202436D01*
X486097Y202430D01*
X486201Y202420D01*
X486304Y202407D01*
X486407Y202389D01*
X486510Y202368D01*
X486611Y202343D01*
X486712Y202314D01*
X486811Y202281D01*
X486909Y202245D01*
X487005Y202205D01*
X487100Y202161D01*
X487194Y202114D01*
X487285Y202064D01*
X487374Y202010D01*
X487462Y201953D01*
X487547Y201892D01*
X487630Y201828D01*
X487710Y201762D01*
X487788Y201692D01*
X487864Y201620D01*
X487936Y201544D01*
X488006Y201466D01*
X488072Y201386D01*
X488136Y201303D01*
X488197Y201218D01*
X488254Y201130D01*
X488308Y201041D01*
X488358Y200950D01*
X488405Y200856D01*
X488449Y200761D01*
X488489Y200665D01*
X488525Y200567D01*
X488558Y200468D01*
X488587Y200367D01*
X488612Y200266D01*
X488633Y200163D01*
X488651Y200060D01*
X488664Y199957D01*
X488674Y199853D01*
X488680Y199748D01*
X488682Y199644D01*
X485888Y202439D02*
X485769Y202437D01*
X485651Y202431D01*
X485532Y202421D01*
X485414Y202408D01*
X485297Y202390D01*
X485180Y202368D01*
X485064Y202343D01*
X484949Y202314D01*
X484834Y202281D01*
X484721Y202244D01*
X484610Y202204D01*
X484499Y202160D01*
X484391Y202112D01*
X484284Y202061D01*
X484178Y202006D01*
X484075Y201947D01*
X483973Y201886D01*
X483874Y201821D01*
X483776Y201752D01*
X483682Y201681D01*
X483589Y201606D01*
X483499Y201529D01*
X483412Y201448D01*
X483327Y201365D01*
X483245Y201279D01*
X483166Y201190D01*
X483090Y201099D01*
X483017Y201005D01*
X482948Y200909D01*
X482881Y200810D01*
X482818Y200710D01*
X482758Y200607D01*
X482701Y200503D01*
X482649Y200396D01*
X482599Y200288D01*
X482553Y200179D01*
X482511Y200067D01*
X482473Y199955D01*
X487751Y197471D02*
X487826Y197545D01*
X487898Y197622D01*
X487968Y197701D01*
X488035Y197783D01*
X488099Y197867D01*
X488160Y197953D01*
X488218Y198041D01*
X488273Y198132D01*
X488325Y198224D01*
X488373Y198318D01*
X488418Y198413D01*
X488460Y198511D01*
X488498Y198609D01*
X488533Y198709D01*
X488564Y198810D01*
X488591Y198912D01*
X488615Y199015D01*
X488636Y199118D01*
X488652Y199223D01*
X488665Y199328D01*
X488675Y199433D01*
X488680Y199538D01*
X488682Y199644D01*
X487751Y197471D02*
X482473Y191262D01*
X488682Y191262D01*
D12*
X419100Y274320D02*
X419100Y284480D01*
D10*
X407162Y292862D02*
X407162Y304038D01*
X410266Y304038D01*
X410377Y304036D01*
X410487Y304030D01*
X410598Y304020D01*
X410708Y304006D01*
X410817Y303989D01*
X410926Y303967D01*
X411034Y303942D01*
X411140Y303912D01*
X411246Y303879D01*
X411351Y303842D01*
X411454Y303802D01*
X411555Y303757D01*
X411655Y303710D01*
X411754Y303658D01*
X411850Y303603D01*
X411944Y303545D01*
X412036Y303484D01*
X412126Y303419D01*
X412214Y303351D01*
X412299Y303280D01*
X412381Y303206D01*
X412461Y303129D01*
X412538Y303049D01*
X412612Y302967D01*
X412683Y302882D01*
X412751Y302794D01*
X412816Y302704D01*
X412877Y302612D01*
X412935Y302518D01*
X412990Y302422D01*
X413042Y302323D01*
X413089Y302223D01*
X413134Y302122D01*
X413174Y302019D01*
X413211Y301914D01*
X413244Y301808D01*
X413274Y301702D01*
X413299Y301594D01*
X413321Y301485D01*
X413338Y301376D01*
X413352Y301266D01*
X413362Y301155D01*
X413368Y301045D01*
X413370Y300934D01*
X413368Y300823D01*
X413362Y300713D01*
X413352Y300602D01*
X413338Y300492D01*
X413321Y300383D01*
X413299Y300274D01*
X413274Y300166D01*
X413244Y300060D01*
X413211Y299954D01*
X413174Y299849D01*
X413134Y299746D01*
X413089Y299645D01*
X413042Y299545D01*
X412990Y299446D01*
X412935Y299350D01*
X412877Y299256D01*
X412816Y299164D01*
X412751Y299074D01*
X412683Y298986D01*
X412612Y298901D01*
X412538Y298819D01*
X412461Y298739D01*
X412381Y298662D01*
X412299Y298588D01*
X412214Y298517D01*
X412126Y298449D01*
X412036Y298384D01*
X411944Y298323D01*
X411850Y298265D01*
X411754Y298210D01*
X411655Y298158D01*
X411555Y298111D01*
X411454Y298066D01*
X411351Y298026D01*
X411246Y297989D01*
X411140Y297956D01*
X411034Y297926D01*
X410926Y297901D01*
X410817Y297879D01*
X410708Y297862D01*
X410598Y297848D01*
X410487Y297838D01*
X410377Y297832D01*
X410266Y297830D01*
X410266Y297829D02*
X407162Y297829D01*
X410887Y297829D02*
X413371Y292862D01*
X418500Y295346D02*
X420984Y304038D01*
X418500Y295346D02*
X424709Y295346D01*
X422846Y297829D02*
X422846Y292862D01*
D12*
X304800Y284480D02*
X304800Y274320D01*
D10*
X292862Y292862D02*
X292862Y304038D01*
X295966Y304038D01*
X296077Y304036D01*
X296187Y304030D01*
X296298Y304020D01*
X296408Y304006D01*
X296517Y303989D01*
X296626Y303967D01*
X296734Y303942D01*
X296840Y303912D01*
X296946Y303879D01*
X297051Y303842D01*
X297154Y303802D01*
X297255Y303757D01*
X297355Y303710D01*
X297454Y303658D01*
X297550Y303603D01*
X297644Y303545D01*
X297736Y303484D01*
X297826Y303419D01*
X297914Y303351D01*
X297999Y303280D01*
X298081Y303206D01*
X298161Y303129D01*
X298238Y303049D01*
X298312Y302967D01*
X298383Y302882D01*
X298451Y302794D01*
X298516Y302704D01*
X298577Y302612D01*
X298635Y302518D01*
X298690Y302422D01*
X298742Y302323D01*
X298789Y302223D01*
X298834Y302122D01*
X298874Y302019D01*
X298911Y301914D01*
X298944Y301808D01*
X298974Y301702D01*
X298999Y301594D01*
X299021Y301485D01*
X299038Y301376D01*
X299052Y301266D01*
X299062Y301155D01*
X299068Y301045D01*
X299070Y300934D01*
X299068Y300823D01*
X299062Y300713D01*
X299052Y300602D01*
X299038Y300492D01*
X299021Y300383D01*
X298999Y300274D01*
X298974Y300166D01*
X298944Y300060D01*
X298911Y299954D01*
X298874Y299849D01*
X298834Y299746D01*
X298789Y299645D01*
X298742Y299545D01*
X298690Y299446D01*
X298635Y299350D01*
X298577Y299256D01*
X298516Y299164D01*
X298451Y299074D01*
X298383Y298986D01*
X298312Y298901D01*
X298238Y298819D01*
X298161Y298739D01*
X298081Y298662D01*
X297999Y298588D01*
X297914Y298517D01*
X297826Y298449D01*
X297736Y298384D01*
X297644Y298323D01*
X297550Y298265D01*
X297454Y298210D01*
X297355Y298158D01*
X297255Y298111D01*
X297154Y298066D01*
X297051Y298026D01*
X296946Y297989D01*
X296840Y297956D01*
X296734Y297926D01*
X296626Y297901D01*
X296517Y297879D01*
X296408Y297862D01*
X296298Y297848D01*
X296187Y297838D01*
X296077Y297832D01*
X295966Y297830D01*
X295966Y297829D02*
X292862Y297829D01*
X296587Y297829D02*
X299071Y292862D01*
X304200Y292862D02*
X307304Y292862D01*
X307415Y292864D01*
X307525Y292870D01*
X307636Y292880D01*
X307746Y292894D01*
X307855Y292911D01*
X307964Y292933D01*
X308072Y292958D01*
X308178Y292988D01*
X308284Y293021D01*
X308389Y293058D01*
X308492Y293098D01*
X308593Y293143D01*
X308693Y293190D01*
X308792Y293242D01*
X308888Y293297D01*
X308982Y293355D01*
X309074Y293416D01*
X309164Y293481D01*
X309252Y293549D01*
X309337Y293620D01*
X309419Y293694D01*
X309499Y293771D01*
X309576Y293851D01*
X309650Y293933D01*
X309721Y294018D01*
X309789Y294106D01*
X309854Y294196D01*
X309915Y294288D01*
X309973Y294382D01*
X310028Y294478D01*
X310080Y294577D01*
X310127Y294677D01*
X310172Y294778D01*
X310212Y294881D01*
X310249Y294986D01*
X310282Y295092D01*
X310312Y295198D01*
X310337Y295306D01*
X310359Y295415D01*
X310376Y295524D01*
X310390Y295634D01*
X310400Y295745D01*
X310406Y295855D01*
X310408Y295966D01*
X310406Y296077D01*
X310400Y296187D01*
X310390Y296298D01*
X310376Y296408D01*
X310359Y296517D01*
X310337Y296626D01*
X310312Y296734D01*
X310282Y296840D01*
X310249Y296946D01*
X310212Y297051D01*
X310172Y297154D01*
X310127Y297255D01*
X310080Y297355D01*
X310028Y297454D01*
X309973Y297550D01*
X309915Y297644D01*
X309854Y297736D01*
X309789Y297826D01*
X309721Y297914D01*
X309650Y297999D01*
X309576Y298081D01*
X309499Y298161D01*
X309419Y298238D01*
X309337Y298312D01*
X309252Y298383D01*
X309164Y298451D01*
X309074Y298516D01*
X308982Y298577D01*
X308888Y298635D01*
X308792Y298690D01*
X308693Y298742D01*
X308593Y298789D01*
X308492Y298834D01*
X308389Y298874D01*
X308284Y298911D01*
X308178Y298944D01*
X308072Y298974D01*
X307964Y298999D01*
X307855Y299021D01*
X307746Y299038D01*
X307636Y299052D01*
X307525Y299062D01*
X307415Y299068D01*
X307304Y299070D01*
X307925Y304038D02*
X304200Y304038D01*
X307925Y304038D02*
X308024Y304036D01*
X308122Y304030D01*
X308221Y304020D01*
X308318Y304007D01*
X308416Y303989D01*
X308512Y303968D01*
X308608Y303942D01*
X308702Y303913D01*
X308795Y303881D01*
X308887Y303844D01*
X308977Y303804D01*
X309066Y303760D01*
X309153Y303713D01*
X309238Y303663D01*
X309320Y303609D01*
X309401Y303552D01*
X309479Y303492D01*
X309555Y303428D01*
X309628Y303362D01*
X309699Y303293D01*
X309767Y303221D01*
X309831Y303146D01*
X309893Y303069D01*
X309952Y302990D01*
X310007Y302908D01*
X310060Y302824D01*
X310108Y302739D01*
X310154Y302651D01*
X310196Y302561D01*
X310234Y302470D01*
X310268Y302378D01*
X310299Y302284D01*
X310326Y302189D01*
X310350Y302093D01*
X310369Y301996D01*
X310385Y301899D01*
X310397Y301801D01*
X310405Y301702D01*
X310409Y301603D01*
X310409Y301505D01*
X310405Y301406D01*
X310397Y301307D01*
X310385Y301209D01*
X310369Y301112D01*
X310350Y301015D01*
X310326Y300919D01*
X310299Y300824D01*
X310268Y300730D01*
X310234Y300638D01*
X310196Y300547D01*
X310154Y300457D01*
X310108Y300369D01*
X310060Y300284D01*
X310007Y300200D01*
X309952Y300118D01*
X309893Y300039D01*
X309831Y299962D01*
X309767Y299887D01*
X309699Y299815D01*
X309628Y299746D01*
X309555Y299680D01*
X309479Y299616D01*
X309401Y299556D01*
X309320Y299499D01*
X309238Y299445D01*
X309153Y299395D01*
X309066Y299348D01*
X308977Y299304D01*
X308887Y299264D01*
X308795Y299227D01*
X308702Y299195D01*
X308608Y299166D01*
X308512Y299140D01*
X308416Y299119D01*
X308318Y299101D01*
X308221Y299088D01*
X308122Y299078D01*
X308024Y299072D01*
X307925Y299070D01*
X307925Y299071D02*
X305442Y299071D01*
X353766Y191262D02*
X356249Y191262D01*
X353766Y191262D02*
X353668Y191264D01*
X353571Y191270D01*
X353474Y191279D01*
X353377Y191293D01*
X353281Y191310D01*
X353186Y191331D01*
X353092Y191355D01*
X352998Y191384D01*
X352906Y191416D01*
X352815Y191451D01*
X352726Y191490D01*
X352638Y191533D01*
X352552Y191579D01*
X352468Y191628D01*
X352386Y191681D01*
X352306Y191736D01*
X352228Y191795D01*
X352153Y191857D01*
X352080Y191922D01*
X352010Y191990D01*
X351942Y192060D01*
X351877Y192133D01*
X351815Y192208D01*
X351756Y192286D01*
X351701Y192366D01*
X351648Y192448D01*
X351599Y192532D01*
X351553Y192618D01*
X351510Y192706D01*
X351471Y192795D01*
X351436Y192886D01*
X351404Y192978D01*
X351375Y193072D01*
X351351Y193166D01*
X351330Y193261D01*
X351313Y193357D01*
X351299Y193454D01*
X351290Y193551D01*
X351284Y193648D01*
X351282Y193746D01*
X351282Y199954D01*
X351284Y200052D01*
X351290Y200149D01*
X351299Y200246D01*
X351313Y200343D01*
X351330Y200439D01*
X351351Y200534D01*
X351375Y200628D01*
X351404Y200722D01*
X351436Y200814D01*
X351471Y200905D01*
X351510Y200994D01*
X351553Y201082D01*
X351599Y201168D01*
X351648Y201252D01*
X351701Y201334D01*
X351756Y201414D01*
X351815Y201492D01*
X351877Y201567D01*
X351942Y201640D01*
X352010Y201710D01*
X352080Y201778D01*
X352153Y201843D01*
X352228Y201905D01*
X352306Y201964D01*
X352386Y202019D01*
X352468Y202072D01*
X352552Y202121D01*
X352638Y202167D01*
X352726Y202210D01*
X352815Y202249D01*
X352906Y202284D01*
X352998Y202316D01*
X353092Y202345D01*
X353186Y202369D01*
X353281Y202390D01*
X353377Y202407D01*
X353474Y202421D01*
X353571Y202430D01*
X353668Y202436D01*
X353766Y202438D01*
X356249Y202438D01*
X360849Y199954D02*
X363953Y202438D01*
X363953Y191262D01*
X360849Y191262D02*
X367057Y191262D01*
D12*
X482600Y274320D02*
X482600Y284480D01*
D10*
X470662Y292862D02*
X470662Y304038D01*
X473766Y304038D01*
X473877Y304036D01*
X473987Y304030D01*
X474098Y304020D01*
X474208Y304006D01*
X474317Y303989D01*
X474426Y303967D01*
X474534Y303942D01*
X474640Y303912D01*
X474746Y303879D01*
X474851Y303842D01*
X474954Y303802D01*
X475055Y303757D01*
X475155Y303710D01*
X475254Y303658D01*
X475350Y303603D01*
X475444Y303545D01*
X475536Y303484D01*
X475626Y303419D01*
X475714Y303351D01*
X475799Y303280D01*
X475881Y303206D01*
X475961Y303129D01*
X476038Y303049D01*
X476112Y302967D01*
X476183Y302882D01*
X476251Y302794D01*
X476316Y302704D01*
X476377Y302612D01*
X476435Y302518D01*
X476490Y302422D01*
X476542Y302323D01*
X476589Y302223D01*
X476634Y302122D01*
X476674Y302019D01*
X476711Y301914D01*
X476744Y301808D01*
X476774Y301702D01*
X476799Y301594D01*
X476821Y301485D01*
X476838Y301376D01*
X476852Y301266D01*
X476862Y301155D01*
X476868Y301045D01*
X476870Y300934D01*
X476868Y300823D01*
X476862Y300713D01*
X476852Y300602D01*
X476838Y300492D01*
X476821Y300383D01*
X476799Y300274D01*
X476774Y300166D01*
X476744Y300060D01*
X476711Y299954D01*
X476674Y299849D01*
X476634Y299746D01*
X476589Y299645D01*
X476542Y299545D01*
X476490Y299446D01*
X476435Y299350D01*
X476377Y299256D01*
X476316Y299164D01*
X476251Y299074D01*
X476183Y298986D01*
X476112Y298901D01*
X476038Y298819D01*
X475961Y298739D01*
X475881Y298662D01*
X475799Y298588D01*
X475714Y298517D01*
X475626Y298449D01*
X475536Y298384D01*
X475444Y298323D01*
X475350Y298265D01*
X475254Y298210D01*
X475155Y298158D01*
X475055Y298111D01*
X474954Y298066D01*
X474851Y298026D01*
X474746Y297989D01*
X474640Y297956D01*
X474534Y297926D01*
X474426Y297901D01*
X474317Y297879D01*
X474208Y297862D01*
X474098Y297848D01*
X473987Y297838D01*
X473877Y297832D01*
X473766Y297830D01*
X473766Y297829D02*
X470662Y297829D01*
X474387Y297829D02*
X476871Y292862D01*
X482000Y301554D02*
X485104Y304038D01*
X485104Y292862D01*
X482000Y292862D02*
X488209Y292862D01*
D12*
X241300Y284480D02*
X241300Y274320D01*
D10*
X229362Y292862D02*
X229362Y304038D01*
X232466Y304038D01*
X232577Y304036D01*
X232687Y304030D01*
X232798Y304020D01*
X232908Y304006D01*
X233017Y303989D01*
X233126Y303967D01*
X233234Y303942D01*
X233340Y303912D01*
X233446Y303879D01*
X233551Y303842D01*
X233654Y303802D01*
X233755Y303757D01*
X233855Y303710D01*
X233954Y303658D01*
X234050Y303603D01*
X234144Y303545D01*
X234236Y303484D01*
X234326Y303419D01*
X234414Y303351D01*
X234499Y303280D01*
X234581Y303206D01*
X234661Y303129D01*
X234738Y303049D01*
X234812Y302967D01*
X234883Y302882D01*
X234951Y302794D01*
X235016Y302704D01*
X235077Y302612D01*
X235135Y302518D01*
X235190Y302422D01*
X235242Y302323D01*
X235289Y302223D01*
X235334Y302122D01*
X235374Y302019D01*
X235411Y301914D01*
X235444Y301808D01*
X235474Y301702D01*
X235499Y301594D01*
X235521Y301485D01*
X235538Y301376D01*
X235552Y301266D01*
X235562Y301155D01*
X235568Y301045D01*
X235570Y300934D01*
X235568Y300823D01*
X235562Y300713D01*
X235552Y300602D01*
X235538Y300492D01*
X235521Y300383D01*
X235499Y300274D01*
X235474Y300166D01*
X235444Y300060D01*
X235411Y299954D01*
X235374Y299849D01*
X235334Y299746D01*
X235289Y299645D01*
X235242Y299545D01*
X235190Y299446D01*
X235135Y299350D01*
X235077Y299256D01*
X235016Y299164D01*
X234951Y299074D01*
X234883Y298986D01*
X234812Y298901D01*
X234738Y298819D01*
X234661Y298739D01*
X234581Y298662D01*
X234499Y298588D01*
X234414Y298517D01*
X234326Y298449D01*
X234236Y298384D01*
X234144Y298323D01*
X234050Y298265D01*
X233954Y298210D01*
X233855Y298158D01*
X233755Y298111D01*
X233654Y298066D01*
X233551Y298026D01*
X233446Y297989D01*
X233340Y297956D01*
X233234Y297926D01*
X233126Y297901D01*
X233017Y297879D01*
X232908Y297862D01*
X232798Y297848D01*
X232687Y297838D01*
X232577Y297832D01*
X232466Y297830D01*
X232466Y297829D02*
X229362Y297829D01*
X233087Y297829D02*
X235571Y292862D01*
X244115Y304038D02*
X244219Y304036D01*
X244324Y304030D01*
X244428Y304020D01*
X244531Y304007D01*
X244634Y303989D01*
X244737Y303968D01*
X244838Y303943D01*
X244939Y303914D01*
X245038Y303881D01*
X245136Y303845D01*
X245232Y303805D01*
X245327Y303761D01*
X245421Y303714D01*
X245512Y303664D01*
X245601Y303610D01*
X245689Y303553D01*
X245774Y303492D01*
X245857Y303428D01*
X245937Y303362D01*
X246015Y303292D01*
X246091Y303220D01*
X246163Y303144D01*
X246233Y303066D01*
X246299Y302986D01*
X246363Y302903D01*
X246424Y302818D01*
X246481Y302730D01*
X246535Y302641D01*
X246585Y302550D01*
X246632Y302456D01*
X246676Y302361D01*
X246716Y302265D01*
X246752Y302167D01*
X246785Y302068D01*
X246814Y301967D01*
X246839Y301866D01*
X246860Y301763D01*
X246878Y301660D01*
X246891Y301557D01*
X246901Y301453D01*
X246907Y301348D01*
X246909Y301244D01*
X244115Y304039D02*
X243996Y304037D01*
X243878Y304031D01*
X243759Y304021D01*
X243641Y304008D01*
X243524Y303990D01*
X243407Y303968D01*
X243291Y303943D01*
X243176Y303914D01*
X243061Y303881D01*
X242948Y303844D01*
X242837Y303804D01*
X242726Y303760D01*
X242618Y303712D01*
X242511Y303661D01*
X242405Y303606D01*
X242302Y303547D01*
X242200Y303486D01*
X242101Y303421D01*
X242003Y303352D01*
X241909Y303281D01*
X241816Y303206D01*
X241726Y303129D01*
X241639Y303048D01*
X241554Y302965D01*
X241472Y302879D01*
X241393Y302790D01*
X241317Y302699D01*
X241244Y302605D01*
X241175Y302509D01*
X241108Y302410D01*
X241045Y302310D01*
X240985Y302207D01*
X240928Y302103D01*
X240876Y301996D01*
X240826Y301888D01*
X240780Y301779D01*
X240738Y301667D01*
X240700Y301555D01*
X245978Y299071D02*
X246053Y299145D01*
X246125Y299222D01*
X246195Y299301D01*
X246262Y299383D01*
X246326Y299467D01*
X246387Y299553D01*
X246445Y299641D01*
X246500Y299732D01*
X246552Y299824D01*
X246600Y299918D01*
X246645Y300013D01*
X246687Y300111D01*
X246725Y300209D01*
X246760Y300309D01*
X246791Y300410D01*
X246818Y300512D01*
X246842Y300615D01*
X246863Y300718D01*
X246879Y300823D01*
X246892Y300928D01*
X246902Y301033D01*
X246907Y301138D01*
X246909Y301244D01*
X245978Y299071D02*
X240700Y292862D01*
X246909Y292862D01*
D12*
X353950Y241100D02*
X369950Y241100D01*
X369950Y216100D01*
X353950Y216100D01*
X353950Y241100D01*
X359888Y228600D02*
X359890Y228691D01*
X359896Y228781D01*
X359906Y228871D01*
X359920Y228961D01*
X359938Y229049D01*
X359959Y229137D01*
X359985Y229224D01*
X360014Y229310D01*
X360047Y229394D01*
X360084Y229477D01*
X360124Y229558D01*
X360168Y229638D01*
X360215Y229715D01*
X360266Y229790D01*
X360320Y229863D01*
X360377Y229933D01*
X360437Y230001D01*
X360500Y230066D01*
X360566Y230128D01*
X360634Y230188D01*
X360705Y230244D01*
X360779Y230297D01*
X360854Y230347D01*
X360932Y230393D01*
X361012Y230436D01*
X361093Y230476D01*
X361177Y230511D01*
X361261Y230544D01*
X361347Y230572D01*
X361435Y230597D01*
X361523Y230617D01*
X361612Y230634D01*
X361701Y230647D01*
X361792Y230656D01*
X361882Y230661D01*
X361973Y230662D01*
X362063Y230659D01*
X362154Y230652D01*
X362243Y230641D01*
X362333Y230626D01*
X362421Y230607D01*
X362509Y230585D01*
X362596Y230558D01*
X362681Y230528D01*
X362765Y230494D01*
X362848Y230456D01*
X362928Y230415D01*
X363007Y230370D01*
X363084Y230322D01*
X363158Y230271D01*
X363231Y230216D01*
X363300Y230158D01*
X363367Y230098D01*
X363432Y230034D01*
X363493Y229967D01*
X363552Y229898D01*
X363607Y229827D01*
X363660Y229753D01*
X363709Y229676D01*
X363754Y229598D01*
X363796Y229518D01*
X363835Y229436D01*
X363870Y229352D01*
X363901Y229267D01*
X363928Y229181D01*
X363952Y229093D01*
X363972Y229005D01*
X363988Y228916D01*
X364000Y228826D01*
X364008Y228736D01*
X364012Y228645D01*
X364012Y228555D01*
X364008Y228464D01*
X364000Y228374D01*
X363988Y228284D01*
X363972Y228195D01*
X363952Y228107D01*
X363928Y228019D01*
X363901Y227933D01*
X363870Y227848D01*
X363835Y227764D01*
X363796Y227682D01*
X363754Y227602D01*
X363709Y227524D01*
X363660Y227447D01*
X363607Y227373D01*
X363552Y227302D01*
X363493Y227233D01*
X363432Y227166D01*
X363367Y227102D01*
X363300Y227042D01*
X363231Y226984D01*
X363158Y226929D01*
X363084Y226878D01*
X363007Y226830D01*
X362928Y226785D01*
X362848Y226744D01*
X362765Y226706D01*
X362681Y226672D01*
X362596Y226642D01*
X362509Y226615D01*
X362421Y226593D01*
X362333Y226574D01*
X362243Y226559D01*
X362154Y226548D01*
X362063Y226541D01*
X361973Y226538D01*
X361882Y226539D01*
X361792Y226544D01*
X361701Y226553D01*
X361612Y226566D01*
X361523Y226583D01*
X361435Y226603D01*
X361347Y226628D01*
X361261Y226656D01*
X361177Y226689D01*
X361093Y226724D01*
X361012Y226764D01*
X360932Y226807D01*
X360854Y226853D01*
X360779Y226903D01*
X360705Y226956D01*
X360634Y227012D01*
X360566Y227072D01*
X360500Y227134D01*
X360437Y227199D01*
X360377Y227267D01*
X360320Y227337D01*
X360266Y227410D01*
X360215Y227485D01*
X360168Y227562D01*
X360124Y227642D01*
X360084Y227723D01*
X360047Y227806D01*
X360014Y227890D01*
X359985Y227976D01*
X359959Y228063D01*
X359938Y228151D01*
X359920Y228239D01*
X359906Y228329D01*
X359896Y228419D01*
X359890Y228509D01*
X359888Y228600D01*
X365950Y224600D02*
X365950Y232600D01*
X359950Y232600D01*
X357950Y230600D01*
X357950Y224600D01*
X365950Y224600D01*
X376950Y213600D02*
X346950Y213600D01*
X346950Y243600D02*
X376950Y243600D01*
D13*
X119952Y406476D03*
D14*
X119990Y406552D03*
D15*
X119952Y406629D03*
D16*
X119952Y406705D03*
D17*
X119990Y406781D03*
D18*
X119990Y406857D03*
D19*
X119990Y406933D03*
D20*
X119990Y407010D03*
D21*
X119990Y407086D03*
D22*
X119990Y407162D03*
D23*
X119990Y407238D03*
D24*
X119990Y407314D03*
D25*
X119990Y407391D03*
D26*
X119952Y407467D03*
D27*
X119990Y407543D03*
D28*
X123762Y407543D03*
D29*
X118961Y407619D03*
D30*
X120980Y407619D03*
D31*
X123800Y407619D03*
D32*
X118770Y407695D03*
D33*
X121171Y407695D03*
D34*
X123838Y407695D03*
D35*
X118694Y407772D03*
D36*
X121247Y407772D03*
D37*
X123876Y407772D03*
D38*
X118618Y407848D03*
D39*
X121323Y407848D03*
D18*
X123876Y407848D03*
D36*
X118580Y407924D03*
D14*
X121361Y407924D03*
D20*
X123876Y407924D03*
D39*
X118504Y408000D03*
D31*
X121437Y408000D03*
D40*
X123876Y408000D03*
D14*
X118466Y408076D03*
D41*
X121476Y408076D03*
D42*
X123914Y408076D03*
D43*
X126048Y408076D03*
D41*
X118428Y408153D03*
X121476Y408153D03*
D44*
X123914Y408153D03*
D45*
X126048Y408153D03*
D46*
X118351Y408229D03*
D47*
X121514Y408229D03*
D48*
X124295Y408229D03*
D49*
X118351Y408305D03*
D50*
X123723Y408305D03*
D51*
X126886Y408305D03*
D47*
X118313Y408381D03*
D52*
X124066Y408381D03*
D41*
X118275Y408457D03*
D53*
X124143Y408457D03*
D41*
X118275Y408534D03*
D54*
X124181Y408534D03*
D47*
X118237Y408610D03*
D55*
X124181Y408610D03*
D41*
X118199Y408686D03*
D56*
X124219Y408686D03*
D57*
X118199Y408762D03*
D58*
X122161Y408762D03*
D59*
X125857Y408762D03*
D41*
X118199Y408838D03*
D60*
X122085Y408838D03*
D61*
X125971Y408838D03*
D41*
X118199Y408915D03*
D62*
X122047Y408915D03*
D63*
X126048Y408915D03*
D31*
X118161Y408991D03*
D64*
X122047Y408991D03*
D65*
X126124Y408991D03*
D14*
X118161Y409067D03*
D62*
X122047Y409067D03*
D66*
X126162Y409067D03*
D31*
X118161Y409143D03*
D67*
X122085Y409143D03*
D68*
X126238Y409143D03*
D14*
X118161Y409219D03*
D17*
X122047Y409219D03*
D69*
X126200Y409219D03*
D36*
X118123Y409296D03*
D69*
X122085Y409296D03*
D17*
X126238Y409296D03*
D70*
X118161Y409372D03*
D71*
X122085Y409372D03*
D67*
X126276Y409372D03*
D35*
X118161Y409448D03*
D66*
X122123Y409448D03*
D60*
X126276Y409448D03*
D72*
X130924Y409448D03*
D73*
X118123Y409524D03*
D74*
X122161Y409524D03*
D64*
X126238Y409524D03*
D75*
X130924Y409524D03*
D76*
X118161Y409600D03*
D20*
X122199Y409600D03*
D62*
X126238Y409600D03*
D77*
X130886Y409600D03*
D78*
X118199Y409677D03*
D22*
X122276Y409677D03*
D60*
X126200Y409677D03*
D79*
X130924Y409677D03*
D80*
X118199Y409753D03*
D81*
X122352Y409753D03*
D58*
X126124Y409753D03*
D82*
X130924Y409753D03*
D83*
X118199Y409829D03*
D84*
X123876Y409829D03*
D85*
X130924Y409829D03*
D86*
X118237Y409905D03*
D87*
X123838Y409905D03*
D47*
X130886Y409905D03*
D88*
X118313Y409981D03*
D89*
X123762Y409981D03*
D90*
X130886Y409981D03*
D69*
X118351Y410058D03*
D91*
X123647Y410058D03*
D90*
X130886Y410058D03*
D92*
X122161Y410134D03*
D47*
X130886Y410134D03*
D93*
X122161Y410210D03*
D41*
X130848Y410210D03*
D92*
X122161Y410286D03*
D57*
X130848Y410286D03*
D93*
X122085Y410362D03*
D90*
X130810Y410362D03*
D93*
X122085Y410439D03*
D41*
X130772Y410439D03*
D94*
X119304Y410515D03*
D57*
X122238Y410515D03*
D95*
X124981Y410515D03*
D57*
X130772Y410515D03*
D96*
X119266Y410591D03*
D41*
X122238Y410591D03*
D97*
X125019Y410591D03*
D41*
X130772Y410591D03*
D57*
X117666Y410667D03*
D40*
X119837Y410667D03*
D57*
X122238Y410667D03*
D98*
X125095Y410667D03*
D47*
X130734Y410667D03*
D41*
X117666Y410743D03*
D20*
X119837Y410743D03*
D14*
X122276Y410743D03*
D25*
X125171Y410743D03*
D49*
X130696Y410743D03*
D90*
X117627Y410820D03*
D19*
X119837Y410820D03*
D14*
X122352Y410820D03*
D44*
X125286Y410820D03*
D49*
X130696Y410820D03*
D46*
X117589Y410896D03*
D99*
X119837Y410896D03*
D39*
X122390Y410896D03*
D40*
X125400Y410896D03*
D47*
X130658Y410896D03*
D49*
X117589Y410972D03*
D37*
X119837Y410972D03*
D36*
X122466Y410972D03*
D100*
X125667Y410972D03*
D41*
X130620Y410972D03*
D101*
X136220Y410972D03*
D46*
X117589Y411048D03*
D86*
X119837Y411048D03*
D70*
X122504Y411048D03*
D102*
X125667Y411048D03*
D57*
X130620Y411048D03*
D39*
X136182Y411048D03*
D90*
X117551Y411124D03*
D76*
X119837Y411124D03*
D33*
X122619Y411124D03*
D103*
X125590Y411124D03*
D41*
X130620Y411124D03*
D104*
X136220Y411124D03*
D41*
X117513Y411201D03*
D90*
X119837Y411201D03*
D104*
X122733Y411201D03*
D105*
X125476Y411201D03*
D106*
X129591Y411201D03*
D90*
X130581Y411201D03*
D88*
X136220Y411201D03*
D57*
X117513Y411277D03*
D107*
X124409Y411277D03*
D108*
X130162Y411277D03*
D99*
X136220Y411277D03*
D90*
X117475Y411353D03*
D109*
X124409Y411353D03*
D88*
X130124Y411353D03*
D110*
X136182Y411353D03*
D57*
X117437Y411429D03*
D111*
X124447Y411429D03*
D112*
X130124Y411429D03*
D113*
X136220Y411429D03*
D41*
X117437Y411505D03*
D25*
X123876Y411505D03*
D90*
X126314Y411505D03*
D62*
X130048Y411505D03*
D114*
X136220Y411505D03*
D41*
X117437Y411582D03*
D24*
X123876Y411582D03*
D49*
X126352Y411582D03*
D62*
X130048Y411582D03*
D42*
X136182Y411582D03*
D47*
X117399Y411658D03*
D115*
X123838Y411658D03*
D46*
X126352Y411658D03*
D67*
X130010Y411658D03*
D116*
X136182Y411658D03*
D49*
X117361Y411734D03*
D42*
X123838Y411734D03*
D90*
X126390Y411734D03*
D88*
X129972Y411734D03*
D117*
X136182Y411734D03*
D46*
X117361Y411810D03*
D40*
X123876Y411810D03*
D57*
X126429Y411810D03*
D67*
X129934Y411810D03*
D118*
X136220Y411810D03*
D49*
X117361Y411886D03*
D20*
X123876Y411886D03*
D14*
X126467Y411886D03*
D17*
X129896Y411886D03*
D119*
X136182Y411886D03*
D90*
X117323Y411963D03*
D103*
X123838Y411963D03*
D14*
X126467Y411963D03*
D17*
X129896Y411963D03*
D120*
X136182Y411963D03*
D57*
X117285Y412039D03*
D99*
X123876Y412039D03*
D31*
X126543Y412039D03*
D121*
X129819Y412039D03*
D122*
X136182Y412039D03*
D41*
X117285Y412115D03*
D60*
X123838Y412115D03*
D36*
X126581Y412115D03*
D123*
X129743Y412115D03*
D34*
X135115Y412115D03*
D83*
X137249Y412115D03*
D47*
X117246Y412191D03*
D124*
X123838Y412191D03*
D39*
X126657Y412191D03*
D71*
X129705Y412191D03*
D80*
X134963Y412191D03*
D125*
X137439Y412191D03*
D49*
X117208Y412267D03*
D36*
X123838Y412267D03*
D33*
X126733Y412267D03*
D110*
X129629Y412267D03*
D126*
X133629Y412267D03*
D33*
X134887Y412267D03*
D127*
X137516Y412267D03*
D49*
X117208Y412344D03*
D128*
X123838Y412344D03*
D78*
X126886Y412344D03*
D20*
X129515Y412344D03*
D129*
X133591Y412344D03*
D127*
X134772Y412344D03*
D35*
X137592Y412344D03*
D85*
X140983Y412344D03*
D46*
X117208Y412420D03*
D130*
X128486Y412420D03*
D131*
X134315Y412420D03*
D132*
X137668Y412420D03*
D73*
X140983Y412420D03*
D90*
X117170Y412496D03*
D133*
X128524Y412496D03*
D17*
X134239Y412496D03*
D36*
X137706Y412496D03*
D104*
X140945Y412496D03*
D47*
X117170Y412572D03*
D134*
X121209Y412572D03*
D135*
X128524Y412572D03*
D67*
X134201Y412572D03*
D31*
X137744Y412572D03*
D16*
X140907Y412572D03*
D85*
X117208Y412648D03*
D35*
X121209Y412648D03*
D117*
X127953Y412648D03*
D41*
X130391Y412648D03*
D60*
X134125Y412648D03*
D49*
X137782Y412648D03*
D17*
X140868Y412648D03*
D136*
X117170Y412725D03*
D137*
X121209Y412725D03*
D44*
X127953Y412725D03*
D41*
X130391Y412725D03*
D60*
X134125Y412725D03*
D14*
X137820Y412725D03*
D69*
X140830Y412725D03*
D138*
X117170Y412801D03*
D58*
X121247Y412801D03*
D139*
X127953Y412801D03*
D47*
X130429Y412801D03*
D140*
X134049Y412801D03*
D57*
X137859Y412801D03*
D99*
X140792Y412801D03*
D101*
X117170Y412877D03*
D110*
X121247Y412877D03*
D141*
X127953Y412877D03*
D41*
X130467Y412877D03*
D123*
X134163Y412877D03*
D41*
X137859Y412877D03*
D142*
X140754Y412877D03*
D143*
X117208Y412953D03*
D144*
X121285Y412953D03*
D145*
X127953Y412953D03*
D57*
X130467Y412953D03*
D146*
X134277Y412953D03*
D47*
X137897Y412953D03*
D147*
X140678Y412953D03*
D148*
X121285Y413029D03*
D63*
X127953Y413029D03*
D14*
X130505Y413029D03*
D141*
X134353Y413029D03*
D90*
X137897Y413029D03*
D19*
X140640Y413029D03*
D42*
X121323Y413106D03*
D66*
X127914Y413106D03*
D14*
X130581Y413106D03*
D24*
X134468Y413106D03*
D149*
X137859Y413106D03*
D19*
X140640Y413106D03*
D116*
X121323Y413182D03*
D58*
X127953Y413182D03*
D31*
X130581Y413182D03*
D150*
X134544Y413182D03*
D151*
X137897Y413182D03*
D152*
X140564Y413182D03*
D153*
X144221Y413182D03*
D117*
X121323Y413258D03*
D154*
X127953Y413258D03*
D127*
X130658Y413258D03*
D155*
X134658Y413258D03*
D156*
X137897Y413258D03*
D63*
X140526Y413258D03*
D49*
X144259Y413258D03*
D150*
X121361Y413334D03*
D157*
X127953Y413334D03*
D70*
X130734Y413334D03*
D158*
X134772Y413334D03*
D159*
X137897Y413334D03*
D74*
X140449Y413334D03*
D160*
X144221Y413334D03*
D120*
X121399Y413410D03*
D14*
X127914Y413410D03*
D32*
X130810Y413410D03*
D109*
X134772Y413410D03*
D28*
X137859Y413410D03*
D110*
X140373Y413410D03*
D83*
X144183Y413410D03*
D97*
X121361Y413487D03*
D161*
X127914Y413487D03*
D162*
X133820Y413487D03*
D78*
X139840Y413487D03*
D154*
X144107Y413487D03*
D122*
X121399Y413563D03*
D163*
X133934Y413563D03*
D73*
X139764Y413563D03*
D131*
X144069Y413563D03*
D164*
X121437Y413639D03*
D165*
X134049Y413639D03*
D35*
X139649Y413639D03*
D69*
X144031Y413639D03*
D73*
X120180Y413715D03*
D67*
X122466Y413715D03*
D166*
X125438Y413715D03*
D167*
X134125Y413715D03*
D39*
X139611Y413715D03*
D71*
X144031Y413715D03*
D49*
X120028Y413791D03*
D83*
X122619Y413791D03*
D41*
X125438Y413791D03*
D117*
X131991Y413791D03*
D168*
X135954Y413791D03*
D36*
X139535Y413791D03*
D66*
X143993Y413791D03*
D90*
X119990Y413868D03*
D78*
X122771Y413868D03*
X125438Y413868D03*
D44*
X131991Y413868D03*
D169*
X135992Y413868D03*
D14*
X139497Y413868D03*
D110*
X143955Y413868D03*
D129*
X146698Y413868D03*
D151*
X119990Y413944D03*
D73*
X122847Y413944D03*
D16*
X125438Y413944D03*
D170*
X131991Y413944D03*
D171*
X136030Y413944D03*
D31*
X139421Y413944D03*
D65*
X143878Y413944D03*
D46*
X146698Y413944D03*
D156*
X119990Y414020D03*
D127*
X122961Y414020D03*
D69*
X125438Y414020D03*
D141*
X131991Y414020D03*
D96*
X136030Y414020D03*
D41*
X139383Y414020D03*
D19*
X143840Y414020D03*
D78*
X146698Y414020D03*
D159*
X119990Y414096D03*
D172*
X123000Y414096D03*
D71*
X125438Y414096D03*
D173*
X131991Y414096D03*
D46*
X134506Y414096D03*
D74*
X136792Y414096D03*
D57*
X139383Y414096D03*
D146*
X143802Y414096D03*
D108*
X146698Y414096D03*
D106*
X119990Y414172D03*
D14*
X123038Y414172D03*
D19*
X125476Y414172D03*
X131953Y414172D03*
D14*
X134544Y414172D03*
D142*
X136944Y414172D03*
D49*
X139306Y414172D03*
D63*
X143726Y414172D03*
D69*
X146698Y414172D03*
D14*
X123114Y414249D03*
D61*
X125438Y414249D03*
D142*
X131991Y414249D03*
D174*
X134620Y414249D03*
D175*
X137097Y414249D03*
D49*
X139306Y414249D03*
D19*
X143688Y414249D03*
D103*
X146698Y414249D03*
D57*
X123152Y414325D03*
D176*
X125438Y414325D03*
D121*
X131953Y414325D03*
D39*
X134658Y414325D03*
D86*
X137211Y414325D03*
D46*
X139306Y414325D03*
D29*
X143193Y414325D03*
D153*
X144602Y414325D03*
D74*
X146698Y414325D03*
D90*
X123190Y414401D03*
D42*
X125438Y414401D03*
D137*
X131953Y414401D03*
D36*
X134734Y414401D03*
D33*
X137325Y414401D03*
D90*
X139268Y414401D03*
D32*
X143002Y414401D03*
D148*
X146660Y414401D03*
D158*
X124866Y414477D03*
D177*
X128295Y414477D03*
D125*
X131953Y414477D03*
D73*
X134811Y414477D03*
D125*
X137287Y414477D03*
D57*
X139230Y414477D03*
D70*
X142926Y414477D03*
D170*
X146698Y414477D03*
D178*
X124905Y414553D03*
D161*
X128295Y414553D03*
D90*
X131953Y414553D03*
D76*
X134925Y414553D03*
D78*
X137173Y414553D03*
D41*
X139230Y414553D03*
D127*
X142850Y414553D03*
D179*
X146698Y414553D03*
D101*
X120447Y414630D03*
D180*
X124866Y414630D03*
D156*
X128295Y414630D03*
D181*
X131953Y414630D03*
D120*
X136030Y414630D03*
D41*
X139230Y414630D03*
D182*
X142812Y414630D03*
D24*
X146660Y414630D03*
D73*
X120485Y414706D03*
D183*
X124866Y414706D03*
D151*
X128295Y414706D03*
D150*
X136068Y414706D03*
D47*
X139192Y414706D03*
D39*
X142735Y414706D03*
D118*
X146660Y414706D03*
D62*
X120523Y414782D03*
D184*
X124828Y414782D03*
D136*
X128295Y414782D03*
D119*
X136030Y414782D03*
D41*
X139154Y414782D03*
D14*
X142697Y414782D03*
D119*
X146698Y414782D03*
D185*
X123342Y414858D03*
D47*
X128295Y414858D03*
D186*
X136030Y414858D03*
D57*
X139154Y414858D03*
X142659Y414858D03*
D187*
X146698Y414858D03*
D188*
X122161Y414934D03*
D32*
X126619Y414934D03*
D90*
X128295Y414934D03*
D24*
X136068Y414934D03*
D90*
X139116Y414934D03*
D174*
X142621Y414934D03*
D189*
X146660Y414934D03*
D190*
X122009Y415011D03*
D35*
X126695Y415011D03*
D90*
X128295Y415011D03*
D191*
X136068Y415011D03*
D49*
X139078Y415011D03*
D41*
X142583Y415011D03*
D192*
X146698Y415011D03*
D193*
X121933Y415087D03*
D172*
X126810Y415087D03*
D46*
X128257Y415087D03*
D194*
X136068Y415087D03*
D46*
X139078Y415087D03*
D57*
X142583Y415087D03*
D157*
X145479Y415087D03*
D125*
X147955Y415087D03*
D195*
X121857Y415163D03*
D14*
X126848Y415163D03*
D49*
X128257Y415163D03*
D196*
X130810Y415163D03*
D114*
X136068Y415163D03*
D49*
X139078Y415163D03*
X142507Y415163D03*
D76*
X145364Y415163D03*
D35*
X148031Y415163D03*
D197*
X121780Y415239D03*
D46*
X126886Y415239D03*
X128257Y415239D03*
D159*
X130810Y415239D03*
D74*
X136030Y415239D03*
D198*
X138011Y415239D03*
D47*
X139040Y415239D03*
D46*
X142507Y415239D03*
D38*
X145288Y415239D03*
X148107Y415239D03*
D199*
X121780Y415315D03*
D14*
X126924Y415315D03*
D90*
X128219Y415315D03*
D156*
X130810Y415315D03*
D103*
X136030Y415315D03*
D137*
X138659Y415315D03*
D49*
X142507Y415315D03*
D35*
X145212Y415315D03*
D182*
X148146Y415315D03*
D195*
X121704Y415392D03*
D100*
X127572Y415392D03*
D200*
X130810Y415392D03*
D142*
X136030Y415392D03*
D154*
X138621Y415392D03*
D90*
X142469Y415392D03*
D36*
X145174Y415392D03*
D14*
X148184Y415392D03*
D201*
X121666Y415468D03*
D102*
X127572Y415468D03*
D202*
X130810Y415468D03*
D67*
X136030Y415468D03*
D108*
X138544Y415468D03*
D57*
X142431Y415468D03*
D31*
X145136Y415468D03*
X148260Y415468D03*
D203*
X121666Y415544D03*
D69*
X127572Y415544D03*
D90*
X130810Y415544D03*
D34*
X136030Y415544D03*
D88*
X138506Y415544D03*
D41*
X142431Y415544D03*
D14*
X145059Y415544D03*
D41*
X148298Y415544D03*
D204*
X121590Y415620D03*
D58*
X127572Y415620D03*
D47*
X130810Y415620D03*
D38*
X135992Y415620D03*
D67*
X138544Y415620D03*
D57*
X142431Y415620D03*
D31*
X145059Y415620D03*
D57*
X148298Y415620D03*
D168*
X120942Y415696D03*
D41*
X123762Y415696D03*
D69*
X127572Y415696D03*
D90*
X130810Y415696D03*
D79*
X136030Y415696D03*
D205*
X138659Y415696D03*
D90*
X142392Y415696D03*
D49*
X145021Y415696D03*
D41*
X148374Y415696D03*
D14*
X119532Y415773D03*
D69*
X121780Y415773D03*
D41*
X123762Y415773D03*
D17*
X127610Y415773D03*
D41*
X130772Y415773D03*
D63*
X138773Y415773D03*
D49*
X142354Y415773D03*
D182*
X145098Y415773D03*
D41*
X148374Y415773D03*
D31*
X119532Y415849D03*
D157*
X121857Y415849D03*
D47*
X123723Y415849D03*
D140*
X127572Y415849D03*
D57*
X130772Y415849D03*
D177*
X133325Y415849D03*
D40*
X138887Y415849D03*
D46*
X142354Y415849D03*
D30*
X145212Y415849D03*
D57*
X148374Y415849D03*
D127*
X119609Y415925D03*
D136*
X121895Y415925D03*
D49*
X123685Y415925D03*
D175*
X127572Y415925D03*
D90*
X130734Y415925D03*
D161*
X133325Y415925D03*
D42*
X139078Y415925D03*
D90*
X142316Y415925D03*
D88*
X145364Y415925D03*
D90*
X148412Y415925D03*
D73*
X119647Y416001D03*
D46*
X123685Y416001D03*
D140*
X127572Y416001D03*
D47*
X130734Y416001D03*
D206*
X133325Y416001D03*
D23*
X139116Y416001D03*
D57*
X142278Y416001D03*
D58*
X145479Y416001D03*
D207*
X148374Y416001D03*
D78*
X119799Y416077D03*
D126*
X122580Y416077D03*
D90*
X123647Y416077D03*
D175*
X127572Y416077D03*
D49*
X130696Y416077D03*
D136*
X133325Y416077D03*
D196*
X134087Y416077D03*
D44*
X139230Y416077D03*
D41*
X142278Y416077D03*
D110*
X145631Y416077D03*
D136*
X148412Y416077D03*
D34*
X119875Y416154D03*
D45*
X122619Y416154D03*
D41*
X123609Y416154D03*
D88*
X127533Y416154D03*
D49*
X130696Y416154D03*
D32*
X133629Y416154D03*
D44*
X139230Y416154D03*
D106*
X141249Y416154D03*
D41*
X142278Y416154D03*
D20*
X145745Y416154D03*
D79*
X148374Y416154D03*
D112*
X120066Y416230D03*
D64*
X123190Y416230D03*
D112*
X127533Y416230D03*
D47*
X130658Y416230D03*
D30*
X133629Y416230D03*
D208*
X140221Y416230D03*
D59*
X145898Y416230D03*
D209*
X148374Y416230D03*
D142*
X120256Y416306D03*
D37*
X123114Y416306D03*
D88*
X127533Y416306D03*
D41*
X130620Y416306D03*
D83*
X133668Y416306D03*
D210*
X140297Y416306D03*
D24*
X146050Y416306D03*
D28*
X148374Y416306D03*
D211*
X121628Y416382D03*
D112*
X127457Y416382D03*
D57*
X130620Y416382D03*
D86*
X133706Y416382D03*
D183*
X140411Y416382D03*
D212*
X146164Y416382D03*
D109*
X121666Y416458D03*
D88*
X127457Y416458D03*
D41*
X130620Y416458D03*
D154*
X133668Y416458D03*
D213*
X140564Y416458D03*
D192*
X146317Y416458D03*
D214*
X121704Y416535D03*
D88*
X127457Y416535D03*
D90*
X130581Y416535D03*
D154*
X133668Y416535D03*
D215*
X140716Y416535D03*
D155*
X146393Y416535D03*
D216*
X121704Y416611D03*
D112*
X127457Y416611D03*
D46*
X130543Y416611D03*
D112*
X133706Y416611D03*
D94*
X141021Y416611D03*
D217*
X146431Y416611D03*
D218*
X121742Y416687D03*
D62*
X127381Y416687D03*
D49*
X130543Y416687D03*
D88*
X133629Y416687D03*
D168*
X141288Y416687D03*
X146469Y416687D03*
D219*
X121780Y416763D03*
D64*
X127381Y416763D03*
D47*
X130505Y416763D03*
D112*
X133629Y416763D03*
D220*
X136639Y416763D03*
D94*
X141554Y416763D03*
D48*
X146469Y416763D03*
D221*
X121857Y416839D03*
D62*
X127381Y416839D03*
D41*
X130467Y416839D03*
D88*
X133629Y416839D03*
D129*
X136639Y416839D03*
D168*
X141821Y416839D03*
D169*
X146507Y416839D03*
D168*
X121857Y416916D03*
D88*
X127305Y416916D03*
D41*
X130467Y416916D03*
D88*
X133629Y416916D03*
D77*
X136601Y416916D03*
D222*
X141973Y416916D03*
D96*
X146545Y416916D03*
D95*
X121933Y416992D03*
D112*
X127305Y416992D03*
D57*
X130467Y416992D03*
D112*
X133553Y416992D03*
D223*
X136639Y416992D03*
D143*
X140449Y416992D03*
D116*
X142431Y416992D03*
D46*
X145021Y416992D03*
D74*
X147307Y416992D03*
D192*
X122009Y417068D03*
D88*
X127305Y417068D03*
D90*
X130429Y417068D03*
D88*
X133553Y417068D03*
D85*
X136639Y417068D03*
D179*
X142507Y417068D03*
D14*
X145059Y417068D03*
D66*
X147422Y417068D03*
D187*
X122085Y417144D03*
D112*
X127305Y417144D03*
D57*
X130391Y417144D03*
D112*
X133553Y417144D03*
D82*
X136639Y417144D03*
D23*
X142545Y417144D03*
D31*
X145136Y417144D03*
D121*
X147574Y417144D03*
D224*
X122161Y417220D03*
D60*
X127267Y417220D03*
D41*
X130391Y417220D03*
D88*
X133553Y417220D03*
D90*
X136601Y417220D03*
D42*
X142659Y417220D03*
D14*
X145136Y417220D03*
D137*
X147726Y417220D03*
D154*
X121628Y417297D03*
D49*
X123304Y417297D03*
D60*
X127267Y417297D03*
D41*
X130391Y417297D03*
D62*
X133477Y417297D03*
D90*
X136601Y417297D03*
D225*
X142812Y417297D03*
D35*
X145212Y417297D03*
D32*
X147803Y417297D03*
D73*
X121628Y417373D03*
D46*
X123304Y417373D03*
D112*
X127229Y417373D03*
D47*
X130353Y417373D03*
D64*
X133477Y417373D03*
D47*
X136601Y417373D03*
D152*
X142926Y417373D03*
D38*
X145288Y417373D03*
D125*
X147803Y417373D03*
D161*
X121666Y417449D03*
D90*
X123266Y417449D03*
D175*
X127191Y417449D03*
D49*
X130315Y417449D03*
D62*
X133477Y417449D03*
D90*
X136601Y417449D03*
D226*
X139154Y417449D03*
D123*
X143078Y417449D03*
D76*
X145364Y417449D03*
D78*
X147688Y417449D03*
D47*
X123266Y417525D03*
D140*
X127191Y417525D03*
D46*
X130315Y417525D03*
D112*
X133401Y417525D03*
D57*
X136563Y417525D03*
D75*
X139154Y417525D03*
D112*
X143154Y417525D03*
D187*
X146545Y417525D03*
D90*
X123266Y417601D03*
D17*
X127229Y417601D03*
D41*
X130239Y417601D03*
D88*
X133401Y417601D03*
D41*
X136563Y417601D03*
D77*
X139116Y417601D03*
D104*
X143307Y417601D03*
D120*
X146545Y417601D03*
D136*
X123266Y417678D03*
D17*
X127229Y417678D03*
D41*
X130239Y417678D03*
D88*
X133401Y417678D03*
D90*
X136525Y417678D03*
D79*
X139154Y417678D03*
D36*
X143421Y417678D03*
D119*
X146545Y417678D03*
D151*
X123266Y417754D03*
D58*
X127191Y417754D03*
D31*
X130200Y417754D03*
D112*
X133401Y417754D03*
D57*
X136487Y417754D03*
D207*
X139154Y417754D03*
D47*
X143535Y417754D03*
D186*
X146545Y417754D03*
D77*
X123266Y417830D03*
D69*
X127191Y417830D03*
D14*
X130200Y417830D03*
D88*
X133325Y417830D03*
D41*
X136487Y417830D03*
D149*
X139154Y417830D03*
D161*
X143612Y417830D03*
D179*
X146545Y417830D03*
D134*
X123266Y417906D03*
D58*
X127191Y417906D03*
D39*
X130162Y417906D03*
D112*
X133325Y417906D03*
D57*
X136487Y417906D03*
D47*
X139116Y417906D03*
D220*
X143650Y417906D03*
D115*
X146545Y417906D03*
D196*
X123266Y417982D03*
D205*
X127229Y417982D03*
D36*
X130162Y417982D03*
D88*
X133325Y417982D03*
D90*
X136449Y417982D03*
X139116Y417982D03*
D42*
X146545Y417982D03*
D126*
X114198Y418059D03*
D100*
X127191Y418059D03*
D35*
X130124Y418059D03*
D175*
X133287Y418059D03*
D49*
X136411Y418059D03*
D90*
X139116Y418059D03*
D126*
X141173Y418059D03*
D114*
X146507Y418059D03*
D125*
X114427Y418135D03*
D57*
X126581Y418135D03*
D46*
X127876Y418135D03*
D73*
X130086Y418135D03*
D112*
X133248Y418135D03*
D46*
X136411Y418135D03*
X139078Y418135D03*
D47*
X141173Y418135D03*
D113*
X146507Y418135D03*
D142*
X114541Y418211D03*
D90*
X126543Y418211D03*
D49*
X127876Y418211D03*
D32*
X130048Y418211D03*
D88*
X133248Y418211D03*
D90*
X136373Y418211D03*
D49*
X139078Y418211D03*
D76*
X141173Y418211D03*
D103*
X146545Y418211D03*
D170*
X114694Y418287D03*
D47*
X126543Y418287D03*
D31*
X127914Y418287D03*
D30*
X129972Y418287D03*
D67*
X133210Y418287D03*
D57*
X136335Y418287D03*
D46*
X139078Y418287D03*
D108*
X141211Y418287D03*
D71*
X146545Y418287D03*
D120*
X114770Y418363D03*
D49*
X126505Y418363D03*
D117*
X129096Y418363D03*
D88*
X133172Y418363D03*
D41*
X136335Y418363D03*
D90*
X139040Y418363D03*
D69*
X141211Y418363D03*
D60*
X146545Y418363D03*
D227*
X114846Y418440D03*
D90*
X126543Y418440D03*
D117*
X129096Y418440D03*
D60*
X133134Y418440D03*
D41*
X136335Y418440D03*
X139002Y418440D03*
D66*
X141173Y418440D03*
D34*
X146545Y418440D03*
D111*
X114922Y418516D03*
D82*
X126505Y418516D03*
D228*
X129096Y418516D03*
D67*
X133134Y418516D03*
D47*
X136296Y418516D03*
D57*
X139002Y418516D03*
D74*
X141211Y418516D03*
D73*
X146545Y418516D03*
D229*
X114960Y418592D03*
D85*
X126505Y418592D03*
D24*
X129134Y418592D03*
D17*
X133096Y418592D03*
D49*
X136258Y418592D03*
D90*
X138963Y418592D03*
D114*
X141173Y418592D03*
D136*
X146507Y418592D03*
D230*
X115037Y418668D03*
D223*
X126505Y418668D03*
D186*
X129172Y418668D03*
D131*
X133020Y418668D03*
D46*
X136258Y418668D03*
D94*
X140564Y418668D03*
D231*
X115113Y418744D03*
D128*
X126505Y418744D03*
D24*
X129210Y418744D03*
D69*
X132982Y418744D03*
D90*
X136220Y418744D03*
D213*
X140564Y418744D03*
D232*
X115189Y418821D03*
D129*
X126505Y418821D03*
D24*
X129286Y418821D03*
D205*
X132944Y418821D03*
D90*
X136220Y418821D03*
D178*
X140602Y418821D03*
D28*
X143955Y418821D03*
D233*
X115265Y418897D03*
D220*
X126505Y418897D03*
D228*
X129324Y418897D03*
D102*
X132906Y418897D03*
D57*
X136182Y418897D03*
D234*
X140640Y418897D03*
D159*
X143993Y418897D03*
D235*
X115341Y418973D03*
D224*
X129400Y418973D03*
D103*
X132829Y418973D03*
D41*
X136182Y418973D03*
D236*
X140640Y418973D03*
D156*
X143993Y418973D03*
D237*
X115418Y419049D03*
D238*
X130924Y419049D03*
D47*
X136144Y419049D03*
D183*
X140640Y419049D03*
D151*
X143993Y419049D03*
D239*
X115494Y419125D03*
D54*
X130962Y419125D03*
D41*
X136106Y419125D03*
D214*
X140678Y419125D03*
D149*
X143955Y419125D03*
D240*
X115570Y419202D03*
D137*
X128829Y419202D03*
D241*
X132029Y419202D03*
D41*
X136106Y419202D03*
D109*
X140716Y419202D03*
D90*
X143993Y419202D03*
D242*
X115608Y419278D03*
D160*
X128829Y419278D03*
D217*
X132029Y419278D03*
D31*
X136068Y419278D03*
D152*
X139497Y419278D03*
D125*
X142392Y419278D03*
D47*
X143993Y419278D03*
D243*
X115684Y419354D03*
D36*
X128867Y419354D03*
D20*
X131420Y419354D03*
D90*
X133553Y419354D03*
D49*
X136030Y419354D03*
D66*
X139421Y419354D03*
D33*
X142507Y419354D03*
D90*
X143993Y419354D03*
D244*
X115761Y419430D03*
D151*
X128829Y419430D03*
D146*
X131382Y419430D03*
D47*
X133553Y419430D03*
D31*
X135992Y419430D03*
D68*
X139344Y419430D03*
D70*
X142545Y419430D03*
D57*
X143955Y419430D03*
D245*
X115837Y419506D03*
D196*
X128829Y419506D03*
D19*
X131420Y419506D03*
D49*
X133591Y419506D03*
D14*
X135992Y419506D03*
D123*
X139268Y419506D03*
D103*
X143269Y419506D03*
D246*
X115913Y419583D03*
D66*
X131420Y419583D03*
D49*
X133591Y419583D03*
D182*
X135954Y419583D03*
D69*
X139230Y419583D03*
D142*
X143269Y419583D03*
D247*
X115989Y419659D03*
D58*
X131382Y419659D03*
D47*
X133629Y419659D03*
D38*
X135915Y419659D03*
D121*
X139192Y419659D03*
D71*
X143269Y419659D03*
D248*
X116027Y419735D03*
D175*
X131382Y419735D03*
D41*
X133668Y419735D03*
D33*
X135877Y419735D03*
D60*
X139154Y419735D03*
D123*
X143307Y419735D03*
D249*
X115494Y419811D03*
D16*
X131382Y419811D03*
D31*
X133706Y419811D03*
D160*
X135839Y419811D03*
D67*
X139078Y419811D03*
D58*
X143345Y419811D03*
D250*
X115151Y419887D03*
D83*
X131382Y419887D03*
D36*
X133744Y419887D03*
D78*
X135801Y419887D03*
D60*
X139078Y419887D03*
D37*
X143307Y419887D03*
D251*
X115113Y419964D03*
D33*
X131382Y419964D03*
D127*
X133858Y419964D03*
D137*
X135687Y419964D03*
D69*
X139078Y419964D03*
D60*
X143345Y419964D03*
D252*
X115037Y420040D03*
D57*
X131382Y420040D03*
D186*
X134887Y420040D03*
D147*
X139230Y420040D03*
D67*
X143345Y420040D03*
D253*
X115037Y420116D03*
D156*
X131343Y420116D03*
D117*
X134963Y420116D03*
D61*
X139306Y420116D03*
D88*
X143307Y420116D03*
D254*
X114999Y420192D03*
D228*
X134963Y420192D03*
D170*
X139459Y420192D03*
D16*
X143345Y420192D03*
D255*
X114999Y420268D03*
D24*
X135001Y420268D03*
D256*
X139573Y420268D03*
D154*
X143345Y420268D03*
D257*
X114960Y420345D03*
D117*
X135039Y420345D03*
D97*
X139649Y420345D03*
D137*
X143383Y420345D03*
D258*
X114999Y420421D03*
D81*
X135077Y420421D03*
D48*
X139764Y420421D03*
D259*
X143383Y420421D03*
D260*
X114960Y420497D03*
D24*
X135153Y420497D03*
D218*
X139878Y420497D03*
D78*
X143421Y420497D03*
D261*
X114960Y420573D03*
D81*
X135230Y420573D03*
D211*
X139916Y420573D03*
D46*
X143650Y420573D03*
D262*
X114960Y420649D03*
D263*
X138125Y420649D03*
D49*
X143650Y420649D03*
D264*
X114960Y420726D03*
D265*
X138240Y420726D03*
D90*
X143612Y420726D03*
D266*
X114960Y420802D03*
D86*
X134696Y420802D03*
D267*
X139954Y420802D03*
D268*
X114960Y420878D03*
D78*
X134658Y420878D03*
D141*
X137249Y420878D03*
D269*
X141516Y420878D03*
D270*
X114999Y420954D03*
D39*
X134658Y420954D03*
D173*
X137249Y420954D03*
D271*
X141478Y420954D03*
D272*
X114999Y421030D03*
D149*
X134658Y421030D03*
D63*
X137249Y421030D03*
D229*
X141478Y421030D03*
D273*
X115037Y421107D03*
D28*
X134658Y421107D03*
D19*
X137211Y421107D03*
D229*
X141478Y421107D03*
D274*
X115075Y421183D03*
D18*
X137211Y421183D03*
D31*
X139497Y421183D03*
D98*
X142240Y421183D03*
D275*
X115113Y421259D03*
D123*
X137211Y421259D03*
D41*
X139535Y421259D03*
D24*
X142316Y421259D03*
D276*
X115113Y421335D03*
D131*
X137211Y421335D03*
D132*
X139573Y421335D03*
D59*
X142469Y421335D03*
D277*
X115113Y421411D03*
D88*
X137211Y421411D03*
D36*
X139611Y421411D03*
D61*
X142583Y421411D03*
D278*
X115151Y421488D03*
D34*
X137173Y421488D03*
D36*
X139687Y421488D03*
D103*
X142735Y421488D03*
D279*
X115189Y421564D03*
D73*
X137173Y421564D03*
D38*
X139725Y421564D03*
D18*
X142773Y421564D03*
D280*
X115265Y421640D03*
D49*
X137173Y421640D03*
D33*
X139840Y421640D03*
D19*
X142697Y421640D03*
D196*
X146660Y421640D03*
D281*
X115303Y421716D03*
D223*
X137173Y421716D03*
D107*
X141554Y421716D03*
D159*
X146660Y421716D03*
D282*
X115341Y421792D03*
D283*
X141592Y421792D03*
D156*
X146660Y421792D03*
D284*
X115380Y421869D03*
D36*
X128943Y421869D03*
D236*
X141630Y421869D03*
D136*
X146660Y421869D03*
D285*
X115456Y421945D03*
D68*
X128905Y421945D03*
D183*
X141630Y421945D03*
D82*
X146698Y421945D03*
D286*
X115494Y422021D03*
D22*
X128905Y422021D03*
D24*
X141021Y422021D03*
D90*
X143459Y422021D03*
D85*
X146698Y422021D03*
D287*
X115608Y422097D03*
D98*
X128905Y422097D03*
D23*
X141021Y422097D03*
D46*
X143497Y422097D03*
D47*
X146660Y422097D03*
D288*
X115684Y422173D03*
D227*
X128867Y422173D03*
D289*
X141021Y422173D03*
D49*
X143497Y422173D03*
D90*
X146660Y422173D03*
D290*
X115761Y422250D03*
D109*
X128829Y422250D03*
D114*
X141021Y422250D03*
D49*
X143497Y422250D03*
D41*
X146622Y422250D03*
D291*
X115913Y422326D03*
D204*
X128753Y422326D03*
D113*
X141021Y422326D03*
D57*
X143574Y422326D03*
D31*
X146583Y422326D03*
D292*
X116065Y422402D03*
D293*
X128676Y422402D03*
D19*
X141021Y422402D03*
D14*
X143612Y422402D03*
X146583Y422402D03*
D294*
X120142Y422478D03*
D18*
X141021Y422478D03*
D31*
X143612Y422478D03*
X146507Y422478D03*
D295*
X120256Y422554D03*
D37*
X141021Y422554D03*
D14*
X143688Y422554D03*
D36*
X146469Y422554D03*
D296*
X120371Y422631D03*
D137*
X141021Y422631D03*
D36*
X143726Y422631D03*
D35*
X146355Y422631D03*
D297*
X120485Y422707D03*
D160*
X141021Y422707D03*
D70*
X143840Y422707D03*
D125*
X146279Y422707D03*
D298*
X120599Y422783D03*
D90*
X141021Y422783D03*
D32*
X143916Y422783D03*
D78*
X146164Y422783D03*
D299*
X120714Y422859D03*
D300*
X141021Y422859D03*
D187*
X145098Y422859D03*
D301*
X120828Y422935D03*
D27*
X145059Y422935D03*
D302*
X120942Y423012D03*
D25*
X145059Y423012D03*
D303*
X121018Y423088D03*
D228*
X145098Y423088D03*
D304*
X121171Y423164D03*
D24*
X145059Y423164D03*
D305*
X121247Y423240D03*
D23*
X145059Y423240D03*
D306*
X121399Y423316D03*
D22*
X145059Y423316D03*
D307*
X121476Y423393D03*
D148*
X145059Y423393D03*
D308*
X121590Y423469D03*
D113*
X145059Y423469D03*
D309*
X121704Y423545D03*
D103*
X145021Y423545D03*
D310*
X121818Y423621D03*
D68*
X145059Y423621D03*
D311*
X121895Y423697D03*
D60*
X145021Y423697D03*
D312*
X122047Y423774D03*
D34*
X145021Y423774D03*
D313*
X122123Y423850D03*
D38*
X145059Y423850D03*
D314*
X122238Y423926D03*
D79*
X145021Y423926D03*
D315*
X122314Y424002D03*
D316*
X122428Y424078D03*
D317*
X122504Y424155D03*
D318*
X122619Y424231D03*
D319*
X122733Y424307D03*
D320*
X122847Y424383D03*
D321*
X122923Y424459D03*
D322*
X123038Y424536D03*
D323*
X123114Y424612D03*
D324*
X123228Y424688D03*
D325*
X123342Y424764D03*
D326*
X123381Y424840D03*
D327*
X123495Y424917D03*
D328*
X123571Y424993D03*
D329*
X123685Y425069D03*
D330*
X123762Y425145D03*
D331*
X123876Y425221D03*
D332*
X123952Y425298D03*
D333*
X124066Y425374D03*
D334*
X124143Y425450D03*
D335*
X124219Y425526D03*
D336*
X124295Y425602D03*
D337*
X124409Y425679D03*
D338*
X124485Y425755D03*
D339*
X124600Y425831D03*
D340*
X124638Y425907D03*
D341*
X124752Y425983D03*
D342*
X124828Y426060D03*
D343*
X124905Y426136D03*
D344*
X124981Y426212D03*
D345*
X125057Y426288D03*
D346*
X125057Y426364D03*
D347*
X125133Y426441D03*
D348*
X125171Y426517D03*
D349*
X125209Y426593D03*
D350*
X125209Y426669D03*
D351*
X125247Y426745D03*
D352*
X125362Y426822D03*
D353*
X125438Y426898D03*
D354*
X125514Y426974D03*
D355*
X125590Y427050D03*
D356*
X125628Y427126D03*
D357*
X125705Y427203D03*
D358*
X125705Y427279D03*
D359*
X125743Y427355D03*
D360*
X125819Y427431D03*
D361*
X125857Y427507D03*
D362*
X125895Y427584D03*
D363*
X125933Y427660D03*
D364*
X125971Y427736D03*
D365*
X126009Y427812D03*
D366*
X126048Y427888D03*
D367*
X126086Y427965D03*
D368*
X126124Y428041D03*
D369*
X126124Y428117D03*
D370*
X126162Y428193D03*
D371*
X126200Y428269D03*
X126276Y428346D03*
D372*
X126276Y428422D03*
D373*
X126314Y428498D03*
D374*
X126352Y428574D03*
D375*
X126352Y428650D03*
D376*
X126390Y428727D03*
D377*
X126429Y428803D03*
D376*
X126467Y428879D03*
D378*
X126505Y428955D03*
D379*
X126505Y429031D03*
D380*
X126543Y429108D03*
D378*
X126581Y429184D03*
D381*
X126619Y429260D03*
D382*
X126619Y429336D03*
D383*
X126657Y429412D03*
D380*
X126695Y429489D03*
D384*
X126733Y429565D03*
D383*
X126733Y429641D03*
D36*
X149441Y429641D03*
D382*
X126771Y429717D03*
D67*
X149441Y429717D03*
D385*
X126810Y429793D03*
D19*
X149479Y429793D03*
D385*
X126810Y429870D03*
D22*
X149479Y429870D03*
D384*
X126886Y429946D03*
D81*
X149479Y429946D03*
D383*
X126886Y430022D03*
D120*
X149517Y430022D03*
D386*
X126924Y430098D03*
D183*
X149174Y430098D03*
D383*
X126962Y430174D03*
D269*
X149060Y430174D03*
D383*
X126962Y430251D03*
D387*
X148946Y430251D03*
D384*
X127038Y430327D03*
D388*
X148908Y430327D03*
D383*
X127038Y430403D03*
D389*
X148869Y430403D03*
D386*
X127076Y430479D03*
D87*
X148831Y430479D03*
D383*
X127114Y430555D03*
D390*
X148869Y430555D03*
D383*
X127114Y430632D03*
D391*
X148831Y430632D03*
D392*
X130848Y430708D03*
D393*
X130886Y430784D03*
D394*
X130962Y430860D03*
D395*
X131039Y430936D03*
D396*
X131077Y431013D03*
D397*
X131077Y431089D03*
D398*
X131077Y431165D03*
D399*
X131077Y431241D03*
D400*
X131077Y431317D03*
X131077Y431394D03*
D401*
X131039Y431470D03*
D402*
X131039Y431546D03*
D401*
X131039Y431622D03*
D403*
X131001Y431698D03*
X131001Y431775D03*
D404*
X130962Y431851D03*
D405*
X130962Y431927D03*
D406*
X130924Y432003D03*
D407*
X130886Y432079D03*
X130886Y432156D03*
D404*
X130810Y432232D03*
D405*
X130810Y432308D03*
D406*
X130772Y432384D03*
D408*
X130696Y432460D03*
D402*
X130658Y432537D03*
D409*
X130620Y432613D03*
D402*
X130581Y432689D03*
D410*
X130543Y432765D03*
D411*
X129591Y432841D03*
D33*
X151575Y432841D03*
D412*
X129553Y432918D03*
D14*
X151613Y432918D03*
D413*
X129515Y432994D03*
D151*
X151613Y432994D03*
D414*
X129477Y433070D03*
D415*
X151651Y433070D03*
D413*
X129438Y433146D03*
D416*
X129400Y433222D03*
D417*
X128448Y433299D03*
D32*
X149479Y433299D03*
D418*
X128410Y433375D03*
D39*
X149441Y433375D03*
D419*
X128410Y433451D03*
D90*
X149479Y433451D03*
D420*
X128334Y433527D03*
D159*
X149479Y433527D03*
D421*
X128334Y433603D03*
D422*
X128295Y433680D03*
D418*
X128257Y433756D03*
D422*
X128219Y433832D03*
D423*
X128219Y433908D03*
D424*
X128181Y433984D03*
D422*
X128143Y434061D03*
D425*
X128105Y434137D03*
D424*
X128105Y434213D03*
D426*
X128029Y434289D03*
D427*
X128029Y434365D03*
D428*
X127991Y434442D03*
D429*
X127991Y434518D03*
D424*
X127953Y434594D03*
D429*
X127914Y434670D03*
D428*
X127914Y434746D03*
D430*
X127876Y434823D03*
D98*
X109855Y434899D03*
D382*
X129819Y434899D03*
D119*
X109817Y434975D03*
D376*
X129819Y434975D03*
D212*
X109741Y435051D03*
D377*
X129858Y435051D03*
D117*
X109665Y435127D03*
D431*
X129934Y435127D03*
D24*
X109626Y435204D03*
D369*
X129934Y435204D03*
D23*
X109626Y435280D03*
D432*
X129972Y435280D03*
D289*
X109550Y435356D03*
D433*
X130048Y435356D03*
D176*
X109512Y435432D03*
D434*
X130086Y435432D03*
D61*
X109436Y435508D03*
D435*
X130124Y435508D03*
D63*
X109436Y435585D03*
D436*
X130239Y435585D03*
D71*
X109436Y435661D03*
D437*
X130277Y435661D03*
D15*
X109665Y435737D03*
D109*
X115799Y435737D03*
D438*
X133172Y435737D03*
D57*
X109817Y435813D03*
D439*
X115761Y435813D03*
D440*
X133325Y435813D03*
D128*
X109893Y435889D03*
D189*
X115799Y435889D03*
D441*
X133401Y435889D03*
D72*
X109969Y435966D03*
D141*
X115837Y435966D03*
D442*
X133515Y435966D03*
D39*
X115989Y436042D03*
D443*
X133591Y436042D03*
D444*
X133629Y436118D03*
D445*
X133706Y436194D03*
D446*
X133782Y436270D03*
D447*
X133858Y436347D03*
D448*
X133858Y436423D03*
D449*
X133934Y436499D03*
D450*
X133972Y436575D03*
D311*
X134010Y436651D03*
D451*
X134049Y436728D03*
D310*
X134087Y436804D03*
D452*
X134163Y436880D03*
D308*
X134163Y436956D03*
D453*
X134201Y437032D03*
D454*
X134239Y437109D03*
D455*
X134239Y437185D03*
D456*
X134315Y437261D03*
D305*
X134353Y437337D03*
D457*
X134391Y437413D03*
D458*
X134391Y437490D03*
D459*
X134430Y437566D03*
D460*
X134468Y437642D03*
D461*
X134468Y437718D03*
D462*
X134506Y437794D03*
D301*
X134544Y437871D03*
D463*
X134544Y437947D03*
D464*
X134620Y438023D03*
D297*
X134658Y438099D03*
D465*
X134658Y438175D03*
D296*
X134696Y438252D03*
D466*
X134734Y438328D03*
D295*
X134734Y438404D03*
D467*
X134811Y438480D03*
D468*
X134811Y438556D03*
D469*
X134849Y438633D03*
D470*
X134887Y438709D03*
D471*
X134925Y438785D03*
D472*
X134963Y438861D03*
D473*
X135001Y438937D03*
D474*
X135039Y439014D03*
D475*
X135115Y439090D03*
D476*
X135153Y439166D03*
D477*
X135230Y439242D03*
D478*
X135306Y439318D03*
D479*
X135382Y439395D03*
D480*
X135534Y439471D03*
D481*
X135649Y439547D03*
D482*
X135763Y439623D03*
D483*
X135915Y439699D03*
D484*
X136030Y439776D03*
D485*
X136068Y439852D03*
D486*
X136144Y439928D03*
D487*
X136144Y440004D03*
D488*
X136182Y440080D03*
D489*
X136220Y440157D03*
D490*
X136220Y440233D03*
D491*
X136220Y440309D03*
D492*
X136220Y440385D03*
D493*
X136220Y440461D03*
D494*
X136182Y440538D03*
D495*
X136182Y440614D03*
D496*
X136144Y440690D03*
D497*
X136106Y440766D03*
D498*
X136068Y440842D03*
D499*
X136068Y440919D03*
D500*
X136030Y440995D03*
D501*
X135954Y441071D03*
D502*
X135915Y441147D03*
D503*
X135877Y441223D03*
X135877Y441300D03*
D504*
X135877Y441376D03*
D505*
X135877Y441452D03*
D506*
X135839Y441528D03*
D507*
X135839Y441604D03*
D508*
X135839Y441681D03*
D509*
X135839Y441757D03*
D510*
X135839Y441833D03*
D511*
X135839Y441909D03*
D512*
X135839Y441985D03*
D286*
X135839Y442062D03*
D285*
X135801Y442138D03*
D284*
X135801Y442214D03*
D281*
X135801Y442290D03*
D278*
X135801Y442366D03*
D513*
X135801Y442443D03*
D274*
X135801Y442519D03*
D272*
X135801Y442595D03*
D514*
X135801Y442671D03*
D515*
X135801Y442747D03*
D516*
X135801Y442824D03*
D517*
X135763Y442900D03*
D518*
X135801Y442976D03*
D519*
X135801Y443052D03*
D520*
X135801Y443128D03*
D521*
X135839Y443205D03*
D522*
X135801Y443281D03*
D523*
X135839Y443357D03*
D524*
X135839Y443433D03*
D525*
X135801Y443509D03*
D526*
X135801Y443586D03*
D527*
X135801Y443662D03*
D528*
X135763Y443738D03*
D529*
X135763Y443814D03*
D530*
X135687Y443890D03*
D531*
X135649Y443967D03*
D247*
X135649Y444043D03*
D243*
X135649Y444119D03*
D237*
X135611Y444195D03*
D293*
X135611Y444271D03*
D142*
X134277Y444348D03*
D149*
X137478Y444348D03*
M02*
