M48
;GenerationSoftware,Autodesk,EAGLE,9.6.2*%
;CreationDate,2021-12-03T03:43:45Z*%
FMAT,2
ICI,OFF
METRIC,TZ,000.000
T5C0.305
T4C0.889
T3C0.900
T2C1.400
T1C3.175
%
G90
M71
T1
X68580Y3810
X3810Y3810
X68580Y43180
X3810Y43180
T2
X20220Y25360
X20220Y20360
X7720Y20360
X7720Y25360
X64670Y25360
X64670Y20360
X52170Y20360
X52170Y25360
T3
X67900Y32385
X67900Y29845
X67900Y27305
X67900Y24765
X67900Y22225
X67900Y19685
X67900Y17145
X67900Y14605
X59100Y14605
X59100Y17145
X59100Y19685
X59100Y22225
X59100Y24765
X59100Y27305
X59100Y29845
X59100Y32385
T4
X64770Y37465
X62230Y37465
X7180Y37110
X7180Y34570
X9720Y37110
X9720Y34570
X12260Y37110
X12260Y34570
X14800Y37110
X14800Y34570
X17340Y37110
X17340Y34570
X19880Y37110
X19880Y34570
X22420Y37110
X22420Y34570
X24960Y37110
X24960Y34570
X27500Y37110
X27500Y34570
X30040Y37110
X30040Y34570
X32580Y37110
X32580Y34570
X35120Y37110
X35120Y34570
X37660Y37110
X37660Y34570
X40200Y37110
X40200Y34570
X42740Y37110
X42740Y34570
X45280Y37110
X45280Y34570
X47820Y37110
X47820Y34570
X50360Y37110
X50360Y34570
X7180Y11710
X7180Y9170
X9720Y11710
X9720Y9170
X12260Y11710
X12260Y9170
X14800Y11710
X14800Y9170
X17340Y11710
X17340Y9170
X19880Y11710
X19880Y9170
X22420Y11710
X22420Y9170
X24960Y11710
X24960Y9170
X27500Y11710
X27500Y9170
X30040Y11710
X30040Y9170
X32580Y11710
X32580Y9170
X35120Y11710
X35120Y9170
X37660Y11710
X37660Y9170
X40200Y11710
X40200Y9170
X42740Y11710
X42740Y9170
X45280Y11710
X45280Y9170
X47820Y11710
X47820Y9170
X50360Y11710
X50360Y9170
X64770Y9525
X62230Y9525
X52070Y42545
X54610Y42545
X57150Y42545
T5
X50165Y17780
X33655Y22860
X34163Y17780
X26035Y17780
X63500Y3810
X38735Y22860
X32385Y27940
X50165Y27940
X43815Y27940
X38481Y17780
X26035Y27940
M30