G04 EAGLE Gerber RS-274X export*
G75*
%MOMM*%
%FSLAX34Y34*%
%LPD*%
%INCopper Layer 15*%
%IPPOS*%
%AMOC8*
5,1,8,0,0,1.08239X$1,22.5*%
G01*
%ADD10C,1.244600*%
%ADD11C,1.960000*%
%ADD12C,4.191000*%
%ADD13C,1.260000*%
%ADD14C,0.609600*%

G36*
X566538Y2556D02*
X566538Y2556D01*
X566657Y2563D01*
X566695Y2576D01*
X566736Y2581D01*
X566846Y2624D01*
X566959Y2661D01*
X566994Y2683D01*
X567031Y2698D01*
X567127Y2767D01*
X567228Y2831D01*
X567256Y2861D01*
X567289Y2884D01*
X567365Y2976D01*
X567446Y3063D01*
X567466Y3098D01*
X567491Y3129D01*
X567542Y3237D01*
X567600Y3341D01*
X567610Y3381D01*
X567627Y3417D01*
X567649Y3534D01*
X567679Y3649D01*
X567683Y3709D01*
X567687Y3729D01*
X567685Y3750D01*
X567689Y3810D01*
X567689Y331470D01*
X567674Y331588D01*
X567667Y331707D01*
X567654Y331745D01*
X567649Y331786D01*
X567606Y331896D01*
X567569Y332009D01*
X567547Y332044D01*
X567532Y332081D01*
X567463Y332177D01*
X567399Y332278D01*
X567369Y332306D01*
X567346Y332339D01*
X567254Y332415D01*
X567167Y332496D01*
X567132Y332516D01*
X567101Y332541D01*
X566993Y332592D01*
X566889Y332650D01*
X566849Y332660D01*
X566813Y332677D01*
X566696Y332699D01*
X566581Y332729D01*
X566521Y332733D01*
X566501Y332737D01*
X566480Y332735D01*
X566420Y332739D01*
X284172Y332739D01*
X281939Y334972D01*
X281939Y337189D01*
X281933Y337238D01*
X281935Y337288D01*
X281913Y337395D01*
X281899Y337505D01*
X281881Y337551D01*
X281871Y337599D01*
X281823Y337698D01*
X281782Y337800D01*
X281753Y337840D01*
X281731Y337885D01*
X281660Y337969D01*
X281596Y338058D01*
X281557Y338089D01*
X281525Y338127D01*
X281435Y338190D01*
X281351Y338260D01*
X281306Y338282D01*
X281265Y338310D01*
X281162Y338349D01*
X281063Y338396D01*
X281014Y338405D01*
X280968Y338423D01*
X280858Y338435D01*
X280751Y338456D01*
X280701Y338453D01*
X280652Y338458D01*
X280543Y338443D01*
X280433Y338436D01*
X280386Y338421D01*
X280337Y338414D01*
X280184Y338362D01*
X276743Y336936D01*
X273257Y336936D01*
X270036Y338270D01*
X267570Y340736D01*
X266236Y343957D01*
X266236Y347443D01*
X267570Y350664D01*
X270036Y353130D01*
X273257Y354464D01*
X276743Y354464D01*
X280184Y353038D01*
X280232Y353025D01*
X280277Y353004D01*
X280385Y352983D01*
X280491Y352954D01*
X280541Y352954D01*
X280590Y352944D01*
X280699Y352951D01*
X280809Y352949D01*
X280857Y352961D01*
X280907Y352964D01*
X281011Y352998D01*
X281118Y353024D01*
X281162Y353047D01*
X281209Y353062D01*
X281302Y353121D01*
X281399Y353172D01*
X281436Y353206D01*
X281478Y353232D01*
X281553Y353312D01*
X281635Y353386D01*
X281662Y353428D01*
X281696Y353464D01*
X281749Y353560D01*
X281809Y353652D01*
X281826Y353699D01*
X281850Y353742D01*
X281877Y353849D01*
X281913Y353953D01*
X281917Y354002D01*
X281929Y354050D01*
X281939Y354211D01*
X281939Y362589D01*
X281933Y362638D01*
X281935Y362688D01*
X281913Y362795D01*
X281899Y362905D01*
X281881Y362951D01*
X281871Y362999D01*
X281823Y363098D01*
X281782Y363200D01*
X281753Y363240D01*
X281731Y363285D01*
X281660Y363369D01*
X281596Y363458D01*
X281557Y363489D01*
X281525Y363527D01*
X281435Y363590D01*
X281351Y363660D01*
X281306Y363682D01*
X281265Y363710D01*
X281162Y363749D01*
X281063Y363796D01*
X281014Y363805D01*
X280968Y363823D01*
X280858Y363835D01*
X280751Y363856D01*
X280701Y363853D01*
X280652Y363858D01*
X280543Y363843D01*
X280433Y363836D01*
X280386Y363821D01*
X280337Y363814D01*
X280184Y363762D01*
X276743Y362336D01*
X273257Y362336D01*
X270036Y363670D01*
X267570Y366136D01*
X266236Y369357D01*
X266236Y372843D01*
X267310Y375434D01*
X267323Y375482D01*
X267344Y375527D01*
X267364Y375635D01*
X267393Y375741D01*
X267394Y375791D01*
X267404Y375840D01*
X267397Y375949D01*
X267399Y376059D01*
X267387Y376107D01*
X267384Y376157D01*
X267350Y376261D01*
X267324Y376368D01*
X267301Y376412D01*
X267286Y376459D01*
X267227Y376552D01*
X267176Y376649D01*
X267142Y376686D01*
X267116Y376728D01*
X267036Y376803D01*
X266962Y376885D01*
X266920Y376912D01*
X266884Y376946D01*
X266788Y376999D01*
X266696Y377059D01*
X266649Y377076D01*
X266606Y377100D01*
X266499Y377127D01*
X266395Y377163D01*
X266346Y377167D01*
X266298Y377179D01*
X266137Y377189D01*
X258463Y377189D01*
X258414Y377183D01*
X258364Y377185D01*
X258257Y377163D01*
X258148Y377149D01*
X258101Y377131D01*
X258053Y377121D01*
X257954Y377073D01*
X257852Y377032D01*
X257812Y377003D01*
X257767Y376981D01*
X257684Y376910D01*
X257595Y376846D01*
X257563Y376807D01*
X257525Y376775D01*
X257462Y376685D01*
X257392Y376601D01*
X257371Y376556D01*
X257342Y376515D01*
X257303Y376412D01*
X257256Y376313D01*
X257247Y376264D01*
X257229Y376218D01*
X257217Y376108D01*
X257196Y376001D01*
X257199Y375951D01*
X257194Y375902D01*
X257209Y375793D01*
X257216Y375683D01*
X257231Y375636D01*
X257238Y375587D01*
X257290Y375434D01*
X258364Y372843D01*
X258364Y369357D01*
X257030Y366136D01*
X254564Y363670D01*
X251343Y362336D01*
X247857Y362336D01*
X244636Y363670D01*
X242170Y366136D01*
X240836Y369357D01*
X240836Y372843D01*
X241910Y375434D01*
X241923Y375482D01*
X241944Y375527D01*
X241964Y375635D01*
X241993Y375741D01*
X241994Y375791D01*
X242004Y375840D01*
X241997Y375949D01*
X241999Y376059D01*
X241987Y376107D01*
X241984Y376157D01*
X241950Y376261D01*
X241924Y376368D01*
X241901Y376412D01*
X241886Y376459D01*
X241827Y376552D01*
X241776Y376649D01*
X241742Y376686D01*
X241716Y376728D01*
X241636Y376803D01*
X241562Y376885D01*
X241520Y376912D01*
X241484Y376946D01*
X241388Y376999D01*
X241296Y377059D01*
X241249Y377076D01*
X241206Y377100D01*
X241099Y377127D01*
X240995Y377163D01*
X240946Y377167D01*
X240898Y377179D01*
X240737Y377189D01*
X233063Y377189D01*
X233014Y377183D01*
X232964Y377185D01*
X232857Y377163D01*
X232748Y377149D01*
X232701Y377131D01*
X232653Y377121D01*
X232554Y377073D01*
X232452Y377032D01*
X232412Y377003D01*
X232367Y376981D01*
X232284Y376910D01*
X232195Y376846D01*
X232163Y376807D01*
X232125Y376775D01*
X232062Y376685D01*
X231992Y376601D01*
X231971Y376556D01*
X231942Y376515D01*
X231903Y376412D01*
X231856Y376313D01*
X231847Y376264D01*
X231829Y376218D01*
X231817Y376108D01*
X231796Y376001D01*
X231799Y375951D01*
X231794Y375902D01*
X231809Y375793D01*
X231816Y375683D01*
X231831Y375636D01*
X231838Y375587D01*
X231890Y375434D01*
X232964Y372843D01*
X232964Y369357D01*
X231630Y366136D01*
X229164Y363670D01*
X225943Y362336D01*
X222457Y362336D01*
X219236Y363670D01*
X216770Y366136D01*
X215436Y369357D01*
X215436Y372843D01*
X216510Y375434D01*
X216523Y375482D01*
X216544Y375527D01*
X216564Y375635D01*
X216593Y375741D01*
X216594Y375791D01*
X216604Y375840D01*
X216597Y375949D01*
X216599Y376059D01*
X216587Y376107D01*
X216584Y376157D01*
X216550Y376261D01*
X216524Y376368D01*
X216501Y376412D01*
X216486Y376459D01*
X216427Y376552D01*
X216376Y376649D01*
X216342Y376686D01*
X216316Y376728D01*
X216236Y376803D01*
X216162Y376885D01*
X216120Y376912D01*
X216084Y376946D01*
X215988Y376999D01*
X215896Y377059D01*
X215849Y377076D01*
X215806Y377100D01*
X215699Y377127D01*
X215595Y377163D01*
X215546Y377167D01*
X215498Y377179D01*
X215337Y377189D01*
X207663Y377189D01*
X207614Y377183D01*
X207564Y377185D01*
X207457Y377163D01*
X207348Y377149D01*
X207301Y377131D01*
X207253Y377121D01*
X207154Y377073D01*
X207052Y377032D01*
X207012Y377003D01*
X206967Y376981D01*
X206884Y376910D01*
X206795Y376846D01*
X206763Y376807D01*
X206725Y376775D01*
X206662Y376685D01*
X206592Y376601D01*
X206571Y376556D01*
X206542Y376515D01*
X206503Y376412D01*
X206456Y376313D01*
X206447Y376264D01*
X206429Y376218D01*
X206417Y376108D01*
X206396Y376001D01*
X206399Y375951D01*
X206394Y375902D01*
X206409Y375793D01*
X206416Y375683D01*
X206431Y375636D01*
X206438Y375587D01*
X206490Y375434D01*
X207564Y372843D01*
X207564Y369357D01*
X206230Y366136D01*
X203764Y363670D01*
X200543Y362336D01*
X197057Y362336D01*
X193836Y363670D01*
X191370Y366136D01*
X190403Y368472D01*
X190368Y368533D01*
X190342Y368598D01*
X190290Y368670D01*
X190245Y368749D01*
X190196Y368799D01*
X190156Y368855D01*
X190086Y368912D01*
X190024Y368977D01*
X189964Y369014D01*
X189911Y369058D01*
X189829Y369096D01*
X189753Y369143D01*
X189686Y369164D01*
X189623Y369194D01*
X189535Y369210D01*
X189449Y369237D01*
X189379Y369240D01*
X189310Y369253D01*
X189221Y369248D01*
X189131Y369252D01*
X189063Y369238D01*
X188993Y369234D01*
X188908Y369206D01*
X188820Y369188D01*
X188757Y369157D01*
X188691Y369136D01*
X188615Y369088D01*
X188534Y369048D01*
X188481Y369003D01*
X188422Y368965D01*
X188360Y368900D01*
X188292Y368842D01*
X188252Y368785D01*
X188204Y368734D01*
X188161Y368655D01*
X188109Y368582D01*
X188084Y368516D01*
X188050Y368455D01*
X188028Y368368D01*
X187996Y368284D01*
X187988Y368215D01*
X187971Y368147D01*
X187961Y367987D01*
X187961Y354022D01*
X185728Y351789D01*
X182263Y351789D01*
X182214Y351783D01*
X182164Y351785D01*
X182057Y351763D01*
X181948Y351749D01*
X181901Y351731D01*
X181853Y351721D01*
X181754Y351673D01*
X181652Y351632D01*
X181612Y351603D01*
X181567Y351581D01*
X181484Y351510D01*
X181395Y351446D01*
X181363Y351407D01*
X181325Y351375D01*
X181262Y351285D01*
X181192Y351201D01*
X181171Y351156D01*
X181142Y351115D01*
X181103Y351012D01*
X181056Y350913D01*
X181047Y350864D01*
X181029Y350818D01*
X181017Y350708D01*
X180996Y350601D01*
X180999Y350551D01*
X180994Y350502D01*
X181009Y350393D01*
X181016Y350283D01*
X181031Y350236D01*
X181038Y350187D01*
X181090Y350034D01*
X182164Y347443D01*
X182164Y343957D01*
X180830Y340736D01*
X178364Y338270D01*
X175143Y336936D01*
X171657Y336936D01*
X168436Y338270D01*
X165970Y340736D01*
X164636Y343957D01*
X164636Y347443D01*
X165710Y350034D01*
X165723Y350082D01*
X165744Y350127D01*
X165764Y350235D01*
X165793Y350341D01*
X165794Y350391D01*
X165804Y350440D01*
X165797Y350549D01*
X165799Y350659D01*
X165787Y350707D01*
X165784Y350757D01*
X165750Y350861D01*
X165724Y350968D01*
X165701Y351012D01*
X165686Y351059D01*
X165627Y351152D01*
X165576Y351249D01*
X165542Y351286D01*
X165516Y351328D01*
X165436Y351403D01*
X165362Y351485D01*
X165320Y351512D01*
X165284Y351546D01*
X165188Y351599D01*
X165096Y351659D01*
X165049Y351676D01*
X165006Y351700D01*
X164899Y351727D01*
X164795Y351763D01*
X164746Y351767D01*
X164698Y351779D01*
X164537Y351789D01*
X156863Y351789D01*
X156814Y351783D01*
X156764Y351785D01*
X156657Y351763D01*
X156548Y351749D01*
X156501Y351731D01*
X156453Y351721D01*
X156354Y351673D01*
X156252Y351632D01*
X156212Y351603D01*
X156167Y351581D01*
X156084Y351510D01*
X155995Y351446D01*
X155963Y351407D01*
X155925Y351375D01*
X155862Y351285D01*
X155792Y351201D01*
X155771Y351156D01*
X155742Y351115D01*
X155703Y351012D01*
X155656Y350913D01*
X155647Y350864D01*
X155629Y350818D01*
X155617Y350708D01*
X155596Y350601D01*
X155599Y350551D01*
X155594Y350502D01*
X155609Y350393D01*
X155616Y350283D01*
X155631Y350236D01*
X155638Y350187D01*
X155690Y350034D01*
X156764Y347443D01*
X156764Y343957D01*
X155430Y340736D01*
X152964Y338270D01*
X149743Y336936D01*
X146257Y336936D01*
X143036Y338270D01*
X140570Y340736D01*
X139236Y343957D01*
X139236Y347443D01*
X140310Y350034D01*
X140323Y350082D01*
X140344Y350127D01*
X140364Y350235D01*
X140393Y350341D01*
X140394Y350391D01*
X140404Y350440D01*
X140397Y350549D01*
X140399Y350659D01*
X140387Y350707D01*
X140384Y350757D01*
X140350Y350861D01*
X140324Y350968D01*
X140301Y351012D01*
X140286Y351059D01*
X140227Y351152D01*
X140176Y351249D01*
X140142Y351286D01*
X140116Y351328D01*
X140036Y351403D01*
X139962Y351485D01*
X139920Y351512D01*
X139884Y351546D01*
X139788Y351599D01*
X139696Y351659D01*
X139649Y351676D01*
X139606Y351700D01*
X139499Y351727D01*
X139395Y351763D01*
X139346Y351767D01*
X139298Y351779D01*
X139137Y351789D01*
X131463Y351789D01*
X131414Y351783D01*
X131364Y351785D01*
X131257Y351763D01*
X131148Y351749D01*
X131101Y351731D01*
X131053Y351721D01*
X130954Y351673D01*
X130852Y351632D01*
X130812Y351603D01*
X130767Y351581D01*
X130684Y351510D01*
X130595Y351446D01*
X130563Y351407D01*
X130525Y351375D01*
X130462Y351285D01*
X130392Y351201D01*
X130371Y351156D01*
X130342Y351115D01*
X130303Y351012D01*
X130256Y350913D01*
X130247Y350864D01*
X130229Y350818D01*
X130217Y350708D01*
X130196Y350601D01*
X130199Y350551D01*
X130194Y350502D01*
X130209Y350393D01*
X130216Y350283D01*
X130231Y350236D01*
X130238Y350187D01*
X130290Y350034D01*
X131364Y347443D01*
X131364Y343957D01*
X130030Y340736D01*
X127564Y338270D01*
X124343Y336936D01*
X120857Y336936D01*
X117636Y338270D01*
X115170Y340736D01*
X113836Y343957D01*
X113836Y347443D01*
X114910Y350034D01*
X114923Y350082D01*
X114944Y350127D01*
X114964Y350235D01*
X114993Y350341D01*
X114994Y350391D01*
X115004Y350440D01*
X114997Y350549D01*
X114999Y350659D01*
X114987Y350707D01*
X114984Y350757D01*
X114950Y350861D01*
X114924Y350968D01*
X114901Y351012D01*
X114886Y351059D01*
X114827Y351152D01*
X114776Y351249D01*
X114742Y351286D01*
X114716Y351328D01*
X114636Y351403D01*
X114562Y351485D01*
X114520Y351512D01*
X114484Y351546D01*
X114388Y351599D01*
X114296Y351659D01*
X114249Y351676D01*
X114206Y351700D01*
X114099Y351727D01*
X113995Y351763D01*
X113946Y351767D01*
X113898Y351779D01*
X113737Y351789D01*
X106063Y351789D01*
X106014Y351783D01*
X105964Y351785D01*
X105857Y351763D01*
X105748Y351749D01*
X105701Y351731D01*
X105653Y351721D01*
X105554Y351673D01*
X105452Y351632D01*
X105412Y351603D01*
X105367Y351581D01*
X105284Y351510D01*
X105195Y351446D01*
X105163Y351407D01*
X105125Y351375D01*
X105062Y351285D01*
X104992Y351201D01*
X104971Y351156D01*
X104942Y351115D01*
X104903Y351012D01*
X104856Y350913D01*
X104847Y350864D01*
X104829Y350818D01*
X104817Y350708D01*
X104796Y350601D01*
X104799Y350551D01*
X104794Y350502D01*
X104809Y350393D01*
X104816Y350283D01*
X104831Y350236D01*
X104838Y350187D01*
X104890Y350034D01*
X105964Y347443D01*
X105964Y343957D01*
X104630Y340736D01*
X102164Y338270D01*
X98943Y336936D01*
X95457Y336936D01*
X92236Y338270D01*
X89770Y340736D01*
X88436Y343957D01*
X88436Y347443D01*
X89510Y350034D01*
X89523Y350082D01*
X89544Y350127D01*
X89564Y350235D01*
X89593Y350341D01*
X89594Y350391D01*
X89604Y350440D01*
X89597Y350549D01*
X89599Y350659D01*
X89587Y350707D01*
X89584Y350757D01*
X89550Y350861D01*
X89524Y350968D01*
X89501Y351012D01*
X89486Y351059D01*
X89427Y351152D01*
X89376Y351249D01*
X89342Y351286D01*
X89316Y351328D01*
X89236Y351403D01*
X89162Y351485D01*
X89120Y351512D01*
X89084Y351546D01*
X88988Y351599D01*
X88896Y351659D01*
X88849Y351676D01*
X88806Y351700D01*
X88699Y351727D01*
X88595Y351763D01*
X88546Y351767D01*
X88498Y351779D01*
X88337Y351789D01*
X80663Y351789D01*
X80614Y351783D01*
X80564Y351785D01*
X80457Y351763D01*
X80348Y351749D01*
X80301Y351731D01*
X80253Y351721D01*
X80154Y351673D01*
X80052Y351632D01*
X80012Y351603D01*
X79967Y351581D01*
X79884Y351510D01*
X79795Y351446D01*
X79763Y351407D01*
X79725Y351375D01*
X79662Y351285D01*
X79592Y351201D01*
X79571Y351156D01*
X79542Y351115D01*
X79503Y351012D01*
X79456Y350913D01*
X79447Y350864D01*
X79429Y350818D01*
X79417Y350708D01*
X79396Y350601D01*
X79399Y350551D01*
X79394Y350502D01*
X79409Y350393D01*
X79416Y350283D01*
X79431Y350236D01*
X79438Y350187D01*
X79490Y350034D01*
X80564Y347443D01*
X80564Y343957D01*
X79230Y340736D01*
X76764Y338270D01*
X73543Y336936D01*
X70057Y336936D01*
X66836Y338270D01*
X64370Y340736D01*
X63036Y343957D01*
X63036Y347443D01*
X64110Y350034D01*
X64123Y350082D01*
X64144Y350127D01*
X64164Y350235D01*
X64193Y350341D01*
X64194Y350391D01*
X64204Y350440D01*
X64197Y350549D01*
X64199Y350659D01*
X64187Y350707D01*
X64184Y350757D01*
X64150Y350861D01*
X64124Y350968D01*
X64101Y351012D01*
X64086Y351059D01*
X64027Y351152D01*
X63976Y351249D01*
X63942Y351286D01*
X63916Y351328D01*
X63836Y351403D01*
X63762Y351485D01*
X63720Y351512D01*
X63684Y351546D01*
X63588Y351599D01*
X63496Y351659D01*
X63449Y351676D01*
X63406Y351700D01*
X63299Y351727D01*
X63195Y351763D01*
X63146Y351767D01*
X63098Y351779D01*
X62937Y351789D01*
X3810Y351789D01*
X3692Y351774D01*
X3573Y351767D01*
X3535Y351754D01*
X3494Y351749D01*
X3384Y351706D01*
X3271Y351669D01*
X3236Y351647D01*
X3199Y351632D01*
X3103Y351563D01*
X3002Y351499D01*
X2974Y351469D01*
X2941Y351446D01*
X2865Y351354D01*
X2784Y351267D01*
X2764Y351232D01*
X2739Y351201D01*
X2688Y351093D01*
X2630Y350989D01*
X2620Y350949D01*
X2603Y350913D01*
X2581Y350796D01*
X2551Y350681D01*
X2547Y350621D01*
X2543Y350601D01*
X2545Y350580D01*
X2541Y350520D01*
X2541Y3810D01*
X2556Y3692D01*
X2563Y3573D01*
X2576Y3535D01*
X2581Y3494D01*
X2624Y3384D01*
X2661Y3271D01*
X2683Y3236D01*
X2698Y3199D01*
X2767Y3103D01*
X2831Y3002D01*
X2861Y2974D01*
X2884Y2941D01*
X2976Y2865D01*
X3063Y2784D01*
X3098Y2764D01*
X3129Y2739D01*
X3237Y2688D01*
X3341Y2630D01*
X3381Y2620D01*
X3417Y2603D01*
X3534Y2581D01*
X3649Y2551D01*
X3709Y2547D01*
X3729Y2543D01*
X3750Y2545D01*
X3810Y2541D01*
X566420Y2541D01*
X566538Y2556D01*
G37*
G36*
X720208Y2556D02*
X720208Y2556D01*
X720327Y2563D01*
X720365Y2576D01*
X720406Y2581D01*
X720516Y2624D01*
X720629Y2661D01*
X720664Y2683D01*
X720701Y2698D01*
X720797Y2767D01*
X720898Y2831D01*
X720926Y2861D01*
X720959Y2884D01*
X721035Y2976D01*
X721116Y3063D01*
X721136Y3098D01*
X721161Y3129D01*
X721212Y3237D01*
X721270Y3341D01*
X721280Y3381D01*
X721297Y3417D01*
X721319Y3534D01*
X721349Y3649D01*
X721353Y3709D01*
X721357Y3729D01*
X721355Y3750D01*
X721359Y3810D01*
X721359Y466090D01*
X721344Y466208D01*
X721337Y466327D01*
X721324Y466365D01*
X721319Y466406D01*
X721276Y466516D01*
X721239Y466629D01*
X721217Y466664D01*
X721202Y466701D01*
X721133Y466797D01*
X721069Y466898D01*
X721039Y466926D01*
X721016Y466959D01*
X720924Y467035D01*
X720837Y467116D01*
X720802Y467136D01*
X720771Y467161D01*
X720663Y467212D01*
X720559Y467270D01*
X720519Y467280D01*
X720483Y467297D01*
X720366Y467319D01*
X720251Y467349D01*
X720191Y467353D01*
X720171Y467357D01*
X720150Y467355D01*
X720090Y467359D01*
X3810Y467359D01*
X3692Y467344D01*
X3573Y467337D01*
X3535Y467324D01*
X3494Y467319D01*
X3384Y467276D01*
X3271Y467239D01*
X3236Y467217D01*
X3199Y467202D01*
X3103Y467133D01*
X3002Y467069D01*
X2974Y467039D01*
X2941Y467016D01*
X2865Y466924D01*
X2784Y466837D01*
X2764Y466802D01*
X2739Y466771D01*
X2688Y466663D01*
X2630Y466559D01*
X2620Y466519D01*
X2603Y466483D01*
X2581Y466366D01*
X2551Y466251D01*
X2547Y466191D01*
X2543Y466171D01*
X2545Y466150D01*
X2541Y466090D01*
X2541Y355600D01*
X2556Y355482D01*
X2563Y355363D01*
X2576Y355325D01*
X2581Y355284D01*
X2624Y355174D01*
X2661Y355061D01*
X2683Y355026D01*
X2698Y354989D01*
X2767Y354893D01*
X2831Y354792D01*
X2861Y354764D01*
X2884Y354731D01*
X2976Y354656D01*
X3063Y354574D01*
X3098Y354554D01*
X3129Y354529D01*
X3237Y354478D01*
X3341Y354420D01*
X3381Y354410D01*
X3417Y354393D01*
X3534Y354371D01*
X3649Y354341D01*
X3709Y354337D01*
X3729Y354333D01*
X3750Y354335D01*
X3810Y354331D01*
X69483Y354331D01*
X69492Y354332D01*
X69502Y354331D01*
X69650Y354352D01*
X69799Y354371D01*
X69807Y354374D01*
X69817Y354375D01*
X69969Y354427D01*
X70057Y354464D01*
X73543Y354464D01*
X73631Y354427D01*
X73640Y354425D01*
X73648Y354420D01*
X73793Y354383D01*
X73938Y354343D01*
X73947Y354343D01*
X73956Y354341D01*
X74117Y354331D01*
X94883Y354331D01*
X94892Y354332D01*
X94902Y354331D01*
X95050Y354352D01*
X95199Y354371D01*
X95207Y354374D01*
X95217Y354375D01*
X95369Y354427D01*
X95457Y354464D01*
X98943Y354464D01*
X99031Y354427D01*
X99040Y354425D01*
X99048Y354420D01*
X99193Y354383D01*
X99338Y354343D01*
X99347Y354343D01*
X99356Y354341D01*
X99517Y354331D01*
X120283Y354331D01*
X120292Y354332D01*
X120302Y354331D01*
X120450Y354352D01*
X120599Y354371D01*
X120607Y354374D01*
X120617Y354375D01*
X120769Y354427D01*
X120857Y354464D01*
X124343Y354464D01*
X124431Y354427D01*
X124440Y354425D01*
X124448Y354420D01*
X124593Y354383D01*
X124738Y354343D01*
X124747Y354343D01*
X124756Y354341D01*
X124917Y354331D01*
X145683Y354331D01*
X145692Y354332D01*
X145702Y354331D01*
X145850Y354352D01*
X145999Y354371D01*
X146007Y354374D01*
X146017Y354375D01*
X146169Y354427D01*
X146257Y354464D01*
X149743Y354464D01*
X149831Y354427D01*
X149840Y354425D01*
X149848Y354420D01*
X149993Y354383D01*
X150138Y354343D01*
X150147Y354343D01*
X150156Y354341D01*
X150317Y354331D01*
X171083Y354331D01*
X171092Y354332D01*
X171102Y354331D01*
X171250Y354352D01*
X171399Y354371D01*
X171407Y354374D01*
X171417Y354375D01*
X171569Y354427D01*
X171657Y354464D01*
X175143Y354464D01*
X175231Y354427D01*
X175240Y354425D01*
X175248Y354420D01*
X175393Y354383D01*
X175538Y354343D01*
X175547Y354343D01*
X175556Y354341D01*
X175717Y354331D01*
X184150Y354331D01*
X184268Y354346D01*
X184387Y354353D01*
X184425Y354366D01*
X184466Y354371D01*
X184576Y354414D01*
X184689Y354451D01*
X184724Y354473D01*
X184761Y354488D01*
X184857Y354558D01*
X184958Y354621D01*
X184986Y354651D01*
X185019Y354674D01*
X185095Y354766D01*
X185176Y354853D01*
X185196Y354888D01*
X185221Y354919D01*
X185272Y355027D01*
X185330Y355131D01*
X185340Y355171D01*
X185357Y355207D01*
X185379Y355324D01*
X185409Y355439D01*
X185413Y355500D01*
X185417Y355520D01*
X185415Y355540D01*
X185419Y355600D01*
X185419Y379731D01*
X196483Y379731D01*
X196492Y379732D01*
X196502Y379731D01*
X196651Y379752D01*
X196799Y379771D01*
X196807Y379774D01*
X196817Y379775D01*
X196969Y379827D01*
X197057Y379864D01*
X200543Y379864D01*
X200631Y379827D01*
X200640Y379825D01*
X200648Y379820D01*
X200793Y379783D01*
X200938Y379743D01*
X200947Y379743D01*
X200956Y379741D01*
X201117Y379731D01*
X221883Y379731D01*
X221892Y379732D01*
X221902Y379731D01*
X222051Y379752D01*
X222199Y379771D01*
X222207Y379774D01*
X222217Y379775D01*
X222369Y379827D01*
X222457Y379864D01*
X225943Y379864D01*
X226031Y379827D01*
X226040Y379825D01*
X226048Y379820D01*
X226193Y379783D01*
X226338Y379743D01*
X226347Y379743D01*
X226356Y379741D01*
X226517Y379731D01*
X247283Y379731D01*
X247292Y379732D01*
X247302Y379731D01*
X247451Y379752D01*
X247599Y379771D01*
X247607Y379774D01*
X247617Y379775D01*
X247769Y379827D01*
X247857Y379864D01*
X251343Y379864D01*
X251431Y379827D01*
X251440Y379825D01*
X251448Y379820D01*
X251593Y379783D01*
X251738Y379743D01*
X251747Y379743D01*
X251756Y379741D01*
X251917Y379731D01*
X272683Y379731D01*
X272692Y379732D01*
X272702Y379731D01*
X272851Y379752D01*
X272999Y379771D01*
X273007Y379774D01*
X273017Y379775D01*
X273169Y379827D01*
X273257Y379864D01*
X276743Y379864D01*
X276831Y379827D01*
X276840Y379825D01*
X276848Y379820D01*
X276993Y379783D01*
X277138Y379743D01*
X277147Y379743D01*
X277156Y379741D01*
X277317Y379731D01*
X284481Y379731D01*
X284481Y336550D01*
X284496Y336432D01*
X284503Y336313D01*
X284516Y336275D01*
X284521Y336234D01*
X284564Y336124D01*
X284601Y336011D01*
X284623Y335976D01*
X284638Y335939D01*
X284708Y335843D01*
X284771Y335742D01*
X284801Y335714D01*
X284824Y335681D01*
X284916Y335606D01*
X285003Y335524D01*
X285038Y335504D01*
X285069Y335479D01*
X285177Y335428D01*
X285281Y335370D01*
X285321Y335360D01*
X285357Y335343D01*
X285474Y335321D01*
X285589Y335291D01*
X285650Y335287D01*
X285670Y335283D01*
X285690Y335285D01*
X285750Y335281D01*
X296273Y335281D01*
X296342Y335290D01*
X296412Y335288D01*
X296499Y335309D01*
X296588Y335321D01*
X296653Y335346D01*
X296721Y335363D01*
X296800Y335405D01*
X296884Y335438D01*
X296940Y335479D01*
X297002Y335511D01*
X297069Y335572D01*
X297141Y335624D01*
X297186Y335678D01*
X297237Y335725D01*
X297287Y335800D01*
X297344Y335869D01*
X297374Y335933D01*
X297412Y335991D01*
X297441Y336076D01*
X297480Y336157D01*
X297493Y336226D01*
X297515Y336292D01*
X297522Y336381D01*
X297539Y336470D01*
X297535Y336539D01*
X297541Y336609D01*
X297525Y336697D01*
X297520Y336787D01*
X297498Y336853D01*
X297486Y336922D01*
X297449Y337004D01*
X297422Y337089D01*
X297384Y337148D01*
X297356Y337212D01*
X297299Y337282D01*
X297251Y337358D01*
X297201Y337406D01*
X297157Y337460D01*
X297085Y337515D01*
X297020Y337576D01*
X296959Y337610D01*
X296903Y337652D01*
X296758Y337723D01*
X295436Y338271D01*
X292970Y340736D01*
X291636Y343957D01*
X291636Y347443D01*
X292970Y350664D01*
X295436Y353130D01*
X298657Y354464D01*
X302143Y354464D01*
X305364Y353130D01*
X307830Y350664D01*
X309164Y347443D01*
X309164Y343957D01*
X307830Y340736D01*
X305364Y338271D01*
X304042Y337723D01*
X303981Y337688D01*
X303916Y337662D01*
X303844Y337610D01*
X303765Y337565D01*
X303715Y337517D01*
X303659Y337476D01*
X303601Y337406D01*
X303537Y337344D01*
X303501Y337284D01*
X303456Y337231D01*
X303418Y337149D01*
X303371Y337073D01*
X303350Y337006D01*
X303320Y336943D01*
X303304Y336855D01*
X303277Y336769D01*
X303274Y336699D01*
X303261Y336631D01*
X303266Y336541D01*
X303262Y336451D01*
X303276Y336383D01*
X303280Y336313D01*
X303308Y336228D01*
X303326Y336140D01*
X303357Y336077D01*
X303378Y336011D01*
X303427Y335935D01*
X303466Y335854D01*
X303511Y335801D01*
X303549Y335742D01*
X303614Y335680D01*
X303672Y335612D01*
X303729Y335572D01*
X303780Y335524D01*
X303859Y335481D01*
X303932Y335429D01*
X303998Y335404D01*
X304059Y335370D01*
X304146Y335348D01*
X304230Y335316D01*
X304299Y335308D01*
X304367Y335291D01*
X304527Y335281D01*
X321673Y335281D01*
X321742Y335290D01*
X321812Y335288D01*
X321899Y335309D01*
X321988Y335321D01*
X322053Y335346D01*
X322121Y335363D01*
X322200Y335405D01*
X322284Y335438D01*
X322340Y335479D01*
X322402Y335511D01*
X322469Y335572D01*
X322541Y335624D01*
X322586Y335678D01*
X322637Y335725D01*
X322687Y335800D01*
X322744Y335869D01*
X322774Y335933D01*
X322812Y335991D01*
X322841Y336076D01*
X322880Y336157D01*
X322893Y336226D01*
X322915Y336292D01*
X322922Y336381D01*
X322939Y336470D01*
X322935Y336539D01*
X322941Y336609D01*
X322925Y336697D01*
X322920Y336787D01*
X322898Y336853D01*
X322886Y336922D01*
X322849Y337004D01*
X322822Y337089D01*
X322784Y337148D01*
X322756Y337212D01*
X322699Y337282D01*
X322651Y337358D01*
X322601Y337406D01*
X322557Y337460D01*
X322485Y337515D01*
X322420Y337576D01*
X322359Y337610D01*
X322303Y337652D01*
X322158Y337723D01*
X320836Y338271D01*
X318370Y340736D01*
X317036Y343957D01*
X317036Y347443D01*
X318370Y350664D01*
X320836Y353130D01*
X324057Y354464D01*
X327543Y354464D01*
X330764Y353130D01*
X333230Y350664D01*
X334564Y347443D01*
X334564Y343957D01*
X333230Y340736D01*
X330764Y338271D01*
X329442Y337723D01*
X329381Y337688D01*
X329316Y337662D01*
X329244Y337610D01*
X329165Y337565D01*
X329115Y337517D01*
X329059Y337476D01*
X329001Y337406D01*
X328937Y337344D01*
X328901Y337284D01*
X328856Y337231D01*
X328818Y337149D01*
X328771Y337073D01*
X328750Y337006D01*
X328720Y336943D01*
X328704Y336855D01*
X328677Y336769D01*
X328674Y336699D01*
X328661Y336631D01*
X328666Y336541D01*
X328662Y336451D01*
X328676Y336383D01*
X328680Y336313D01*
X328708Y336228D01*
X328726Y336140D01*
X328757Y336077D01*
X328778Y336011D01*
X328827Y335935D01*
X328866Y335854D01*
X328911Y335801D01*
X328949Y335742D01*
X329014Y335680D01*
X329072Y335612D01*
X329129Y335572D01*
X329180Y335524D01*
X329259Y335481D01*
X329332Y335429D01*
X329398Y335404D01*
X329459Y335370D01*
X329546Y335348D01*
X329630Y335316D01*
X329699Y335308D01*
X329767Y335291D01*
X329927Y335281D01*
X347073Y335281D01*
X347142Y335290D01*
X347212Y335288D01*
X347299Y335309D01*
X347388Y335321D01*
X347453Y335346D01*
X347521Y335363D01*
X347600Y335405D01*
X347684Y335438D01*
X347740Y335479D01*
X347802Y335511D01*
X347869Y335572D01*
X347941Y335624D01*
X347986Y335678D01*
X348037Y335725D01*
X348087Y335800D01*
X348144Y335869D01*
X348174Y335933D01*
X348212Y335991D01*
X348241Y336076D01*
X348280Y336157D01*
X348293Y336226D01*
X348315Y336292D01*
X348322Y336381D01*
X348339Y336470D01*
X348335Y336539D01*
X348341Y336609D01*
X348325Y336697D01*
X348320Y336787D01*
X348298Y336853D01*
X348286Y336922D01*
X348249Y337004D01*
X348222Y337089D01*
X348184Y337148D01*
X348156Y337212D01*
X348099Y337282D01*
X348051Y337358D01*
X348001Y337406D01*
X347957Y337461D01*
X347885Y337515D01*
X347820Y337576D01*
X347759Y337610D01*
X347703Y337652D01*
X347558Y337723D01*
X347049Y337934D01*
X345613Y338893D01*
X344393Y340113D01*
X343434Y341549D01*
X342773Y343144D01*
X342707Y343478D01*
X350247Y343478D01*
X350366Y343493D01*
X350484Y343501D01*
X350523Y343513D01*
X350563Y343518D01*
X350674Y343562D01*
X350787Y343599D01*
X350821Y343620D01*
X350859Y343635D01*
X350955Y343705D01*
X351055Y343769D01*
X351083Y343798D01*
X351116Y343822D01*
X351192Y343914D01*
X351196Y343918D01*
X351203Y343912D01*
X351227Y343879D01*
X351319Y343803D01*
X351406Y343721D01*
X351441Y343702D01*
X351472Y343676D01*
X351580Y343625D01*
X351684Y343568D01*
X351723Y343558D01*
X351760Y343541D01*
X351877Y343518D01*
X351992Y343488D01*
X352052Y343485D01*
X352072Y343481D01*
X352093Y343482D01*
X352153Y343478D01*
X359693Y343478D01*
X359627Y343144D01*
X358966Y341549D01*
X358007Y340113D01*
X356787Y338893D01*
X355351Y337934D01*
X354842Y337723D01*
X354781Y337688D01*
X354716Y337662D01*
X354644Y337610D01*
X354565Y337565D01*
X354515Y337517D01*
X354459Y337476D01*
X354401Y337406D01*
X354337Y337344D01*
X354301Y337284D01*
X354256Y337231D01*
X354218Y337149D01*
X354171Y337073D01*
X354150Y337006D01*
X354120Y336943D01*
X354104Y336855D01*
X354077Y336769D01*
X354074Y336699D01*
X354061Y336631D01*
X354066Y336541D01*
X354062Y336451D01*
X354076Y336383D01*
X354080Y336313D01*
X354108Y336228D01*
X354126Y336140D01*
X354157Y336077D01*
X354178Y336011D01*
X354226Y335935D01*
X354266Y335854D01*
X354311Y335801D01*
X354349Y335742D01*
X354414Y335680D01*
X354472Y335612D01*
X354529Y335572D01*
X354580Y335524D01*
X354659Y335481D01*
X354732Y335429D01*
X354798Y335404D01*
X354859Y335370D01*
X354946Y335348D01*
X355030Y335316D01*
X355099Y335308D01*
X355167Y335291D01*
X355327Y335281D01*
X372473Y335281D01*
X372542Y335290D01*
X372612Y335288D01*
X372699Y335309D01*
X372788Y335321D01*
X372853Y335346D01*
X372921Y335363D01*
X373000Y335405D01*
X373084Y335438D01*
X373140Y335479D01*
X373202Y335511D01*
X373269Y335572D01*
X373341Y335624D01*
X373386Y335678D01*
X373437Y335725D01*
X373487Y335800D01*
X373544Y335869D01*
X373574Y335933D01*
X373612Y335991D01*
X373641Y336076D01*
X373680Y336157D01*
X373693Y336226D01*
X373715Y336292D01*
X373722Y336381D01*
X373739Y336470D01*
X373735Y336539D01*
X373741Y336609D01*
X373725Y336697D01*
X373720Y336787D01*
X373698Y336853D01*
X373686Y336922D01*
X373649Y337004D01*
X373622Y337089D01*
X373584Y337148D01*
X373556Y337212D01*
X373499Y337282D01*
X373451Y337358D01*
X373401Y337406D01*
X373357Y337460D01*
X373285Y337515D01*
X373220Y337576D01*
X373159Y337610D01*
X373103Y337652D01*
X372958Y337723D01*
X371636Y338271D01*
X369170Y340736D01*
X367836Y343957D01*
X367836Y347443D01*
X369170Y350664D01*
X371636Y353130D01*
X374857Y354464D01*
X378343Y354464D01*
X381564Y353130D01*
X384030Y350664D01*
X385364Y347443D01*
X385364Y343957D01*
X384030Y340736D01*
X381564Y338271D01*
X380242Y337723D01*
X380181Y337688D01*
X380116Y337662D01*
X380044Y337610D01*
X379965Y337565D01*
X379915Y337517D01*
X379859Y337476D01*
X379801Y337406D01*
X379737Y337344D01*
X379701Y337284D01*
X379656Y337231D01*
X379618Y337149D01*
X379571Y337073D01*
X379550Y337006D01*
X379520Y336943D01*
X379504Y336855D01*
X379477Y336769D01*
X379474Y336699D01*
X379461Y336631D01*
X379466Y336541D01*
X379462Y336451D01*
X379476Y336383D01*
X379480Y336313D01*
X379508Y336228D01*
X379526Y336140D01*
X379557Y336077D01*
X379578Y336011D01*
X379627Y335935D01*
X379666Y335854D01*
X379711Y335801D01*
X379749Y335742D01*
X379814Y335680D01*
X379872Y335612D01*
X379929Y335572D01*
X379980Y335524D01*
X380059Y335481D01*
X380132Y335429D01*
X380198Y335404D01*
X380259Y335370D01*
X380346Y335348D01*
X380430Y335316D01*
X380499Y335308D01*
X380567Y335291D01*
X380727Y335281D01*
X397873Y335281D01*
X397942Y335290D01*
X398012Y335288D01*
X398099Y335309D01*
X398188Y335321D01*
X398253Y335346D01*
X398321Y335363D01*
X398400Y335405D01*
X398484Y335438D01*
X398540Y335479D01*
X398602Y335511D01*
X398669Y335572D01*
X398741Y335624D01*
X398786Y335678D01*
X398837Y335725D01*
X398887Y335800D01*
X398944Y335869D01*
X398974Y335933D01*
X399012Y335991D01*
X399041Y336076D01*
X399080Y336157D01*
X399093Y336226D01*
X399115Y336292D01*
X399122Y336381D01*
X399139Y336470D01*
X399135Y336539D01*
X399141Y336609D01*
X399125Y336697D01*
X399120Y336787D01*
X399098Y336853D01*
X399086Y336922D01*
X399049Y337004D01*
X399022Y337089D01*
X398984Y337148D01*
X398956Y337212D01*
X398899Y337282D01*
X398851Y337358D01*
X398801Y337406D01*
X398757Y337460D01*
X398685Y337515D01*
X398620Y337576D01*
X398559Y337610D01*
X398503Y337652D01*
X398358Y337723D01*
X397036Y338271D01*
X394570Y340736D01*
X393236Y343957D01*
X393236Y347443D01*
X394570Y350664D01*
X397036Y353130D01*
X400257Y354464D01*
X403743Y354464D01*
X406964Y353130D01*
X409430Y350664D01*
X410764Y347443D01*
X410764Y343957D01*
X409430Y340736D01*
X406964Y338271D01*
X405642Y337723D01*
X405581Y337688D01*
X405516Y337662D01*
X405444Y337610D01*
X405365Y337565D01*
X405315Y337517D01*
X405259Y337476D01*
X405201Y337406D01*
X405137Y337344D01*
X405101Y337284D01*
X405056Y337231D01*
X405018Y337149D01*
X404971Y337073D01*
X404950Y337006D01*
X404920Y336943D01*
X404904Y336855D01*
X404877Y336769D01*
X404874Y336699D01*
X404861Y336631D01*
X404866Y336541D01*
X404862Y336451D01*
X404876Y336383D01*
X404880Y336313D01*
X404908Y336228D01*
X404926Y336140D01*
X404957Y336077D01*
X404978Y336011D01*
X405027Y335935D01*
X405066Y335854D01*
X405111Y335801D01*
X405149Y335742D01*
X405214Y335680D01*
X405272Y335612D01*
X405329Y335572D01*
X405380Y335524D01*
X405459Y335481D01*
X405532Y335429D01*
X405598Y335404D01*
X405659Y335370D01*
X405746Y335348D01*
X405830Y335316D01*
X405899Y335308D01*
X405967Y335291D01*
X406127Y335281D01*
X423273Y335281D01*
X423342Y335290D01*
X423412Y335288D01*
X423499Y335309D01*
X423588Y335321D01*
X423653Y335346D01*
X423721Y335363D01*
X423800Y335405D01*
X423884Y335438D01*
X423940Y335479D01*
X424002Y335511D01*
X424069Y335572D01*
X424141Y335624D01*
X424186Y335678D01*
X424237Y335725D01*
X424287Y335800D01*
X424344Y335869D01*
X424374Y335933D01*
X424412Y335991D01*
X424441Y336076D01*
X424480Y336157D01*
X424493Y336226D01*
X424515Y336292D01*
X424522Y336381D01*
X424539Y336470D01*
X424535Y336539D01*
X424541Y336609D01*
X424525Y336697D01*
X424520Y336787D01*
X424498Y336853D01*
X424486Y336922D01*
X424449Y337004D01*
X424422Y337089D01*
X424384Y337148D01*
X424356Y337212D01*
X424299Y337282D01*
X424251Y337358D01*
X424201Y337406D01*
X424157Y337460D01*
X424085Y337515D01*
X424020Y337576D01*
X423959Y337610D01*
X423903Y337652D01*
X423758Y337723D01*
X422436Y338271D01*
X419970Y340736D01*
X418636Y343957D01*
X418636Y347443D01*
X419970Y350664D01*
X422436Y353130D01*
X425657Y354464D01*
X429143Y354464D01*
X432364Y353130D01*
X434830Y350664D01*
X436164Y347443D01*
X436164Y343957D01*
X434830Y340736D01*
X432364Y338271D01*
X431042Y337723D01*
X430981Y337688D01*
X430916Y337662D01*
X430844Y337610D01*
X430765Y337565D01*
X430715Y337517D01*
X430659Y337476D01*
X430601Y337406D01*
X430537Y337344D01*
X430501Y337284D01*
X430456Y337231D01*
X430418Y337149D01*
X430371Y337073D01*
X430350Y337006D01*
X430320Y336943D01*
X430304Y336855D01*
X430277Y336769D01*
X430274Y336699D01*
X430261Y336631D01*
X430266Y336541D01*
X430262Y336451D01*
X430276Y336383D01*
X430280Y336313D01*
X430308Y336228D01*
X430326Y336140D01*
X430357Y336077D01*
X430378Y336011D01*
X430427Y335935D01*
X430466Y335854D01*
X430511Y335801D01*
X430549Y335742D01*
X430614Y335680D01*
X430672Y335612D01*
X430729Y335572D01*
X430780Y335524D01*
X430859Y335481D01*
X430932Y335429D01*
X430998Y335404D01*
X431059Y335370D01*
X431146Y335348D01*
X431230Y335316D01*
X431299Y335308D01*
X431367Y335291D01*
X431527Y335281D01*
X448673Y335281D01*
X448742Y335290D01*
X448812Y335288D01*
X448899Y335309D01*
X448988Y335321D01*
X449053Y335346D01*
X449121Y335363D01*
X449200Y335405D01*
X449284Y335438D01*
X449340Y335479D01*
X449402Y335511D01*
X449469Y335572D01*
X449541Y335624D01*
X449586Y335678D01*
X449637Y335725D01*
X449687Y335800D01*
X449744Y335869D01*
X449774Y335933D01*
X449812Y335991D01*
X449841Y336076D01*
X449880Y336157D01*
X449893Y336226D01*
X449915Y336292D01*
X449922Y336381D01*
X449939Y336470D01*
X449935Y336539D01*
X449941Y336609D01*
X449925Y336697D01*
X449920Y336787D01*
X449898Y336853D01*
X449886Y336922D01*
X449849Y337004D01*
X449822Y337089D01*
X449784Y337148D01*
X449756Y337212D01*
X449699Y337282D01*
X449651Y337358D01*
X449601Y337406D01*
X449557Y337460D01*
X449485Y337515D01*
X449420Y337576D01*
X449359Y337610D01*
X449303Y337652D01*
X449158Y337723D01*
X447836Y338271D01*
X445370Y340736D01*
X444036Y343957D01*
X444036Y347443D01*
X445370Y350664D01*
X447836Y353130D01*
X451057Y354464D01*
X454543Y354464D01*
X457764Y353130D01*
X460230Y350664D01*
X461564Y347443D01*
X461564Y343957D01*
X460230Y340736D01*
X457764Y338271D01*
X456442Y337723D01*
X456381Y337688D01*
X456316Y337662D01*
X456244Y337610D01*
X456165Y337565D01*
X456115Y337517D01*
X456059Y337476D01*
X456001Y337406D01*
X455937Y337344D01*
X455901Y337284D01*
X455856Y337231D01*
X455818Y337149D01*
X455771Y337073D01*
X455750Y337006D01*
X455720Y336943D01*
X455704Y336855D01*
X455677Y336769D01*
X455674Y336699D01*
X455661Y336631D01*
X455666Y336541D01*
X455662Y336451D01*
X455676Y336383D01*
X455680Y336313D01*
X455708Y336228D01*
X455726Y336140D01*
X455757Y336077D01*
X455778Y336011D01*
X455827Y335935D01*
X455866Y335854D01*
X455911Y335801D01*
X455949Y335742D01*
X456014Y335680D01*
X456072Y335612D01*
X456129Y335572D01*
X456180Y335524D01*
X456259Y335481D01*
X456332Y335429D01*
X456398Y335404D01*
X456459Y335370D01*
X456546Y335348D01*
X456630Y335316D01*
X456699Y335308D01*
X456767Y335291D01*
X456927Y335281D01*
X474073Y335281D01*
X474142Y335290D01*
X474212Y335288D01*
X474299Y335309D01*
X474388Y335321D01*
X474453Y335346D01*
X474521Y335363D01*
X474600Y335405D01*
X474684Y335438D01*
X474740Y335479D01*
X474802Y335511D01*
X474869Y335572D01*
X474941Y335624D01*
X474986Y335678D01*
X475037Y335725D01*
X475087Y335800D01*
X475144Y335869D01*
X475174Y335933D01*
X475212Y335991D01*
X475241Y336076D01*
X475280Y336157D01*
X475293Y336226D01*
X475315Y336292D01*
X475322Y336381D01*
X475339Y336470D01*
X475335Y336539D01*
X475341Y336609D01*
X475325Y336697D01*
X475320Y336787D01*
X475298Y336853D01*
X475286Y336922D01*
X475249Y337004D01*
X475222Y337089D01*
X475184Y337148D01*
X475156Y337212D01*
X475099Y337282D01*
X475051Y337358D01*
X475001Y337406D01*
X474957Y337460D01*
X474885Y337515D01*
X474820Y337576D01*
X474759Y337610D01*
X474703Y337652D01*
X474558Y337723D01*
X473236Y338271D01*
X470770Y340736D01*
X469436Y343957D01*
X469436Y347443D01*
X470770Y350664D01*
X473236Y353130D01*
X476457Y354464D01*
X479943Y354464D01*
X483164Y353130D01*
X485630Y350664D01*
X486964Y347443D01*
X486964Y343957D01*
X485630Y340736D01*
X483164Y338271D01*
X481842Y337723D01*
X481781Y337688D01*
X481716Y337662D01*
X481644Y337610D01*
X481565Y337565D01*
X481515Y337517D01*
X481459Y337476D01*
X481401Y337406D01*
X481337Y337344D01*
X481301Y337284D01*
X481256Y337231D01*
X481218Y337149D01*
X481171Y337073D01*
X481150Y337006D01*
X481120Y336943D01*
X481104Y336855D01*
X481077Y336769D01*
X481074Y336699D01*
X481061Y336631D01*
X481066Y336541D01*
X481062Y336451D01*
X481076Y336383D01*
X481080Y336313D01*
X481108Y336228D01*
X481126Y336140D01*
X481157Y336077D01*
X481178Y336011D01*
X481227Y335935D01*
X481266Y335854D01*
X481311Y335801D01*
X481349Y335742D01*
X481414Y335680D01*
X481472Y335612D01*
X481529Y335572D01*
X481580Y335524D01*
X481659Y335481D01*
X481732Y335429D01*
X481798Y335404D01*
X481859Y335370D01*
X481946Y335348D01*
X482030Y335316D01*
X482099Y335308D01*
X482167Y335291D01*
X482327Y335281D01*
X499473Y335281D01*
X499542Y335290D01*
X499612Y335288D01*
X499699Y335309D01*
X499788Y335321D01*
X499853Y335346D01*
X499921Y335363D01*
X500000Y335405D01*
X500084Y335438D01*
X500140Y335479D01*
X500202Y335511D01*
X500269Y335572D01*
X500341Y335624D01*
X500386Y335678D01*
X500437Y335725D01*
X500487Y335800D01*
X500544Y335869D01*
X500574Y335933D01*
X500612Y335991D01*
X500641Y336076D01*
X500680Y336157D01*
X500693Y336226D01*
X500715Y336292D01*
X500722Y336381D01*
X500739Y336470D01*
X500735Y336539D01*
X500741Y336609D01*
X500725Y336697D01*
X500720Y336787D01*
X500698Y336853D01*
X500686Y336922D01*
X500649Y337004D01*
X500622Y337089D01*
X500584Y337148D01*
X500556Y337212D01*
X500499Y337282D01*
X500451Y337358D01*
X500401Y337406D01*
X500357Y337460D01*
X500285Y337515D01*
X500220Y337576D01*
X500159Y337610D01*
X500103Y337652D01*
X499958Y337723D01*
X498636Y338271D01*
X496170Y340736D01*
X494836Y343957D01*
X494836Y347443D01*
X496170Y350664D01*
X498636Y353130D01*
X501857Y354464D01*
X505343Y354464D01*
X508564Y353130D01*
X511030Y350664D01*
X512364Y347443D01*
X512364Y343957D01*
X511030Y340736D01*
X508564Y338271D01*
X507242Y337723D01*
X507181Y337688D01*
X507116Y337662D01*
X507044Y337610D01*
X506965Y337565D01*
X506915Y337517D01*
X506859Y337476D01*
X506801Y337406D01*
X506737Y337344D01*
X506701Y337284D01*
X506656Y337231D01*
X506618Y337149D01*
X506571Y337073D01*
X506550Y337006D01*
X506520Y336943D01*
X506504Y336855D01*
X506477Y336769D01*
X506474Y336699D01*
X506461Y336631D01*
X506466Y336541D01*
X506462Y336451D01*
X506476Y336383D01*
X506480Y336313D01*
X506508Y336228D01*
X506526Y336140D01*
X506557Y336077D01*
X506578Y336011D01*
X506627Y335935D01*
X506666Y335854D01*
X506711Y335801D01*
X506749Y335742D01*
X506814Y335680D01*
X506872Y335612D01*
X506929Y335572D01*
X506980Y335524D01*
X507059Y335481D01*
X507132Y335429D01*
X507198Y335404D01*
X507259Y335370D01*
X507346Y335348D01*
X507430Y335316D01*
X507499Y335308D01*
X507567Y335291D01*
X507727Y335281D01*
X570231Y335281D01*
X570231Y3810D01*
X570246Y3692D01*
X570253Y3573D01*
X570266Y3535D01*
X570271Y3494D01*
X570314Y3384D01*
X570351Y3271D01*
X570373Y3236D01*
X570388Y3199D01*
X570458Y3103D01*
X570521Y3002D01*
X570551Y2974D01*
X570574Y2941D01*
X570666Y2865D01*
X570753Y2784D01*
X570788Y2764D01*
X570819Y2739D01*
X570927Y2688D01*
X571031Y2630D01*
X571071Y2620D01*
X571107Y2603D01*
X571224Y2581D01*
X571339Y2551D01*
X571400Y2547D01*
X571420Y2543D01*
X571440Y2545D01*
X571500Y2541D01*
X720090Y2541D01*
X720208Y2556D01*
G37*
%LPC*%
G36*
X33426Y408304D02*
X33426Y408304D01*
X24791Y411881D01*
X18181Y418491D01*
X14604Y427126D01*
X14604Y436474D01*
X18181Y445109D01*
X24791Y451719D01*
X33426Y455296D01*
X42774Y455296D01*
X51409Y451719D01*
X58019Y445109D01*
X61596Y436474D01*
X61596Y427126D01*
X58019Y418491D01*
X51409Y411881D01*
X42774Y408304D01*
X33426Y408304D01*
G37*
%LPD*%
%LPC*%
G36*
X681126Y408304D02*
X681126Y408304D01*
X672491Y411881D01*
X665881Y418491D01*
X662304Y427126D01*
X662304Y436474D01*
X665881Y445109D01*
X672491Y451719D01*
X681126Y455296D01*
X690474Y455296D01*
X699109Y451719D01*
X705719Y445109D01*
X709296Y436474D01*
X709296Y427126D01*
X705719Y418491D01*
X699109Y411881D01*
X690474Y408304D01*
X681126Y408304D01*
G37*
%LPD*%
%LPC*%
G36*
X681126Y14604D02*
X681126Y14604D01*
X672491Y18181D01*
X665881Y24791D01*
X662304Y33426D01*
X662304Y42774D01*
X665881Y51409D01*
X672491Y58019D01*
X681126Y61596D01*
X690474Y61596D01*
X699109Y58019D01*
X705719Y51409D01*
X709296Y42774D01*
X709296Y33426D01*
X705719Y24791D01*
X699109Y18181D01*
X690474Y14604D01*
X681126Y14604D01*
G37*
%LPD*%
%LPC*%
G36*
X33426Y14604D02*
X33426Y14604D01*
X24791Y18181D01*
X18181Y24791D01*
X14604Y33426D01*
X14604Y42774D01*
X18181Y51409D01*
X24791Y58019D01*
X33426Y61596D01*
X42774Y61596D01*
X51409Y58019D01*
X58019Y51409D01*
X61596Y42774D01*
X61596Y33426D01*
X58019Y24791D01*
X51409Y18181D01*
X42774Y14604D01*
X33426Y14604D01*
G37*
%LPD*%
%LPC*%
G36*
X199745Y191259D02*
X199745Y191259D01*
X195210Y193138D01*
X191738Y196610D01*
X189859Y201145D01*
X189859Y206055D01*
X191738Y210590D01*
X195210Y214062D01*
X199745Y215941D01*
X204655Y215941D01*
X209190Y214062D01*
X212662Y210590D01*
X214541Y206055D01*
X214541Y201145D01*
X212662Y196610D01*
X209190Y193138D01*
X204655Y191259D01*
X199745Y191259D01*
G37*
%LPD*%
%LPC*%
G36*
X519245Y241259D02*
X519245Y241259D01*
X514710Y243138D01*
X511238Y246610D01*
X509359Y251145D01*
X509359Y256055D01*
X511238Y260590D01*
X514710Y264062D01*
X519245Y265941D01*
X524155Y265941D01*
X528690Y264062D01*
X532162Y260590D01*
X534041Y256055D01*
X534041Y251145D01*
X532162Y246610D01*
X528690Y243138D01*
X524155Y241259D01*
X519245Y241259D01*
G37*
%LPD*%
%LPC*%
G36*
X74745Y241259D02*
X74745Y241259D01*
X70210Y243138D01*
X66738Y246610D01*
X64859Y251145D01*
X64859Y256055D01*
X66738Y260590D01*
X70210Y264062D01*
X74745Y265941D01*
X79655Y265941D01*
X84190Y264062D01*
X87662Y260590D01*
X89541Y256055D01*
X89541Y251145D01*
X87662Y246610D01*
X84190Y243138D01*
X79655Y241259D01*
X74745Y241259D01*
G37*
%LPD*%
%LPC*%
G36*
X644245Y241259D02*
X644245Y241259D01*
X639710Y243138D01*
X636238Y246610D01*
X634359Y251145D01*
X634359Y256055D01*
X636238Y260590D01*
X639710Y264062D01*
X644245Y265941D01*
X649155Y265941D01*
X653690Y264062D01*
X657162Y260590D01*
X659041Y256055D01*
X659041Y251145D01*
X657162Y246610D01*
X653690Y243138D01*
X649155Y241259D01*
X644245Y241259D01*
G37*
%LPD*%
%LPC*%
G36*
X199745Y241259D02*
X199745Y241259D01*
X195210Y243138D01*
X191738Y246610D01*
X189859Y251145D01*
X189859Y256055D01*
X191738Y260590D01*
X195210Y264062D01*
X199745Y265941D01*
X204655Y265941D01*
X209190Y264062D01*
X212662Y260590D01*
X214541Y256055D01*
X214541Y251145D01*
X212662Y246610D01*
X209190Y243138D01*
X204655Y241259D01*
X199745Y241259D01*
G37*
%LPD*%
%LPC*%
G36*
X519245Y191259D02*
X519245Y191259D01*
X514710Y193138D01*
X511238Y196610D01*
X509359Y201145D01*
X509359Y206055D01*
X511238Y210590D01*
X514710Y214062D01*
X519245Y215941D01*
X524155Y215941D01*
X528690Y214062D01*
X532162Y210590D01*
X534041Y206055D01*
X534041Y201145D01*
X532162Y196610D01*
X528690Y193138D01*
X524155Y191259D01*
X519245Y191259D01*
G37*
%LPD*%
%LPC*%
G36*
X74745Y191259D02*
X74745Y191259D01*
X70210Y193138D01*
X66738Y196610D01*
X64859Y201145D01*
X64859Y206055D01*
X66738Y210590D01*
X70210Y214062D01*
X74745Y215941D01*
X79655Y215941D01*
X84190Y214062D01*
X87662Y210590D01*
X89541Y206055D01*
X89541Y201145D01*
X87662Y196610D01*
X84190Y193138D01*
X79655Y191259D01*
X74745Y191259D01*
G37*
%LPD*%
%LPC*%
G36*
X644245Y191259D02*
X644245Y191259D01*
X639710Y193138D01*
X636238Y196610D01*
X634359Y201145D01*
X634359Y206055D01*
X636238Y210590D01*
X639710Y214062D01*
X644245Y215941D01*
X649155Y215941D01*
X653690Y214062D01*
X657162Y210590D01*
X659041Y206055D01*
X659041Y201145D01*
X657162Y196610D01*
X653690Y193138D01*
X649155Y191259D01*
X644245Y191259D01*
G37*
%LPD*%
%LPC*%
G36*
X589241Y188009D02*
X589241Y188009D01*
X585992Y189355D01*
X583505Y191842D01*
X582159Y195091D01*
X582159Y198609D01*
X583505Y201858D01*
X585992Y204345D01*
X589241Y205691D01*
X592759Y205691D01*
X596008Y204345D01*
X598495Y201858D01*
X599841Y198609D01*
X599841Y195091D01*
X598495Y191842D01*
X596008Y189355D01*
X592759Y188009D01*
X589241Y188009D01*
G37*
%LPD*%
%LPC*%
G36*
X677241Y188009D02*
X677241Y188009D01*
X673992Y189355D01*
X671505Y191842D01*
X670159Y195091D01*
X670159Y198609D01*
X671505Y201858D01*
X673992Y204345D01*
X677241Y205691D01*
X680759Y205691D01*
X684008Y204345D01*
X686495Y201858D01*
X687841Y198609D01*
X687841Y195091D01*
X686495Y191842D01*
X684008Y189355D01*
X680759Y188009D01*
X677241Y188009D01*
G37*
%LPD*%
%LPC*%
G36*
X677241Y213409D02*
X677241Y213409D01*
X673992Y214755D01*
X671505Y217242D01*
X670159Y220491D01*
X670159Y224009D01*
X671505Y227258D01*
X673992Y229745D01*
X677241Y231091D01*
X680759Y231091D01*
X684008Y229745D01*
X686495Y227258D01*
X687841Y224009D01*
X687841Y220491D01*
X686495Y217242D01*
X684008Y214755D01*
X680759Y213409D01*
X677241Y213409D01*
G37*
%LPD*%
%LPC*%
G36*
X589241Y213409D02*
X589241Y213409D01*
X585992Y214755D01*
X583505Y217242D01*
X582159Y220491D01*
X582159Y224009D01*
X583505Y227258D01*
X585992Y229745D01*
X589241Y231091D01*
X592759Y231091D01*
X596008Y229745D01*
X598495Y227258D01*
X599841Y224009D01*
X599841Y220491D01*
X598495Y217242D01*
X596008Y214755D01*
X592759Y213409D01*
X589241Y213409D01*
G37*
%LPD*%
%LPC*%
G36*
X677241Y238809D02*
X677241Y238809D01*
X673992Y240155D01*
X671505Y242642D01*
X670159Y245891D01*
X670159Y249409D01*
X671505Y252658D01*
X673992Y255145D01*
X677241Y256491D01*
X680759Y256491D01*
X684008Y255145D01*
X686495Y252658D01*
X687841Y249409D01*
X687841Y245891D01*
X686495Y242642D01*
X684008Y240155D01*
X680759Y238809D01*
X677241Y238809D01*
G37*
%LPD*%
%LPC*%
G36*
X589241Y238809D02*
X589241Y238809D01*
X585992Y240155D01*
X583505Y242642D01*
X582159Y245891D01*
X582159Y249409D01*
X583505Y252658D01*
X585992Y255145D01*
X589241Y256491D01*
X592759Y256491D01*
X596008Y255145D01*
X598495Y252658D01*
X599841Y249409D01*
X599841Y245891D01*
X598495Y242642D01*
X596008Y240155D01*
X592759Y238809D01*
X589241Y238809D01*
G37*
%LPD*%
%LPC*%
G36*
X677241Y162609D02*
X677241Y162609D01*
X673992Y163955D01*
X671505Y166442D01*
X670159Y169691D01*
X670159Y173209D01*
X671505Y176458D01*
X673992Y178945D01*
X677241Y180291D01*
X680759Y180291D01*
X684008Y178945D01*
X686495Y176458D01*
X687841Y173209D01*
X687841Y169691D01*
X686495Y166442D01*
X684008Y163955D01*
X680759Y162609D01*
X677241Y162609D01*
G37*
%LPD*%
%LPC*%
G36*
X589241Y162609D02*
X589241Y162609D01*
X585992Y163955D01*
X583505Y166442D01*
X582159Y169691D01*
X582159Y173209D01*
X583505Y176458D01*
X585992Y178945D01*
X589241Y180291D01*
X592759Y180291D01*
X596008Y178945D01*
X598495Y176458D01*
X599841Y173209D01*
X599841Y169691D01*
X598495Y166442D01*
X596008Y163955D01*
X592759Y162609D01*
X589241Y162609D01*
G37*
%LPD*%
%LPC*%
G36*
X589241Y137209D02*
X589241Y137209D01*
X585992Y138555D01*
X583505Y141042D01*
X582159Y144291D01*
X582159Y147809D01*
X583505Y151058D01*
X585992Y153545D01*
X589241Y154891D01*
X592759Y154891D01*
X596008Y153545D01*
X598495Y151058D01*
X599841Y147809D01*
X599841Y144291D01*
X598495Y141042D01*
X596008Y138555D01*
X592759Y137209D01*
X589241Y137209D01*
G37*
%LPD*%
%LPC*%
G36*
X677241Y264209D02*
X677241Y264209D01*
X673992Y265555D01*
X671505Y268042D01*
X670159Y271291D01*
X670159Y274809D01*
X671505Y278058D01*
X673992Y280545D01*
X677241Y281891D01*
X680759Y281891D01*
X684008Y280545D01*
X686495Y278058D01*
X687841Y274809D01*
X687841Y271291D01*
X686495Y268042D01*
X684008Y265555D01*
X680759Y264209D01*
X677241Y264209D01*
G37*
%LPD*%
%LPC*%
G36*
X589241Y264209D02*
X589241Y264209D01*
X585992Y265555D01*
X583505Y268042D01*
X582159Y271291D01*
X582159Y274809D01*
X583505Y278058D01*
X585992Y280545D01*
X589241Y281891D01*
X592759Y281891D01*
X596008Y280545D01*
X598495Y278058D01*
X599841Y274809D01*
X599841Y271291D01*
X598495Y268042D01*
X596008Y265555D01*
X592759Y264209D01*
X589241Y264209D01*
G37*
%LPD*%
%LPC*%
G36*
X677241Y289609D02*
X677241Y289609D01*
X673992Y290955D01*
X671505Y293442D01*
X670159Y296691D01*
X670159Y300209D01*
X671505Y303458D01*
X673992Y305945D01*
X677241Y307291D01*
X680759Y307291D01*
X684008Y305945D01*
X686495Y303458D01*
X687841Y300209D01*
X687841Y296691D01*
X686495Y293442D01*
X684008Y290955D01*
X680759Y289609D01*
X677241Y289609D01*
G37*
%LPD*%
%LPC*%
G36*
X589241Y289609D02*
X589241Y289609D01*
X585992Y290955D01*
X583505Y293442D01*
X582159Y296691D01*
X582159Y300209D01*
X583505Y303458D01*
X585992Y305945D01*
X589241Y307291D01*
X592759Y307291D01*
X596008Y305945D01*
X598495Y303458D01*
X599841Y300209D01*
X599841Y296691D01*
X598495Y293442D01*
X596008Y290955D01*
X592759Y289609D01*
X589241Y289609D01*
G37*
%LPD*%
%LPC*%
G36*
X677241Y315009D02*
X677241Y315009D01*
X673992Y316355D01*
X671505Y318842D01*
X670159Y322091D01*
X670159Y325609D01*
X671505Y328858D01*
X673992Y331345D01*
X677241Y332691D01*
X680759Y332691D01*
X684008Y331345D01*
X686495Y328858D01*
X687841Y325609D01*
X687841Y322091D01*
X686495Y318842D01*
X684008Y316355D01*
X680759Y315009D01*
X677241Y315009D01*
G37*
%LPD*%
%LPC*%
G36*
X120857Y82936D02*
X120857Y82936D01*
X117636Y84270D01*
X115170Y86736D01*
X113836Y89957D01*
X113836Y93443D01*
X115170Y96664D01*
X117636Y99130D01*
X120857Y100464D01*
X124343Y100464D01*
X127564Y99130D01*
X130030Y96664D01*
X131364Y93443D01*
X131364Y89957D01*
X130030Y86736D01*
X127564Y84270D01*
X124343Y82936D01*
X120857Y82936D01*
G37*
%LPD*%
%LPC*%
G36*
X146257Y82936D02*
X146257Y82936D01*
X143036Y84270D01*
X140570Y86736D01*
X139236Y89957D01*
X139236Y93443D01*
X140570Y96664D01*
X143036Y99130D01*
X146257Y100464D01*
X149743Y100464D01*
X152964Y99130D01*
X155430Y96664D01*
X156764Y93443D01*
X156764Y89957D01*
X155430Y86736D01*
X152964Y84270D01*
X149743Y82936D01*
X146257Y82936D01*
G37*
%LPD*%
%LPC*%
G36*
X171657Y82936D02*
X171657Y82936D01*
X168436Y84270D01*
X165970Y86736D01*
X164636Y89957D01*
X164636Y93443D01*
X165970Y96664D01*
X168436Y99130D01*
X171657Y100464D01*
X175143Y100464D01*
X178364Y99130D01*
X180830Y96664D01*
X182164Y93443D01*
X182164Y89957D01*
X180830Y86736D01*
X178364Y84270D01*
X175143Y82936D01*
X171657Y82936D01*
G37*
%LPD*%
%LPC*%
G36*
X197057Y82936D02*
X197057Y82936D01*
X193836Y84270D01*
X191370Y86736D01*
X190036Y89957D01*
X190036Y93443D01*
X191370Y96664D01*
X193836Y99130D01*
X197057Y100464D01*
X200543Y100464D01*
X203764Y99130D01*
X206230Y96664D01*
X207564Y93443D01*
X207564Y89957D01*
X206230Y86736D01*
X203764Y84270D01*
X200543Y82936D01*
X197057Y82936D01*
G37*
%LPD*%
%LPC*%
G36*
X222457Y82936D02*
X222457Y82936D01*
X219236Y84270D01*
X216770Y86736D01*
X215436Y89957D01*
X215436Y93443D01*
X216770Y96664D01*
X219236Y99130D01*
X222457Y100464D01*
X225943Y100464D01*
X229164Y99130D01*
X231630Y96664D01*
X232964Y93443D01*
X232964Y89957D01*
X231630Y86736D01*
X229164Y84270D01*
X225943Y82936D01*
X222457Y82936D01*
G37*
%LPD*%
%LPC*%
G36*
X247857Y82936D02*
X247857Y82936D01*
X244636Y84270D01*
X242170Y86736D01*
X240836Y89957D01*
X240836Y93443D01*
X242170Y96664D01*
X244636Y99130D01*
X247857Y100464D01*
X251343Y100464D01*
X254564Y99130D01*
X257030Y96664D01*
X258364Y93443D01*
X258364Y89957D01*
X257030Y86736D01*
X254564Y84270D01*
X251343Y82936D01*
X247857Y82936D01*
G37*
%LPD*%
%LPC*%
G36*
X197057Y336936D02*
X197057Y336936D01*
X193836Y338270D01*
X191370Y340736D01*
X190036Y343957D01*
X190036Y347443D01*
X191370Y350664D01*
X193836Y353130D01*
X197057Y354464D01*
X200543Y354464D01*
X203764Y353130D01*
X206230Y350664D01*
X207564Y347443D01*
X207564Y343957D01*
X206230Y340736D01*
X203764Y338270D01*
X200543Y336936D01*
X197057Y336936D01*
G37*
%LPD*%
%LPC*%
G36*
X273257Y82936D02*
X273257Y82936D01*
X270036Y84270D01*
X267570Y86736D01*
X266236Y89957D01*
X266236Y93443D01*
X267570Y96664D01*
X270036Y99130D01*
X273257Y100464D01*
X276743Y100464D01*
X279964Y99130D01*
X282430Y96664D01*
X283764Y93443D01*
X283764Y89957D01*
X282430Y86736D01*
X279964Y84270D01*
X276743Y82936D01*
X273257Y82936D01*
G37*
%LPD*%
%LPC*%
G36*
X298657Y82936D02*
X298657Y82936D01*
X295436Y84270D01*
X292970Y86736D01*
X291636Y89957D01*
X291636Y93443D01*
X292970Y96664D01*
X295436Y99130D01*
X298657Y100464D01*
X302143Y100464D01*
X305364Y99130D01*
X307830Y96664D01*
X309164Y93443D01*
X309164Y89957D01*
X307830Y86736D01*
X305364Y84270D01*
X302143Y82936D01*
X298657Y82936D01*
G37*
%LPD*%
%LPC*%
G36*
X324057Y82936D02*
X324057Y82936D01*
X320836Y84270D01*
X318370Y86736D01*
X317036Y89957D01*
X317036Y93443D01*
X318370Y96664D01*
X320836Y99130D01*
X324057Y100464D01*
X327543Y100464D01*
X330764Y99130D01*
X333230Y96664D01*
X334564Y93443D01*
X334564Y89957D01*
X333230Y86736D01*
X330764Y84270D01*
X327543Y82936D01*
X324057Y82936D01*
G37*
%LPD*%
%LPC*%
G36*
X349457Y82936D02*
X349457Y82936D01*
X346236Y84270D01*
X343770Y86736D01*
X342436Y89957D01*
X342436Y93443D01*
X343770Y96664D01*
X346236Y99130D01*
X349457Y100464D01*
X352943Y100464D01*
X356164Y99130D01*
X358630Y96664D01*
X359964Y93443D01*
X359964Y89957D01*
X358630Y86736D01*
X356164Y84270D01*
X352943Y82936D01*
X349457Y82936D01*
G37*
%LPD*%
%LPC*%
G36*
X247857Y336936D02*
X247857Y336936D01*
X244636Y338270D01*
X242170Y340736D01*
X240836Y343957D01*
X240836Y347443D01*
X242170Y350664D01*
X244636Y353130D01*
X247857Y354464D01*
X251343Y354464D01*
X254564Y353130D01*
X257030Y350664D01*
X258364Y347443D01*
X258364Y343957D01*
X257030Y340736D01*
X254564Y338270D01*
X251343Y336936D01*
X247857Y336936D01*
G37*
%LPD*%
%LPC*%
G36*
X95457Y82936D02*
X95457Y82936D01*
X92236Y84270D01*
X89770Y86736D01*
X88436Y89957D01*
X88436Y93443D01*
X89770Y96664D01*
X92236Y99130D01*
X95457Y100464D01*
X98943Y100464D01*
X102164Y99130D01*
X104630Y96664D01*
X105964Y93443D01*
X105964Y89957D01*
X104630Y86736D01*
X102164Y84270D01*
X98943Y82936D01*
X95457Y82936D01*
G37*
%LPD*%
%LPC*%
G36*
X400257Y362336D02*
X400257Y362336D01*
X397036Y363670D01*
X394570Y366136D01*
X393236Y369357D01*
X393236Y372843D01*
X394570Y376064D01*
X397036Y378530D01*
X400257Y379864D01*
X403743Y379864D01*
X406964Y378530D01*
X409430Y376064D01*
X410764Y372843D01*
X410764Y369357D01*
X409430Y366136D01*
X406964Y363670D01*
X403743Y362336D01*
X400257Y362336D01*
G37*
%LPD*%
%LPC*%
G36*
X425657Y362336D02*
X425657Y362336D01*
X422436Y363670D01*
X419970Y366136D01*
X418636Y369357D01*
X418636Y372843D01*
X419970Y376064D01*
X422436Y378530D01*
X425657Y379864D01*
X429143Y379864D01*
X432364Y378530D01*
X434830Y376064D01*
X436164Y372843D01*
X436164Y369357D01*
X434830Y366136D01*
X432364Y363670D01*
X429143Y362336D01*
X425657Y362336D01*
G37*
%LPD*%
%LPC*%
G36*
X374857Y362336D02*
X374857Y362336D01*
X371636Y363670D01*
X369170Y366136D01*
X367836Y369357D01*
X367836Y372843D01*
X369170Y376064D01*
X371636Y378530D01*
X374857Y379864D01*
X378343Y379864D01*
X381564Y378530D01*
X384030Y376064D01*
X385364Y372843D01*
X385364Y369357D01*
X384030Y366136D01*
X381564Y363670D01*
X378343Y362336D01*
X374857Y362336D01*
G37*
%LPD*%
%LPC*%
G36*
X451057Y362336D02*
X451057Y362336D01*
X447836Y363670D01*
X445370Y366136D01*
X444036Y369357D01*
X444036Y372843D01*
X445370Y376064D01*
X447836Y378530D01*
X451057Y379864D01*
X454543Y379864D01*
X457764Y378530D01*
X460230Y376064D01*
X461564Y372843D01*
X461564Y369357D01*
X460230Y366136D01*
X457764Y363670D01*
X454543Y362336D01*
X451057Y362336D01*
G37*
%LPD*%
%LPC*%
G36*
X349457Y362336D02*
X349457Y362336D01*
X346236Y363670D01*
X343770Y366136D01*
X342436Y369357D01*
X342436Y372843D01*
X343770Y376064D01*
X346236Y378530D01*
X349457Y379864D01*
X352943Y379864D01*
X356164Y378530D01*
X358630Y376064D01*
X359964Y372843D01*
X359964Y369357D01*
X358630Y366136D01*
X356164Y363670D01*
X352943Y362336D01*
X349457Y362336D01*
G37*
%LPD*%
%LPC*%
G36*
X518957Y416686D02*
X518957Y416686D01*
X515736Y418020D01*
X513270Y420486D01*
X511936Y423707D01*
X511936Y427193D01*
X513270Y430414D01*
X515736Y432880D01*
X518957Y434214D01*
X522443Y434214D01*
X525664Y432880D01*
X528130Y430414D01*
X529464Y427193D01*
X529464Y423707D01*
X528130Y420486D01*
X525664Y418020D01*
X522443Y416686D01*
X518957Y416686D01*
G37*
%LPD*%
%LPC*%
G36*
X476457Y362336D02*
X476457Y362336D01*
X473236Y363670D01*
X470770Y366136D01*
X469436Y369357D01*
X469436Y372843D01*
X470770Y376064D01*
X473236Y378530D01*
X476457Y379864D01*
X479943Y379864D01*
X483164Y378530D01*
X485630Y376064D01*
X486964Y372843D01*
X486964Y369357D01*
X485630Y366136D01*
X483164Y363670D01*
X479943Y362336D01*
X476457Y362336D01*
G37*
%LPD*%
%LPC*%
G36*
X298657Y362336D02*
X298657Y362336D01*
X295436Y363670D01*
X292970Y366136D01*
X291636Y369357D01*
X291636Y372843D01*
X292970Y376064D01*
X295436Y378530D01*
X298657Y379864D01*
X302143Y379864D01*
X305364Y378530D01*
X307830Y376064D01*
X309164Y372843D01*
X309164Y369357D01*
X307830Y366136D01*
X305364Y363670D01*
X302143Y362336D01*
X298657Y362336D01*
G37*
%LPD*%
%LPC*%
G36*
X374857Y82936D02*
X374857Y82936D01*
X371636Y84270D01*
X369170Y86736D01*
X367836Y89957D01*
X367836Y93443D01*
X369170Y96664D01*
X371636Y99130D01*
X374857Y100464D01*
X378343Y100464D01*
X381564Y99130D01*
X384030Y96664D01*
X385364Y93443D01*
X385364Y89957D01*
X384030Y86736D01*
X381564Y84270D01*
X378343Y82936D01*
X374857Y82936D01*
G37*
%LPD*%
%LPC*%
G36*
X171657Y362336D02*
X171657Y362336D01*
X168436Y363670D01*
X165970Y366136D01*
X164636Y369357D01*
X164636Y372843D01*
X165970Y376064D01*
X168436Y378530D01*
X171657Y379864D01*
X175143Y379864D01*
X178364Y378530D01*
X180830Y376064D01*
X182164Y372843D01*
X182164Y369357D01*
X180830Y366136D01*
X178364Y363670D01*
X175143Y362336D01*
X171657Y362336D01*
G37*
%LPD*%
%LPC*%
G36*
X70057Y362336D02*
X70057Y362336D01*
X66836Y363670D01*
X64370Y366136D01*
X63036Y369357D01*
X63036Y372843D01*
X64370Y376064D01*
X66836Y378530D01*
X70057Y379864D01*
X73543Y379864D01*
X76764Y378530D01*
X79230Y376064D01*
X80564Y372843D01*
X80564Y369357D01*
X79230Y366136D01*
X76764Y363670D01*
X73543Y362336D01*
X70057Y362336D01*
G37*
%LPD*%
%LPC*%
G36*
X146257Y362336D02*
X146257Y362336D01*
X143036Y363670D01*
X140570Y366136D01*
X139236Y369357D01*
X139236Y372843D01*
X140570Y376064D01*
X143036Y378530D01*
X146257Y379864D01*
X149743Y379864D01*
X152964Y378530D01*
X155430Y376064D01*
X156764Y372843D01*
X156764Y369357D01*
X155430Y366136D01*
X152964Y363670D01*
X149743Y362336D01*
X146257Y362336D01*
G37*
%LPD*%
%LPC*%
G36*
X501857Y362336D02*
X501857Y362336D01*
X498636Y363670D01*
X496170Y366136D01*
X494836Y369357D01*
X494836Y372843D01*
X496170Y376064D01*
X498636Y378530D01*
X501857Y379864D01*
X505343Y379864D01*
X508564Y378530D01*
X511030Y376064D01*
X512364Y372843D01*
X512364Y369357D01*
X511030Y366136D01*
X508564Y363670D01*
X505343Y362336D01*
X501857Y362336D01*
G37*
%LPD*%
%LPC*%
G36*
X400257Y82936D02*
X400257Y82936D01*
X397036Y84270D01*
X394570Y86736D01*
X393236Y89957D01*
X393236Y93443D01*
X394570Y96664D01*
X397036Y99130D01*
X400257Y100464D01*
X403743Y100464D01*
X406964Y99130D01*
X409430Y96664D01*
X410764Y93443D01*
X410764Y89957D01*
X409430Y86736D01*
X406964Y84270D01*
X403743Y82936D01*
X400257Y82936D01*
G37*
%LPD*%
%LPC*%
G36*
X120857Y362336D02*
X120857Y362336D01*
X117636Y363670D01*
X115170Y366136D01*
X113836Y369357D01*
X113836Y372843D01*
X115170Y376064D01*
X117636Y378530D01*
X120857Y379864D01*
X124343Y379864D01*
X127564Y378530D01*
X130030Y376064D01*
X131364Y372843D01*
X131364Y369357D01*
X130030Y366136D01*
X127564Y363670D01*
X124343Y362336D01*
X120857Y362336D01*
G37*
%LPD*%
%LPC*%
G36*
X95457Y362336D02*
X95457Y362336D01*
X92236Y363670D01*
X89770Y366136D01*
X88436Y369357D01*
X88436Y372843D01*
X89770Y376064D01*
X92236Y378530D01*
X95457Y379864D01*
X98943Y379864D01*
X102164Y378530D01*
X104630Y376064D01*
X105964Y372843D01*
X105964Y369357D01*
X104630Y366136D01*
X102164Y363670D01*
X98943Y362336D01*
X95457Y362336D01*
G37*
%LPD*%
%LPC*%
G36*
X324057Y362336D02*
X324057Y362336D01*
X320836Y363670D01*
X318370Y366136D01*
X317036Y369357D01*
X317036Y372843D01*
X318370Y376064D01*
X320836Y378530D01*
X324057Y379864D01*
X327543Y379864D01*
X330764Y378530D01*
X333230Y376064D01*
X334564Y372843D01*
X334564Y369357D01*
X333230Y366136D01*
X330764Y363670D01*
X327543Y362336D01*
X324057Y362336D01*
G37*
%LPD*%
%LPC*%
G36*
X425657Y82936D02*
X425657Y82936D01*
X422436Y84270D01*
X419970Y86736D01*
X418636Y89957D01*
X418636Y93443D01*
X419970Y96664D01*
X422436Y99130D01*
X425657Y100464D01*
X429143Y100464D01*
X432364Y99130D01*
X434830Y96664D01*
X436164Y93443D01*
X436164Y89957D01*
X434830Y86736D01*
X432364Y84270D01*
X429143Y82936D01*
X425657Y82936D01*
G37*
%LPD*%
%LPC*%
G36*
X451057Y82936D02*
X451057Y82936D01*
X447836Y84270D01*
X445370Y86736D01*
X444036Y89957D01*
X444036Y93443D01*
X445370Y96664D01*
X447836Y99130D01*
X451057Y100464D01*
X454543Y100464D01*
X457764Y99130D01*
X460230Y96664D01*
X461564Y93443D01*
X461564Y89957D01*
X460230Y86736D01*
X457764Y84270D01*
X454543Y82936D01*
X451057Y82936D01*
G37*
%LPD*%
%LPC*%
G36*
X476457Y82936D02*
X476457Y82936D01*
X473236Y84270D01*
X470770Y86736D01*
X469436Y89957D01*
X469436Y93443D01*
X470770Y96664D01*
X473236Y99130D01*
X476457Y100464D01*
X479943Y100464D01*
X483164Y99130D01*
X485630Y96664D01*
X486964Y93443D01*
X486964Y89957D01*
X485630Y86736D01*
X483164Y84270D01*
X479943Y82936D01*
X476457Y82936D01*
G37*
%LPD*%
%LPC*%
G36*
X620557Y365886D02*
X620557Y365886D01*
X617336Y367220D01*
X614870Y369686D01*
X613536Y372907D01*
X613536Y376393D01*
X614870Y379614D01*
X617336Y382080D01*
X620557Y383414D01*
X624043Y383414D01*
X627264Y382080D01*
X629730Y379614D01*
X631064Y376393D01*
X631064Y372907D01*
X629730Y369686D01*
X627264Y367220D01*
X624043Y365886D01*
X620557Y365886D01*
G37*
%LPD*%
%LPC*%
G36*
X645957Y365886D02*
X645957Y365886D01*
X642736Y367220D01*
X640270Y369686D01*
X638936Y372907D01*
X638936Y376393D01*
X640270Y379614D01*
X642736Y382080D01*
X645957Y383414D01*
X649443Y383414D01*
X652664Y382080D01*
X655130Y379614D01*
X656464Y376393D01*
X656464Y372907D01*
X655130Y369686D01*
X652664Y367220D01*
X649443Y365886D01*
X645957Y365886D01*
G37*
%LPD*%
%LPC*%
G36*
X569757Y416686D02*
X569757Y416686D01*
X566536Y418020D01*
X564070Y420486D01*
X562736Y423707D01*
X562736Y427193D01*
X564070Y430414D01*
X566536Y432880D01*
X569757Y434214D01*
X573243Y434214D01*
X576464Y432880D01*
X578930Y430414D01*
X580264Y427193D01*
X580264Y423707D01*
X578930Y420486D01*
X576464Y418020D01*
X573243Y416686D01*
X569757Y416686D01*
G37*
%LPD*%
%LPC*%
G36*
X501857Y82936D02*
X501857Y82936D01*
X498636Y84270D01*
X496170Y86736D01*
X494836Y89957D01*
X494836Y93443D01*
X496170Y96664D01*
X498636Y99130D01*
X501857Y100464D01*
X505343Y100464D01*
X508564Y99130D01*
X511030Y96664D01*
X512364Y93443D01*
X512364Y89957D01*
X511030Y86736D01*
X508564Y84270D01*
X505343Y82936D01*
X501857Y82936D01*
G37*
%LPD*%
%LPC*%
G36*
X70057Y82936D02*
X70057Y82936D01*
X66836Y84270D01*
X64370Y86736D01*
X63036Y89957D01*
X63036Y93443D01*
X64370Y96664D01*
X66836Y99130D01*
X70057Y100464D01*
X73543Y100464D01*
X76764Y99130D01*
X79230Y96664D01*
X80564Y93443D01*
X80564Y89957D01*
X79230Y86736D01*
X76764Y84270D01*
X73543Y82936D01*
X70057Y82936D01*
G37*
%LPD*%
%LPC*%
G36*
X645957Y86486D02*
X645957Y86486D01*
X642736Y87820D01*
X640270Y90286D01*
X638936Y93507D01*
X638936Y96993D01*
X640270Y100214D01*
X642736Y102680D01*
X645957Y104014D01*
X649443Y104014D01*
X652664Y102680D01*
X655130Y100214D01*
X656464Y96993D01*
X656464Y93507D01*
X655130Y90286D01*
X652664Y87820D01*
X649443Y86486D01*
X645957Y86486D01*
G37*
%LPD*%
%LPC*%
G36*
X620557Y86486D02*
X620557Y86486D01*
X617336Y87820D01*
X614870Y90286D01*
X613536Y93507D01*
X613536Y96993D01*
X614870Y100214D01*
X617336Y102680D01*
X620557Y104014D01*
X624043Y104014D01*
X627264Y102680D01*
X629730Y100214D01*
X631064Y96993D01*
X631064Y93507D01*
X629730Y90286D01*
X627264Y87820D01*
X624043Y86486D01*
X620557Y86486D01*
G37*
%LPD*%
%LPC*%
G36*
X476457Y108336D02*
X476457Y108336D01*
X473236Y109670D01*
X470770Y112136D01*
X469436Y115357D01*
X469436Y118843D01*
X470770Y122064D01*
X473236Y124530D01*
X476457Y125864D01*
X479943Y125864D01*
X483164Y124530D01*
X485630Y122064D01*
X486964Y118843D01*
X486964Y115357D01*
X485630Y112136D01*
X483164Y109670D01*
X479943Y108336D01*
X476457Y108336D01*
G37*
%LPD*%
%LPC*%
G36*
X501857Y108336D02*
X501857Y108336D01*
X498636Y109670D01*
X496170Y112136D01*
X494836Y115357D01*
X494836Y118843D01*
X496170Y122064D01*
X498636Y124530D01*
X501857Y125864D01*
X505343Y125864D01*
X508564Y124530D01*
X511030Y122064D01*
X512364Y118843D01*
X512364Y115357D01*
X511030Y112136D01*
X508564Y109670D01*
X505343Y108336D01*
X501857Y108336D01*
G37*
%LPD*%
%LPC*%
G36*
X425657Y108336D02*
X425657Y108336D01*
X422436Y109670D01*
X419970Y112136D01*
X418636Y115357D01*
X418636Y118843D01*
X419970Y122064D01*
X422436Y124530D01*
X425657Y125864D01*
X429143Y125864D01*
X432364Y124530D01*
X434830Y122064D01*
X436164Y118843D01*
X436164Y115357D01*
X434830Y112136D01*
X432364Y109670D01*
X429143Y108336D01*
X425657Y108336D01*
G37*
%LPD*%
%LPC*%
G36*
X95457Y108336D02*
X95457Y108336D01*
X92236Y109670D01*
X89770Y112136D01*
X88436Y115357D01*
X88436Y118843D01*
X89770Y122064D01*
X92236Y124530D01*
X95457Y125864D01*
X98943Y125864D01*
X102164Y124530D01*
X104630Y122064D01*
X105964Y118843D01*
X105964Y115357D01*
X104630Y112136D01*
X102164Y109670D01*
X98943Y108336D01*
X95457Y108336D01*
G37*
%LPD*%
%LPC*%
G36*
X70057Y108336D02*
X70057Y108336D01*
X66836Y109670D01*
X64370Y112136D01*
X63036Y115357D01*
X63036Y118843D01*
X64370Y122064D01*
X66836Y124530D01*
X70057Y125864D01*
X73543Y125864D01*
X76764Y124530D01*
X79230Y122064D01*
X80564Y118843D01*
X80564Y115357D01*
X79230Y112136D01*
X76764Y109670D01*
X73543Y108336D01*
X70057Y108336D01*
G37*
%LPD*%
%LPC*%
G36*
X400257Y108336D02*
X400257Y108336D01*
X397036Y109670D01*
X394570Y112136D01*
X393236Y115357D01*
X393236Y118843D01*
X394570Y122064D01*
X397036Y124530D01*
X400257Y125864D01*
X403743Y125864D01*
X406964Y124530D01*
X409430Y122064D01*
X410764Y118843D01*
X410764Y115357D01*
X409430Y112136D01*
X406964Y109670D01*
X403743Y108336D01*
X400257Y108336D01*
G37*
%LPD*%
%LPC*%
G36*
X374857Y108336D02*
X374857Y108336D01*
X371636Y109670D01*
X369170Y112136D01*
X367836Y115357D01*
X367836Y118843D01*
X369170Y122064D01*
X371636Y124530D01*
X374857Y125864D01*
X378343Y125864D01*
X381564Y124530D01*
X384030Y122064D01*
X385364Y118843D01*
X385364Y115357D01*
X384030Y112136D01*
X381564Y109670D01*
X378343Y108336D01*
X374857Y108336D01*
G37*
%LPD*%
%LPC*%
G36*
X349457Y108336D02*
X349457Y108336D01*
X346236Y109670D01*
X343770Y112136D01*
X342436Y115357D01*
X342436Y118843D01*
X343770Y122064D01*
X346236Y124530D01*
X349457Y125864D01*
X352943Y125864D01*
X356164Y124530D01*
X358630Y122064D01*
X359964Y118843D01*
X359964Y115357D01*
X358630Y112136D01*
X356164Y109670D01*
X352943Y108336D01*
X349457Y108336D01*
G37*
%LPD*%
%LPC*%
G36*
X324057Y108336D02*
X324057Y108336D01*
X320836Y109670D01*
X318370Y112136D01*
X317036Y115357D01*
X317036Y118843D01*
X318370Y122064D01*
X320836Y124530D01*
X324057Y125864D01*
X327543Y125864D01*
X330764Y124530D01*
X333230Y122064D01*
X334564Y118843D01*
X334564Y115357D01*
X333230Y112136D01*
X330764Y109670D01*
X327543Y108336D01*
X324057Y108336D01*
G37*
%LPD*%
%LPC*%
G36*
X298657Y108336D02*
X298657Y108336D01*
X295436Y109670D01*
X292970Y112136D01*
X291636Y115357D01*
X291636Y118843D01*
X292970Y122064D01*
X295436Y124530D01*
X298657Y125864D01*
X302143Y125864D01*
X305364Y124530D01*
X307830Y122064D01*
X309164Y118843D01*
X309164Y115357D01*
X307830Y112136D01*
X305364Y109670D01*
X302143Y108336D01*
X298657Y108336D01*
G37*
%LPD*%
%LPC*%
G36*
X273257Y108336D02*
X273257Y108336D01*
X270036Y109670D01*
X267570Y112136D01*
X266236Y115357D01*
X266236Y118843D01*
X267570Y122064D01*
X270036Y124530D01*
X273257Y125864D01*
X276743Y125864D01*
X279964Y124530D01*
X282430Y122064D01*
X283764Y118843D01*
X283764Y115357D01*
X282430Y112136D01*
X279964Y109670D01*
X276743Y108336D01*
X273257Y108336D01*
G37*
%LPD*%
%LPC*%
G36*
X247857Y108336D02*
X247857Y108336D01*
X244636Y109670D01*
X242170Y112136D01*
X240836Y115357D01*
X240836Y118843D01*
X242170Y122064D01*
X244636Y124530D01*
X247857Y125864D01*
X251343Y125864D01*
X254564Y124530D01*
X257030Y122064D01*
X258364Y118843D01*
X258364Y115357D01*
X257030Y112136D01*
X254564Y109670D01*
X251343Y108336D01*
X247857Y108336D01*
G37*
%LPD*%
%LPC*%
G36*
X222457Y108336D02*
X222457Y108336D01*
X219236Y109670D01*
X216770Y112136D01*
X215436Y115357D01*
X215436Y118843D01*
X216770Y122064D01*
X219236Y124530D01*
X222457Y125864D01*
X225943Y125864D01*
X229164Y124530D01*
X231630Y122064D01*
X232964Y118843D01*
X232964Y115357D01*
X231630Y112136D01*
X229164Y109670D01*
X225943Y108336D01*
X222457Y108336D01*
G37*
%LPD*%
%LPC*%
G36*
X197057Y108336D02*
X197057Y108336D01*
X193836Y109670D01*
X191370Y112136D01*
X190036Y115357D01*
X190036Y118843D01*
X191370Y122064D01*
X193836Y124530D01*
X197057Y125864D01*
X200543Y125864D01*
X203764Y124530D01*
X206230Y122064D01*
X207564Y118843D01*
X207564Y115357D01*
X206230Y112136D01*
X203764Y109670D01*
X200543Y108336D01*
X197057Y108336D01*
G37*
%LPD*%
%LPC*%
G36*
X451057Y108336D02*
X451057Y108336D01*
X447836Y109670D01*
X445370Y112136D01*
X444036Y115357D01*
X444036Y118843D01*
X445370Y122064D01*
X447836Y124530D01*
X451057Y125864D01*
X454543Y125864D01*
X457764Y124530D01*
X460230Y122064D01*
X461564Y118843D01*
X461564Y115357D01*
X460230Y112136D01*
X457764Y109670D01*
X454543Y108336D01*
X451057Y108336D01*
G37*
%LPD*%
%LPC*%
G36*
X120857Y108336D02*
X120857Y108336D01*
X117636Y109670D01*
X115170Y112136D01*
X113836Y115357D01*
X113836Y118843D01*
X115170Y122064D01*
X117636Y124530D01*
X120857Y125864D01*
X124343Y125864D01*
X127564Y124530D01*
X130030Y122064D01*
X131364Y118843D01*
X131364Y115357D01*
X130030Y112136D01*
X127564Y109670D01*
X124343Y108336D01*
X120857Y108336D01*
G37*
%LPD*%
%LPC*%
G36*
X171657Y108336D02*
X171657Y108336D01*
X168436Y109670D01*
X165970Y112136D01*
X164636Y115357D01*
X164636Y118843D01*
X165970Y122064D01*
X168436Y124530D01*
X171657Y125864D01*
X175143Y125864D01*
X178364Y124530D01*
X180830Y122064D01*
X182164Y118843D01*
X182164Y115357D01*
X180830Y112136D01*
X178364Y109670D01*
X175143Y108336D01*
X171657Y108336D01*
G37*
%LPD*%
%LPC*%
G36*
X146257Y108336D02*
X146257Y108336D01*
X143036Y109670D01*
X140570Y112136D01*
X139236Y115357D01*
X139236Y118843D01*
X140570Y122064D01*
X143036Y124530D01*
X146257Y125864D01*
X149743Y125864D01*
X152964Y124530D01*
X155430Y122064D01*
X156764Y118843D01*
X156764Y115357D01*
X155430Y112136D01*
X152964Y109670D01*
X149743Y108336D01*
X146257Y108336D01*
G37*
%LPD*%
%LPC*%
G36*
X633888Y32511D02*
X633888Y32511D01*
X631834Y33362D01*
X630262Y34934D01*
X629411Y36988D01*
X629411Y39212D01*
X630262Y41266D01*
X631834Y42838D01*
X633888Y43689D01*
X636112Y43689D01*
X638166Y42838D01*
X639738Y41266D01*
X640589Y39212D01*
X640589Y36988D01*
X639738Y34934D01*
X638166Y33362D01*
X636112Y32511D01*
X633888Y32511D01*
G37*
%LPD*%
%LPC*%
G36*
X259238Y172211D02*
X259238Y172211D01*
X257184Y173062D01*
X255612Y174634D01*
X254761Y176688D01*
X254761Y178912D01*
X255612Y180966D01*
X257184Y182538D01*
X259238Y183389D01*
X261462Y183389D01*
X263516Y182538D01*
X265088Y180966D01*
X265939Y178912D01*
X265939Y176688D01*
X265088Y174634D01*
X263516Y173062D01*
X261462Y172211D01*
X259238Y172211D01*
G37*
%LPD*%
%LPC*%
G36*
X340518Y172211D02*
X340518Y172211D01*
X338464Y173062D01*
X336892Y174634D01*
X336041Y176688D01*
X336041Y178912D01*
X336892Y180966D01*
X338464Y182538D01*
X340518Y183389D01*
X342742Y183389D01*
X344796Y182538D01*
X346368Y180966D01*
X347219Y178912D01*
X347219Y176688D01*
X346368Y174634D01*
X344796Y173062D01*
X342742Y172211D01*
X340518Y172211D01*
G37*
%LPD*%
%LPC*%
G36*
X500538Y172211D02*
X500538Y172211D01*
X498484Y173062D01*
X496912Y174634D01*
X496061Y176688D01*
X496061Y178912D01*
X496912Y180966D01*
X498484Y182538D01*
X500538Y183389D01*
X502762Y183389D01*
X504816Y182538D01*
X506388Y180966D01*
X507239Y178912D01*
X507239Y176688D01*
X506388Y174634D01*
X504816Y173062D01*
X502762Y172211D01*
X500538Y172211D01*
G37*
%LPD*%
%LPC*%
G36*
X335438Y223011D02*
X335438Y223011D01*
X333384Y223862D01*
X331812Y225434D01*
X330961Y227488D01*
X330961Y229712D01*
X331812Y231766D01*
X333384Y233338D01*
X335438Y234189D01*
X337662Y234189D01*
X339716Y233338D01*
X341288Y231766D01*
X342139Y229712D01*
X342139Y227488D01*
X341288Y225434D01*
X339716Y223862D01*
X337662Y223011D01*
X335438Y223011D01*
G37*
%LPD*%
%LPC*%
G36*
X681249Y148299D02*
X681249Y148299D01*
X681249Y154617D01*
X681579Y154551D01*
X683188Y153885D01*
X684636Y152917D01*
X685867Y151686D01*
X686835Y150238D01*
X687501Y148629D01*
X687567Y148299D01*
X681249Y148299D01*
G37*
%LPD*%
%LPC*%
G36*
X593249Y326099D02*
X593249Y326099D01*
X593249Y332417D01*
X593579Y332351D01*
X595188Y331685D01*
X596636Y330717D01*
X597867Y329486D01*
X598835Y328038D01*
X599501Y326429D01*
X599567Y326099D01*
X593249Y326099D01*
G37*
%LPD*%
%LPC*%
G36*
X582433Y326099D02*
X582433Y326099D01*
X582499Y326429D01*
X583165Y328038D01*
X584133Y329486D01*
X585364Y330717D01*
X586812Y331685D01*
X588421Y332351D01*
X588751Y332417D01*
X588751Y326099D01*
X582433Y326099D01*
G37*
%LPD*%
%LPC*%
G36*
X593249Y321601D02*
X593249Y321601D01*
X599567Y321601D01*
X599501Y321271D01*
X598835Y319662D01*
X597867Y318214D01*
X596636Y316983D01*
X595188Y316015D01*
X593579Y315349D01*
X593249Y315283D01*
X593249Y321601D01*
G37*
%LPD*%
%LPC*%
G36*
X670433Y148299D02*
X670433Y148299D01*
X670499Y148629D01*
X671165Y150238D01*
X672133Y151686D01*
X673364Y152917D01*
X674812Y153885D01*
X676421Y154551D01*
X676751Y154617D01*
X676751Y148299D01*
X670433Y148299D01*
G37*
%LPD*%
%LPC*%
G36*
X681249Y143801D02*
X681249Y143801D01*
X687567Y143801D01*
X687501Y143471D01*
X686835Y141862D01*
X685867Y140414D01*
X684636Y139183D01*
X683188Y138215D01*
X681579Y137549D01*
X681249Y137483D01*
X681249Y143801D01*
G37*
%LPD*%
%LPC*%
G36*
X676421Y137549D02*
X676421Y137549D01*
X674812Y138215D01*
X673364Y139183D01*
X672133Y140414D01*
X671165Y141862D01*
X670499Y143471D01*
X670433Y143801D01*
X676751Y143801D01*
X676751Y137483D01*
X676421Y137549D01*
G37*
%LPD*%
%LPC*%
G36*
X588421Y315349D02*
X588421Y315349D01*
X586812Y316015D01*
X585364Y316983D01*
X584133Y318214D01*
X583165Y319662D01*
X582499Y321271D01*
X582433Y321601D01*
X588751Y321601D01*
X588751Y315283D01*
X588421Y315349D01*
G37*
%LPD*%
%LPC*%
G36*
X353422Y347922D02*
X353422Y347922D01*
X353422Y354193D01*
X353756Y354127D01*
X355351Y353466D01*
X356787Y352507D01*
X358007Y351287D01*
X358966Y349851D01*
X359627Y348256D01*
X359693Y347922D01*
X353422Y347922D01*
G37*
%LPD*%
%LPC*%
G36*
X226422Y347922D02*
X226422Y347922D01*
X226422Y354193D01*
X226756Y354127D01*
X228351Y353466D01*
X229787Y352507D01*
X231007Y351287D01*
X231966Y349851D01*
X232627Y348256D01*
X232693Y347922D01*
X226422Y347922D01*
G37*
%LPD*%
%LPC*%
G36*
X548322Y427672D02*
X548322Y427672D01*
X548322Y433943D01*
X548656Y433877D01*
X550251Y433216D01*
X551687Y432257D01*
X552907Y431037D01*
X553866Y429601D01*
X554527Y428006D01*
X554593Y427672D01*
X548322Y427672D01*
G37*
%LPD*%
%LPC*%
G36*
X215707Y347922D02*
X215707Y347922D01*
X215773Y348256D01*
X216434Y349851D01*
X217393Y351287D01*
X218613Y352507D01*
X220049Y353466D01*
X221644Y354127D01*
X221978Y354193D01*
X221978Y347922D01*
X215707Y347922D01*
G37*
%LPD*%
%LPC*%
G36*
X342707Y347922D02*
X342707Y347922D01*
X342773Y348256D01*
X343434Y349851D01*
X344393Y351287D01*
X345613Y352507D01*
X347049Y353466D01*
X348644Y354127D01*
X348978Y354193D01*
X348978Y347922D01*
X342707Y347922D01*
G37*
%LPD*%
%LPC*%
G36*
X548322Y423228D02*
X548322Y423228D01*
X554593Y423228D01*
X554527Y422894D01*
X553866Y421299D01*
X552907Y419863D01*
X551687Y418643D01*
X550251Y417684D01*
X548656Y417023D01*
X548322Y416957D01*
X548322Y423228D01*
G37*
%LPD*%
%LPC*%
G36*
X226422Y343478D02*
X226422Y343478D01*
X232693Y343478D01*
X232627Y343144D01*
X231966Y341549D01*
X231007Y340113D01*
X229787Y338893D01*
X228351Y337934D01*
X226756Y337273D01*
X226422Y337207D01*
X226422Y343478D01*
G37*
%LPD*%
%LPC*%
G36*
X537607Y427672D02*
X537607Y427672D01*
X537673Y428006D01*
X538334Y429601D01*
X539293Y431037D01*
X540513Y432257D01*
X541949Y433216D01*
X543544Y433877D01*
X543878Y433943D01*
X543878Y427672D01*
X537607Y427672D01*
G37*
%LPD*%
%LPC*%
G36*
X543544Y417023D02*
X543544Y417023D01*
X541949Y417684D01*
X540513Y418643D01*
X539293Y419863D01*
X538334Y421299D01*
X537673Y422894D01*
X537607Y423228D01*
X543878Y423228D01*
X543878Y416957D01*
X543544Y417023D01*
G37*
%LPD*%
%LPC*%
G36*
X221644Y337273D02*
X221644Y337273D01*
X220049Y337934D01*
X218613Y338893D01*
X217393Y340113D01*
X216434Y341549D01*
X215773Y343144D01*
X215707Y343478D01*
X221978Y343478D01*
X221978Y337207D01*
X221644Y337273D01*
G37*
%LPD*%
D10*
X571500Y425450D03*
X546100Y425450D03*
X520700Y425450D03*
X622300Y95250D03*
X647700Y95250D03*
X622300Y374650D03*
X647700Y374650D03*
D11*
X202200Y253600D03*
X202200Y203600D03*
X77200Y203600D03*
X77200Y253600D03*
X646700Y253600D03*
X646700Y203600D03*
X521700Y203600D03*
X521700Y253600D03*
D12*
X685800Y431800D03*
X38100Y431800D03*
X38100Y38100D03*
X685800Y38100D03*
D10*
X71800Y371100D03*
X71800Y345700D03*
X97200Y371100D03*
X97200Y345700D03*
X122600Y371100D03*
X122600Y345700D03*
X148000Y371100D03*
X148000Y345700D03*
X173400Y371100D03*
X173400Y345700D03*
X198800Y371100D03*
X198800Y345700D03*
X224200Y371100D03*
X224200Y345700D03*
X249600Y371100D03*
X249600Y345700D03*
X275000Y371100D03*
X275000Y345700D03*
X300400Y371100D03*
X300400Y345700D03*
X325800Y371100D03*
X325800Y345700D03*
X351200Y371100D03*
X351200Y345700D03*
X376600Y371100D03*
X376600Y345700D03*
X402000Y371100D03*
X402000Y345700D03*
X427400Y371100D03*
X427400Y345700D03*
X452800Y371100D03*
X452800Y345700D03*
X478200Y371100D03*
X478200Y345700D03*
X503600Y371100D03*
X503600Y345700D03*
X71800Y117100D03*
X71800Y91700D03*
X97200Y117100D03*
X97200Y91700D03*
X122600Y117100D03*
X122600Y91700D03*
X148000Y117100D03*
X148000Y91700D03*
X173400Y117100D03*
X173400Y91700D03*
X198800Y117100D03*
X198800Y91700D03*
X224200Y117100D03*
X224200Y91700D03*
X249600Y117100D03*
X249600Y91700D03*
X275000Y117100D03*
X275000Y91700D03*
X300400Y117100D03*
X300400Y91700D03*
X325800Y117100D03*
X325800Y91700D03*
X351200Y117100D03*
X351200Y91700D03*
X376600Y117100D03*
X376600Y91700D03*
X402000Y117100D03*
X402000Y91700D03*
X427400Y117100D03*
X427400Y91700D03*
X452800Y117100D03*
X452800Y91700D03*
X478200Y117100D03*
X478200Y91700D03*
X503600Y117100D03*
X503600Y91700D03*
D13*
X591000Y323850D03*
X591000Y298450D03*
X591000Y273050D03*
X591000Y247650D03*
X591000Y222250D03*
X591000Y196850D03*
X591000Y171450D03*
X591000Y146050D03*
X679000Y146050D03*
X679000Y171450D03*
X679000Y196850D03*
X679000Y222250D03*
X679000Y247650D03*
X679000Y273050D03*
X679000Y298450D03*
X679000Y323850D03*
D14*
X260350Y279400D03*
X384810Y177800D03*
X438150Y279400D03*
X501650Y279400D03*
X323850Y279400D03*
X387350Y228600D03*
X635000Y38100D03*
X260350Y177800D03*
X341630Y177800D03*
X336550Y228600D03*
X501650Y177800D03*
M02*
