G04 EAGLE Gerber RS-274X export*
G75*
%MOMM*%
%FSLAX34Y34*%
%LPD*%
%INCopper Layer 2*%
%IPPOS*%
%AMOC8*
5,1,8,0,0,1.08239X$1,22.5*%
G01*
%ADD10C,1.244600*%
%ADD11C,1.960000*%
%ADD12C,4.191000*%
%ADD13C,1.260000*%
%ADD14C,0.609600*%

G36*
X720208Y2556D02*
X720208Y2556D01*
X720327Y2563D01*
X720365Y2576D01*
X720406Y2581D01*
X720516Y2624D01*
X720629Y2661D01*
X720664Y2683D01*
X720701Y2698D01*
X720797Y2767D01*
X720898Y2831D01*
X720926Y2861D01*
X720959Y2884D01*
X721035Y2976D01*
X721116Y3063D01*
X721136Y3098D01*
X721161Y3129D01*
X721212Y3237D01*
X721270Y3341D01*
X721280Y3381D01*
X721297Y3417D01*
X721319Y3534D01*
X721349Y3649D01*
X721353Y3709D01*
X721357Y3729D01*
X721355Y3750D01*
X721359Y3810D01*
X721359Y466090D01*
X721344Y466208D01*
X721337Y466327D01*
X721324Y466365D01*
X721319Y466406D01*
X721276Y466516D01*
X721239Y466629D01*
X721217Y466664D01*
X721202Y466701D01*
X721133Y466797D01*
X721069Y466898D01*
X721039Y466926D01*
X721016Y466959D01*
X720924Y467035D01*
X720837Y467116D01*
X720802Y467136D01*
X720771Y467161D01*
X720663Y467212D01*
X720559Y467270D01*
X720519Y467280D01*
X720483Y467297D01*
X720366Y467319D01*
X720251Y467349D01*
X720191Y467353D01*
X720171Y467357D01*
X720150Y467355D01*
X720090Y467359D01*
X3810Y467359D01*
X3692Y467344D01*
X3573Y467337D01*
X3535Y467324D01*
X3494Y467319D01*
X3384Y467276D01*
X3271Y467239D01*
X3236Y467217D01*
X3199Y467202D01*
X3103Y467133D01*
X3002Y467069D01*
X2974Y467039D01*
X2941Y467016D01*
X2865Y466924D01*
X2784Y466837D01*
X2764Y466802D01*
X2739Y466771D01*
X2688Y466663D01*
X2630Y466559D01*
X2620Y466519D01*
X2603Y466483D01*
X2581Y466366D01*
X2551Y466251D01*
X2547Y466191D01*
X2543Y466171D01*
X2545Y466150D01*
X2541Y466090D01*
X2541Y3810D01*
X2556Y3692D01*
X2563Y3573D01*
X2576Y3535D01*
X2581Y3494D01*
X2624Y3384D01*
X2661Y3271D01*
X2683Y3236D01*
X2698Y3199D01*
X2767Y3103D01*
X2831Y3002D01*
X2861Y2974D01*
X2884Y2941D01*
X2976Y2865D01*
X3063Y2784D01*
X3098Y2764D01*
X3129Y2739D01*
X3237Y2688D01*
X3341Y2630D01*
X3381Y2620D01*
X3417Y2603D01*
X3534Y2581D01*
X3649Y2551D01*
X3709Y2547D01*
X3729Y2543D01*
X3750Y2545D01*
X3810Y2541D01*
X720090Y2541D01*
X720208Y2556D01*
G37*
%LPC*%
G36*
X681126Y408304D02*
X681126Y408304D01*
X672491Y411881D01*
X665881Y418491D01*
X662304Y427126D01*
X662304Y436474D01*
X665881Y445109D01*
X672491Y451719D01*
X681126Y455296D01*
X690474Y455296D01*
X699109Y451719D01*
X705719Y445109D01*
X709296Y436474D01*
X709296Y427126D01*
X705719Y418491D01*
X699109Y411881D01*
X690474Y408304D01*
X681126Y408304D01*
G37*
%LPD*%
%LPC*%
G36*
X33426Y408304D02*
X33426Y408304D01*
X24791Y411881D01*
X18181Y418491D01*
X14604Y427126D01*
X14604Y436474D01*
X18181Y445109D01*
X24791Y451719D01*
X33426Y455296D01*
X42774Y455296D01*
X51409Y451719D01*
X58019Y445109D01*
X61596Y436474D01*
X61596Y427126D01*
X58019Y418491D01*
X51409Y411881D01*
X42774Y408304D01*
X33426Y408304D01*
G37*
%LPD*%
%LPC*%
G36*
X33426Y14604D02*
X33426Y14604D01*
X24791Y18181D01*
X18181Y24791D01*
X14604Y33426D01*
X14604Y42774D01*
X18181Y51409D01*
X24791Y58019D01*
X33426Y61596D01*
X42774Y61596D01*
X51409Y58019D01*
X58019Y51409D01*
X61596Y42774D01*
X61596Y33426D01*
X58019Y24791D01*
X51409Y18181D01*
X42774Y14604D01*
X33426Y14604D01*
G37*
%LPD*%
%LPC*%
G36*
X681126Y14604D02*
X681126Y14604D01*
X672491Y18181D01*
X665881Y24791D01*
X662304Y33426D01*
X662304Y42774D01*
X665881Y51409D01*
X672491Y58019D01*
X681126Y61596D01*
X690474Y61596D01*
X699109Y58019D01*
X705719Y51409D01*
X709296Y42774D01*
X709296Y33426D01*
X705719Y24791D01*
X699109Y18181D01*
X690474Y14604D01*
X681126Y14604D01*
G37*
%LPD*%
%LPC*%
G36*
X74745Y241259D02*
X74745Y241259D01*
X70210Y243138D01*
X66738Y246610D01*
X64859Y251145D01*
X64859Y256055D01*
X66738Y260590D01*
X70210Y264062D01*
X74745Y265941D01*
X79655Y265941D01*
X84190Y264062D01*
X87662Y260590D01*
X89541Y256055D01*
X89541Y251145D01*
X87662Y246610D01*
X84190Y243138D01*
X79655Y241259D01*
X74745Y241259D01*
G37*
%LPD*%
%LPC*%
G36*
X199745Y241259D02*
X199745Y241259D01*
X195210Y243138D01*
X191738Y246610D01*
X189859Y251145D01*
X189859Y256055D01*
X191738Y260590D01*
X195210Y264062D01*
X199745Y265941D01*
X204655Y265941D01*
X209190Y264062D01*
X212662Y260590D01*
X214541Y256055D01*
X214541Y251145D01*
X212662Y246610D01*
X209190Y243138D01*
X204655Y241259D01*
X199745Y241259D01*
G37*
%LPD*%
%LPC*%
G36*
X519245Y241259D02*
X519245Y241259D01*
X514710Y243138D01*
X511238Y246610D01*
X509359Y251145D01*
X509359Y256055D01*
X511238Y260590D01*
X514710Y264062D01*
X519245Y265941D01*
X524155Y265941D01*
X528690Y264062D01*
X532162Y260590D01*
X534041Y256055D01*
X534041Y251145D01*
X532162Y246610D01*
X528690Y243138D01*
X524155Y241259D01*
X519245Y241259D01*
G37*
%LPD*%
%LPC*%
G36*
X644245Y241259D02*
X644245Y241259D01*
X639710Y243138D01*
X636238Y246610D01*
X634359Y251145D01*
X634359Y256055D01*
X636238Y260590D01*
X639710Y264062D01*
X644245Y265941D01*
X649155Y265941D01*
X653690Y264062D01*
X657162Y260590D01*
X659041Y256055D01*
X659041Y251145D01*
X657162Y246610D01*
X653690Y243138D01*
X649155Y241259D01*
X644245Y241259D01*
G37*
%LPD*%
%LPC*%
G36*
X677241Y162609D02*
X677241Y162609D01*
X673992Y163955D01*
X671505Y166442D01*
X670159Y169691D01*
X670159Y173209D01*
X671505Y176458D01*
X673992Y178945D01*
X677241Y180291D01*
X680759Y180291D01*
X684008Y178945D01*
X686495Y176458D01*
X687841Y173209D01*
X687841Y169691D01*
X686495Y166442D01*
X684008Y163955D01*
X680759Y162609D01*
X677241Y162609D01*
G37*
%LPD*%
%LPC*%
G36*
X677241Y315009D02*
X677241Y315009D01*
X673992Y316355D01*
X671505Y318842D01*
X670159Y322091D01*
X670159Y325609D01*
X671505Y328858D01*
X673992Y331345D01*
X677241Y332691D01*
X680759Y332691D01*
X684008Y331345D01*
X686495Y328858D01*
X687841Y325609D01*
X687841Y322091D01*
X686495Y318842D01*
X684008Y316355D01*
X680759Y315009D01*
X677241Y315009D01*
G37*
%LPD*%
%LPC*%
G36*
X589241Y162609D02*
X589241Y162609D01*
X585992Y163955D01*
X583505Y166442D01*
X582159Y169691D01*
X582159Y173209D01*
X583505Y176458D01*
X585992Y178945D01*
X589241Y180291D01*
X592759Y180291D01*
X596008Y178945D01*
X598495Y176458D01*
X599841Y173209D01*
X599841Y169691D01*
X598495Y166442D01*
X596008Y163955D01*
X592759Y162609D01*
X589241Y162609D01*
G37*
%LPD*%
%LPC*%
G36*
X677241Y137209D02*
X677241Y137209D01*
X673992Y138555D01*
X671505Y141042D01*
X670159Y144291D01*
X670159Y147809D01*
X671505Y151058D01*
X673992Y153545D01*
X677241Y154891D01*
X680759Y154891D01*
X684008Y153545D01*
X686495Y151058D01*
X687841Y147809D01*
X687841Y144291D01*
X686495Y141042D01*
X684008Y138555D01*
X680759Y137209D01*
X677241Y137209D01*
G37*
%LPD*%
%LPC*%
G36*
X589241Y188009D02*
X589241Y188009D01*
X585992Y189355D01*
X583505Y191842D01*
X582159Y195091D01*
X582159Y198609D01*
X583505Y201858D01*
X585992Y204345D01*
X589241Y205691D01*
X592759Y205691D01*
X596008Y204345D01*
X598495Y201858D01*
X599841Y198609D01*
X599841Y195091D01*
X598495Y191842D01*
X596008Y189355D01*
X592759Y188009D01*
X589241Y188009D01*
G37*
%LPD*%
%LPC*%
G36*
X677241Y188009D02*
X677241Y188009D01*
X673992Y189355D01*
X671505Y191842D01*
X670159Y195091D01*
X670159Y198609D01*
X671505Y201858D01*
X673992Y204345D01*
X677241Y205691D01*
X680759Y205691D01*
X684008Y204345D01*
X686495Y201858D01*
X687841Y198609D01*
X687841Y195091D01*
X686495Y191842D01*
X684008Y189355D01*
X680759Y188009D01*
X677241Y188009D01*
G37*
%LPD*%
%LPC*%
G36*
X589241Y137209D02*
X589241Y137209D01*
X585992Y138555D01*
X583505Y141042D01*
X582159Y144291D01*
X582159Y147809D01*
X583505Y151058D01*
X585992Y153545D01*
X589241Y154891D01*
X592759Y154891D01*
X596008Y153545D01*
X598495Y151058D01*
X599841Y147809D01*
X599841Y144291D01*
X598495Y141042D01*
X596008Y138555D01*
X592759Y137209D01*
X589241Y137209D01*
G37*
%LPD*%
%LPC*%
G36*
X589241Y264209D02*
X589241Y264209D01*
X585992Y265555D01*
X583505Y268042D01*
X582159Y271291D01*
X582159Y274809D01*
X583505Y278058D01*
X585992Y280545D01*
X589241Y281891D01*
X592759Y281891D01*
X596008Y280545D01*
X598495Y278058D01*
X599841Y274809D01*
X599841Y271291D01*
X598495Y268042D01*
X596008Y265555D01*
X592759Y264209D01*
X589241Y264209D01*
G37*
%LPD*%
%LPC*%
G36*
X677241Y264209D02*
X677241Y264209D01*
X673992Y265555D01*
X671505Y268042D01*
X670159Y271291D01*
X670159Y274809D01*
X671505Y278058D01*
X673992Y280545D01*
X677241Y281891D01*
X680759Y281891D01*
X684008Y280545D01*
X686495Y278058D01*
X687841Y274809D01*
X687841Y271291D01*
X686495Y268042D01*
X684008Y265555D01*
X680759Y264209D01*
X677241Y264209D01*
G37*
%LPD*%
%LPC*%
G36*
X589241Y289609D02*
X589241Y289609D01*
X585992Y290955D01*
X583505Y293442D01*
X582159Y296691D01*
X582159Y300209D01*
X583505Y303458D01*
X585992Y305945D01*
X589241Y307291D01*
X592759Y307291D01*
X596008Y305945D01*
X598495Y303458D01*
X599841Y300209D01*
X599841Y296691D01*
X598495Y293442D01*
X596008Y290955D01*
X592759Y289609D01*
X589241Y289609D01*
G37*
%LPD*%
%LPC*%
G36*
X677241Y289609D02*
X677241Y289609D01*
X673992Y290955D01*
X671505Y293442D01*
X670159Y296691D01*
X670159Y300209D01*
X671505Y303458D01*
X673992Y305945D01*
X677241Y307291D01*
X680759Y307291D01*
X684008Y305945D01*
X686495Y303458D01*
X687841Y300209D01*
X687841Y296691D01*
X686495Y293442D01*
X684008Y290955D01*
X680759Y289609D01*
X677241Y289609D01*
G37*
%LPD*%
%LPC*%
G36*
X589241Y315009D02*
X589241Y315009D01*
X585992Y316355D01*
X583505Y318842D01*
X582159Y322091D01*
X582159Y325609D01*
X583505Y328858D01*
X585992Y331345D01*
X589241Y332691D01*
X592759Y332691D01*
X596008Y331345D01*
X598495Y328858D01*
X599841Y325609D01*
X599841Y322091D01*
X598495Y318842D01*
X596008Y316355D01*
X592759Y315009D01*
X589241Y315009D01*
G37*
%LPD*%
%LPC*%
G36*
X298657Y362336D02*
X298657Y362336D01*
X295436Y363670D01*
X292970Y366136D01*
X291636Y369357D01*
X291636Y372843D01*
X292970Y376064D01*
X295436Y378530D01*
X298657Y379864D01*
X302143Y379864D01*
X305364Y378530D01*
X307830Y376064D01*
X309164Y372843D01*
X309164Y369357D01*
X307830Y366136D01*
X305364Y363670D01*
X302143Y362336D01*
X298657Y362336D01*
G37*
%LPD*%
%LPC*%
G36*
X273257Y362336D02*
X273257Y362336D01*
X270036Y363670D01*
X267570Y366136D01*
X266236Y369357D01*
X266236Y372843D01*
X267570Y376064D01*
X270036Y378530D01*
X273257Y379864D01*
X276743Y379864D01*
X279964Y378530D01*
X282430Y376064D01*
X283764Y372843D01*
X283764Y369357D01*
X282430Y366136D01*
X279964Y363670D01*
X276743Y362336D01*
X273257Y362336D01*
G37*
%LPD*%
%LPC*%
G36*
X247857Y362336D02*
X247857Y362336D01*
X244636Y363670D01*
X242170Y366136D01*
X240836Y369357D01*
X240836Y372843D01*
X242170Y376064D01*
X244636Y378530D01*
X247857Y379864D01*
X251343Y379864D01*
X254564Y378530D01*
X257030Y376064D01*
X258364Y372843D01*
X258364Y369357D01*
X257030Y366136D01*
X254564Y363670D01*
X251343Y362336D01*
X247857Y362336D01*
G37*
%LPD*%
%LPC*%
G36*
X222457Y362336D02*
X222457Y362336D01*
X219236Y363670D01*
X216770Y366136D01*
X215436Y369357D01*
X215436Y372843D01*
X216770Y376064D01*
X219236Y378530D01*
X222457Y379864D01*
X225943Y379864D01*
X229164Y378530D01*
X231630Y376064D01*
X232964Y372843D01*
X232964Y369357D01*
X231630Y366136D01*
X229164Y363670D01*
X225943Y362336D01*
X222457Y362336D01*
G37*
%LPD*%
%LPC*%
G36*
X197057Y362336D02*
X197057Y362336D01*
X193836Y363670D01*
X191370Y366136D01*
X190036Y369357D01*
X190036Y372843D01*
X191370Y376064D01*
X193836Y378530D01*
X197057Y379864D01*
X200543Y379864D01*
X203764Y378530D01*
X206230Y376064D01*
X207564Y372843D01*
X207564Y369357D01*
X206230Y366136D01*
X203764Y363670D01*
X200543Y362336D01*
X197057Y362336D01*
G37*
%LPD*%
%LPC*%
G36*
X171657Y362336D02*
X171657Y362336D01*
X168436Y363670D01*
X165970Y366136D01*
X164636Y369357D01*
X164636Y372843D01*
X165970Y376064D01*
X168436Y378530D01*
X171657Y379864D01*
X175143Y379864D01*
X178364Y378530D01*
X180830Y376064D01*
X182164Y372843D01*
X182164Y369357D01*
X180830Y366136D01*
X178364Y363670D01*
X175143Y362336D01*
X171657Y362336D01*
G37*
%LPD*%
%LPC*%
G36*
X146257Y362336D02*
X146257Y362336D01*
X143036Y363670D01*
X140570Y366136D01*
X139236Y369357D01*
X139236Y372843D01*
X140570Y376064D01*
X143036Y378530D01*
X146257Y379864D01*
X149743Y379864D01*
X152964Y378530D01*
X155430Y376064D01*
X156764Y372843D01*
X156764Y369357D01*
X155430Y366136D01*
X152964Y363670D01*
X149743Y362336D01*
X146257Y362336D01*
G37*
%LPD*%
%LPC*%
G36*
X120857Y362336D02*
X120857Y362336D01*
X117636Y363670D01*
X115170Y366136D01*
X113836Y369357D01*
X113836Y372843D01*
X115170Y376064D01*
X117636Y378530D01*
X120857Y379864D01*
X124343Y379864D01*
X127564Y378530D01*
X130030Y376064D01*
X131364Y372843D01*
X131364Y369357D01*
X130030Y366136D01*
X127564Y363670D01*
X124343Y362336D01*
X120857Y362336D01*
G37*
%LPD*%
%LPC*%
G36*
X400257Y336936D02*
X400257Y336936D01*
X397036Y338270D01*
X394570Y340736D01*
X393236Y343957D01*
X393236Y347443D01*
X394570Y350664D01*
X397036Y353130D01*
X400257Y354464D01*
X403743Y354464D01*
X406964Y353130D01*
X409430Y350664D01*
X410764Y347443D01*
X410764Y343957D01*
X409430Y340736D01*
X406964Y338270D01*
X403743Y336936D01*
X400257Y336936D01*
G37*
%LPD*%
%LPC*%
G36*
X374857Y336936D02*
X374857Y336936D01*
X371636Y338270D01*
X369170Y340736D01*
X367836Y343957D01*
X367836Y347443D01*
X369170Y350664D01*
X371636Y353130D01*
X374857Y354464D01*
X378343Y354464D01*
X381564Y353130D01*
X384030Y350664D01*
X385364Y347443D01*
X385364Y343957D01*
X384030Y340736D01*
X381564Y338270D01*
X378343Y336936D01*
X374857Y336936D01*
G37*
%LPD*%
%LPC*%
G36*
X501857Y336936D02*
X501857Y336936D01*
X498636Y338270D01*
X496170Y340736D01*
X494836Y343957D01*
X494836Y347443D01*
X496170Y350664D01*
X498636Y353130D01*
X501857Y354464D01*
X505343Y354464D01*
X508564Y353130D01*
X511030Y350664D01*
X512364Y347443D01*
X512364Y343957D01*
X511030Y340736D01*
X508564Y338270D01*
X505343Y336936D01*
X501857Y336936D01*
G37*
%LPD*%
%LPC*%
G36*
X476457Y336936D02*
X476457Y336936D01*
X473236Y338270D01*
X470770Y340736D01*
X469436Y343957D01*
X469436Y347443D01*
X470770Y350664D01*
X473236Y353130D01*
X476457Y354464D01*
X479943Y354464D01*
X483164Y353130D01*
X485630Y350664D01*
X486964Y347443D01*
X486964Y343957D01*
X485630Y340736D01*
X483164Y338270D01*
X479943Y336936D01*
X476457Y336936D01*
G37*
%LPD*%
%LPC*%
G36*
X451057Y336936D02*
X451057Y336936D01*
X447836Y338270D01*
X445370Y340736D01*
X444036Y343957D01*
X444036Y347443D01*
X445370Y350664D01*
X447836Y353130D01*
X451057Y354464D01*
X454543Y354464D01*
X457764Y353130D01*
X460230Y350664D01*
X461564Y347443D01*
X461564Y343957D01*
X460230Y340736D01*
X457764Y338270D01*
X454543Y336936D01*
X451057Y336936D01*
G37*
%LPD*%
%LPC*%
G36*
X425657Y336936D02*
X425657Y336936D01*
X422436Y338270D01*
X419970Y340736D01*
X418636Y343957D01*
X418636Y347443D01*
X419970Y350664D01*
X422436Y353130D01*
X425657Y354464D01*
X429143Y354464D01*
X432364Y353130D01*
X434830Y350664D01*
X436164Y347443D01*
X436164Y343957D01*
X434830Y340736D01*
X432364Y338270D01*
X429143Y336936D01*
X425657Y336936D01*
G37*
%LPD*%
%LPC*%
G36*
X349457Y336936D02*
X349457Y336936D01*
X346236Y338270D01*
X343770Y340736D01*
X342436Y343957D01*
X342436Y347443D01*
X343770Y350664D01*
X346236Y353130D01*
X349457Y354464D01*
X352943Y354464D01*
X356164Y353130D01*
X358630Y350664D01*
X359964Y347443D01*
X359964Y343957D01*
X358630Y340736D01*
X356164Y338270D01*
X352943Y336936D01*
X349457Y336936D01*
G37*
%LPD*%
%LPC*%
G36*
X298657Y336936D02*
X298657Y336936D01*
X295436Y338270D01*
X292970Y340736D01*
X291636Y343957D01*
X291636Y347443D01*
X292970Y350664D01*
X295436Y353130D01*
X298657Y354464D01*
X302143Y354464D01*
X305364Y353130D01*
X307830Y350664D01*
X309164Y347443D01*
X309164Y343957D01*
X307830Y340736D01*
X305364Y338270D01*
X302143Y336936D01*
X298657Y336936D01*
G37*
%LPD*%
%LPC*%
G36*
X273257Y336936D02*
X273257Y336936D01*
X270036Y338270D01*
X267570Y340736D01*
X266236Y343957D01*
X266236Y347443D01*
X267570Y350664D01*
X270036Y353130D01*
X273257Y354464D01*
X276743Y354464D01*
X279964Y353130D01*
X282430Y350664D01*
X283764Y347443D01*
X283764Y343957D01*
X282430Y340736D01*
X279964Y338270D01*
X276743Y336936D01*
X273257Y336936D01*
G37*
%LPD*%
%LPC*%
G36*
X222457Y336936D02*
X222457Y336936D01*
X219236Y338270D01*
X216770Y340736D01*
X215436Y343957D01*
X215436Y347443D01*
X216770Y350664D01*
X219236Y353130D01*
X222457Y354464D01*
X225943Y354464D01*
X229164Y353130D01*
X231630Y350664D01*
X232964Y347443D01*
X232964Y343957D01*
X231630Y340736D01*
X229164Y338270D01*
X225943Y336936D01*
X222457Y336936D01*
G37*
%LPD*%
%LPC*%
G36*
X197057Y336936D02*
X197057Y336936D01*
X193836Y338270D01*
X191370Y340736D01*
X190036Y343957D01*
X190036Y347443D01*
X191370Y350664D01*
X193836Y353130D01*
X197057Y354464D01*
X200543Y354464D01*
X203764Y353130D01*
X206230Y350664D01*
X207564Y347443D01*
X207564Y343957D01*
X206230Y340736D01*
X203764Y338270D01*
X200543Y336936D01*
X197057Y336936D01*
G37*
%LPD*%
%LPC*%
G36*
X171657Y336936D02*
X171657Y336936D01*
X168436Y338270D01*
X165970Y340736D01*
X164636Y343957D01*
X164636Y347443D01*
X165970Y350664D01*
X168436Y353130D01*
X171657Y354464D01*
X175143Y354464D01*
X178364Y353130D01*
X180830Y350664D01*
X182164Y347443D01*
X182164Y343957D01*
X180830Y340736D01*
X178364Y338270D01*
X175143Y336936D01*
X171657Y336936D01*
G37*
%LPD*%
%LPC*%
G36*
X146257Y336936D02*
X146257Y336936D01*
X143036Y338270D01*
X140570Y340736D01*
X139236Y343957D01*
X139236Y347443D01*
X140570Y350664D01*
X143036Y353130D01*
X146257Y354464D01*
X149743Y354464D01*
X152964Y353130D01*
X155430Y350664D01*
X156764Y347443D01*
X156764Y343957D01*
X155430Y340736D01*
X152964Y338270D01*
X149743Y336936D01*
X146257Y336936D01*
G37*
%LPD*%
%LPC*%
G36*
X120857Y336936D02*
X120857Y336936D01*
X117636Y338270D01*
X115170Y340736D01*
X113836Y343957D01*
X113836Y347443D01*
X115170Y350664D01*
X117636Y353130D01*
X120857Y354464D01*
X124343Y354464D01*
X127564Y353130D01*
X130030Y350664D01*
X131364Y347443D01*
X131364Y343957D01*
X130030Y340736D01*
X127564Y338270D01*
X124343Y336936D01*
X120857Y336936D01*
G37*
%LPD*%
%LPC*%
G36*
X95457Y336936D02*
X95457Y336936D01*
X92236Y338270D01*
X89770Y340736D01*
X88436Y343957D01*
X88436Y347443D01*
X89770Y350664D01*
X92236Y353130D01*
X95457Y354464D01*
X98943Y354464D01*
X102164Y353130D01*
X104630Y350664D01*
X105964Y347443D01*
X105964Y343957D01*
X104630Y340736D01*
X102164Y338270D01*
X98943Y336936D01*
X95457Y336936D01*
G37*
%LPD*%
%LPC*%
G36*
X70057Y336936D02*
X70057Y336936D01*
X66836Y338270D01*
X64370Y340736D01*
X63036Y343957D01*
X63036Y347443D01*
X64370Y350664D01*
X66836Y353130D01*
X70057Y354464D01*
X73543Y354464D01*
X76764Y353130D01*
X79230Y350664D01*
X80564Y347443D01*
X80564Y343957D01*
X79230Y340736D01*
X76764Y338270D01*
X73543Y336936D01*
X70057Y336936D01*
G37*
%LPD*%
%LPC*%
G36*
X197057Y82936D02*
X197057Y82936D01*
X193836Y84270D01*
X191370Y86736D01*
X190036Y89957D01*
X190036Y93443D01*
X191370Y96664D01*
X193836Y99130D01*
X197057Y100464D01*
X200543Y100464D01*
X203764Y99130D01*
X206230Y96664D01*
X207564Y93443D01*
X207564Y89957D01*
X206230Y86736D01*
X203764Y84270D01*
X200543Y82936D01*
X197057Y82936D01*
G37*
%LPD*%
%LPC*%
G36*
X222457Y82936D02*
X222457Y82936D01*
X219236Y84270D01*
X216770Y86736D01*
X215436Y89957D01*
X215436Y93443D01*
X216770Y96664D01*
X219236Y99130D01*
X222457Y100464D01*
X225943Y100464D01*
X229164Y99130D01*
X231630Y96664D01*
X232964Y93443D01*
X232964Y89957D01*
X231630Y86736D01*
X229164Y84270D01*
X225943Y82936D01*
X222457Y82936D01*
G37*
%LPD*%
%LPC*%
G36*
X247857Y82936D02*
X247857Y82936D01*
X244636Y84270D01*
X242170Y86736D01*
X240836Y89957D01*
X240836Y93443D01*
X242170Y96664D01*
X244636Y99130D01*
X247857Y100464D01*
X251343Y100464D01*
X254564Y99130D01*
X257030Y96664D01*
X258364Y93443D01*
X258364Y89957D01*
X257030Y86736D01*
X254564Y84270D01*
X251343Y82936D01*
X247857Y82936D01*
G37*
%LPD*%
%LPC*%
G36*
X273257Y82936D02*
X273257Y82936D01*
X270036Y84270D01*
X267570Y86736D01*
X266236Y89957D01*
X266236Y93443D01*
X267570Y96664D01*
X270036Y99130D01*
X273257Y100464D01*
X276743Y100464D01*
X279964Y99130D01*
X282430Y96664D01*
X283764Y93443D01*
X283764Y89957D01*
X282430Y86736D01*
X279964Y84270D01*
X276743Y82936D01*
X273257Y82936D01*
G37*
%LPD*%
%LPC*%
G36*
X645957Y365886D02*
X645957Y365886D01*
X642736Y367220D01*
X640270Y369686D01*
X638936Y372907D01*
X638936Y376393D01*
X640270Y379614D01*
X642736Y382080D01*
X645957Y383414D01*
X649443Y383414D01*
X652664Y382080D01*
X655130Y379614D01*
X656464Y376393D01*
X656464Y372907D01*
X655130Y369686D01*
X652664Y367220D01*
X649443Y365886D01*
X645957Y365886D01*
G37*
%LPD*%
%LPC*%
G36*
X324057Y82936D02*
X324057Y82936D01*
X320836Y84270D01*
X318370Y86736D01*
X317036Y89957D01*
X317036Y93443D01*
X318370Y96664D01*
X320836Y99130D01*
X324057Y100464D01*
X327543Y100464D01*
X330764Y99130D01*
X333230Y96664D01*
X334564Y93443D01*
X334564Y89957D01*
X333230Y86736D01*
X330764Y84270D01*
X327543Y82936D01*
X324057Y82936D01*
G37*
%LPD*%
%LPC*%
G36*
X349457Y82936D02*
X349457Y82936D01*
X346236Y84270D01*
X343770Y86736D01*
X342436Y89957D01*
X342436Y93443D01*
X343770Y96664D01*
X346236Y99130D01*
X349457Y100464D01*
X352943Y100464D01*
X356164Y99130D01*
X358630Y96664D01*
X359964Y93443D01*
X359964Y89957D01*
X358630Y86736D01*
X356164Y84270D01*
X352943Y82936D01*
X349457Y82936D01*
G37*
%LPD*%
%LPC*%
G36*
X374857Y82936D02*
X374857Y82936D01*
X371636Y84270D01*
X369170Y86736D01*
X367836Y89957D01*
X367836Y93443D01*
X369170Y96664D01*
X371636Y99130D01*
X374857Y100464D01*
X378343Y100464D01*
X381564Y99130D01*
X384030Y96664D01*
X385364Y93443D01*
X385364Y89957D01*
X384030Y86736D01*
X381564Y84270D01*
X378343Y82936D01*
X374857Y82936D01*
G37*
%LPD*%
%LPC*%
G36*
X620557Y365886D02*
X620557Y365886D01*
X617336Y367220D01*
X614870Y369686D01*
X613536Y372907D01*
X613536Y376393D01*
X614870Y379614D01*
X617336Y382080D01*
X620557Y383414D01*
X624043Y383414D01*
X627264Y382080D01*
X629730Y379614D01*
X631064Y376393D01*
X631064Y372907D01*
X629730Y369686D01*
X627264Y367220D01*
X624043Y365886D01*
X620557Y365886D01*
G37*
%LPD*%
%LPC*%
G36*
X324057Y362336D02*
X324057Y362336D01*
X320836Y363670D01*
X318370Y366136D01*
X317036Y369357D01*
X317036Y372843D01*
X318370Y376064D01*
X320836Y378530D01*
X324057Y379864D01*
X327543Y379864D01*
X330764Y378530D01*
X333230Y376064D01*
X334564Y372843D01*
X334564Y369357D01*
X333230Y366136D01*
X330764Y363670D01*
X327543Y362336D01*
X324057Y362336D01*
G37*
%LPD*%
%LPC*%
G36*
X349457Y362336D02*
X349457Y362336D01*
X346236Y363670D01*
X343770Y366136D01*
X342436Y369357D01*
X342436Y372843D01*
X343770Y376064D01*
X346236Y378530D01*
X349457Y379864D01*
X352943Y379864D01*
X356164Y378530D01*
X358630Y376064D01*
X359964Y372843D01*
X359964Y369357D01*
X358630Y366136D01*
X356164Y363670D01*
X352943Y362336D01*
X349457Y362336D01*
G37*
%LPD*%
%LPC*%
G36*
X374857Y362336D02*
X374857Y362336D01*
X371636Y363670D01*
X369170Y366136D01*
X367836Y369357D01*
X367836Y372843D01*
X369170Y376064D01*
X371636Y378530D01*
X374857Y379864D01*
X378343Y379864D01*
X381564Y378530D01*
X384030Y376064D01*
X385364Y372843D01*
X385364Y369357D01*
X384030Y366136D01*
X381564Y363670D01*
X378343Y362336D01*
X374857Y362336D01*
G37*
%LPD*%
%LPC*%
G36*
X400257Y82936D02*
X400257Y82936D01*
X397036Y84270D01*
X394570Y86736D01*
X393236Y89957D01*
X393236Y93443D01*
X394570Y96664D01*
X397036Y99130D01*
X400257Y100464D01*
X403743Y100464D01*
X406964Y99130D01*
X409430Y96664D01*
X410764Y93443D01*
X410764Y89957D01*
X409430Y86736D01*
X406964Y84270D01*
X403743Y82936D01*
X400257Y82936D01*
G37*
%LPD*%
%LPC*%
G36*
X425657Y82936D02*
X425657Y82936D01*
X422436Y84270D01*
X419970Y86736D01*
X418636Y89957D01*
X418636Y93443D01*
X419970Y96664D01*
X422436Y99130D01*
X425657Y100464D01*
X429143Y100464D01*
X432364Y99130D01*
X434830Y96664D01*
X436164Y93443D01*
X436164Y89957D01*
X434830Y86736D01*
X432364Y84270D01*
X429143Y82936D01*
X425657Y82936D01*
G37*
%LPD*%
%LPC*%
G36*
X451057Y82936D02*
X451057Y82936D01*
X447836Y84270D01*
X445370Y86736D01*
X444036Y89957D01*
X444036Y93443D01*
X445370Y96664D01*
X447836Y99130D01*
X451057Y100464D01*
X454543Y100464D01*
X457764Y99130D01*
X460230Y96664D01*
X461564Y93443D01*
X461564Y89957D01*
X460230Y86736D01*
X457764Y84270D01*
X454543Y82936D01*
X451057Y82936D01*
G37*
%LPD*%
%LPC*%
G36*
X476457Y82936D02*
X476457Y82936D01*
X473236Y84270D01*
X470770Y86736D01*
X469436Y89957D01*
X469436Y93443D01*
X470770Y96664D01*
X473236Y99130D01*
X476457Y100464D01*
X479943Y100464D01*
X483164Y99130D01*
X485630Y96664D01*
X486964Y93443D01*
X486964Y89957D01*
X485630Y86736D01*
X483164Y84270D01*
X479943Y82936D01*
X476457Y82936D01*
G37*
%LPD*%
%LPC*%
G36*
X400257Y362336D02*
X400257Y362336D01*
X397036Y363670D01*
X394570Y366136D01*
X393236Y369357D01*
X393236Y372843D01*
X394570Y376064D01*
X397036Y378530D01*
X400257Y379864D01*
X403743Y379864D01*
X406964Y378530D01*
X409430Y376064D01*
X410764Y372843D01*
X410764Y369357D01*
X409430Y366136D01*
X406964Y363670D01*
X403743Y362336D01*
X400257Y362336D01*
G37*
%LPD*%
%LPC*%
G36*
X425657Y362336D02*
X425657Y362336D01*
X422436Y363670D01*
X419970Y366136D01*
X418636Y369357D01*
X418636Y372843D01*
X419970Y376064D01*
X422436Y378530D01*
X425657Y379864D01*
X429143Y379864D01*
X432364Y378530D01*
X434830Y376064D01*
X436164Y372843D01*
X436164Y369357D01*
X434830Y366136D01*
X432364Y363670D01*
X429143Y362336D01*
X425657Y362336D01*
G37*
%LPD*%
%LPC*%
G36*
X171657Y82936D02*
X171657Y82936D01*
X168436Y84270D01*
X165970Y86736D01*
X164636Y89957D01*
X164636Y93443D01*
X165970Y96664D01*
X168436Y99130D01*
X171657Y100464D01*
X175143Y100464D01*
X178364Y99130D01*
X180830Y96664D01*
X182164Y93443D01*
X182164Y89957D01*
X180830Y86736D01*
X178364Y84270D01*
X175143Y82936D01*
X171657Y82936D01*
G37*
%LPD*%
%LPC*%
G36*
X146257Y82936D02*
X146257Y82936D01*
X143036Y84270D01*
X140570Y86736D01*
X139236Y89957D01*
X139236Y93443D01*
X140570Y96664D01*
X143036Y99130D01*
X146257Y100464D01*
X149743Y100464D01*
X152964Y99130D01*
X155430Y96664D01*
X156764Y93443D01*
X156764Y89957D01*
X155430Y86736D01*
X152964Y84270D01*
X149743Y82936D01*
X146257Y82936D01*
G37*
%LPD*%
%LPC*%
G36*
X120857Y82936D02*
X120857Y82936D01*
X117636Y84270D01*
X115170Y86736D01*
X113836Y89957D01*
X113836Y93443D01*
X115170Y96664D01*
X117636Y99130D01*
X120857Y100464D01*
X124343Y100464D01*
X127564Y99130D01*
X130030Y96664D01*
X131364Y93443D01*
X131364Y89957D01*
X130030Y86736D01*
X127564Y84270D01*
X124343Y82936D01*
X120857Y82936D01*
G37*
%LPD*%
%LPC*%
G36*
X544357Y416686D02*
X544357Y416686D01*
X541136Y418020D01*
X538670Y420486D01*
X537336Y423707D01*
X537336Y427193D01*
X538670Y430414D01*
X541136Y432880D01*
X544357Y434214D01*
X547843Y434214D01*
X551064Y432880D01*
X553530Y430414D01*
X554864Y427193D01*
X554864Y423707D01*
X553530Y420486D01*
X551064Y418020D01*
X547843Y416686D01*
X544357Y416686D01*
G37*
%LPD*%
%LPC*%
G36*
X70057Y82936D02*
X70057Y82936D01*
X66836Y84270D01*
X64370Y86736D01*
X63036Y89957D01*
X63036Y93443D01*
X64370Y96664D01*
X66836Y99130D01*
X70057Y100464D01*
X73543Y100464D01*
X76764Y99130D01*
X79230Y96664D01*
X80564Y93443D01*
X80564Y89957D01*
X79230Y86736D01*
X76764Y84270D01*
X73543Y82936D01*
X70057Y82936D01*
G37*
%LPD*%
%LPC*%
G36*
X95457Y82936D02*
X95457Y82936D01*
X92236Y84270D01*
X89770Y86736D01*
X88436Y89957D01*
X88436Y93443D01*
X89770Y96664D01*
X92236Y99130D01*
X95457Y100464D01*
X98943Y100464D01*
X102164Y99130D01*
X104630Y96664D01*
X105964Y93443D01*
X105964Y89957D01*
X104630Y86736D01*
X102164Y84270D01*
X98943Y82936D01*
X95457Y82936D01*
G37*
%LPD*%
%LPC*%
G36*
X501857Y82936D02*
X501857Y82936D01*
X498636Y84270D01*
X496170Y86736D01*
X494836Y89957D01*
X494836Y93443D01*
X496170Y96664D01*
X498636Y99130D01*
X501857Y100464D01*
X505343Y100464D01*
X508564Y99130D01*
X511030Y96664D01*
X512364Y93443D01*
X512364Y89957D01*
X511030Y86736D01*
X508564Y84270D01*
X505343Y82936D01*
X501857Y82936D01*
G37*
%LPD*%
%LPC*%
G36*
X620557Y86486D02*
X620557Y86486D01*
X617336Y87820D01*
X614870Y90286D01*
X613536Y93507D01*
X613536Y96993D01*
X614870Y100214D01*
X617336Y102680D01*
X620557Y104014D01*
X624043Y104014D01*
X627264Y102680D01*
X629730Y100214D01*
X631064Y96993D01*
X631064Y93507D01*
X629730Y90286D01*
X627264Y87820D01*
X624043Y86486D01*
X620557Y86486D01*
G37*
%LPD*%
%LPC*%
G36*
X645957Y86486D02*
X645957Y86486D01*
X642736Y87820D01*
X640270Y90286D01*
X638936Y93507D01*
X638936Y96993D01*
X640270Y100214D01*
X642736Y102680D01*
X645957Y104014D01*
X649443Y104014D01*
X652664Y102680D01*
X655130Y100214D01*
X656464Y96993D01*
X656464Y93507D01*
X655130Y90286D01*
X652664Y87820D01*
X649443Y86486D01*
X645957Y86486D01*
G37*
%LPD*%
%LPC*%
G36*
X70057Y108336D02*
X70057Y108336D01*
X66836Y109670D01*
X64370Y112136D01*
X63036Y115357D01*
X63036Y118843D01*
X64370Y122064D01*
X66836Y124530D01*
X70057Y125864D01*
X73543Y125864D01*
X76764Y124530D01*
X79230Y122064D01*
X80564Y118843D01*
X80564Y115357D01*
X79230Y112136D01*
X76764Y109670D01*
X73543Y108336D01*
X70057Y108336D01*
G37*
%LPD*%
%LPC*%
G36*
X95457Y108336D02*
X95457Y108336D01*
X92236Y109670D01*
X89770Y112136D01*
X88436Y115357D01*
X88436Y118843D01*
X89770Y122064D01*
X92236Y124530D01*
X95457Y125864D01*
X98943Y125864D01*
X102164Y124530D01*
X104630Y122064D01*
X105964Y118843D01*
X105964Y115357D01*
X104630Y112136D01*
X102164Y109670D01*
X98943Y108336D01*
X95457Y108336D01*
G37*
%LPD*%
%LPC*%
G36*
X120857Y108336D02*
X120857Y108336D01*
X117636Y109670D01*
X115170Y112136D01*
X113836Y115357D01*
X113836Y118843D01*
X115170Y122064D01*
X117636Y124530D01*
X120857Y125864D01*
X124343Y125864D01*
X127564Y124530D01*
X130030Y122064D01*
X131364Y118843D01*
X131364Y115357D01*
X130030Y112136D01*
X127564Y109670D01*
X124343Y108336D01*
X120857Y108336D01*
G37*
%LPD*%
%LPC*%
G36*
X569757Y416686D02*
X569757Y416686D01*
X566536Y418020D01*
X564070Y420486D01*
X562736Y423707D01*
X562736Y427193D01*
X564070Y430414D01*
X566536Y432880D01*
X569757Y434214D01*
X573243Y434214D01*
X576464Y432880D01*
X578930Y430414D01*
X580264Y427193D01*
X580264Y423707D01*
X578930Y420486D01*
X576464Y418020D01*
X573243Y416686D01*
X569757Y416686D01*
G37*
%LPD*%
%LPC*%
G36*
X146257Y108336D02*
X146257Y108336D01*
X143036Y109670D01*
X140570Y112136D01*
X139236Y115357D01*
X139236Y118843D01*
X140570Y122064D01*
X143036Y124530D01*
X146257Y125864D01*
X149743Y125864D01*
X152964Y124530D01*
X155430Y122064D01*
X156764Y118843D01*
X156764Y115357D01*
X155430Y112136D01*
X152964Y109670D01*
X149743Y108336D01*
X146257Y108336D01*
G37*
%LPD*%
%LPC*%
G36*
X171657Y108336D02*
X171657Y108336D01*
X168436Y109670D01*
X165970Y112136D01*
X164636Y115357D01*
X164636Y118843D01*
X165970Y122064D01*
X168436Y124530D01*
X171657Y125864D01*
X175143Y125864D01*
X178364Y124530D01*
X180830Y122064D01*
X182164Y118843D01*
X182164Y115357D01*
X180830Y112136D01*
X178364Y109670D01*
X175143Y108336D01*
X171657Y108336D01*
G37*
%LPD*%
%LPC*%
G36*
X197057Y108336D02*
X197057Y108336D01*
X193836Y109670D01*
X191370Y112136D01*
X190036Y115357D01*
X190036Y118843D01*
X191370Y122064D01*
X193836Y124530D01*
X197057Y125864D01*
X200543Y125864D01*
X203764Y124530D01*
X206230Y122064D01*
X207564Y118843D01*
X207564Y115357D01*
X206230Y112136D01*
X203764Y109670D01*
X200543Y108336D01*
X197057Y108336D01*
G37*
%LPD*%
%LPC*%
G36*
X222457Y108336D02*
X222457Y108336D01*
X219236Y109670D01*
X216770Y112136D01*
X215436Y115357D01*
X215436Y118843D01*
X216770Y122064D01*
X219236Y124530D01*
X222457Y125864D01*
X225943Y125864D01*
X229164Y124530D01*
X231630Y122064D01*
X232964Y118843D01*
X232964Y115357D01*
X231630Y112136D01*
X229164Y109670D01*
X225943Y108336D01*
X222457Y108336D01*
G37*
%LPD*%
%LPC*%
G36*
X247857Y108336D02*
X247857Y108336D01*
X244636Y109670D01*
X242170Y112136D01*
X240836Y115357D01*
X240836Y118843D01*
X242170Y122064D01*
X244636Y124530D01*
X247857Y125864D01*
X251343Y125864D01*
X254564Y124530D01*
X257030Y122064D01*
X258364Y118843D01*
X258364Y115357D01*
X257030Y112136D01*
X254564Y109670D01*
X251343Y108336D01*
X247857Y108336D01*
G37*
%LPD*%
%LPC*%
G36*
X273257Y108336D02*
X273257Y108336D01*
X270036Y109670D01*
X267570Y112136D01*
X266236Y115357D01*
X266236Y118843D01*
X267570Y122064D01*
X270036Y124530D01*
X273257Y125864D01*
X276743Y125864D01*
X279964Y124530D01*
X282430Y122064D01*
X283764Y118843D01*
X283764Y115357D01*
X282430Y112136D01*
X279964Y109670D01*
X276743Y108336D01*
X273257Y108336D01*
G37*
%LPD*%
%LPC*%
G36*
X298657Y108336D02*
X298657Y108336D01*
X295436Y109670D01*
X292970Y112136D01*
X291636Y115357D01*
X291636Y118843D01*
X292970Y122064D01*
X295436Y124530D01*
X298657Y125864D01*
X302143Y125864D01*
X305364Y124530D01*
X307830Y122064D01*
X309164Y118843D01*
X309164Y115357D01*
X307830Y112136D01*
X305364Y109670D01*
X302143Y108336D01*
X298657Y108336D01*
G37*
%LPD*%
%LPC*%
G36*
X324057Y108336D02*
X324057Y108336D01*
X320836Y109670D01*
X318370Y112136D01*
X317036Y115357D01*
X317036Y118843D01*
X318370Y122064D01*
X320836Y124530D01*
X324057Y125864D01*
X327543Y125864D01*
X330764Y124530D01*
X333230Y122064D01*
X334564Y118843D01*
X334564Y115357D01*
X333230Y112136D01*
X330764Y109670D01*
X327543Y108336D01*
X324057Y108336D01*
G37*
%LPD*%
%LPC*%
G36*
X349457Y108336D02*
X349457Y108336D01*
X346236Y109670D01*
X343770Y112136D01*
X342436Y115357D01*
X342436Y118843D01*
X343770Y122064D01*
X346236Y124530D01*
X349457Y125864D01*
X352943Y125864D01*
X356164Y124530D01*
X358630Y122064D01*
X359964Y118843D01*
X359964Y115357D01*
X358630Y112136D01*
X356164Y109670D01*
X352943Y108336D01*
X349457Y108336D01*
G37*
%LPD*%
%LPC*%
G36*
X374857Y108336D02*
X374857Y108336D01*
X371636Y109670D01*
X369170Y112136D01*
X367836Y115357D01*
X367836Y118843D01*
X369170Y122064D01*
X371636Y124530D01*
X374857Y125864D01*
X378343Y125864D01*
X381564Y124530D01*
X384030Y122064D01*
X385364Y118843D01*
X385364Y115357D01*
X384030Y112136D01*
X381564Y109670D01*
X378343Y108336D01*
X374857Y108336D01*
G37*
%LPD*%
%LPC*%
G36*
X400257Y108336D02*
X400257Y108336D01*
X397036Y109670D01*
X394570Y112136D01*
X393236Y115357D01*
X393236Y118843D01*
X394570Y122064D01*
X397036Y124530D01*
X400257Y125864D01*
X403743Y125864D01*
X406964Y124530D01*
X409430Y122064D01*
X410764Y118843D01*
X410764Y115357D01*
X409430Y112136D01*
X406964Y109670D01*
X403743Y108336D01*
X400257Y108336D01*
G37*
%LPD*%
%LPC*%
G36*
X425657Y108336D02*
X425657Y108336D01*
X422436Y109670D01*
X419970Y112136D01*
X418636Y115357D01*
X418636Y118843D01*
X419970Y122064D01*
X422436Y124530D01*
X425657Y125864D01*
X429143Y125864D01*
X432364Y124530D01*
X434830Y122064D01*
X436164Y118843D01*
X436164Y115357D01*
X434830Y112136D01*
X432364Y109670D01*
X429143Y108336D01*
X425657Y108336D01*
G37*
%LPD*%
%LPC*%
G36*
X451057Y108336D02*
X451057Y108336D01*
X447836Y109670D01*
X445370Y112136D01*
X444036Y115357D01*
X444036Y118843D01*
X445370Y122064D01*
X447836Y124530D01*
X451057Y125864D01*
X454543Y125864D01*
X457764Y124530D01*
X460230Y122064D01*
X461564Y118843D01*
X461564Y115357D01*
X460230Y112136D01*
X457764Y109670D01*
X454543Y108336D01*
X451057Y108336D01*
G37*
%LPD*%
%LPC*%
G36*
X476457Y108336D02*
X476457Y108336D01*
X473236Y109670D01*
X470770Y112136D01*
X469436Y115357D01*
X469436Y118843D01*
X470770Y122064D01*
X473236Y124530D01*
X476457Y125864D01*
X479943Y125864D01*
X483164Y124530D01*
X485630Y122064D01*
X486964Y118843D01*
X486964Y115357D01*
X485630Y112136D01*
X483164Y109670D01*
X479943Y108336D01*
X476457Y108336D01*
G37*
%LPD*%
%LPC*%
G36*
X501857Y108336D02*
X501857Y108336D01*
X498636Y109670D01*
X496170Y112136D01*
X494836Y115357D01*
X494836Y118843D01*
X496170Y122064D01*
X498636Y124530D01*
X501857Y125864D01*
X505343Y125864D01*
X508564Y124530D01*
X511030Y122064D01*
X512364Y118843D01*
X512364Y115357D01*
X511030Y112136D01*
X508564Y109670D01*
X505343Y108336D01*
X501857Y108336D01*
G37*
%LPD*%
%LPC*%
G36*
X451057Y362336D02*
X451057Y362336D01*
X447836Y363670D01*
X445370Y366136D01*
X444036Y369357D01*
X444036Y372843D01*
X445370Y376064D01*
X447836Y378530D01*
X451057Y379864D01*
X454543Y379864D01*
X457764Y378530D01*
X460230Y376064D01*
X461564Y372843D01*
X461564Y369357D01*
X460230Y366136D01*
X457764Y363670D01*
X454543Y362336D01*
X451057Y362336D01*
G37*
%LPD*%
%LPC*%
G36*
X476457Y362336D02*
X476457Y362336D01*
X473236Y363670D01*
X470770Y366136D01*
X469436Y369357D01*
X469436Y372843D01*
X470770Y376064D01*
X473236Y378530D01*
X476457Y379864D01*
X479943Y379864D01*
X483164Y378530D01*
X485630Y376064D01*
X486964Y372843D01*
X486964Y369357D01*
X485630Y366136D01*
X483164Y363670D01*
X479943Y362336D01*
X476457Y362336D01*
G37*
%LPD*%
%LPC*%
G36*
X501857Y362336D02*
X501857Y362336D01*
X498636Y363670D01*
X496170Y366136D01*
X494836Y369357D01*
X494836Y372843D01*
X496170Y376064D01*
X498636Y378530D01*
X501857Y379864D01*
X505343Y379864D01*
X508564Y378530D01*
X511030Y376064D01*
X512364Y372843D01*
X512364Y369357D01*
X511030Y366136D01*
X508564Y363670D01*
X505343Y362336D01*
X501857Y362336D01*
G37*
%LPD*%
%LPC*%
G36*
X70057Y362336D02*
X70057Y362336D01*
X66836Y363670D01*
X64370Y366136D01*
X63036Y369357D01*
X63036Y372843D01*
X64370Y376064D01*
X66836Y378530D01*
X70057Y379864D01*
X73543Y379864D01*
X76764Y378530D01*
X79230Y376064D01*
X80564Y372843D01*
X80564Y369357D01*
X79230Y366136D01*
X76764Y363670D01*
X73543Y362336D01*
X70057Y362336D01*
G37*
%LPD*%
%LPC*%
G36*
X95457Y362336D02*
X95457Y362336D01*
X92236Y363670D01*
X89770Y366136D01*
X88436Y369357D01*
X88436Y372843D01*
X89770Y376064D01*
X92236Y378530D01*
X95457Y379864D01*
X98943Y379864D01*
X102164Y378530D01*
X104630Y376064D01*
X105964Y372843D01*
X105964Y369357D01*
X104630Y366136D01*
X102164Y363670D01*
X98943Y362336D01*
X95457Y362336D01*
G37*
%LPD*%
%LPC*%
G36*
X298657Y82936D02*
X298657Y82936D01*
X295436Y84270D01*
X292970Y86736D01*
X291636Y89957D01*
X291636Y93443D01*
X292970Y96664D01*
X295436Y99130D01*
X298657Y100464D01*
X302143Y100464D01*
X305364Y99130D01*
X307830Y96664D01*
X309164Y93443D01*
X309164Y89957D01*
X307830Y86736D01*
X305364Y84270D01*
X302143Y82936D01*
X298657Y82936D01*
G37*
%LPD*%
%LPC*%
G36*
X386238Y223011D02*
X386238Y223011D01*
X384184Y223862D01*
X382612Y225434D01*
X381761Y227488D01*
X381761Y229712D01*
X382612Y231766D01*
X384184Y233338D01*
X386238Y234189D01*
X388462Y234189D01*
X390516Y233338D01*
X392088Y231766D01*
X392939Y229712D01*
X392939Y227488D01*
X392088Y225434D01*
X390516Y223862D01*
X388462Y223011D01*
X386238Y223011D01*
G37*
%LPD*%
%LPC*%
G36*
X437038Y273811D02*
X437038Y273811D01*
X434984Y274662D01*
X433412Y276234D01*
X432561Y278288D01*
X432561Y280512D01*
X433412Y282566D01*
X434984Y284138D01*
X437038Y284989D01*
X439262Y284989D01*
X441316Y284138D01*
X442888Y282566D01*
X443739Y280512D01*
X443739Y278288D01*
X442888Y276234D01*
X441316Y274662D01*
X439262Y273811D01*
X437038Y273811D01*
G37*
%LPD*%
%LPC*%
G36*
X322738Y273811D02*
X322738Y273811D01*
X320684Y274662D01*
X319112Y276234D01*
X318261Y278288D01*
X318261Y280512D01*
X319112Y282566D01*
X320684Y284138D01*
X322738Y284989D01*
X324962Y284989D01*
X327016Y284138D01*
X328588Y282566D01*
X329439Y280512D01*
X329439Y278288D01*
X328588Y276234D01*
X327016Y274662D01*
X324962Y273811D01*
X322738Y273811D01*
G37*
%LPD*%
%LPC*%
G36*
X259238Y273811D02*
X259238Y273811D01*
X257184Y274662D01*
X255612Y276234D01*
X254761Y278288D01*
X254761Y280512D01*
X255612Y282566D01*
X257184Y284138D01*
X259238Y284989D01*
X261462Y284989D01*
X263516Y284138D01*
X265088Y282566D01*
X265939Y280512D01*
X265939Y278288D01*
X265088Y276234D01*
X263516Y274662D01*
X261462Y273811D01*
X259238Y273811D01*
G37*
%LPD*%
%LPC*%
G36*
X500538Y273811D02*
X500538Y273811D01*
X498484Y274662D01*
X496912Y276234D01*
X496061Y278288D01*
X496061Y280512D01*
X496912Y282566D01*
X498484Y284138D01*
X500538Y284989D01*
X502762Y284989D01*
X504816Y284138D01*
X506388Y282566D01*
X507239Y280512D01*
X507239Y278288D01*
X506388Y276234D01*
X504816Y274662D01*
X502762Y273811D01*
X500538Y273811D01*
G37*
%LPD*%
%LPC*%
G36*
X383698Y172211D02*
X383698Y172211D01*
X381644Y173062D01*
X380072Y174634D01*
X379221Y176688D01*
X379221Y178912D01*
X380072Y180966D01*
X381644Y182538D01*
X383698Y183389D01*
X385922Y183389D01*
X387976Y182538D01*
X389548Y180966D01*
X390399Y178912D01*
X390399Y176688D01*
X389548Y174634D01*
X387976Y173062D01*
X385922Y172211D01*
X383698Y172211D01*
G37*
%LPD*%
%LPC*%
G36*
X524239Y206139D02*
X524239Y206139D01*
X524239Y215692D01*
X524590Y215637D01*
X526437Y215037D01*
X528168Y214155D01*
X529739Y213013D01*
X531113Y211639D01*
X532255Y210068D01*
X533137Y208337D01*
X533737Y206490D01*
X533792Y206139D01*
X524239Y206139D01*
G37*
%LPD*%
%LPC*%
G36*
X204739Y206139D02*
X204739Y206139D01*
X204739Y215692D01*
X205090Y215637D01*
X206937Y215037D01*
X208668Y214155D01*
X210239Y213013D01*
X211613Y211639D01*
X212755Y210068D01*
X213637Y208337D01*
X214237Y206490D01*
X214292Y206139D01*
X204739Y206139D01*
G37*
%LPD*%
%LPC*%
G36*
X79739Y206139D02*
X79739Y206139D01*
X79739Y215692D01*
X80090Y215637D01*
X81937Y215037D01*
X83668Y214155D01*
X85239Y213013D01*
X86613Y211639D01*
X87755Y210068D01*
X88637Y208337D01*
X89237Y206490D01*
X89292Y206139D01*
X79739Y206139D01*
G37*
%LPD*%
%LPC*%
G36*
X649239Y206139D02*
X649239Y206139D01*
X649239Y215692D01*
X649590Y215637D01*
X651437Y215037D01*
X653168Y214155D01*
X654739Y213013D01*
X656113Y211639D01*
X657255Y210068D01*
X658137Y208337D01*
X658737Y206490D01*
X658792Y206139D01*
X649239Y206139D01*
G37*
%LPD*%
%LPC*%
G36*
X649239Y201061D02*
X649239Y201061D01*
X658792Y201061D01*
X658737Y200710D01*
X658137Y198863D01*
X657255Y197132D01*
X656113Y195561D01*
X654739Y194187D01*
X653168Y193045D01*
X651437Y192163D01*
X649590Y191563D01*
X649239Y191508D01*
X649239Y201061D01*
G37*
%LPD*%
%LPC*%
G36*
X524239Y201061D02*
X524239Y201061D01*
X533792Y201061D01*
X533737Y200710D01*
X533137Y198863D01*
X532255Y197132D01*
X531113Y195561D01*
X529739Y194187D01*
X528168Y193045D01*
X526437Y192163D01*
X524590Y191563D01*
X524239Y191508D01*
X524239Y201061D01*
G37*
%LPD*%
%LPC*%
G36*
X634608Y206139D02*
X634608Y206139D01*
X634663Y206490D01*
X635263Y208337D01*
X636145Y210068D01*
X637287Y211639D01*
X638661Y213013D01*
X640232Y214155D01*
X641963Y215037D01*
X643810Y215637D01*
X644161Y215692D01*
X644161Y206139D01*
X634608Y206139D01*
G37*
%LPD*%
%LPC*%
G36*
X204739Y201061D02*
X204739Y201061D01*
X214292Y201061D01*
X214237Y200710D01*
X213637Y198863D01*
X212755Y197132D01*
X211613Y195561D01*
X210239Y194187D01*
X208668Y193045D01*
X206937Y192163D01*
X205090Y191563D01*
X204739Y191508D01*
X204739Y201061D01*
G37*
%LPD*%
%LPC*%
G36*
X65108Y206139D02*
X65108Y206139D01*
X65163Y206490D01*
X65763Y208337D01*
X66645Y210068D01*
X67787Y211639D01*
X69161Y213013D01*
X70732Y214155D01*
X72463Y215037D01*
X74310Y215637D01*
X74661Y215692D01*
X74661Y206139D01*
X65108Y206139D01*
G37*
%LPD*%
%LPC*%
G36*
X190108Y206139D02*
X190108Y206139D01*
X190163Y206490D01*
X190763Y208337D01*
X191645Y210068D01*
X192787Y211639D01*
X194161Y213013D01*
X195732Y214155D01*
X197463Y215037D01*
X199310Y215637D01*
X199661Y215692D01*
X199661Y206139D01*
X190108Y206139D01*
G37*
%LPD*%
%LPC*%
G36*
X509608Y206139D02*
X509608Y206139D01*
X509663Y206490D01*
X510263Y208337D01*
X511145Y210068D01*
X512287Y211639D01*
X513661Y213013D01*
X515232Y214155D01*
X516963Y215037D01*
X518810Y215637D01*
X519161Y215692D01*
X519161Y206139D01*
X509608Y206139D01*
G37*
%LPD*%
%LPC*%
G36*
X79739Y201061D02*
X79739Y201061D01*
X89292Y201061D01*
X89237Y200710D01*
X88637Y198863D01*
X87755Y197132D01*
X86613Y195561D01*
X85239Y194187D01*
X83668Y193045D01*
X81937Y192163D01*
X80090Y191563D01*
X79739Y191508D01*
X79739Y201061D01*
G37*
%LPD*%
%LPC*%
G36*
X74310Y191563D02*
X74310Y191563D01*
X72463Y192163D01*
X70732Y193045D01*
X69161Y194187D01*
X67787Y195561D01*
X66645Y197132D01*
X65763Y198863D01*
X65163Y200710D01*
X65108Y201061D01*
X74661Y201061D01*
X74661Y191508D01*
X74310Y191563D01*
G37*
%LPD*%
%LPC*%
G36*
X518810Y191563D02*
X518810Y191563D01*
X516963Y192163D01*
X515232Y193045D01*
X513661Y194187D01*
X512287Y195561D01*
X511145Y197132D01*
X510263Y198863D01*
X509663Y200710D01*
X509608Y201061D01*
X519161Y201061D01*
X519161Y191508D01*
X518810Y191563D01*
G37*
%LPD*%
%LPC*%
G36*
X643810Y191563D02*
X643810Y191563D01*
X641963Y192163D01*
X640232Y193045D01*
X638661Y194187D01*
X637287Y195561D01*
X636145Y197132D01*
X635263Y198863D01*
X634663Y200710D01*
X634608Y201061D01*
X644161Y201061D01*
X644161Y191508D01*
X643810Y191563D01*
G37*
%LPD*%
%LPC*%
G36*
X199310Y191563D02*
X199310Y191563D01*
X197463Y192163D01*
X195732Y193045D01*
X194161Y194187D01*
X192787Y195561D01*
X191645Y197132D01*
X190763Y198863D01*
X190163Y200710D01*
X190108Y201061D01*
X199661Y201061D01*
X199661Y191508D01*
X199310Y191563D01*
G37*
%LPD*%
%LPC*%
G36*
X593249Y224499D02*
X593249Y224499D01*
X593249Y230817D01*
X593579Y230751D01*
X595188Y230085D01*
X596636Y229117D01*
X597867Y227886D01*
X598835Y226438D01*
X599501Y224829D01*
X599567Y224499D01*
X593249Y224499D01*
G37*
%LPD*%
%LPC*%
G36*
X593249Y249899D02*
X593249Y249899D01*
X593249Y256217D01*
X593579Y256151D01*
X595188Y255485D01*
X596636Y254517D01*
X597867Y253286D01*
X598835Y251838D01*
X599501Y250229D01*
X599567Y249899D01*
X593249Y249899D01*
G37*
%LPD*%
%LPC*%
G36*
X681249Y249899D02*
X681249Y249899D01*
X681249Y256217D01*
X681579Y256151D01*
X683188Y255485D01*
X684636Y254517D01*
X685867Y253286D01*
X686835Y251838D01*
X687501Y250229D01*
X687567Y249899D01*
X681249Y249899D01*
G37*
%LPD*%
%LPC*%
G36*
X681249Y224499D02*
X681249Y224499D01*
X681249Y230817D01*
X681579Y230751D01*
X683188Y230085D01*
X684636Y229117D01*
X685867Y227886D01*
X686835Y226438D01*
X687501Y224829D01*
X687567Y224499D01*
X681249Y224499D01*
G37*
%LPD*%
%LPC*%
G36*
X670433Y224499D02*
X670433Y224499D01*
X670499Y224829D01*
X671165Y226438D01*
X672133Y227886D01*
X673364Y229117D01*
X674812Y230085D01*
X676421Y230751D01*
X676751Y230817D01*
X676751Y224499D01*
X670433Y224499D01*
G37*
%LPD*%
%LPC*%
G36*
X681249Y220001D02*
X681249Y220001D01*
X687567Y220001D01*
X687501Y219671D01*
X686835Y218062D01*
X685867Y216614D01*
X684636Y215383D01*
X683188Y214415D01*
X681579Y213749D01*
X681249Y213683D01*
X681249Y220001D01*
G37*
%LPD*%
%LPC*%
G36*
X582433Y224499D02*
X582433Y224499D01*
X582499Y224829D01*
X583165Y226438D01*
X584133Y227886D01*
X585364Y229117D01*
X586812Y230085D01*
X588421Y230751D01*
X588751Y230817D01*
X588751Y224499D01*
X582433Y224499D01*
G37*
%LPD*%
%LPC*%
G36*
X593249Y220001D02*
X593249Y220001D01*
X599567Y220001D01*
X599501Y219671D01*
X598835Y218062D01*
X597867Y216614D01*
X596636Y215383D01*
X595188Y214415D01*
X593579Y213749D01*
X593249Y213683D01*
X593249Y220001D01*
G37*
%LPD*%
%LPC*%
G36*
X681249Y245401D02*
X681249Y245401D01*
X687567Y245401D01*
X687501Y245071D01*
X686835Y243462D01*
X685867Y242014D01*
X684636Y240783D01*
X683188Y239815D01*
X681579Y239149D01*
X681249Y239083D01*
X681249Y245401D01*
G37*
%LPD*%
%LPC*%
G36*
X582433Y249899D02*
X582433Y249899D01*
X582499Y250229D01*
X583165Y251838D01*
X584133Y253286D01*
X585364Y254517D01*
X586812Y255485D01*
X588421Y256151D01*
X588751Y256217D01*
X588751Y249899D01*
X582433Y249899D01*
G37*
%LPD*%
%LPC*%
G36*
X593249Y245401D02*
X593249Y245401D01*
X599567Y245401D01*
X599501Y245071D01*
X598835Y243462D01*
X597867Y242014D01*
X596636Y240783D01*
X595188Y239815D01*
X593579Y239149D01*
X593249Y239083D01*
X593249Y245401D01*
G37*
%LPD*%
%LPC*%
G36*
X670433Y249899D02*
X670433Y249899D01*
X670499Y250229D01*
X671165Y251838D01*
X672133Y253286D01*
X673364Y254517D01*
X674812Y255485D01*
X676421Y256151D01*
X676751Y256217D01*
X676751Y249899D01*
X670433Y249899D01*
G37*
%LPD*%
%LPC*%
G36*
X588421Y239149D02*
X588421Y239149D01*
X586812Y239815D01*
X585364Y240783D01*
X584133Y242014D01*
X583165Y243462D01*
X582499Y245071D01*
X582433Y245401D01*
X588751Y245401D01*
X588751Y239083D01*
X588421Y239149D01*
G37*
%LPD*%
%LPC*%
G36*
X676421Y239149D02*
X676421Y239149D01*
X674812Y239815D01*
X673364Y240783D01*
X672133Y242014D01*
X671165Y243462D01*
X670499Y245071D01*
X670433Y245401D01*
X676751Y245401D01*
X676751Y239083D01*
X676421Y239149D01*
G37*
%LPD*%
%LPC*%
G36*
X676421Y213749D02*
X676421Y213749D01*
X674812Y214415D01*
X673364Y215383D01*
X672133Y216614D01*
X671165Y218062D01*
X670499Y219671D01*
X670433Y220001D01*
X676751Y220001D01*
X676751Y213683D01*
X676421Y213749D01*
G37*
%LPD*%
%LPC*%
G36*
X588421Y213749D02*
X588421Y213749D01*
X586812Y214415D01*
X585364Y215383D01*
X584133Y216614D01*
X583165Y218062D01*
X582499Y219671D01*
X582433Y220001D01*
X588751Y220001D01*
X588751Y213683D01*
X588421Y213749D01*
G37*
%LPD*%
%LPC*%
G36*
X522922Y427672D02*
X522922Y427672D01*
X522922Y433943D01*
X523256Y433877D01*
X524851Y433216D01*
X526287Y432257D01*
X527507Y431037D01*
X528466Y429601D01*
X529127Y428006D01*
X529193Y427672D01*
X522922Y427672D01*
G37*
%LPD*%
%LPC*%
G36*
X251822Y347922D02*
X251822Y347922D01*
X251822Y354193D01*
X252156Y354127D01*
X253751Y353466D01*
X255187Y352507D01*
X256407Y351287D01*
X257366Y349851D01*
X258027Y348256D01*
X258093Y347922D01*
X251822Y347922D01*
G37*
%LPD*%
%LPC*%
G36*
X328022Y347922D02*
X328022Y347922D01*
X328022Y354193D01*
X328356Y354127D01*
X329951Y353466D01*
X331387Y352507D01*
X332607Y351287D01*
X333566Y349851D01*
X334227Y348256D01*
X334293Y347922D01*
X328022Y347922D01*
G37*
%LPD*%
%LPC*%
G36*
X328022Y343478D02*
X328022Y343478D01*
X334293Y343478D01*
X334227Y343144D01*
X333566Y341549D01*
X332607Y340113D01*
X331387Y338893D01*
X329951Y337934D01*
X328356Y337273D01*
X328022Y337207D01*
X328022Y343478D01*
G37*
%LPD*%
%LPC*%
G36*
X251822Y343478D02*
X251822Y343478D01*
X258093Y343478D01*
X258027Y343144D01*
X257366Y341549D01*
X256407Y340113D01*
X255187Y338893D01*
X253751Y337934D01*
X252156Y337273D01*
X251822Y337207D01*
X251822Y343478D01*
G37*
%LPD*%
%LPC*%
G36*
X512207Y427672D02*
X512207Y427672D01*
X512273Y428006D01*
X512934Y429601D01*
X513893Y431037D01*
X515113Y432257D01*
X516549Y433216D01*
X518144Y433877D01*
X518478Y433943D01*
X518478Y427672D01*
X512207Y427672D01*
G37*
%LPD*%
%LPC*%
G36*
X522922Y423228D02*
X522922Y423228D01*
X529193Y423228D01*
X529127Y422894D01*
X528466Y421299D01*
X527507Y419863D01*
X526287Y418643D01*
X524851Y417684D01*
X523256Y417023D01*
X522922Y416957D01*
X522922Y423228D01*
G37*
%LPD*%
%LPC*%
G36*
X241107Y347922D02*
X241107Y347922D01*
X241173Y348256D01*
X241834Y349851D01*
X242793Y351287D01*
X244013Y352507D01*
X245449Y353466D01*
X247044Y354127D01*
X247378Y354193D01*
X247378Y347922D01*
X241107Y347922D01*
G37*
%LPD*%
%LPC*%
G36*
X317307Y347922D02*
X317307Y347922D01*
X317373Y348256D01*
X318034Y349851D01*
X318993Y351287D01*
X320213Y352507D01*
X321649Y353466D01*
X323244Y354127D01*
X323578Y354193D01*
X323578Y347922D01*
X317307Y347922D01*
G37*
%LPD*%
%LPC*%
G36*
X247044Y337273D02*
X247044Y337273D01*
X245449Y337934D01*
X244013Y338893D01*
X242793Y340113D01*
X241834Y341549D01*
X241173Y343144D01*
X241107Y343478D01*
X247378Y343478D01*
X247378Y337207D01*
X247044Y337273D01*
G37*
%LPD*%
%LPC*%
G36*
X323244Y337273D02*
X323244Y337273D01*
X321649Y337934D01*
X320213Y338893D01*
X318993Y340113D01*
X318034Y341549D01*
X317373Y343144D01*
X317307Y343478D01*
X323578Y343478D01*
X323578Y337207D01*
X323244Y337273D01*
G37*
%LPD*%
%LPC*%
G36*
X518144Y417023D02*
X518144Y417023D01*
X516549Y417684D01*
X515113Y418643D01*
X513893Y419863D01*
X512934Y421299D01*
X512273Y422894D01*
X512207Y423228D01*
X518478Y423228D01*
X518478Y416957D01*
X518144Y417023D01*
G37*
%LPD*%
%LPC*%
G36*
X521699Y203599D02*
X521699Y203599D01*
X521699Y203601D01*
X521701Y203601D01*
X521701Y203599D01*
X521699Y203599D01*
G37*
%LPD*%
%LPC*%
G36*
X77199Y203599D02*
X77199Y203599D01*
X77199Y203601D01*
X77201Y203601D01*
X77201Y203599D01*
X77199Y203599D01*
G37*
%LPD*%
%LPC*%
G36*
X202199Y203599D02*
X202199Y203599D01*
X202199Y203601D01*
X202201Y203601D01*
X202201Y203599D01*
X202199Y203599D01*
G37*
%LPD*%
%LPC*%
G36*
X646699Y203599D02*
X646699Y203599D01*
X646699Y203601D01*
X646701Y203601D01*
X646701Y203599D01*
X646699Y203599D01*
G37*
%LPD*%
D10*
X571500Y425450D03*
X546100Y425450D03*
X520700Y425450D03*
X622300Y95250D03*
X647700Y95250D03*
X622300Y374650D03*
X647700Y374650D03*
D11*
X202200Y253600D03*
X202200Y203600D03*
X77200Y203600D03*
X77200Y253600D03*
X646700Y253600D03*
X646700Y203600D03*
X521700Y203600D03*
X521700Y253600D03*
D12*
X685800Y431800D03*
X38100Y431800D03*
X38100Y38100D03*
X685800Y38100D03*
D10*
X71800Y371100D03*
X71800Y345700D03*
X97200Y371100D03*
X97200Y345700D03*
X122600Y371100D03*
X122600Y345700D03*
X148000Y371100D03*
X148000Y345700D03*
X173400Y371100D03*
X173400Y345700D03*
X198800Y371100D03*
X198800Y345700D03*
X224200Y371100D03*
X224200Y345700D03*
X249600Y371100D03*
X249600Y345700D03*
X275000Y371100D03*
X275000Y345700D03*
X300400Y371100D03*
X300400Y345700D03*
X325800Y371100D03*
X325800Y345700D03*
X351200Y371100D03*
X351200Y345700D03*
X376600Y371100D03*
X376600Y345700D03*
X402000Y371100D03*
X402000Y345700D03*
X427400Y371100D03*
X427400Y345700D03*
X452800Y371100D03*
X452800Y345700D03*
X478200Y371100D03*
X478200Y345700D03*
X503600Y371100D03*
X503600Y345700D03*
X71800Y117100D03*
X71800Y91700D03*
X97200Y117100D03*
X97200Y91700D03*
X122600Y117100D03*
X122600Y91700D03*
X148000Y117100D03*
X148000Y91700D03*
X173400Y117100D03*
X173400Y91700D03*
X198800Y117100D03*
X198800Y91700D03*
X224200Y117100D03*
X224200Y91700D03*
X249600Y117100D03*
X249600Y91700D03*
X275000Y117100D03*
X275000Y91700D03*
X300400Y117100D03*
X300400Y91700D03*
X325800Y117100D03*
X325800Y91700D03*
X351200Y117100D03*
X351200Y91700D03*
X376600Y117100D03*
X376600Y91700D03*
X402000Y117100D03*
X402000Y91700D03*
X427400Y117100D03*
X427400Y91700D03*
X452800Y117100D03*
X452800Y91700D03*
X478200Y117100D03*
X478200Y91700D03*
X503600Y117100D03*
X503600Y91700D03*
D13*
X591000Y323850D03*
X591000Y298450D03*
X591000Y273050D03*
X591000Y247650D03*
X591000Y222250D03*
X591000Y196850D03*
X591000Y171450D03*
X591000Y146050D03*
X679000Y146050D03*
X679000Y171450D03*
X679000Y196850D03*
X679000Y222250D03*
X679000Y247650D03*
X679000Y273050D03*
X679000Y298450D03*
X679000Y323850D03*
D14*
X260350Y279400D03*
X384810Y177800D03*
X438150Y279400D03*
X501650Y279400D03*
X323850Y279400D03*
X387350Y228600D03*
X635000Y38100D03*
X260350Y177800D03*
X341630Y177800D03*
X336550Y228600D03*
X501650Y177800D03*
M02*
