G04 EAGLE Gerber RS-274X export*
G75*
%MOMM*%
%FSLAX34Y34*%
%LPD*%
%INSoldermask Bottom*%
%IPPOS*%
%AMOC8*
5,1,8,0,0,1.08239X$1,22.5*%
G01*
%ADD10R,1.803400X1.803400*%
%ADD11C,1.803400*%
%ADD12C,2.112400*%
%ADD13C,4.597400*%
%ADD14C,0.609600*%
%ADD15C,1.168400*%
%ADD16R,1.295400X1.422400*%
%ADD17R,1.676400X1.676400*%
%ADD18P,1.814519X8X22.500000*%
%ADD19C,1.412400*%


D10*
X571500Y425450D03*
D11*
X546100Y425450D03*
X520700Y425450D03*
X622300Y95250D03*
X647700Y95250D03*
X622300Y374650D03*
X647700Y374650D03*
D12*
X202200Y253600D03*
X202200Y203600D03*
X77200Y203600D03*
X77200Y253600D03*
X646700Y253600D03*
X646700Y203600D03*
X521700Y203600D03*
X521700Y253600D03*
D13*
X685800Y431800D03*
X38100Y431800D03*
X38100Y38100D03*
X685800Y38100D03*
D14*
X81280Y431800D02*
X81282Y431987D01*
X81289Y432174D01*
X81301Y432361D01*
X81317Y432547D01*
X81337Y432733D01*
X81362Y432918D01*
X81392Y433103D01*
X81426Y433287D01*
X81465Y433470D01*
X81508Y433652D01*
X81556Y433832D01*
X81608Y434012D01*
X81665Y434190D01*
X81725Y434367D01*
X81791Y434542D01*
X81860Y434716D01*
X81934Y434888D01*
X82012Y435058D01*
X82094Y435226D01*
X82180Y435392D01*
X82270Y435556D01*
X82364Y435717D01*
X82462Y435877D01*
X82564Y436033D01*
X82670Y436188D01*
X82780Y436339D01*
X82893Y436488D01*
X83010Y436634D01*
X83130Y436777D01*
X83254Y436917D01*
X83381Y437054D01*
X83512Y437188D01*
X83646Y437319D01*
X83783Y437446D01*
X83923Y437570D01*
X84066Y437690D01*
X84212Y437807D01*
X84361Y437920D01*
X84512Y438030D01*
X84667Y438136D01*
X84823Y438238D01*
X84983Y438336D01*
X85144Y438430D01*
X85308Y438520D01*
X85474Y438606D01*
X85642Y438688D01*
X85812Y438766D01*
X85984Y438840D01*
X86158Y438909D01*
X86333Y438975D01*
X86510Y439035D01*
X86688Y439092D01*
X86868Y439144D01*
X87048Y439192D01*
X87230Y439235D01*
X87413Y439274D01*
X87597Y439308D01*
X87782Y439338D01*
X87967Y439363D01*
X88153Y439383D01*
X88339Y439399D01*
X88526Y439411D01*
X88713Y439418D01*
X88900Y439420D01*
X89087Y439418D01*
X89274Y439411D01*
X89461Y439399D01*
X89647Y439383D01*
X89833Y439363D01*
X90018Y439338D01*
X90203Y439308D01*
X90387Y439274D01*
X90570Y439235D01*
X90752Y439192D01*
X90932Y439144D01*
X91112Y439092D01*
X91290Y439035D01*
X91467Y438975D01*
X91642Y438909D01*
X91816Y438840D01*
X91988Y438766D01*
X92158Y438688D01*
X92326Y438606D01*
X92492Y438520D01*
X92656Y438430D01*
X92817Y438336D01*
X92977Y438238D01*
X93133Y438136D01*
X93288Y438030D01*
X93439Y437920D01*
X93588Y437807D01*
X93734Y437690D01*
X93877Y437570D01*
X94017Y437446D01*
X94154Y437319D01*
X94288Y437188D01*
X94419Y437054D01*
X94546Y436917D01*
X94670Y436777D01*
X94790Y436634D01*
X94907Y436488D01*
X95020Y436339D01*
X95130Y436188D01*
X95236Y436033D01*
X95338Y435877D01*
X95436Y435717D01*
X95530Y435556D01*
X95620Y435392D01*
X95706Y435226D01*
X95788Y435058D01*
X95866Y434888D01*
X95940Y434716D01*
X96009Y434542D01*
X96075Y434367D01*
X96135Y434190D01*
X96192Y434012D01*
X96244Y433832D01*
X96292Y433652D01*
X96335Y433470D01*
X96374Y433287D01*
X96408Y433103D01*
X96438Y432918D01*
X96463Y432733D01*
X96483Y432547D01*
X96499Y432361D01*
X96511Y432174D01*
X96518Y431987D01*
X96520Y431800D01*
X96518Y431613D01*
X96511Y431426D01*
X96499Y431239D01*
X96483Y431053D01*
X96463Y430867D01*
X96438Y430682D01*
X96408Y430497D01*
X96374Y430313D01*
X96335Y430130D01*
X96292Y429948D01*
X96244Y429768D01*
X96192Y429588D01*
X96135Y429410D01*
X96075Y429233D01*
X96009Y429058D01*
X95940Y428884D01*
X95866Y428712D01*
X95788Y428542D01*
X95706Y428374D01*
X95620Y428208D01*
X95530Y428044D01*
X95436Y427883D01*
X95338Y427723D01*
X95236Y427567D01*
X95130Y427412D01*
X95020Y427261D01*
X94907Y427112D01*
X94790Y426966D01*
X94670Y426823D01*
X94546Y426683D01*
X94419Y426546D01*
X94288Y426412D01*
X94154Y426281D01*
X94017Y426154D01*
X93877Y426030D01*
X93734Y425910D01*
X93588Y425793D01*
X93439Y425680D01*
X93288Y425570D01*
X93133Y425464D01*
X92977Y425362D01*
X92817Y425264D01*
X92656Y425170D01*
X92492Y425080D01*
X92326Y424994D01*
X92158Y424912D01*
X91988Y424834D01*
X91816Y424760D01*
X91642Y424691D01*
X91467Y424625D01*
X91290Y424565D01*
X91112Y424508D01*
X90932Y424456D01*
X90752Y424408D01*
X90570Y424365D01*
X90387Y424326D01*
X90203Y424292D01*
X90018Y424262D01*
X89833Y424237D01*
X89647Y424217D01*
X89461Y424201D01*
X89274Y424189D01*
X89087Y424182D01*
X88900Y424180D01*
X88713Y424182D01*
X88526Y424189D01*
X88339Y424201D01*
X88153Y424217D01*
X87967Y424237D01*
X87782Y424262D01*
X87597Y424292D01*
X87413Y424326D01*
X87230Y424365D01*
X87048Y424408D01*
X86868Y424456D01*
X86688Y424508D01*
X86510Y424565D01*
X86333Y424625D01*
X86158Y424691D01*
X85984Y424760D01*
X85812Y424834D01*
X85642Y424912D01*
X85474Y424994D01*
X85308Y425080D01*
X85144Y425170D01*
X84983Y425264D01*
X84823Y425362D01*
X84667Y425464D01*
X84512Y425570D01*
X84361Y425680D01*
X84212Y425793D01*
X84066Y425910D01*
X83923Y426030D01*
X83783Y426154D01*
X83646Y426281D01*
X83512Y426412D01*
X83381Y426546D01*
X83254Y426683D01*
X83130Y426823D01*
X83010Y426966D01*
X82893Y427112D01*
X82780Y427261D01*
X82670Y427412D01*
X82564Y427567D01*
X82462Y427723D01*
X82364Y427883D01*
X82270Y428044D01*
X82180Y428208D01*
X82094Y428374D01*
X82012Y428542D01*
X81934Y428712D01*
X81860Y428884D01*
X81791Y429058D01*
X81725Y429233D01*
X81665Y429410D01*
X81608Y429588D01*
X81556Y429768D01*
X81508Y429948D01*
X81465Y430130D01*
X81426Y430313D01*
X81392Y430497D01*
X81362Y430682D01*
X81337Y430867D01*
X81317Y431053D01*
X81301Y431239D01*
X81289Y431426D01*
X81282Y431613D01*
X81280Y431800D01*
D15*
X88900Y431800D03*
D14*
X627380Y431800D02*
X627382Y431987D01*
X627389Y432174D01*
X627401Y432361D01*
X627417Y432547D01*
X627437Y432733D01*
X627462Y432918D01*
X627492Y433103D01*
X627526Y433287D01*
X627565Y433470D01*
X627608Y433652D01*
X627656Y433832D01*
X627708Y434012D01*
X627765Y434190D01*
X627825Y434367D01*
X627891Y434542D01*
X627960Y434716D01*
X628034Y434888D01*
X628112Y435058D01*
X628194Y435226D01*
X628280Y435392D01*
X628370Y435556D01*
X628464Y435717D01*
X628562Y435877D01*
X628664Y436033D01*
X628770Y436188D01*
X628880Y436339D01*
X628993Y436488D01*
X629110Y436634D01*
X629230Y436777D01*
X629354Y436917D01*
X629481Y437054D01*
X629612Y437188D01*
X629746Y437319D01*
X629883Y437446D01*
X630023Y437570D01*
X630166Y437690D01*
X630312Y437807D01*
X630461Y437920D01*
X630612Y438030D01*
X630767Y438136D01*
X630923Y438238D01*
X631083Y438336D01*
X631244Y438430D01*
X631408Y438520D01*
X631574Y438606D01*
X631742Y438688D01*
X631912Y438766D01*
X632084Y438840D01*
X632258Y438909D01*
X632433Y438975D01*
X632610Y439035D01*
X632788Y439092D01*
X632968Y439144D01*
X633148Y439192D01*
X633330Y439235D01*
X633513Y439274D01*
X633697Y439308D01*
X633882Y439338D01*
X634067Y439363D01*
X634253Y439383D01*
X634439Y439399D01*
X634626Y439411D01*
X634813Y439418D01*
X635000Y439420D01*
X635187Y439418D01*
X635374Y439411D01*
X635561Y439399D01*
X635747Y439383D01*
X635933Y439363D01*
X636118Y439338D01*
X636303Y439308D01*
X636487Y439274D01*
X636670Y439235D01*
X636852Y439192D01*
X637032Y439144D01*
X637212Y439092D01*
X637390Y439035D01*
X637567Y438975D01*
X637742Y438909D01*
X637916Y438840D01*
X638088Y438766D01*
X638258Y438688D01*
X638426Y438606D01*
X638592Y438520D01*
X638756Y438430D01*
X638917Y438336D01*
X639077Y438238D01*
X639233Y438136D01*
X639388Y438030D01*
X639539Y437920D01*
X639688Y437807D01*
X639834Y437690D01*
X639977Y437570D01*
X640117Y437446D01*
X640254Y437319D01*
X640388Y437188D01*
X640519Y437054D01*
X640646Y436917D01*
X640770Y436777D01*
X640890Y436634D01*
X641007Y436488D01*
X641120Y436339D01*
X641230Y436188D01*
X641336Y436033D01*
X641438Y435877D01*
X641536Y435717D01*
X641630Y435556D01*
X641720Y435392D01*
X641806Y435226D01*
X641888Y435058D01*
X641966Y434888D01*
X642040Y434716D01*
X642109Y434542D01*
X642175Y434367D01*
X642235Y434190D01*
X642292Y434012D01*
X642344Y433832D01*
X642392Y433652D01*
X642435Y433470D01*
X642474Y433287D01*
X642508Y433103D01*
X642538Y432918D01*
X642563Y432733D01*
X642583Y432547D01*
X642599Y432361D01*
X642611Y432174D01*
X642618Y431987D01*
X642620Y431800D01*
X642618Y431613D01*
X642611Y431426D01*
X642599Y431239D01*
X642583Y431053D01*
X642563Y430867D01*
X642538Y430682D01*
X642508Y430497D01*
X642474Y430313D01*
X642435Y430130D01*
X642392Y429948D01*
X642344Y429768D01*
X642292Y429588D01*
X642235Y429410D01*
X642175Y429233D01*
X642109Y429058D01*
X642040Y428884D01*
X641966Y428712D01*
X641888Y428542D01*
X641806Y428374D01*
X641720Y428208D01*
X641630Y428044D01*
X641536Y427883D01*
X641438Y427723D01*
X641336Y427567D01*
X641230Y427412D01*
X641120Y427261D01*
X641007Y427112D01*
X640890Y426966D01*
X640770Y426823D01*
X640646Y426683D01*
X640519Y426546D01*
X640388Y426412D01*
X640254Y426281D01*
X640117Y426154D01*
X639977Y426030D01*
X639834Y425910D01*
X639688Y425793D01*
X639539Y425680D01*
X639388Y425570D01*
X639233Y425464D01*
X639077Y425362D01*
X638917Y425264D01*
X638756Y425170D01*
X638592Y425080D01*
X638426Y424994D01*
X638258Y424912D01*
X638088Y424834D01*
X637916Y424760D01*
X637742Y424691D01*
X637567Y424625D01*
X637390Y424565D01*
X637212Y424508D01*
X637032Y424456D01*
X636852Y424408D01*
X636670Y424365D01*
X636487Y424326D01*
X636303Y424292D01*
X636118Y424262D01*
X635933Y424237D01*
X635747Y424217D01*
X635561Y424201D01*
X635374Y424189D01*
X635187Y424182D01*
X635000Y424180D01*
X634813Y424182D01*
X634626Y424189D01*
X634439Y424201D01*
X634253Y424217D01*
X634067Y424237D01*
X633882Y424262D01*
X633697Y424292D01*
X633513Y424326D01*
X633330Y424365D01*
X633148Y424408D01*
X632968Y424456D01*
X632788Y424508D01*
X632610Y424565D01*
X632433Y424625D01*
X632258Y424691D01*
X632084Y424760D01*
X631912Y424834D01*
X631742Y424912D01*
X631574Y424994D01*
X631408Y425080D01*
X631244Y425170D01*
X631083Y425264D01*
X630923Y425362D01*
X630767Y425464D01*
X630612Y425570D01*
X630461Y425680D01*
X630312Y425793D01*
X630166Y425910D01*
X630023Y426030D01*
X629883Y426154D01*
X629746Y426281D01*
X629612Y426412D01*
X629481Y426546D01*
X629354Y426683D01*
X629230Y426823D01*
X629110Y426966D01*
X628993Y427112D01*
X628880Y427261D01*
X628770Y427412D01*
X628664Y427567D01*
X628562Y427723D01*
X628464Y427883D01*
X628370Y428044D01*
X628280Y428208D01*
X628194Y428374D01*
X628112Y428542D01*
X628034Y428712D01*
X627960Y428884D01*
X627891Y429058D01*
X627825Y429233D01*
X627765Y429410D01*
X627708Y429588D01*
X627656Y429768D01*
X627608Y429948D01*
X627565Y430130D01*
X627526Y430313D01*
X627492Y430497D01*
X627462Y430682D01*
X627437Y430867D01*
X627417Y431053D01*
X627401Y431239D01*
X627389Y431426D01*
X627382Y431613D01*
X627380Y431800D01*
D15*
X635000Y431800D03*
D14*
X81280Y38100D02*
X81282Y38287D01*
X81289Y38474D01*
X81301Y38661D01*
X81317Y38847D01*
X81337Y39033D01*
X81362Y39218D01*
X81392Y39403D01*
X81426Y39587D01*
X81465Y39770D01*
X81508Y39952D01*
X81556Y40132D01*
X81608Y40312D01*
X81665Y40490D01*
X81725Y40667D01*
X81791Y40842D01*
X81860Y41016D01*
X81934Y41188D01*
X82012Y41358D01*
X82094Y41526D01*
X82180Y41692D01*
X82270Y41856D01*
X82364Y42017D01*
X82462Y42177D01*
X82564Y42333D01*
X82670Y42488D01*
X82780Y42639D01*
X82893Y42788D01*
X83010Y42934D01*
X83130Y43077D01*
X83254Y43217D01*
X83381Y43354D01*
X83512Y43488D01*
X83646Y43619D01*
X83783Y43746D01*
X83923Y43870D01*
X84066Y43990D01*
X84212Y44107D01*
X84361Y44220D01*
X84512Y44330D01*
X84667Y44436D01*
X84823Y44538D01*
X84983Y44636D01*
X85144Y44730D01*
X85308Y44820D01*
X85474Y44906D01*
X85642Y44988D01*
X85812Y45066D01*
X85984Y45140D01*
X86158Y45209D01*
X86333Y45275D01*
X86510Y45335D01*
X86688Y45392D01*
X86868Y45444D01*
X87048Y45492D01*
X87230Y45535D01*
X87413Y45574D01*
X87597Y45608D01*
X87782Y45638D01*
X87967Y45663D01*
X88153Y45683D01*
X88339Y45699D01*
X88526Y45711D01*
X88713Y45718D01*
X88900Y45720D01*
X89087Y45718D01*
X89274Y45711D01*
X89461Y45699D01*
X89647Y45683D01*
X89833Y45663D01*
X90018Y45638D01*
X90203Y45608D01*
X90387Y45574D01*
X90570Y45535D01*
X90752Y45492D01*
X90932Y45444D01*
X91112Y45392D01*
X91290Y45335D01*
X91467Y45275D01*
X91642Y45209D01*
X91816Y45140D01*
X91988Y45066D01*
X92158Y44988D01*
X92326Y44906D01*
X92492Y44820D01*
X92656Y44730D01*
X92817Y44636D01*
X92977Y44538D01*
X93133Y44436D01*
X93288Y44330D01*
X93439Y44220D01*
X93588Y44107D01*
X93734Y43990D01*
X93877Y43870D01*
X94017Y43746D01*
X94154Y43619D01*
X94288Y43488D01*
X94419Y43354D01*
X94546Y43217D01*
X94670Y43077D01*
X94790Y42934D01*
X94907Y42788D01*
X95020Y42639D01*
X95130Y42488D01*
X95236Y42333D01*
X95338Y42177D01*
X95436Y42017D01*
X95530Y41856D01*
X95620Y41692D01*
X95706Y41526D01*
X95788Y41358D01*
X95866Y41188D01*
X95940Y41016D01*
X96009Y40842D01*
X96075Y40667D01*
X96135Y40490D01*
X96192Y40312D01*
X96244Y40132D01*
X96292Y39952D01*
X96335Y39770D01*
X96374Y39587D01*
X96408Y39403D01*
X96438Y39218D01*
X96463Y39033D01*
X96483Y38847D01*
X96499Y38661D01*
X96511Y38474D01*
X96518Y38287D01*
X96520Y38100D01*
X96518Y37913D01*
X96511Y37726D01*
X96499Y37539D01*
X96483Y37353D01*
X96463Y37167D01*
X96438Y36982D01*
X96408Y36797D01*
X96374Y36613D01*
X96335Y36430D01*
X96292Y36248D01*
X96244Y36068D01*
X96192Y35888D01*
X96135Y35710D01*
X96075Y35533D01*
X96009Y35358D01*
X95940Y35184D01*
X95866Y35012D01*
X95788Y34842D01*
X95706Y34674D01*
X95620Y34508D01*
X95530Y34344D01*
X95436Y34183D01*
X95338Y34023D01*
X95236Y33867D01*
X95130Y33712D01*
X95020Y33561D01*
X94907Y33412D01*
X94790Y33266D01*
X94670Y33123D01*
X94546Y32983D01*
X94419Y32846D01*
X94288Y32712D01*
X94154Y32581D01*
X94017Y32454D01*
X93877Y32330D01*
X93734Y32210D01*
X93588Y32093D01*
X93439Y31980D01*
X93288Y31870D01*
X93133Y31764D01*
X92977Y31662D01*
X92817Y31564D01*
X92656Y31470D01*
X92492Y31380D01*
X92326Y31294D01*
X92158Y31212D01*
X91988Y31134D01*
X91816Y31060D01*
X91642Y30991D01*
X91467Y30925D01*
X91290Y30865D01*
X91112Y30808D01*
X90932Y30756D01*
X90752Y30708D01*
X90570Y30665D01*
X90387Y30626D01*
X90203Y30592D01*
X90018Y30562D01*
X89833Y30537D01*
X89647Y30517D01*
X89461Y30501D01*
X89274Y30489D01*
X89087Y30482D01*
X88900Y30480D01*
X88713Y30482D01*
X88526Y30489D01*
X88339Y30501D01*
X88153Y30517D01*
X87967Y30537D01*
X87782Y30562D01*
X87597Y30592D01*
X87413Y30626D01*
X87230Y30665D01*
X87048Y30708D01*
X86868Y30756D01*
X86688Y30808D01*
X86510Y30865D01*
X86333Y30925D01*
X86158Y30991D01*
X85984Y31060D01*
X85812Y31134D01*
X85642Y31212D01*
X85474Y31294D01*
X85308Y31380D01*
X85144Y31470D01*
X84983Y31564D01*
X84823Y31662D01*
X84667Y31764D01*
X84512Y31870D01*
X84361Y31980D01*
X84212Y32093D01*
X84066Y32210D01*
X83923Y32330D01*
X83783Y32454D01*
X83646Y32581D01*
X83512Y32712D01*
X83381Y32846D01*
X83254Y32983D01*
X83130Y33123D01*
X83010Y33266D01*
X82893Y33412D01*
X82780Y33561D01*
X82670Y33712D01*
X82564Y33867D01*
X82462Y34023D01*
X82364Y34183D01*
X82270Y34344D01*
X82180Y34508D01*
X82094Y34674D01*
X82012Y34842D01*
X81934Y35012D01*
X81860Y35184D01*
X81791Y35358D01*
X81725Y35533D01*
X81665Y35710D01*
X81608Y35888D01*
X81556Y36068D01*
X81508Y36248D01*
X81465Y36430D01*
X81426Y36613D01*
X81392Y36797D01*
X81362Y36982D01*
X81337Y37167D01*
X81317Y37353D01*
X81301Y37539D01*
X81289Y37726D01*
X81282Y37913D01*
X81280Y38100D01*
D15*
X88900Y38100D03*
D16*
X618490Y38100D03*
X600710Y38100D03*
D17*
X71800Y371100D03*
D18*
X71800Y345700D03*
X97200Y371100D03*
X97200Y345700D03*
X122600Y371100D03*
X122600Y345700D03*
X148000Y371100D03*
X148000Y345700D03*
X173400Y371100D03*
X173400Y345700D03*
X198800Y371100D03*
X198800Y345700D03*
X224200Y371100D03*
X224200Y345700D03*
X249600Y371100D03*
X249600Y345700D03*
X275000Y371100D03*
X275000Y345700D03*
X300400Y371100D03*
X300400Y345700D03*
X325800Y371100D03*
X325800Y345700D03*
X351200Y371100D03*
X351200Y345700D03*
X376600Y371100D03*
X376600Y345700D03*
X402000Y371100D03*
X402000Y345700D03*
X427400Y371100D03*
X427400Y345700D03*
X452800Y371100D03*
X452800Y345700D03*
X478200Y371100D03*
X478200Y345700D03*
X503600Y371100D03*
X503600Y345700D03*
D17*
X71800Y117100D03*
D18*
X71800Y91700D03*
X97200Y117100D03*
X97200Y91700D03*
X122600Y117100D03*
X122600Y91700D03*
X148000Y117100D03*
X148000Y91700D03*
X173400Y117100D03*
X173400Y91700D03*
X198800Y117100D03*
X198800Y91700D03*
X224200Y117100D03*
X224200Y91700D03*
X249600Y117100D03*
X249600Y91700D03*
X275000Y117100D03*
X275000Y91700D03*
X300400Y117100D03*
X300400Y91700D03*
X325800Y117100D03*
X325800Y91700D03*
X351200Y117100D03*
X351200Y91700D03*
X376600Y117100D03*
X376600Y91700D03*
X402000Y117100D03*
X402000Y91700D03*
X427400Y117100D03*
X427400Y91700D03*
X452800Y117100D03*
X452800Y91700D03*
X478200Y117100D03*
X478200Y91700D03*
X503600Y117100D03*
X503600Y91700D03*
D19*
X591000Y323850D03*
X591000Y298450D03*
X591000Y273050D03*
X591000Y247650D03*
X591000Y222250D03*
X591000Y196850D03*
X591000Y171450D03*
X591000Y146050D03*
X679000Y146050D03*
X679000Y171450D03*
X679000Y196850D03*
X679000Y222250D03*
X679000Y247650D03*
X679000Y273050D03*
X679000Y298450D03*
X679000Y323850D03*
M02*
